<svg xmlns="http://www.w3.org/2000/svg" viewBox="0 0 170.94 524.22"><defs><style>.cls-1{fill:#fff;}</style></defs><g id="Layer_2" data-name="Layer 2"><g id="Layer_1-2" data-name="Layer 1"><path class="cls-1" d="M6.93,8.92C5.44,5.67,1,7.77.18,10.44c-1.16,3.89,3.63,6,6.57,6.77a117.62,117.62,0,0,0,28.61,3C55,20.15,74.41,16.7,94,15.6c4.91-.28,9.82-.41,14.73-.3,4.74.1,9.66.74,14.3-.56a12.7,12.7,0,0,0,8.51-7.17,9.28,9.28,0,0,0,.6-2.6,2.26,2.26,0,0,0-1.45-2.59,19.55,19.55,0,0,0-5.85-2C116-1.13,107.21,2.12,98.68,3.89A132.66,132.66,0,0,1,68.6,6.61c-9.68-.22-19.2-1.83-28.79-2.93-9.06-1-18.41-1.53-27.31.84A43.52,43.52,0,0,0,6.15,6.76c-1.76.77-.23,3.36,1.52,2.59C22.53,2.86,39.39,6.77,54.81,8.6a142.27,142.27,0,0,0,50.44-3.14c7.9-1.91,17.07-4.42,24.63-.09l-.75-1.3c.08,3.85-3.26,6.7-6.7,7.72-4.49,1.32-9.35.6-14,.5a245.81,245.81,0,0,0-28.32,1.4c-18.7,1.8-37.51,4.59-56.34,3.14A103.84,103.84,0,0,1,8.23,14.48C6.59,14.1,4,13.65,3.2,12a1,1,0,0,1,.41-1.39,1.25,1.25,0,0,1,.64-.29c.18,0-.1-.26.09.17.81,1.75,3.39.23,2.59-1.52Z"/><path class="cls-1" d="M12,17.2c7.09,6.29,8.78,16.23,10.68,25.05,2.39,11.17,4.77,22.36,6.88,33.59,4.27,22.66,7.47,45.62,7.49,68.72,0,12.74-1.08,25.6,1.57,38.17.39,1.89,3.29,1.09,2.89-.8-2.38-11.33-1.59-23-1.47-34.45a293.56,293.56,0,0,0-1.84-34.82C35.72,89.56,31,66.78,26.16,44.08c-2.16-10.1-3.85-21.76-12-29-1.44-1.28-3.57.83-2.12,2.12Z"/><path class="cls-1" d="M118.92,14c-7.65,5-10.36,14.29-11.63,22.87a131.79,131.79,0,0,0-1,16c-.15,6.15-.33,12.29-.5,18.44-.68,24.75-1.27,49.53-.14,74.27.63,14,1.84,27.94,3.81,41.8.27,1.9,3.16,1.1,2.9-.8-3.42-24-4.38-48.27-4.35-72.5,0-12.13.29-24.26.61-36.38q.24-9,.49-18l.24-9.09c.07-2.83,0-5.73.25-8.54.93-9,2.59-20.17,10.8-25.54,1.61-1,.11-3.65-1.52-2.59Z"/><path class="cls-1" d="M41.6,186.25A171.05,171.05,0,0,1,91.45,176q7.24-.37,14.5-.14c1.93.06,1.93-2.94,0-3a173.87,173.87,0,0,0-51.11,6c-4.74,1.29-9.43,2.8-14,4.49-1.8.66-1,3.56.8,2.89Z"/><path class="cls-1" d="M42.68,182.92c-1,3.55,2.2,5.86,5.18,6.87a25.22,25.22,0,0,0,5.73.94q3.66.36,7.33.54a143.09,143.09,0,0,0,29-1.63,140.39,140.39,0,0,0,16.22-3.55,1.5,1.5,0,0,0-.8-2.89,140.47,140.47,0,0,1-52,4.51,16.91,16.91,0,0,1-5.54-1.15c-1.13-.52-2.63-1.41-2.24-2.85a1.5,1.5,0,0,0-2.89-.79Z"/><path class="cls-1" d="M39.85,184.37c-6.72-2.64-14.21,1.94-17.38,7.89-4.11,7.7-3,17.09-2.72,25.47l1.93,58.52,1,29.13.48,14.69c.16,4.65,0,9.44.7,14.05a15,15,0,0,0,5.46,9.7,34,34,0,0,0,9.55,5.05c8,3.06,16.23,5.84,24.51,8.13,16.12,4.45,33.76,7,49.93,1.4a59.68,59.68,0,0,0,5.75-2.34c1.75-.82.22-3.41-1.52-2.59-14.87,6.95-31.73,5.86-47.32,2.19a228.74,228.74,0,0,1-23.87-7.27,103.93,103.93,0,0,1-10.25-3.91c-3-1.41-5.95-3.25-7.7-6.14-2.19-3.63-1.91-8.21-2-12.29l-.46-13.95L25,284.22l-1.84-55.53-.46-13.94a93.74,93.74,0,0,1,0-12.43c.68-6.83,4.25-14.52,11.83-15.64a8.81,8.81,0,0,1,4.54.58c1.79.71,2.57-2.19.79-2.89Z"/><path class="cls-1" d="M111.72,187.05c4-2.76,9.54-.21,12,3.53,3.36,5.17,3.09,11.86,3.27,17.77L128.34,251l1.36,42.39.67,21.2c.1,3,.08,6.07.34,9.08.18,2.15.44,4.3.49,6.47.16,6.65-1.7,13-6.37,17.87a33.25,33.25,0,0,1-12.66,7.9c-1.8.67-1,3.57.8,2.9a38.75,38.75,0,0,0,12.26-7,26,26,0,0,0,8.64-15.88c.72-5.06-.14-10-.3-15.07l-.72-22.44q-1.42-44.88-2.87-89.77c-.22-6.9.05-14.94-4.51-20.65-3.48-4.37-10.29-6.89-15.26-3.49-1.59,1.08-.09,3.68,1.51,2.59Z"/><path class="cls-1" d="M41.68,181.25c-2.39,4.65,2.47,8.28,6.32,9.79a65,65,0,0,0,8.64,2.3q4.7,1.11,9.42,2.07c10,2,20.65,4.32,30.8,2.22a22.18,22.18,0,0,0,13-7.46l-2.36-1.81c-3.65,5.3-10.53,6.47-16.53,5.87-7.48-.74-14.07-4.67-20.75-7.8A50,50,0,0,0,57.14,182c-1.58-.26-2.73,1.84-1.15,2.74l9.76,5.62a1.5,1.5,0,0,0,1.52-2.59l-6.73-4.23-1.15,2.74,8.93,3.49a1.5,1.5,0,0,0,1.84-1.05A11.31,11.31,0,0,0,69,181.05l-1.7,2.21a43.43,43.43,0,0,1,11.59,6.93l1.82-2.36a4.35,4.35,0,0,1-1.8-3.05l-1.84,1.85a29.88,29.88,0,0,1,8.44,3.81,1.51,1.51,0,0,0,2.25-1.3l.43-5.33-2.56,1.06,6,7a1.51,1.51,0,0,0,2.35-.31,8.89,8.89,0,0,0-2.31-11.76c-1.26-.95-2.72.85-2,2.05a23.35,23.35,0,0,1,2.66,7.73L95,188.39c-3.7-5.49-11.12-3.19-16.5-2.47a62.59,62.59,0,0,1-23.61-1.4v2.9a120.72,120.72,0,0,1,46.46-4.94,1.52,1.52,0,0,0,1.5-1.5l0-4.62a1.51,1.51,0,0,0-3-.4l-2,8.73,2.51-.66a6.55,6.55,0,0,0-5.89-1.89c-2.48.33-4.49,1.67-6.55,3a11.64,11.64,0,0,1-7.46,2.12A30.14,30.14,0,0,1,72,184.76c-1.8-.71-2.58,2.19-.8,2.9,4.88,1.94,10.37,3.81,15.49,1.61,3-1.28,8.46-6.71,11.65-3.12a1.51,1.51,0,0,0,2.5-.66l2-8.73-2.95-.4,0,4.62,1.5-1.5a123.09,123.09,0,0,0-47.26,5,1.52,1.52,0,0,0,0,2.9,65.44,65.44,0,0,0,22,1.76c3.18-.29,6.29-1.05,9.46-1.3,2.36-.18,5.34-.17,6.82,2a1.51,1.51,0,0,0,2.74-1.15,25.42,25.42,0,0,0-3-8.45l-2,2A5.86,5.86,0,0,1,91.39,190l2.36-.31-6-6.95c-.92-1.07-2.47-.12-2.56,1.06l-.43,5.33L87,187.85a32.42,32.42,0,0,0-9.16-4.11A1.51,1.51,0,0,0,76,185.58a7.21,7.21,0,0,0,3.18,4.84c1.38,1,3.13-1.26,1.81-2.36a48.4,48.4,0,0,0-12.91-7.7c-1.29-.51-2.26,1.16-1.69,2.21a8,8,0,0,1,.87,5.34l1.84-1-8.93-3.49c-1.63-.64-2.53,1.87-1.15,2.74l6.72,4.23,1.52-2.59-9.77-5.62-1.16,2.74c8.71,1.43,16.18,6.41,24.23,9.7,6.4,2.62,13.84,3.89,20.58,1.77a16.77,16.77,0,0,0,8.92-6.47c1-1.38-1.28-3.15-2.35-1.82-5.37,6.64-14.25,7.73-22.27,7.29a109.76,109.76,0,0,1-14.09-2q-8.41-1.56-16.74-3.62c-2.62-.65-5.37-1.15-7.71-2.57-1.43-.87-3.61-2.53-2.64-4.42.88-1.72-1.71-3.24-2.59-1.52Z"/><path class="cls-1" d="M40.53,326.18l7.16,3.27a1.54,1.54,0,0,0,2.05-.53,1.52,1.52,0,0,0-.53-2.06,31.49,31.49,0,0,1-10.92-8.75l-.3,2.36,12.77-7.6a1.51,1.51,0,0,0-.76-2.79L46,310a1.52,1.52,0,0,0-1.5,1.5l-.24,10.38c0,1.93,3,1.93,3,0l.24-10.38L46,313l4,.08-.75-2.8-12.78,7.6a1.53,1.53,0,0,0-.3,2.36,33.62,33.62,0,0,0,11.52,9.21l1.52-2.59L42,323.59a1.54,1.54,0,0,0-2,.54,1.5,1.5,0,0,0,.54,2.05Z"/><path class="cls-1" d="M48.69,299.37c.07-3.35-3.3-6.55-6.71-5.84-1.64.34-1.84,2.76-1.58,4.11a6,6,0,0,0,1.76,3.06,8.24,8.24,0,0,0,7.39,2.18c2.82-.65,4.78-3.34,5.51-6a14.94,14.94,0,0,0-1.14-10,1.51,1.51,0,0,0-2.05-.53,1.54,1.54,0,0,0-.54,2.05,12.91,12.91,0,0,1,1.15,5,8.11,8.11,0,0,1-1.22,4.75,5.18,5.18,0,0,1-1.52,1.5,1.88,1.88,0,0,1-.78.33,2.68,2.68,0,0,1-.49.11c.26,0,0,0,0,0l-.37,0h-.51l-.29,0c.25,0,0,0,0,0a6.75,6.75,0,0,1-1.15-.31l-.28-.11c.07,0,.22.11,0,0a4,4,0,0,1-.46-.24c-.15-.08-.29-.17-.44-.27l-.23-.17c.19.15-.06,0-.09-.08l-.46-.43-.18-.21c-.18-.21,0,.06-.06-.08a4.33,4.33,0,0,1-.31-.51l-.09-.18c-.07-.15.06.21,0-.06l-.07-.25s-.08-.39-.05-.18,0,0,0-.06a2.41,2.41,0,0,0,0-.38s0-.25,0-.07,0-.16,0-.19,0-.18.08-.27c.1-.29-.08.14.08-.18l-.9.69a2.45,2.45,0,0,1,1,.14,2.9,2.9,0,0,1,1,.6,2.72,2.72,0,0,1,1,2.18c0,1.93,3,1.93,3,0Z"/><path class="cls-1" d="M41.75,283l13.11-3.33a1.51,1.51,0,0,0-.39-2.95c-2.76,0-6.33,0-8.47-1.81a5.14,5.14,0,0,1-1.71-2.75,2.53,2.53,0,0,1-.1-.59c0-.16,0-.33,0-.49,0,0,.06-.47,0-.25a3,3,0,0,1,.22-.77c-.08.18.14-.23.14-.22s.26-.35.16-.24a1.54,1.54,0,0,0,0-2.12,1.51,1.51,0,0,0-2.12,0c-2.33,2.77-1.51,6.75.9,9.2,2.82,2.86,7.22,3,11,3l-.4-2.94L41,280.08c-1.87.48-1.08,3.37.8,2.9Z"/><path class="cls-1" d="M41.78,261.2a7.16,7.16,0,0,0,6.94,1.71,6.7,6.7,0,0,0,4.68-5.22,7.33,7.33,0,0,0-.22-3.66,4.19,4.19,0,0,0-1.26-2c-.55-.41-1.12-.8-1.7-1.15-2.2-1.3-5.49-2.09-7.37.18-1.64,2-1.7,5.25,1,6.27a1.5,1.5,0,0,0,1.84-1.05,1.53,1.53,0,0,0-1-1.84c.42.16.09,0,0,0s-.1-.06,0,0,.11.09,0,0c-.14-.25-.15.06,0,0,0,0-.09-.22-.12-.21s.11.38,0,0c0-.06-.07-.32,0-.06s0-.05,0-.11,0-.16,0-.23c0-.31-.07.3,0,0,0-.1,0-.19.08-.28a2.29,2.29,0,0,1,.09-.28s-.15.32,0,0a1.35,1.35,0,0,1,.15-.26c.05-.08.21-.17.05-.08s-.07.1,0,0a.52.52,0,0,1,.1-.11l.1-.1c.1-.09.1-.09,0,0h0l.08-.05.25-.14s-.33.11,0,0c0,0,.39-.08.16-.05a3.62,3.62,0,0,1,.93,0c-.21,0,.06,0,.14,0l.46.13a7.21,7.21,0,0,1,1.47.71c.57.34,1.1.72,1.64,1.11l-.54-.54c.09.14.18.29.26.44s.2.45.14.27.08.26.09.3a3.25,3.25,0,0,1,.11.42c0,.08.07.54,0,.17,0,.16,0,.33,0,.5v.38c0,.07-.07.61,0,.23a6.31,6.31,0,0,1-.2.86c0,.13-.09.24-.13.36.12-.33-.08.16-.11.22s-.12.22-.19.33-.34.48-.12.21a6.15,6.15,0,0,1-.62.63c-.13.11-.12.11,0,0l-.16.11-.38.23s-.45.22-.28.15-.26.09-.3.1a5.34,5.34,0,0,1-.88.2c.38-.05-.17,0-.24,0h-.39l-.51,0c.36,0-.06,0-.11,0a6.5,6.5,0,0,1-.86-.25c.33.11-.16-.08-.22-.11l-.34-.19s-.47-.36-.21-.14a4.26,4.26,0,0,1-.38-.35,1.5,1.5,0,0,0-2.13,2.12Z"/><path class="cls-1" d="M105.92,279.52a32.11,32.11,0,0,0,13-4.17,1.5,1.5,0,0,0-1.52-2.59,28.45,28.45,0,0,1-11.47,3.76,1.56,1.56,0,0,0-1.5,1.5,1.5,1.5,0,0,0,1.5,1.5Z"/><path class="cls-1" d="M108.86,277.42a15.92,15.92,0,0,1-2.68-11.15l-2.2.9a7.14,7.14,0,0,1,3.4,3.2,7.36,7.36,0,0,1,.78,2.23,7.55,7.55,0,0,1,0,2.12,1.56,1.56,0,0,0,1,1.85,1.53,1.53,0,0,0,1.85-1.05,10.34,10.34,0,0,0-5.61-10.94c-.77-.36-2-.15-2.2.89a19,19,0,0,0,3,13.47,1.54,1.54,0,0,0,2.06.54,1.52,1.52,0,0,0,.53-2.06Z"/><path class="cls-1" d="M103.15,261l11.53-3.26a1.5,1.5,0,0,0,1.07-1.65,1.48,1.48,0,0,0-1.47-1.3c-2.94.36-6.57.91-9.14-.93a5.09,5.09,0,0,1-1.76-2.56,2.8,2.8,0,0,1-.13-1.49c0,.31,0-.1,0-.16s.08-.28.13-.41c-.1.26.09-.17.12-.23s.3-.41.16-.24a1.55,1.55,0,0,0,0-2.12,1.51,1.51,0,0,0-2.12,0c-2.32,2.81-1.36,6.89,1.25,9.18,3.14,2.75,7.6,2.43,11.45,2l-.4-2.94-11.53,3.25a1.51,1.51,0,0,0,.8,2.9Z"/><path class="cls-1" d="M110.18,244c1.52-3.81-1.31-8.75-5.37-9.34a1.56,1.56,0,0,0-1.31.26,1.45,1.45,0,0,0-.59,1.18,9.05,9.05,0,0,0,8.82,8.5,1.54,1.54,0,0,0,1.5-1.5l.23-6.92a1.52,1.52,0,0,0-1.5-1.5,1.54,1.54,0,0,0-1.5,1.5l-.23,6.92,1.5-1.5-.69,0-.16,0,.14,0c-.1,0-.21,0-.31-.06s-.45-.11-.66-.18l-.3-.1c-.11,0-.4-.08,0,0a3.74,3.74,0,0,1-1.11-.6l-.27-.18-.17-.13.14.1a2.48,2.48,0,0,1-.52-.45c-.16-.15-.31-.3-.45-.46l-.2-.24c-.25-.3.11.17-.06-.08a8.54,8.54,0,0,1-.66-1.09c0-.07-.08-.22-.13-.29.07.18.09.22,0,.12l-.06-.15c-.07-.2-.14-.4-.19-.6s-.1-.41-.14-.62,0,.32,0-.08c0-.12,0-.24,0-.37l-1.9,1.45a5.72,5.72,0,0,1,.57.11,2.63,2.63,0,0,0,.54.18l-.1,0,.09,0,.25.14c.17.09.32.2.48.3s-.22-.19,0,0l.22.19.4.4.19.22c.21.24-.16-.24,0,0l.34.53c.09.17.16.35.26.51s-.11-.32,0,0l.1.27a5.62,5.62,0,0,1,.15.55l.06.29c.07.34,0-.17,0,0s0,.38,0,.57,0,.19,0,.29-.07.38,0,.13,0,.07,0,.13,0,.18-.07.28a5.8,5.8,0,0,1-.19.59,1.5,1.5,0,0,0,1,1.84,1.54,1.54,0,0,0,1.85-1Z"/><path class="cls-1" d="M103.07,220.78a8.14,8.14,0,0,0,2.18,7.8,1.51,1.51,0,0,0,2.12,0c.33-.33.66-.66,1-1a9.68,9.68,0,0,1,.9-.77l.54-.36.29-.16a2.44,2.44,0,0,0,.25-.13c-.08,0,.16-.06.19-.07l.31-.1.32-.07c.22-.08-.3,0,.06,0h.53c-.14,0-.16,0,0,0l.26,0,.31.1c.22.06-.19-.1,0,0a4.79,4.79,0,0,1,.45.25c.07,0,.27.23.06,0l.18.18.17.18c-.09-.11-.09-.14,0,0a2.12,2.12,0,0,0,.11.21c-.09-.18,0-.12,0,0s0,.29,0,.1,0,.17,0,.18a1.5,1.5,0,0,0,3,0c.07-2.53-2.33-4.23-4.66-4.33-2.59-.12-4.7,1.83-6.38,3.54h2.12a3.72,3.72,0,0,1-.82-1,7.3,7.3,0,0,1-.36-.68c.1.22-.07-.21-.07-.21l-.12-.37a6.69,6.69,0,0,1-.16-.75c0-.26,0,.33,0-.13,0-.13,0-.26,0-.39a4.83,4.83,0,0,1,0-.76c0-.16,0,.12,0-.14s.07-.3.11-.45a1.5,1.5,0,0,0-2.9-.79Z"/><path class="cls-1" d="M103.76,208.73c-.87,2.91,2.49,4.92,5,4.33,2.88-.67,3.82-4,4.25-6.51l-2.51.66c-.07-.08,0-.05.07.09l.19.27.28.41q.32.48.6,1a13.52,13.52,0,0,1,.88,1.88,15.54,15.54,0,0,1,.65,2.21,11.25,11.25,0,0,1,.29,2.05,1.5,1.5,0,0,0,3,0,18.16,18.16,0,0,0-3.84-10,1.5,1.5,0,0,0-2.5.66,14.5,14.5,0,0,1-.73,2.9c.06-.14,0-.08,0,0s-.12.24-.19.36-.11.2-.17.3-.18.24,0,.08c-.14.17-.31.33-.47.49s.19-.08-.13.09l-.24.14c-.13.08.29-.06,0,0-.06,0-.35.12-.13,0s-.06,0-.13,0a1.31,1.31,0,0,0-.28,0c-.15,0,.28.06,0,0a1.67,1.67,0,0,1-.32-.08c-.05,0-.35-.11-.14,0s-.1-.06-.12-.07l-.23-.14c-.15-.06.2.2,0,0s-.13-.14-.18-.18.2.23,0,0c0,0-.22-.41,0,0,0-.05-.08-.34,0-.08s0-.1,0-.1-.09.38,0,0a1.51,1.51,0,0,0-1-1.84,1.53,1.53,0,0,0-1.85,1Z"/><path class="cls-1" d="M26.35,409.7q2.17,33.45,4.37,66.91c.61,9.37.78,19.22,5.41,27.66,4.38,8,12.23,13.57,20.62,16.75,9.5,3.61,19.7,3.68,29.67,2.57,9.81-1.1,19.63-3.44,29.53-3,8.31.37,18.61,1.82,25.08-4.73,5.32-5.38,5.6-13.67,5.75-20.77.49-22.26.27-44.54-.45-66.8q-.14-4.1-.29-8.19c-.08-1.92-3.08-1.93-3,0,.81,21.51,1.18,43,.92,64.56-.06,4.81-.05,9.64-.3,14.45a31.32,31.32,0,0,1-1.93,10.28,12.75,12.75,0,0,1-7.07,7.12c-4.09,1.62-8.61,1.58-12.93,1.39a94.1,94.1,0,0,0-13.22-.18c-4.92.46-9.79,1.2-14.68,1.9-9.55,1.36-19.38,2.57-28.94.63-8.8-1.79-17.39-6.1-23.19-13.09-6-7.24-7.1-16.63-7.68-25.68q-2-31.92-4.15-63.82l-.52-8c-.13-1.92-3.13-1.93-3,0Z"/><path class="cls-1" d="M146.61,441.75a10.77,10.77,0,0,1,3.16-9.41,10,10,0,0,1,9.39-2.44,10.58,10.58,0,0,1,7.54,6.78c1.36,3.7,1.27,7.75,1.21,11.63l-.51,29.5c-.07,4.32.37,9.11-1,13.27-1,2.86-4.32,6.36-7.57,4.82a5.5,5.5,0,0,1-2.17-2.47,63,63,0,0,1-2.71-5.69q-3-6.86-5.91-13.79c-.72-1.76-3.63-1-2.89.8q2.94,7.11,6,14.14c1.35,3.05,2.63,7.2,5.5,9.22,3.16,2.23,7.46.81,10-1.75,3.44-3.53,3.61-8.71,3.69-13.34q.3-17,.58-34c.08-4.5.23-9.26-1.43-13.53a13.65,13.65,0,0,0-8.82-8.33A13.19,13.19,0,0,0,147.91,430a13.86,13.86,0,0,0-4.19,12.57c.34,1.9,3.23,1.1,2.89-.8Z"/><path class="cls-1" d="M146.74,443.93a6.32,6.32,0,0,1,7.95-7.07c5.35,1.54,5.09,7.87,5,12.34q-.17,9.23-.32,18.46c0,2.7.22,5.67-.54,8.29-.48,1.67-2.44,4.25-4.4,3.23a3.85,3.85,0,0,1-1.31-1.63c-.62-1.14-1.13-2.34-1.65-3.52-1.32-3-2.59-5.94-3.83-8.94-.73-1.76-3.63-1-2.89.8q2,4.85,4.13,9.65c.9,2,1.8,4.82,3.81,6.09,2.27,1.44,5.19.53,7-1.25,2.38-2.36,2.58-5.87,2.64-9q.21-11.57.39-23.13c.05-3,0-6.14-1.2-9a9.3,9.3,0,0,0-17.67,5.46c.32,1.9,3.21,1.1,2.89-.8Z"/><path class="cls-1" d="M32.45,452.88c9.94-10.26,25.51-9.42,38.31-6.47,7.81,1.81,15.49,4.25,23.46,5.32a68.84,68.84,0,0,0,44.91-9.51c1.65-1,.14-3.6-1.51-2.59a66.15,66.15,0,0,1-42.72,9.19c-15.08-1.95-29.49-9.05-45-7.09-7.31.92-14.4,3.66-19.6,9-1.35,1.38.77,3.51,2.12,2.12Z"/><path class="cls-1" d="M83,189.33l-1.33-1-1.81,2.35a44.68,44.68,0,0,0,6.38,3.73c1.46.7,3.14-1.12,1.82-2.35l-5.79-5.41-2.12,2.12c2.83,2.62,5.72,5.15,9.4,6.5,1.16.43,2.49-1.17,1.69-2.2l-5.19-6.74-2.35,1.82a51.12,51.12,0,0,0,9.31,6c1.25.62,2.94-.71,2-2.05a34,34,0,0,0-6.35-7.24c-1.45-1.24-3.55.78-2.12,2.12,2.77,2.59,5.63,5.1,9.28,6.33,1.48.5,2.45-1.47,1.46-2.51a80.46,80.46,0,0,1-5.47-6.34l-2.05,2.05L96,190.63c1.39.93,3.49,2.24,4.88.55a1.55,1.55,0,0,0,0-2.12l-7.06-8.39-2.12,2.13a36.41,36.41,0,0,0,8,6.9,1.51,1.51,0,0,0,2-2.06A60.15,60.15,0,0,0,97,180.56l-2.12,2.13L99,186.51c1.14,1.05,2.26,2.33,3.94,2.25a1.51,1.51,0,0,0,1.29-2.25l-4.5-7.62-2.36,1.82,3.77,4.55c1,1.27,1.86,2.61,3.61,2.78,1.21.11,1.75-1.34,1.29-2.26a67.66,67.66,0,0,0-3.46-6.09l-2.35,1.82,5.24,6.37a1.51,1.51,0,0,0,2.51-1.46,37.77,37.77,0,0,0-3.71-7.48,1.5,1.5,0,0,0-2.59,1.51,32.63,32.63,0,0,0,4.56,6.5c1.07,1.19,2.77-.1,2.5-1.46a22.47,22.47,0,0,0-2.84-7.36c-1-1.68-3.38-.21-2.59,1.52a27.8,27.8,0,0,0,3.83,6c1.16,1.4,3-.39,2.36-1.82a51.77,51.77,0,0,0-3.58-6.54,1.5,1.5,0,0,0-2.74,1.15,7.71,7.71,0,0,0,2.51,4.39,1.5,1.5,0,0,0,2.12-2.12l-4.67-5.22L101.66,178a18.85,18.85,0,0,1,3.8,1.27c1.72.8,3.2-1.58,1.51-2.59a5.14,5.14,0,0,1-1.87-1.89L103.41,177a4.05,4.05,0,0,1,2.4,1.56l2.12-2.12a2.11,2.11,0,0,1-.51-.8c-.63-1.8-3.46-1.07-2.89.8l1.64,5.39a1.5,1.5,0,0,0,2.89-.8,31.8,31.8,0,0,1-.68-5l-2.8.75a31.48,31.48,0,0,1,1.78,5.84l2.74-1.15a10.61,10.61,0,0,1-1.42-3,1.5,1.5,0,0,0-2.94.4l-.13,7.3h3v-4.11l-2.8.75a28.23,28.23,0,0,1,1.43,3.74l2.74-1.15-1.74-3.52c-.72-1.46-2.67-.59-2.79.76a6.82,6.82,0,0,1-5.95,5.91c-1.25.18-1.26,1.75-.66,2.51a5.5,5.5,0,0,0,4.39,2.06,1.51,1.51,0,0,0,.75-2.79c-2.54-1.31-7-2.43-9.32-.13a2.89,2.89,0,0,0-.19,4c1.22,1.43,3,1.37,4.73,1.1a1.51,1.51,0,0,0,.36-2.74,11,11,0,0,0-5.76-.91c-1,.12-2.08,1.24-1.3,2.26a4,4,0,0,0,3.7,1.75,1.5,1.5,0,0,0,.4-2.94,21.18,21.18,0,0,0-5.06-1.37,1.52,1.52,0,0,0-1.7,2.2A5.24,5.24,0,0,0,95.6,196a1.51,1.51,0,0,0,.66-2.5,6.44,6.44,0,0,0-2.07-1.59L93,194.68c1.81.52,4.92,1.47,6.61.23,1.86-1.37,1.14-3.72,0-5.25l-2.06,2.05a11.06,11.06,0,0,0,3.28,1.2c.87.16,2-.4,1.9-1.45a8.2,8.2,0,0,0-1.09-3.5l-2.36,1.82c1.38,1.55,4,2,5.48.29a3.12,3.12,0,0,0-.87-4.72,1.52,1.52,0,0,0-2.2,1.69c.29,2.09,2.71,3.67,4.65,2.51a2.92,2.92,0,0,0,.48-4.61,1.51,1.51,0,0,0-2.35.3,2.88,2.88,0,0,0,2.44,4.21l-1.06-2.56q-3.26,2.88-6.35,5.92c-1.28,1.25.33,3.07,1.81,2.36,2.69-1.29,7.7-3.35,6.71-7.15a1.52,1.52,0,0,0-2.51-.66A8,8,0,0,1,94.17,186c-.77-1-3-.91-2.79.76a4.2,4.2,0,0,0,2.18,3.41c1.46.78,3.09-1.15,1.82-2.36a50,50,0,0,0-7.81-6.1,1.51,1.51,0,0,0-1.82,2.36l2.79,2.85c1.35,1.38,3.42-.71,2.12-2.12a17.34,17.34,0,0,0-5.78-4.14,1.52,1.52,0,0,0-2.2,1.7,5.65,5.65,0,0,0,3.67,4.2l.79-2.89-5.26-2c-1.55-.6-2.3,1.48-1.46,2.51a14.37,14.37,0,0,0,3.58,3.1l1.51-2.59a19.35,19.35,0,0,0-7.38-2.23c-1.59-.16-1.89,2-.76,2.79a21.77,21.77,0,0,0,5.31,2.53A1.51,1.51,0,0,0,83.84,185c-1.64-1-3.3-1.88-5-2.74l-1.51,2.59,3.28,1.51.75-2.8a10.85,10.85,0,0,1-3.32-1l-1.15,2.74c2.26.4,4.86.78,6.91-.55,2.64-1.71.28-4-1-5.71l-1.82,2.36a36.53,36.53,0,0,0,5.38,2.6A1.52,1.52,0,0,0,88,181.77a21.77,21.77,0,0,0-2.68-3.15l-1.46,2.51a43.71,43.71,0,0,1,5,1.72c1.23.51,2.36-1.17,1.7-2.2A20,20,0,0,0,88,177.47l-1.82,2.36,5.23,3.11c1.42.84,3.16-1.25,1.81-2.36l-3.78-3.13-1.82,2.35,4.84,2.08a1.51,1.51,0,0,0,1.82-2.35l-2.43-2.89L90,179l4.56,2.12c1.25.58,2.93-.68,2.05-2.06l-1.47-2.27-2.05,2.05a33.6,33.6,0,0,0,4.59,1.58,1.52,1.52,0,0,0,1.69-2.2l-.89-1.91-2,2.05,2.31,1.13a1.51,1.51,0,0,0,2-2.05,6,6,0,0,0-1.46-1.78,1.52,1.52,0,0,0-2.56,1.06,6.38,6.38,0,0,0,.21,1.9l1.84-1.84a13.83,13.83,0,0,0-7.43-.48,2.47,2.47,0,0,0-1.84,1.93c-.22,1.3.6,1.9,1,3l1.45-1.89c-1.84-.12-4.16-.59-5.72.69a3,3,0,0,0-.34,4.35c1.35,1.39,3.47-.73,2.12-2.12.27.28-.16,0,.36,0a8.26,8.26,0,0,1,1.11-.06c.82,0,1.65.1,2.47.16a1.51,1.51,0,0,0,1.44-1.9c-.14-.37-.41-1.29-.8-1.5-.14-.32-.3-.22-.49.29l.41-.08a4.82,4.82,0,0,0,1.13-.08,13.13,13.13,0,0,1,4.31.63,1.51,1.51,0,0,0,1.84-1.84,3.46,3.46,0,0,1-.1-1.11l-2.56,1.06a4,4,0,0,1,1,1.17l2.05-2L98,175.77a1.52,1.52,0,0,0-2.06,2l.89,1.91,1.69-2.2a27.84,27.84,0,0,1-3.87-1.28c-1.24-.53-3,.65-2,2.05l1.47,2.28,2-2.05-4.55-2.12a1.51,1.51,0,0,0-1.82,2.36l2.42,2.88L94,179.29l-4.83-2.08c-1.41-.6-3.26,1.17-1.82,2.36l3.78,3.13,1.82-2.35-5.23-3.11a1.5,1.5,0,0,0-1.81,2.35A16.94,16.94,0,0,1,88,182.16l1.69-2.2a43.76,43.76,0,0,0-5-1.73,1.51,1.51,0,0,0-1.46,2.51,17.28,17.28,0,0,1,2.21,2.55l1.69-2.21a31.45,31.45,0,0,1-4.66-2.29c-1.56-.93-2.82,1.09-1.81,2.35.29.37.76,1.32,1.17,1.48.13.27.24.22.31-.16.25-.33.25-.4,0-.22a8.83,8.83,0,0,0-.89.33,9.39,9.39,0,0,1-3.54-.18c-1.54-.27-2.79,1.94-1.15,2.74a15.48,15.48,0,0,0,4.83,1.44c1.47.2,2.07-2.19.76-2.79l-3.28-1.51c-1.73-.79-3.26,1.71-1.51,2.59s3.36,1.77,5,2.74l1.15-2.75a18.72,18.72,0,0,1-4.59-2.22l-.76,2.8A15.4,15.4,0,0,1,84,187.25a1.5,1.5,0,0,0,1.51-2.59,12.06,12.06,0,0,1-3-2.64l-1.46,2.51,5.27,2c1.8.69,2.57-2.2.79-2.89a2.66,2.66,0,0,1-1.57-2.11l-2.2,1.69a15.21,15.21,0,0,1,5.17,3.67l2.12-2.12L87.87,182l-1.82,2.36a45,45,0,0,1,7.21,5.62l1.81-2.36a1.07,1.07,0,0,1-.69-.81l-2.8.75a11.06,11.06,0,0,0,16.07,2l-2.51-.66c.22.87-1.48,1.68-2.06,2q-1.6.94-3.27,1.74l1.82,2.36q3.09-3,6.35-5.93a1.52,1.52,0,0,0-1.06-2.56c.2,0,.25.12.15.3l-2.36.31c.13.1.1-.21.12-.06a6.15,6.15,0,0,1-.24-.75l-2.2,1.69c.16.08.2.19.09.21a1.08,1.08,0,0,1-1.07-.49c-1.14-1.28-3.21.37-2.35,1.82a4.68,4.68,0,0,1,.68,2l1.9-1.44a8.58,8.58,0,0,1-2.56-.9c-1.2-.65-3,.79-2,2.06.21.27.81.87.79,1.25l.13,0c-.28,0-.55,0-.83,0a15.23,15.23,0,0,1-3.28-.64c-1.6-.46-2.71,2-1.16,2.74a4.32,4.32,0,0,1,1.46,1.12l.66-2.51A2.17,2.17,0,0,1,92.44,192l-1.69,2.2a21.05,21.05,0,0,1,5.06,1.37l.4-3a1.12,1.12,0,0,1-1.11-.26l-1.29,2.25a8.12,8.12,0,0,1,4.25.5l.36-2.74c-.24,0-1.68.1-1.66,0s1.12-.36,1.31-.37a8.15,8.15,0,0,1,4.41.95l.76-2.8A2.71,2.71,0,0,1,101,189l-.66,2.51a9.77,9.77,0,0,0,8.15-8.81l-2.8.75,1.74,3.52c.76,1.53,3.24.46,2.75-1.16a34.46,34.46,0,0,0-1.74-4.45c-.65-1.4-2.79-.65-2.79.76v4.11a1.5,1.5,0,0,0,3,0l.13-7.3-2.95.4a13.22,13.22,0,0,0,1.72,3.69,1.51,1.51,0,0,0,2.74-1.16,35.13,35.13,0,0,0-2.08-6.55c-.58-1.38-2.88-.66-2.79.76a37.26,37.26,0,0,0,.79,5.84l2.89-.8-1.64-5.39-2.89.8a5.64,5.64,0,0,0,1.28,2.12c1.37,1.43,3.29-.65,2.12-2.12a6.69,6.69,0,0,0-3.73-2.34,1.52,1.52,0,0,0-1.69,2.21,8.28,8.28,0,0,0,2.95,3l1.51-2.59a22.56,22.56,0,0,0-4.51-1.58,1.51,1.51,0,0,0-1.46,2.51l4.67,5.22,2.12-2.12a5,5,0,0,1-1.74-3.07l-2.74,1.16a53.2,53.2,0,0,1,3.58,6.54l2.35-1.82a24.86,24.86,0,0,1-3.36-5.43l-2.59,1.52a20,20,0,0,1,2.54,6.63l2.51-1.46a29.18,29.18,0,0,1-4.09-5.88l-2.59,1.51a33.79,33.79,0,0,1,3.4,6.77l2.51-1.46-5.24-6.37c-1.08-1.32-3.26.39-2.36,1.82a67.49,67.49,0,0,1,3.46,6.08l1.3-2.25c.33,0,0-.07-.13-.26l-.58-.69-1.57-1.9-3-3.6c-1.1-1.34-3.21.38-2.36,1.81l4.51,7.62,1.3-2.26c-.85,0-2.24-1.76-2.86-2.33L97,180.56c-1.46-1.34-3.28.64-2.12,2.13a55.1,55.1,0,0,1,4.31,6.47l2-2.06a33.35,33.35,0,0,1-7.39-6.43c-1.27-1.46-3.36.66-2.12,2.13l7.06,8.38v-2.12c.2-.24.19-.09-.25-.35-.27-.16-.53-.36-.79-.54l-2.19-1.48-4.19-2.81c-1.19-.8-3,.85-2,2.05a87.28,87.28,0,0,0,5.94,7l1.46-2.51c-3.14-1.06-5.59-3.35-8-5.56l-2.12,2.12a31.46,31.46,0,0,1,5.88,6.63l2-2a47.22,47.22,0,0,1-8.7-5.52c-1.2-1-3.49.34-2.36,1.81l5.19,6.74,1.7-2.2c-3.16-1.16-5.66-3.49-8.08-5.73-1.42-1.31-3.54.8-2.12,2.12L86,194.15l1.82-2.36a45.35,45.35,0,0,1-6.39-3.73c-1.38-1-3.16,1.31-1.82,2.36l1.33,1c1.5,1.18,3.64-.93,2.12-2.12Z"/><path class="cls-1" d="M47.89,187.14a14.27,14.27,0,0,0,3.53.82c1.46.18,2.08-2.19.76-2.79a17.87,17.87,0,0,0-5.78-1.58c-1.69-.18-2,2.55-.4,2.94l6.66,1.62.4-2.94a21.46,21.46,0,0,1-6.37-1.36l-.8,2.89a82,82,0,0,0,12.29,1.6v-3a12.76,12.76,0,0,1-5.77-.76l-.8,2.89a135.22,135.22,0,0,0,15,2.28l-.4-2.94a10.79,10.79,0,0,1-5.62-.62l-.8,2.89q6.07,1.81,12.29,3.07l.79-2.9q-5.53-1-11-2.51c-1.92-.52-2.53,2.18-.8,2.9,4.15,1.72,8.75,2.32,13.14,3.2l.4-3A27.44,27.44,0,0,1,64.46,188l-.8,2.89c4.83,1.71,9.67,3.33,14.81,3.7,1.67.13,2.06-2.62.4-2.94q-7.78-1.51-15.4-3.69a1.51,1.51,0,0,0-1.16,2.74c4.51,2.67,9.9,2.34,14.68,4.21l.4-2.94a44.28,44.28,0,0,1-12.55-2.14l-.4,3A52.7,52.7,0,0,1,73,194.29l.8-2.89q-6.86-1.2-13.62-2.85l-.79,2.89,11.86,2.78a116.29,116.29,0,0,1,11.49,2.89l.79-2.89c-1.26-.42-2.54-.78-3.83-1.08-1.88-.44-2.68,2.45-.8,2.89,1.3.31,2.57.67,3.84,1.08,1.84.62,2.6-2.26.79-2.89A115.4,115.4,0,0,0,72,191.33l-11.87-2.78c-1.87-.44-2.67,2.43-.79,2.89q6.75,1.67,13.61,2.85c1.87.32,2.7-2.4.8-2.89a56.88,56.88,0,0,0-9.34-1.63c-1.75-.17-1.94,2.45-.4,2.94A47.28,47.28,0,0,0,77.39,195c1.8,0,1.89-2.37.4-3-4.51-1.77-9.73-1.41-14-3.91l-1.15,2.74q7.62,2.17,15.4,3.69l.4-2.95c-4.85-.35-9.46-2-14-3.59-1.84-.65-2.57,2.2-.8,2.89a29.79,29.79,0,0,0,11,2c1.64,0,2.1-2.6.4-2.94-4.39-.89-9-1.48-13.14-3.21l-.8,2.9q5.43,1.49,11,2.51c1.88.34,2.7-2.51.79-2.9q-6.21-1.25-12.28-3.06c-1.88-.56-2.57,2.23-.8,2.89a13.76,13.76,0,0,0,7.22.62c1.78-.3,1.15-2.8-.4-2.95a130.66,130.66,0,0,1-14.19-2.17,1.5,1.5,0,0,0-.8,2.89,14.71,14.71,0,0,0,6.57.87,1.5,1.5,0,0,0,0-3,76.54,76.54,0,0,1-11.49-1.49,1.5,1.5,0,0,0-.8,2.89,24.42,24.42,0,0,0,7.17,1.47,1.51,1.51,0,0,0,.4-3l-6.66-1.62-.4,3a13.56,13.56,0,0,1,4.27,1.17l.75-2.8a11.22,11.22,0,0,1-2.73-.72c-1.81-.68-2.59,2.22-.8,2.9Z"/><path class="cls-1" d="M49.3,186.63a34.26,34.26,0,0,0,10.24-1.73l-1.16-2.74c-2.25,1.51-5,1.05-7.5.47l-.39,3c3.42-.38,6.83-.87,10.22-1.49,1.65-.3,1.29-3.17-.39-3a19.58,19.58,0,0,1-6.39-.16l-.4,3q4.57-.12,9.14,0v-3a10.36,10.36,0,0,1-4.55-.92L57,182.73a40.23,40.23,0,0,0,9.1.64,1.5,1.5,0,0,0,0-3,16.51,16.51,0,0,1-5.65-1.07l-.4,2.94c3,.07,6,0,8.95-.22l-.4-3a7.75,7.75,0,0,1-5.22-.34L63,181.47q4.74-.84,9.51-1.39l-.4-3a11.75,11.75,0,0,1-5.21,0l-.4,3c3.53-.05,7.06-.26,10.57-.63l-.4-2.95a27.89,27.89,0,0,1-4.47.28c-1.64,0-2.11,2.67-.4,2.94a26.11,26.11,0,0,0,8.73-.06l-.8-2.89a22.35,22.35,0,0,1-7.39.29c-1.68-.12-2,2.58-.4,2.95a27.74,27.74,0,0,0,10.43.36l-.79-2.89a15.12,15.12,0,0,1-6.89.16l-.4,2.94a71.19,71.19,0,0,0,10.09-1.17c1.4-.26,1.46-2.68,0-2.89l-4.55-.66-.4,2.94c2.5,0,5,0,7.49-.1a1.5,1.5,0,0,0,0-3,7.86,7.86,0,0,1-2.09-.49L84,178.1a29.33,29.33,0,0,0,7.6.48c1.9-.13,1.94-3.09,0-3a2.65,2.65,0,0,1-1.12-.16l-.4,2.94a13,13,0,0,1,6.21,1.35,1.51,1.51,0,0,0,1.82-2.35l-1.77-1.91-.3,2.35a2.69,2.69,0,0,1,2.62-.14c1.8.71,2.57-2.19.8-2.89a5.54,5.54,0,0,0-4.93.44,1.53,1.53,0,0,0-.31,2.36L96,179.48l1.81-2.36a16.14,16.14,0,0,0-7.72-1.76,1.51,1.51,0,0,0-.4,2.95,5,5,0,0,0,1.92.27v-3a26.25,26.25,0,0,1-6.8-.37,1.5,1.5,0,0,0-.8,2.89,10.55,10.55,0,0,0,2.89.6v-3c-2.5.11-5,.15-7.49.1-1.64,0-2.1,2.7-.4,2.95l4.55.66v-2.89a67.4,67.4,0,0,1-9.29,1.06c-1.59.08-2.15,2.7-.4,2.95,2.84.4,5.7.76,8.48-.16a1.5,1.5,0,0,0-.79-2.89,23.9,23.9,0,0,1-8.84-.36l-.4,2.94a24.5,24.5,0,0,0,8.19-.4c1.89-.51,1.07-3.22-.8-2.89a21.87,21.87,0,0,1-7.13.06l-.4,2.95a33.29,33.29,0,0,0,5.27-.38c1.65-.25,1.28-3.13-.4-3-3.51.37-7,.58-10.57.63-1.65,0-2.1,2.57-.4,2.94a15.35,15.35,0,0,0,6.81,0c1.62-.36,1.3-3.14-.4-2.94-3.45.4-6.89.89-10.31,1.5a1.51,1.51,0,0,0-.36,2.74,11,11,0,0,0,7.54.64c1.59-.43,1.33-3.07-.4-2.94-3,.21-6,.29-8.95.22-1.79,0-1.92,2.39-.4,2.95a19.13,19.13,0,0,0,6.45,1.18v-3a36.61,36.61,0,0,1-8.3-.53c-1.54-.28-2.81,2-1.15,2.74a13.64,13.64,0,0,0,6.06,1.33,1.5,1.5,0,0,0,0-3q-4.56-.1-9.14,0c-1.62,0-2.12,2.61-.4,2.95a22.25,22.25,0,0,0,7.19.26l-.4-2.94q-4.7.86-9.43,1.38c-1.56.17-2.18,2.53-.4,2.95,3.25.76,6.87,1.19,9.81-.78,1.34-.89.54-3.3-1.16-2.74a31.29,31.29,0,0,1-9.44,1.62c-1.93,0-1.93,3,0,3Z"/><path class="cls-1" d="M100.31,176.21l0-.1a1.51,1.51,0,0,0-.69-1.69,1.7,1.7,0,0,0-2.6,1.35,1.88,1.88,0,0,0,.85,1.49,3.23,3.23,0,0,0,1.54.23V174.6a60.15,60.15,0,0,0-11.64,4.13c-1.61.77-3.39,2-5.27,1.75s-3.35-1.69-4.67-2.86a1.5,1.5,0,0,0-2.12,2.12,65.5,65.5,0,0,1,4,5.4l1.7-2.2a32,32,0,0,1-7.17-2.52l-1.16,2.75a43.37,43.37,0,0,1,5.76,2c1.62.67,2.54-1.88,1.16-2.74a27.36,27.36,0,0,0-8-3.4,1.52,1.52,0,0,0-1.85,1.85,7.93,7.93,0,0,0,3.39,4.77L75,183a19.27,19.27,0,0,0-5.6-2.24c-1.49-.32-4-.88-4.73,1s1.14,3.42,2.44,4.35a9.73,9.73,0,0,0,5.24,1.76c1.42.07,2.13-2.19.75-2.8l-5.53-2.46a1.5,1.5,0,0,0-1.52,2.59c3.45,2.44,7,4.74,11.35,5.06a1.51,1.51,0,0,0,1.3-2.26,7.08,7.08,0,0,0-4.18-2.78,1.51,1.51,0,0,0-1.46,2.5c2.25,2.21,5.59,4.43,8.84,4.67,1.44.11,3-.77,2.65-2.41a2.91,2.91,0,0,0-1.18-1.64c-.83-.7-1.67-1.38-2.5-2.07l-1.46,2.51L84,189.86c1.22.28,2.73.9,3.82,0a2.43,2.43,0,0,0,.62-2.64,35.69,35.69,0,0,0-1.8-4.12l-2,2.05,5.6,2.76a1.52,1.52,0,0,0,2.2-1.69,7.87,7.87,0,0,0-3-4.33l-1.52,2.59,4.21,2a1.51,1.51,0,0,0,1.81-2.36l-1-1.19-2.12,2.12,3.13,2.86c1.42,1.3,3.55-.82,2.12-2.12L92.93,183a1.5,1.5,0,0,0-2.12,2.12l1,1.19,1.82-2.35-4.2-2a1.5,1.5,0,0,0-1.52,2.59A4.53,4.53,0,0,1,89.52,187l2.2-1.7-5.59-2.76a1.52,1.52,0,0,0-2.06,2.05c.39.88.78,1.75,1.16,2.63a3.37,3.37,0,0,0,.36.86c.11.46.41.21.91-.75l-.72-.16-5.54-1.28c-1.34-.31-2.69,1.49-1.46,2.5l1.43,1.18a5.27,5.27,0,0,0,1.06.89c.55.65.88.3,1-1-.26,0-.52-.12-.78-.19a12.52,12.52,0,0,1-1.35-.44,14.29,14.29,0,0,1-4.91-3.2l-1.46,2.51a3.94,3.94,0,0,1,2.39,1.41l1.29-2.26c-3.72-.28-6.89-2.57-9.83-4.65l-1.52,2.59,5.54,2.46.76-2.79a6.63,6.63,0,0,1-2.92-.82,6.48,6.48,0,0,1-1.24-.91,7,7,0,0,1-.54-.55c-.82.56-1,.83-.52.82a6.85,6.85,0,0,0,1.47.23c.57.13,1.13.28,1.68.46a16.3,16.3,0,0,1,3.2,1.48c1.68,1,3.1-1.52,1.52-2.59a4.81,4.81,0,0,1-2-3l-1.85,1.84a24.74,24.74,0,0,1,7.29,3.1l1.16-2.75a44.85,44.85,0,0,0-5.76-1.95c-1.59-.42-2.72,2-1.15,2.75a35.41,35.41,0,0,0,7.88,2.81,1.51,1.51,0,0,0,1.69-2.2,74.26,74.26,0,0,0-4.42-6l-2.12,2.12A15.17,15.17,0,0,0,81,183.19a8.11,8.11,0,0,0,6-.72,70.54,70.54,0,0,1,13.25-5c1.37-.33,1.49-2.64,0-2.89a8.68,8.68,0,0,1-1.19-.08l.9.69-.1-.2v1.52l.07-.12-1.3.74-.48-.14-.69-1.69,0,.1c-.6,1.84,2.3,2.63,2.89.79Z"/><path class="cls-1" d="M38.84,186.7a2,2,0,0,0,1,.53c.31.05.62.07.93.1l.63,0,.33,0a1.63,1.63,0,0,0,1.14-.47,1.89,1.89,0,0,0,.41-1.75,1.68,1.68,0,0,0-.07-.24,2.65,2.65,0,0,0-.25-.54,4.61,4.61,0,0,0-1.26-1.23l.3.23a5,5,0,0,1-.83-.83l.23.3,0,0,.16.36,0,0,0,.4v-.09l0,.4a4.13,4.13,0,0,1,.17-.45,1.52,1.52,0,0,0-.15-1.16,1.55,1.55,0,0,0-.9-.69,1.52,1.52,0,0,0-1.16.15l-.3.24a1.47,1.47,0,0,0-.39.66,2.48,2.48,0,0,0-.22.89,1.71,1.71,0,0,0,.37,1l.28.35a7.21,7.21,0,0,0,1.1,1l-.31-.23a2.57,2.57,0,0,1,.54.5l-.24-.3a1.24,1.24,0,0,1,.17.27l-.15-.35a1.11,1.11,0,0,1,.07.26l0-.4v.18l0-.4a.12.12,0,0,1,0,.08l.39-.67,0,0,.3-.23h0l.75-.2a2.23,2.23,0,0,1-.36,0l-.4,0c-.25,0-.51,0-.76-.06l.4.06-.21-.05.36.15-.11-.07.31.24,0,0a1.59,1.59,0,0,0-1.07-.44,1.5,1.5,0,0,0-1.06,2.56Z"/><path class="cls-1" d="M42.44,183.11c2.57-2,5.85-3.06,9-3.92a82.65,82.65,0,0,1,10.35-2c3.43-.48,6.91-1,10.36-1.16a34.55,34.55,0,0,1,10.77,1.56,1.5,1.5,0,0,0,.79-2.89A37.5,37.5,0,0,0,72.36,173c-3.8.19-7.63.75-11.4,1.28a79.36,79.36,0,0,0-11,2.22,27,27,0,0,0-9.62,4.5c-1.51,1.21.62,3.32,2.12,2.12Z"/><path class="cls-1" d="M43.5,183.66c.71-.54,2-.66,2.88-1s1.88-.84,2.81-1.28a27.58,27.58,0,0,1,6.43-2.19c2.23-.46,4.47-.85,6.71-1.22a12.2,12.2,0,0,1,6.32.17c1.81.67,2.6-2.22.8-2.89a14.15,14.15,0,0,0-7.08-.31c-2.52.38-5,.84-7.54,1.36a29.92,29.92,0,0,0-6.95,2.39,28.81,28.81,0,0,1-3.56,1.55,8.54,8.54,0,0,0-2.94,1.3c-1.52,1.19.62,3.3,2.12,2.12Z"/><path class="cls-1" d="M76.55,175.06A74.38,74.38,0,0,1,92.39,174a35.6,35.6,0,0,1,7.35.82,39.31,39.31,0,0,0,3.84.85,13,13,0,0,1,3.46.61c1.75.77,3.27-1.82,1.51-2.59a11.62,11.62,0,0,0-3.54-.86,29.14,29.14,0,0,1-4-.79,39,39,0,0,0-8.13-1,79,79,0,0,0-17.1,1.16c-1.9.36-1.1,3.25.79,2.9Z"/><path class="cls-1" d="M74.6,171.66a14.29,14.29,0,0,1-4.84,1.2,9.1,9.1,0,0,0-5.33,1.94,1.5,1.5,0,1,0,2.13,2.12,1.52,1.52,0,0,1,.33-.25,6,6,0,0,1,.56-.3c-.18.08.25-.09.24-.09l.63-.18a16.91,16.91,0,0,1,2.37-.34,15.49,15.49,0,0,0,5.42-1.51,1.5,1.5,0,1,0-1.51-2.59Z"/><path class="cls-1" d="M27.39,410.28c5.69,4.17,12.78,5.33,19.62,6.21Q59,418,71,419q12.31,1,24.66,1.43c7.74.26,15.52.47,23.27.13,8.46-.37,17-1.53,24.89-4.6l-1.84-1,1.57,5.21c.56,1.84,3.45,1.06,2.89-.8l-1.57-5.2a1.51,1.51,0,0,0-1.85-1.05c-14.06,5.43-29.58,4.87-44.39,4.45q-23.72-.67-47.3-3.49c-7.68-.92-16-1.62-22.44-6.34-1.56-1.14-3,1.46-1.51,2.59Z"/><path class="cls-1" d="M52.53,354.64q0,10.1.43,20.19c.28,6.38.23,13.12,1.94,19.32a1.51,1.51,0,0,0,2.9-.8c-1.69-6.09-1.59-12.74-1.86-19q-.44-9.85-.41-19.7a1.5,1.5,0,0,0-3,0Z"/><path class="cls-1" d="M114.54,356.93q.6,19,2.48,37.92c.19,1.9,3.19,1.92,3,0q-1.89-18.92-2.48-37.92c-.06-1.92-3.06-1.93-3,0Z"/><path class="cls-1" d="M28.56,410.2a20,20,0,0,0,7.6-2q3.83-1.56,7.52-3.43a101.23,101.23,0,0,0,14-8.58c1.54-1.13,0-3.74-1.51-2.6A101.28,101.28,0,0,1,43,401.75C40.7,402.93,38.38,404,36,405s-4.86,2.18-7.46,2.18a1.5,1.5,0,0,0,0,3Z"/><path class="cls-1" d="M116.93,397.13a95.81,95.81,0,0,1,24.56,15.38c1.45,1.26,3.58-.85,2.12-2.12a98.48,98.48,0,0,0-25.16-15.85c-1.76-.76-3.29,1.82-1.52,2.59Z"/><path class="cls-1" d="M56.91,396.15c4.77,1.16,9.68,1.28,14.55,1.46l15.1.54,30.43,1.1c1.93.07,1.93-2.93,0-3l-29.94-1.08-14.84-.54c-4.86-.17-9.76-.22-14.5-1.38-1.87-.45-2.67,2.44-.8,2.9Z"/></g></g></svg>