<svg xmlns="http://www.w3.org/2000/svg" viewBox="0 0 353.92 267.69"><defs><style>.cls-1{fill:#fff;}.cls-2{fill:none;stroke:#f2f0ed;stroke-miterlimit:10;stroke-width:2px;}</style></defs><g id="Layer_2" data-name="Layer 2"><g id="Layer_1-2" data-name="Layer 1">
<path class="cls-1" d="M66.83,27.76l-4.52,95.66c-.49,10.36-1.17,20.7-.87,31.07.27,9.33,1,18.65,1.73,27.95q1.6,20.3,3.32,40.57c.47,5.76,1,11.52,1.72,17.24a57.87,57.87,0,0,0,2.12,10.44,23.36,23.36,0,0,0,17.59,15.54,83.19,83.19,0,0,0,16.75,1.43c9.12.12,18.24-.19,27.35-.44q20.72-.57,41.43-1c9.72-.2,19.56-.15,29.22-1.37,5.39-.68,10.86-1.87,15.35-5.1,7.6-5.5,11.86-14.43,13.57-23.46s1.18-18.29.24-27.42c-.85-8.16-1.52-16.34-2.06-24.53-1.34-20.37-1.9-40.78-2.06-61.19-.2-26.48.29-53,1.14-79.43q.38-11.37.83-22.76c.08-1.93-2.92-1.92-3,0-1.12,28-1.89,56.06-2,84.1-.08,21.56.22,43.12,1.26,64.66.42,8.79,1,17.58,1.7,26.36.64,7.8,1.73,15.6,2,23.44.38,10.12-.62,20.91-6,29.72a29,29,0,0,1-7.25,8,21.11,21.11,0,0,1-6,3c-6.62,2.14-13.87,2.29-20.76,2.56-13,.51-26.09.62-39.13,1-11.31.29-22.61.68-33.92.88-7.07.12-14.2.25-21.26-.33a45.84,45.84,0,0,1-6.84-1c-.93-.21-1.85-.46-2.75-.76-.44-.14-.87-.3-1.3-.47L84.2,262l0,0-.7-.32a20,20,0,0,1-2.22-1.24c-.32-.21-.63-.43-.94-.66s0,0-.27-.21l-.48-.39a23.91,23.91,0,0,1-3.76-4.07c-3.4-4.84-4.15-11.2-4.86-17.11-1.59-13.28-2.37-26.68-3.48-40-.9-10.79-1.84-21.59-2.49-32.4-.47-7.74-.78-15.49-.52-23.24.51-14.77,1.38-29.53,2.08-44.29l2.23-47.33,1.09-22.92c.09-1.93-2.91-1.93-3,0Z"/>
<path class="cls-1" d="M66.6,35.42c-8.63,1.47-17.46.25-26.14,0-8.09-.21-16.81.37-23.59,5.28C9.29,46.22,6.23,55.28,4.06,64A139.41,139.41,0,0,0,.29,88.54a149.88,149.88,0,0,0,5.18,49.19A155.68,155.68,0,0,0,26,182.82a144.38,144.38,0,0,0,34,35.9c1.64,1.21,3.32,2.39,5,3.53s3.11-1.52,1.51-2.59A138.59,138.59,0,0,1,32,186.18a152.21,152.21,0,0,1-21.77-43A149.11,149.11,0,0,1,3,95.54,136,136,0,0,1,5.48,71.47,118.34,118.34,0,0,1,8.37,59.58a36.68,36.68,0,0,1,5.9-12.29c5.23-6.58,13.29-8.62,21.35-8.85,8.56-.24,17.09,1,25.65.56a52.74,52.74,0,0,0,6.13-.69c1.89-.32,1.09-3.21-.8-2.89Z"/>
<path class="cls-1" d="M65.09,53.46C54.21,56.53,42,52.81,31.62,57.94c-11.41,5.62-11.95,19.38-11.1,30.45a263,263,0,0,0,20.37,83c5.7,13.32,12.24,27.27,24.1,36.21,1.54,1.17,3-1.44,1.51-2.59-10.11-7.63-16-19.42-21.08-30.71A260,260,0,0,1,24.05,94.34c-1-10.29-3.17-25.1,6.46-32.23,4.76-3.52,10.94-3.94,16.65-4.09,6.26-.17,12.64,0,18.73-1.67a1.5,1.5,0,0,0-.8-2.89Z"/>
<path class="cls-1" d="M12.24,76.18a118.32,118.32,0,0,0-.72,57.27c.38,1.61,3.15,1.31,3-.4a232.6,232.6,0,0,1,1-61c.28-1.86-2.48-2.72-2.89-.8a115.45,115.45,0,0,0,1,52.9,113.41,113.41,0,0,0,4.79,14.5,1.5,1.5,0,0,0,2.89-.8q-3.71-24.21-5.82-48.62c-.17-1.9-3-2-3,0a173.92,173.92,0,0,0,7.21,51.39q2.13,7.14,4.87,14.07c.69,1.76,3.52,1.07,2.9-.8L14.31,114.69c-.51-1.5-3.16-1.37-3,.4a153.56,153.56,0,0,0,13.5,47.27c2,4.25,4.21,8.41,6.59,12.46,1,1.7,3.38.21,2.59-1.51L21.81,146.38l-2.59,1.51,22.52,48c.71,1.53,3.31.45,2.74-1.16L33.05,162.42l-2.89.8A183.7,183.7,0,0,0,55,210a1.52,1.52,0,0,0,2.8-.75,22.12,22.12,0,0,0-8.28-17.35c-1.26-1-3.27.23-2.36,1.81A102.91,102.91,0,0,0,63.56,215c1.4,1.39,3.33-.65,2.12-2.12a320.21,320.21,0,0,1-37.21-56.72q-4.39-8.55-8.27-17.34l-2.59,1.52,18.55,31.94c1,1.7,3.41.21,2.59-1.51a189.3,189.3,0,0,1-17.42-96.6,1.51,1.51,0,0,0-1.9-1.44c-5,1.59-5.68,7.55-5.65,12.06a160.69,160.69,0,0,0,1.35,19.61,162.51,162.51,0,0,0,19.15,58.18c.95,1.7,3.43.2,2.59-1.52a181.76,181.76,0,0,1-16.06-50.26c-.83-5-1.43-10-1.83-15-.15-1.91-3.09-2-3,0a247,247,0,0,0,9.31,56.43l2.9-.8A264.75,264.75,0,0,1,15.08,95q-1-8.25-1.44-16.55c-.09-1.61-2.57-2.14-3-.4a165.75,165.75,0,0,0-3.4,45.31h3A156.3,156.3,0,0,1,11.72,81c.26-1.54-2-2.83-2.74-1.16-7.83,17-5.1,36.71-.86,54.27a177.13,177.13,0,0,0,38.1,74.17c1,1.18,2.86-.09,2.51-1.46a210.56,210.56,0,0,0-21.3-52.09q-4-6.94-8.52-13.55a1.5,1.5,0,0,0-2.74,1.15,84.45,84.45,0,0,0,9.13,22.81,1.51,1.51,0,0,0,2.8-.76,17,17,0,0,0-3.94-10.69c-1.17-1.43-3,.39-2.36,1.82l7.26,16.38c.79,1.76,3.37.24,2.59-1.51a178.19,178.19,0,0,0-9.71-18.9c-1-1.71-3.33-.21-2.59,1.51l6.79,15.78c.66,1.55,3.33.44,2.74-1.15L18.74,140c-.65-1.78-3.41-1.09-2.89.8a130.88,130.88,0,0,0,7.47,20.29c.72,1.53,3.31.44,2.75-1.16l-5.35-15.11c-.54-1.52-3-1.39-2.95.39a53.37,53.37,0,0,0,3.74,18,1.5,1.5,0,0,0,2.89-.8,181.52,181.52,0,0,0-12.93-37.33c-.76-1.61-3.06-.42-2.74,1.16a142.18,142.18,0,0,0,14.4,39.48c.79,1.46,3.4.44,2.74-1.15l-2.55-6.14c-.72-1.73-3.39-1.14-2.9.79a99.39,99.39,0,0,0,22.45,42c1.2,1.34,3.06-.36,2.35-1.81l-12-24.83c-.73-1.51-3.34-.44-2.74,1.16a105.16,105.16,0,0,0,37.05,48.49c1.25.9,2.8-.83,2-2.05a343.25,343.25,0,0,1-25.67-50.86c-.72-1.76-3.62-1-2.9.8a348.19,348.19,0,0,0,26,51.57l2.06-2.05A102.8,102.8,0,0,1,38.87,187a101.18,101.18,0,0,1-5.5-12.09l-2.74,1.15,12,24.83L45,199.09a96.14,96.14,0,0,1-21.67-40.62l-2.9.79L23,165.41l2.74-1.16a139.57,139.57,0,0,1-14.1-38.77l-2.74,1.16a177.56,177.56,0,0,1,12.63,36.61l2.89-.8a51,51,0,0,1-3.63-17.24l-2.94.4,5.34,15.12,2.74-1.16A125.57,125.57,0,0,1,18.74,140l-2.89.8L26,168.43l2.74-1.16-6.79-15.78L19.35,153a180.14,180.14,0,0,1,9.71,18.9l2.59-1.51L24.39,154,22,155.82a13.79,13.79,0,0,1,3.06,8.57l2.79-.75a82,82,0,0,1-8.83-22.1l-2.74,1.16a207.33,207.33,0,0,1,25,49.8q2.55,7.47,4.53,15.13l2.51-1.46a174.24,174.24,0,0,1-36.29-68.76,146.27,146.27,0,0,1-4.73-26c-.8-10.16-.07-20.68,4.25-30L8.83,80.21a159,159,0,0,0-1.54,43.18c.19,1.89,3.12,2,3,0a162.68,162.68,0,0,1,3.29-44.51l-2.94-.4a269.38,269.38,0,0,0,9.64,57.9q2.26,8,5,15.84c.63,1.8,3.44,1.08,2.9-.8A243.45,243.45,0,0,1,19,95.79H16a184.7,184.7,0,0,0,12.09,52.64q2.81,7.19,6.21,14.12L36.87,161A159.89,159.89,0,0,1,16.93,90.57a57.76,57.76,0,0,1,0-9.3c.26-2.17,1-4.94,3.31-5.68l-1.9-1.45a192,192,0,0,0,17.83,98.11l2.59-1.51-18.55-32c-1-1.71-3.35-.21-2.59,1.52a322.82,322.82,0,0,0,34.11,59.34q5.7,7.83,11.84,15.32l2.12-2.12a99.81,99.81,0,0,1-15.93-20.7L47.4,194a19.3,19.3,0,0,1,7.4,15.23l2.79-.76a181.26,181.26,0,0,1-24.54-46c-.64-1.8-3.54-1-2.89.8l11.43,32.35,2.74-1.16-22.52-48c-.83-1.75-3.39-.23-2.59,1.51l12.23,26.93L34,173.31A150.24,150.24,0,0,1,16.61,128.6q-1.44-6.69-2.25-13.51l-2.95.4,13.13,39.18,2.9-.8a171,171,0,0,1-11.52-50q-.54-7.31-.46-14.65h-3q2.14,24.8,5.93,49.42l2.89-.8a112.82,112.82,0,0,1-7.94-51.09A110.53,110.53,0,0,1,15.51,72l-2.89-.8a235.67,235.67,0,0,0-1.15,61.82l2.95-.4A114.87,114.87,0,0,1,15.14,77a1.51,1.51,0,0,0-2.9-.8Z"/>
<path class="cls-1" d="M21.81,53a4.37,4.37,0,0,0-.48-3.22,1.52,1.52,0,0,0-2.59,0,58.9,58.9,0,0,0-8.19,20.56l2.89.8c1.13-6.83,2.9-13.51,4.69-20.19.51-1.91-2.2-2.55-2.89-.8a88.92,88.92,0,0,0-5.8,24.74c-.15,1.68,2.62,2.06,2.94.4L16,57.14c.37-1.89-2.52-2.69-2.89-.8L9.49,74.49l2.95.4A86.23,86.23,0,0,1,18.13,51l-2.89-.8c-1.79,6.68-3.57,13.37-4.69,20.19-.31,1.88,2.53,2.71,2.89.8A56.75,56.75,0,0,1,21.33,51.3H18.74a1.16,1.16,0,0,1,.18.91c-.39,1.88,2.5,2.69,2.89.79Z"/>
<path class="cls-1" d="M13,54.31Q9.46,67.52,6.92,81a1.5,1.5,0,0,0,2.89.8,120.5,120.5,0,0,0,4.43-22.32c.18-1.72-2.5-2-2.94-.4a206.43,206.43,0,0,0-6,29.74h3a212.62,212.62,0,0,1,3.44-25.49c.36-1.87-2.41-2.68-2.9-.79a165.71,165.71,0,0,0-5.32,39.82c0,1.93,2.93,1.92,3,0a177.35,177.35,0,0,1,9.86-52.9c.59-1.7-1.82-2.47-2.74-1.16-4.47,6.4-6,14.53-7.42,22.07a148.34,148.34,0,0,0-2.43,25h3a63.66,63.66,0,0,1,9-36.58L13,57.68A127.48,127.48,0,0,0,9.06,86.3a1.51,1.51,0,0,0,2.95.4c2.2-8.91,4.47-18,9.67-25.68l-2.74-1.15a153,153,0,0,1-4.88,17.19l2.89.8a62.36,62.36,0,0,1,10.5-19.38,33.4,33.4,0,0,1,3.63-4.07c1.48-1.33,3.38-1.48,5.27-1.8l12.4-2.12a1.52,1.52,0,0,0,.36-2.74,12.91,12.91,0,0,0-7.83-1.66,1.5,1.5,0,0,0,0,3A132.19,132.19,0,0,0,56.44,49c1.34-.08,2.23-2.13.76-2.79a26,26,0,0,0-11.49-2.39,1.51,1.51,0,0,0-.4,3,15.73,15.73,0,0,0,8.57.56c1.89-.38,1.09-3.27-.8-2.89a12.88,12.88,0,0,1-7-.56l-.39,2.94a22.66,22.66,0,0,1,10,2l.76-2.8a132.19,132.19,0,0,1-15.16.09v3a10.13,10.13,0,0,1,6.31,1.25L48,47.59,34.6,49.88A10.41,10.41,0,0,0,29.26,52a31.2,31.2,0,0,0-3.93,4.35,66.42,66.42,0,0,0-11.27,20.7c-.61,1.84,2.26,2.61,2.89.8a150.47,150.47,0,0,0,4.88-17.2,1.51,1.51,0,0,0-2.74-1.15c-5.34,7.9-7.72,17.25-10,26.39l2.94.4a123.75,123.75,0,0,1,3.83-27.82,1.51,1.51,0,0,0-2.74-1.16,66.54,66.54,0,0,0-9.37,38.1,1.5,1.5,0,0,0,3,0A144,144,0,0,1,9.1,71.17c1.33-7.29,2.8-15.17,7.12-21.36l-2.74-1.15a180.44,180.44,0,0,0-10,53.7h3a161.24,161.24,0,0,1,5.22-39l-2.9-.79A221.47,221.47,0,0,0,5.29,88.82c-.14,2,2.76,1.87,3,0a199.56,199.56,0,0,1,5.9-28.94l-2.95-.4A116.74,116.74,0,0,1,6.92,81l2.89.8q2.53-13.47,6.1-26.7a1.5,1.5,0,0,0-2.9-.79Z"/>
<path class="cls-1" d="M63,40.38A41.35,41.35,0,0,1,61.11,51l2.9.8,1.49-7.54a1.51,1.51,0,0,0-2.9-.8l-2.53,8.69H63a30.75,30.75,0,0,0-2.84-8,1.52,1.52,0,0,0-2.59,0,14.07,14.07,0,0,0-2.37,8l2.25-1.29c-5.35-3.7-12-3.24-18.18-2.45-1.08.13-8.75,1.51-8.84.23s2.57-1.76,3.36-1.95a14.56,14.56,0,0,1,5.14-.28l-.76-2.8a57.65,57.65,0,0,0-17.8,17.24l2.74.35C22,54.78,27.4,49.77,31.62,45.92L29.49,43.8A64.36,64.36,0,0,0,16.64,61.47l2.74,1.16a70.86,70.86,0,0,0,1-11.54,1.52,1.52,0,0,0-2.8-.76,11.7,11.7,0,0,0-2.3,5.55,1.55,1.55,0,0,0,1,1.85,1.52,1.52,0,0,0,1.85-1,10.12,10.12,0,0,1,2-4.84l-2.79-.75a65.46,65.46,0,0,1-.86,10.74c-.26,1.54,1.92,2.81,2.74,1.16A61.73,61.73,0,0,1,31.62,45.92c1.39-1.36-.71-3.42-2.13-2.12-5.18,4.74-10.65,10.5-9.31,18.14.24,1.37,2.09,1.34,2.74.36A54,54,0,0,1,39.65,46.14a1.51,1.51,0,0,0-.76-2.79c-3.31-.35-8.35,0-10.6,2.84A3.74,3.74,0,0,0,28,50.68C29.12,52.15,31,52.12,32.63,52c7.62-.37,16.39-3.41,23.27,1.35a1.52,1.52,0,0,0,2.26-1.3,11.21,11.21,0,0,1,2-6.51H57.53a27.6,27.6,0,0,1,2.54,7.33c.3,1.51,2.5,1.35,2.89,0l2.54-8.69-2.9-.8L61.11,51a1.51,1.51,0,0,0,2.9.8A45.38,45.38,0,0,0,66,40.38c.09-1.93-2.91-1.93-3,0Z"/>
<path class="cls-1" d="M61.19,49.57C54,50,47,47.27,39.83,47.63c-5.54.27-11.29,2.29-14.26,7.27a1.52,1.52,0,0,0,1.7,2.2A58.25,58.25,0,0,1,53.32,54c1.66.18,2.07-2.7.4-2.94a35.43,35.43,0,0,0-10.83.08c-1.43.23-1.44,2.68,0,2.9a77.89,77.89,0,0,0,10.89.89c3.17,0,6.87.22,9.91-.85A6.3,6.3,0,0,0,68.05,48c0-2.8-1.36-5.51-2.8-7.84a1.52,1.52,0,0,0-2.35-.3,43.69,43.69,0,0,0-5.82,8.33h2.59L57,43.35a1.51,1.51,0,0,0-2.35-.3,39.45,39.45,0,0,1-8.93,6.8A50.2,50.2,0,0,1,35.2,53.93c-3.57,1.06-7.1,2.27-10,4.63a22.15,22.15,0,0,0-5.88,7.81,63.9,63.9,0,0,0-3.75,11c-.42,1.61,1.94,2.7,2.75,1.16,3.15-6.06,6.36-12.31,11.35-17.1,4.5-4.31,10.87-7.4,17.21-6.3,1.87.32,2.7-2.42.8-2.89L38.36,50c-2.79-.69-5.59-1.28-8.18.35-2.31,1.46-4.05,3.84-5.87,5.84L17.74,63.4l2.35,1.82,10.47-16c1-1.47-1.15-2.95-2.36-1.82A53.55,53.55,0,0,0,13.81,70l2.9.79,5-17.73A1.5,1.5,0,0,0,19,51.94a60.32,60.32,0,0,0-8.36,23.75l.44-1.06.45-.26,1.16.15c1.79,1.17-1.1,1-1.29,1.61a7.43,7.43,0,0,0-.06,1c-.06.87-.12,1.74-.16,2.61-.08,1.82-.08,3.64,0,5.46A69.61,69.61,0,0,0,12.48,96c.34,1.74,2.85,1.21,2.94-.4L16.55,77h-3L16,101.65h3a97.46,97.46,0,0,1,.29-23.34h-3L19,106.55a1.5,1.5,0,0,0,3,0A72,72,0,0,0,22.55,94h-3q1.5,14.68,3.86,29.28c1.47,9,2.84,18.29,5.64,27a49.28,49.28,0,0,0,6.23,13.1,1.5,1.5,0,0,0,2.59-1.51,119.44,119.44,0,0,1-8-20.37l-2.74,1.15A46,46,0,0,1,33,173.11l2.5-.66L28,164.69a1.51,1.51,0,0,0-2.51,1.46,113.21,113.21,0,0,0,4.13,13.23l2.74-1.15-6.59-14.37-2.59,1.51,2.45,5.21,2.59-1.51a92.1,92.1,0,0,0-7.94-12.42,1.53,1.53,0,0,0-1.87-.62,1.48,1.48,0,0,0-.87,1.77,115.75,115.75,0,0,0,14.22,24.88,1.52,1.52,0,0,0,2.74-.36,19.05,19.05,0,0,0,.87-9.38l-2.5,1.46,4.47,3.76a1.51,1.51,0,0,0,2.5-1.46,23.21,23.21,0,0,1-.94-7.27l-2.79.75q6,9.78,11.07,20.13l2.59-1.52a77.66,77.66,0,0,1-11.36-23.62l-2.74,1.15c6.4,13.06,8.64,28.09,18,39.62a34.43,34.43,0,0,0,8.41,7.47,1.51,1.51,0,0,0,2.26-1.29,16,16,0,0,0-4.1-9.76l-1.82,2.36c1.7,1,4,3,3.41,5.23a2.58,2.58,0,0,1-1.79,2c-1.16.18-2.11-1.1-2.77-1.85a72.23,72.23,0,0,1-9.43-13.64l-2.36,1.81A224.73,224.73,0,0,1,63.22,218.1c1,1.21,2.91-.11,2.51-1.46l-1.19-4.06c-.54-1.85-3.44-1.06-2.89.8l1.19,4.06,2.5-1.46A224.73,224.73,0,0,0,47.57,196.1a1.51,1.51,0,0,0-2.35,1.82,74.74,74.74,0,0,0,6.18,9.67c1.14,1.51,2.32,3,3.57,4.41a7.49,7.49,0,0,0,4,2.82c3,.61,5.61-2.11,5.92-4.95.36-3.38-2.28-6.12-4.95-7.74a1.5,1.5,0,0,0-1.81,2.35,12.61,12.61,0,0,1,3.22,7.64l2.26-1.3c-15.75-9.81-17.83-30.66-25.35-46-.75-1.54-3.2-.46-2.74,1.15a80,80,0,0,0,11.66,24.35,1.5,1.5,0,0,0,2.59-1.52q-5-10.32-11.07-20.12a1.51,1.51,0,0,0-2.8.76,25.92,25.92,0,0,0,1,8.07L39.42,176,35,172.28a1.52,1.52,0,0,0-2.51,1.46,16,16,0,0,1-.87,7.78l2.74-.35A113.26,113.26,0,0,1,20.39,157l-2.74,1.16a93.38,93.38,0,0,1,7.94,12.42c.92,1.73,3.4.21,2.59-1.51l-2.45-5.21c-.82-1.75-3.39-.23-2.59,1.51l6.59,14.37c.7,1.53,3.35.44,2.74-1.15a113.91,113.91,0,0,1-4.12-13.24l-2.51,1.46,7.56,7.76a1.51,1.51,0,0,0,2.51-.66,49.26,49.26,0,0,0-6.18-32.73A1.51,1.51,0,0,0,27,142.34a123.06,123.06,0,0,0,8.29,21.08l2.59-1.51c-4.85-7-7-15.29-8.71-23.53-1.88-9.31-3.4-18.69-4.68-28.1Q23.37,102.17,22.55,94c-.19-1.88-3.09-2-3,0A72,72,0,0,1,19,106.55h3L19.24,78.31a1.5,1.5,0,0,0-3,0A97.46,97.46,0,0,0,16,101.65c.21,1.89,3.19,1.93,3,0L16.55,77a1.5,1.5,0,0,0-3,0L12.42,95.61l2.95-.4a64.73,64.73,0,0,1-1.24-12.58c0-2,.21-4,.27-6.07,0-1.44-.55-3.11-2.22-3.22a2,2,0,0,0-1.87,2.56,1.7,1.7,0,0,0,3,.7c.51-.68.45-1.87.59-2.69s.34-1.87.54-2.8A56.24,56.24,0,0,1,21.6,53.45l-2.74-1.16L13.81,70c-.53,1.86,2.3,2.62,2.9.79A50.46,50.46,0,0,1,30.32,49.53L28,47.71,17.5,63.7a1.51,1.51,0,0,0,2.36,1.82l5.75-6.35a53.43,53.43,0,0,1,5.44-5.81c2.23-1.82,4.69-1,7.23-.34l8.57,2.13.8-2.89c-7.07-1.23-14,1.61-19.24,6.26-5.68,5-9.27,11.9-12.72,18.52l2.75,1.15c1.62-6.11,3.44-12.88,8.43-17.15,2.81-2.42,6.46-3.43,10-4.45a51.09,51.09,0,0,0,10.08-4,42.46,42.46,0,0,0,9.9-7.47l-2.36-.3,2.64,4.83a1.51,1.51,0,0,0,2.59,0A40.67,40.67,0,0,1,65,42l-2.36-.3C63.79,43.5,65,45.62,65,47.83c.08,2.44-1.74,3.49-4,3.8a62.25,62.25,0,0,1-17.4-.48v2.9A30.39,30.39,0,0,1,52.92,54l.4-3a60.36,60.36,0,0,0-26.85,3.2l1.69,2.2c2.66-4.47,8.2-5.83,13.08-5.82,6.72,0,13.2,2.39,19.95,2,1.92-.12,1.93-3.12,0-3Z"/>
<path class="cls-1" d="M63.33,207.26l-7.52-10.48a1.55,1.55,0,0,0-2.06-.53,1.51,1.51,0,0,0-.53,2.05l7.52,10.47a1.54,1.54,0,0,0,2.06.54,1.51,1.51,0,0,0,.53-2.05Z"/>
<path class="cls-1" d="M14.36,148.7A125.81,125.81,0,0,1,4.8,86.23c.55-5.56,1.42-11.09,2.51-16.58,1-4.93,1.85-10.17,3.85-14.82a17.79,17.79,0,0,1,8.29-8.92A33.37,33.37,0,0,1,31,42.71c5.14-.62,10.34-.64,15.52-.79l19.34-.56-.4-3A40.79,40.79,0,0,1,42,40.75l-.4,2.94a27.69,27.69,0,0,1,9.62,2.88L52,43.78A28.33,28.33,0,0,1,40.91,43l.9,2.2,1.33-2.89a1.51,1.51,0,0,0-1.29-2.25,14.77,14.77,0,0,0-12.61,5.45l1.46-.39a9.8,9.8,0,0,0-9.47,1.61C19.92,47.82,18.56,49.5,19,51.3a3.13,3.13,0,0,0,2.93,2.33c3.42.2,4.76-3.78,2.36-6-2.73-2.55-6.66-.23-7.26,3a1.56,1.56,0,0,0,.69,1.7c2.15,1.22,4.34-1,4-3.21-.4-2.9-3.89-3-6.09-2.44l1.46,2.51a23.45,23.45,0,0,1,26.58-6.83l-.36-2.74-8.59,6.22,1.82,2.36,2.7-3.46L36.75,43.3a25.53,25.53,0,0,0-1.29,8,1.52,1.52,0,0,0,2.8.76,13.53,13.53,0,0,0,2.5-6.05c.19-1.29-1.43-2.75-2.51-1.46a23,23,0,0,1-5.4,4.79c-1,.63-1,2.51.36,2.74a5.8,5.8,0,0,0,6.52-3.9,4.67,4.67,0,0,0-3.17-5.85c-2-.65-5.33-.06-5.93,2.33-.32,1.24.9,2.59,1.9,3.14a4.27,4.27,0,0,0,4,.09,1.52,1.52,0,0,0,.31-2.36,8.69,8.69,0,0,0-11.47-1.21,1.53,1.53,0,0,0,.36,2.74,5.79,5.79,0,0,0,6.89-2.91,1.52,1.52,0,0,0-.9-2.2C25.89,39.83,19.21,43.14,17,48.8a1.51,1.51,0,0,0,2.2,1.69,6.16,6.16,0,0,0,2.52-6.79c-.37-1.27-1.28-2.31-2.73-1.89a2.3,2.3,0,0,0-1.58,2.91,1.53,1.53,0,0,0,2.2.9,10.23,10.23,0,0,1,9.64.22L30,43.05l-6.18-.14v3A116.44,116.44,0,0,0,44.77,44.1c4.12-.72,10.54-1.92,13.42,2.1l.23-1.82-8.51,6.94,2.51,1.46a4.54,4.54,0,0,1,8.39.23c.35.94,1.73,1.62,2.51.66,1.28-1.61,2.58-3.2,3.85-4.82s-.92-3.64-2.12-2.12-2.57,3.21-3.86,4.82l2.51.66A7.48,7.48,0,0,0,49.53,52c-.64,1.55,1.5,2.28,2.51,1.46l8.51-6.94a1.5,1.5,0,0,0,.23-1.82c-3.43-4.77-9.54-4.57-14.78-3.81-3.53.52-7,1.18-10.57,1.53a111.9,111.9,0,0,1-11.58.51,1.5,1.5,0,0,0,0,3l6.18.14a1.51,1.51,0,0,0,.76-2.8A13.36,13.36,0,0,0,18.12,43l2.2.9c-1.27-.2-1.74,0-1.42.73a1.63,1.63,0,0,1,.08.58,2.89,2.89,0,0,1-.1.92,2.92,2.92,0,0,1-1.17,1.74l2.2,1.7c1.64-4.23,6.83-6.26,11-4.72l-.9-2.2a2.82,2.82,0,0,1-3.5,1.53L26.85,47a5.72,5.72,0,0,1,7.82.74L35,45.34a1.19,1.19,0,0,1-1.46-.64l-.15,1.15c.65-1.11,2.58-1,3.3,0,1.14,1.56-1.11,3.6-2.66,3.34L34.36,52a25.58,25.58,0,0,0,6-5.26l-2.5-1.45a11.72,11.72,0,0,1-2.2,5.33l2.79.75a22.94,22.94,0,0,1,1.18-7.25c.45-1.35-1.57-2.65-2.51-1.46l-2.69,3.46c-.94,1.2.3,3.45,1.82,2.35l8.58-6.22a1.52,1.52,0,0,0-.35-2.74A26.32,26.32,0,0,0,15,47.08a1.52,1.52,0,0,0,1.46,2.51c.53-.14,1.61-.49,2.11-.12.09.06.28.21.2.16a.48.48,0,0,1-.08.16c-.23.2-.05.18.53,0l.69,1.69c.18-.95,1.46-2.89,2.47-1.49.25.36.26.58,0,.67a.66.66,0,0,1-.5,0c-.14-.13.07.1.07,0,0-.59,1-1.34,1.41-1.65A6.91,6.91,0,0,1,29.9,48a1.44,1.44,0,0,0,1.46-.38,12,12,0,0,1,10.49-4.57l-1.3-2.26L39.22,43.7a1.53,1.53,0,0,0,.9,2.21,30.64,30.64,0,0,0,11.9.87c1.32-.17,2.23-2.05.76-2.8a31.78,31.78,0,0,0-11.14-3.29c-1.67-.18-2,2.62-.4,3a43.59,43.59,0,0,0,25-2.34c1.45-.59,1.44-3-.4-2.94L48,38.88C43,39,38,39,33,39.5c-8.35.75-17.25,3-22.36,10.16-2.95,4.16-4,9.34-5.14,14.22-1.24,5.57-2.27,11.18-3,16.83A133.16,133.16,0,0,0,2,114.5a128.46,128.46,0,0,0,9.73,35.71c.76,1.77,3.35.24,2.59-1.51Z"/>
<path class="cls-1" d="M227.51,22.29a190.64,190.64,0,0,1-55.3,10.9c-19.49,1-39-.33-58.48-1.31q-14.6-.75-29.18-1.48a47.44,47.44,0,0,1-8.16-.84c-2.15-.48-5.57-1.44-5.62-4.17-.07-3.06,2.65-6.11,4.52-8.3A34.93,34.93,0,0,1,81,11.56,40.07,40.07,0,0,1,95.91,5,88.41,88.41,0,0,1,115,3.09c7.69-.07,15.37.41,23,1,15.63,1.23,31.36,2.51,46.79,5.36a215,215,0,0,1,26.71,6.67c6.13,2,12.08,4.4,18.06,6.77a47,47,0,0,0,13.06,3.5c2.43.23,4.84.09,7.27.13s6.09.24,7.5,2.66.09,6.16-1,8.6c-.85,1.87-1.89,3.65-2.83,5.48-1.92,3.75-3.62,7.61-5.24,11.49-5.16,12.34-9.46,25-13.56,37.77q-2.1,6.48-4.09,13c-.58,1.84,2.32,2.64,2.89.79,4.62-15,9.45-30,15.16-44.59,1.76-4.52,3.62-9,5.69-13.4,1.92-4.06,4.46-7.93,5.82-12.22,1-3.07,1.3-6.71-.89-9.34-2-2.44-5.46-3.07-8.47-3.22-2.55-.12-5.09.1-7.65-.1a32.65,32.65,0,0,1-6.57-1.22c-5-1.45-9.83-3.71-14.72-5.59a196.75,196.75,0,0,0-25.25-7.74C180.8,5.13,164.54,3.46,148.24,2,132.88.59,117.09-1.09,101.72,1a53.58,53.58,0,0,0-17.26,5,38.31,38.31,0,0,0-13,11.14c-1.95,2.56-4.13,5.85-3.61,9.23.47,3.07,3.25,4.79,6,5.68a35.16,35.16,0,0,0,9.08,1.34L96.08,34c20.1,1,40.24,2.45,60.37,2.54,19.69.08,39.3-1.75,58.32-7,4.56-1.26,9.08-2.71,13.53-4.31,1.81-.65,1-3.55-.79-2.9Z"/>
<path class="cls-1" d="M27.48,47.14a10.07,10.07,0,0,0,6.67,5,7.1,7.1,0,0,0,7.31-3.32,5.8,5.8,0,0,0,.76-4c-.16-.86-1.49-2.85-.76-3.58s3-.58,4-.51a16.35,16.35,0,0,1,4.92,1.16c1.8.7,2.58-2.2.8-2.89A17.47,17.47,0,0,0,42,37.83c-3,.53-4.43,2.94-3.36,5.79.44,1.17.95,2.21.35,3.43a4.12,4.12,0,0,1-2.67,2.13c-2.62.62-5.05-1.46-6.28-3.56a1.5,1.5,0,0,0-2.59,1.52Z"/>
<path class="cls-1" d="M139.57,12.88a54.23,54.23,0,0,0-39.82-.29c-2.57,1-6.28,2.23-6.14,5.64.13,3.19,3.51,5,6.09,6.09a43.56,43.56,0,0,0,9.82,2.43c3.69.57,7.39,1.08,11.09,1.59,14.79,2,29.77,3.66,44.7,2.5q5.34-.4,10.62-1.32A54.61,54.61,0,0,0,186.41,27c2.88-1.12,4.91-3.52,4.23-6.76-.65-3.06-3.26-4.91-6-6a71.88,71.88,0,0,0-11.79-3.39A99.47,99.47,0,0,0,161,9a97.53,97.53,0,0,0-25,1,1.52,1.52,0,0,0-1,1.85,7,7,0,0,0,7,4.64c1.92-.14,1.93-3.14,0-3a3.94,3.94,0,0,1-4.06-2.44l-1.05,1.85a94,94,0,0,1,39.32,1.76c2.93.76,6.18,1.48,8.84,3,2,1.14,4.24,4.16,1.6,5.95a12,12,0,0,1-3.64,1.33q-2.51.64-5,1.17-5,1-10,1.51c-13.26,1.32-26.62.32-39.8-1.3-6.58-.81-13.2-1.64-19.73-2.78a31.3,31.3,0,0,1-9.1-2.69,5,5,0,0,1-2.56-2.39c-.43-1.31,1.32-1.89,2.24-2.29a51.41,51.41,0,0,1,39.84-.4c1.79.73,2.57-2.17.8-2.89Z"/>
<path class="cls-1" d="M121.71,15.55a1.5,1.5,0,0,0,0-3,1.5,1.5,0,0,0,0,3Z"/>
<path class="cls-1" d="M124.8,17.27c7.77,4.18,16.11,8.56,25.21,8A22,22,0,0,0,156.28,24c1.64-.61,3.53-1.49,4.13-3.28,1.4-4.13-4.93-6.55-8-7-1.89-.27-2.7,2.62-.8,2.9a11,11,0,0,1,4.7,1.74c.48.31,1.4.83,1.18,1.47-.17.48-1.07.86-1.47,1a20.22,20.22,0,0,1-9.95,1.35c-7.13-.61-13.61-4.17-19.79-7.5-1.7-.92-3.22,1.67-1.52,2.59Z"/>
<path class="cls-1" d="M93.09,8.87a21.83,21.83,0,0,0-6.94,3.25,15.73,15.73,0,0,0-5.2,5.5,6.34,6.34,0,0,0,1.24,7.16c1.8,1.94,4.5,2.73,7,3.18a33.42,33.42,0,0,0,10.13.25,1.54,1.54,0,0,0,1.5-1.5,1.51,1.51,0,0,0-1.5-1.5A30.41,30.41,0,0,1,90,25.06c-2.38-.42-5.51-1.12-6.5-3.66s1.66-4.66,3.32-6a18.67,18.67,0,0,1,7.06-3.58,1.51,1.51,0,0,0-.8-2.9Z"/>
<path class="cls-1" d="M186.79,15.53a11.19,11.19,0,0,1,4.3,1.58,11,11,0,0,1,3.1,2.89,3.81,3.81,0,0,1,.33.55s.1.33.07.18a1.82,1.82,0,0,1,0,.33q0-.22,0-.06a1.46,1.46,0,0,1-.07.19c.07-.15.06-.15,0,0s-.1.16,0,0a1.89,1.89,0,0,1-.2.2c-.18.22.12,0-.14.13l-.51.3c-.35.2.2-.05-.19.08-1.62.56-3.39.5-4.86,1.5a1.54,1.54,0,0,0-.54,2.06,1.52,1.52,0,0,0,2.06.53,4.65,4.65,0,0,1,1.87-.68A20.38,20.38,0,0,0,194,24.9a5,5,0,0,0,3.4-3c.57-1.77-.52-3.4-1.63-4.68a13.52,13.52,0,0,0-3.42-2.84,13.83,13.83,0,0,0-4.8-1.76,1.55,1.55,0,0,0-1.85,1,1.5,1.5,0,0,0,1,1.84Z"/>
<path class="cls-1" d="M103.08,11.83h7.45a1.5,1.5,0,0,0,0-3h-7.45a1.5,1.5,0,0,0,0,3Z"/>
<path class="cls-1" d="M129.61,11.8A5.37,5.37,0,0,0,130.2,18c1.51,1.87,3.92,2.7,6.18,3.24a29,29,0,0,0,8.41.74c2.09-.12,5.2-.19,5.91-2.66,1.52-5.28-7.47-6.53-10.82-6.73a17.5,17.5,0,0,0-7.54.86,3.67,3.67,0,0,0-1.81,5c1.72,4.29,7.58,5.89,11.77,5.41,2.08-.24,4.63-.86,5.91-2.69,1.51-2.14.07-4.44-1.7-5.86a11.19,11.19,0,0,0-6.35-2.46c-2-.12-4.62.22-5.72,2.1s.22,4.22,2.06,5.21a9,9,0,0,0,6.56.41c2-.58,5.17-2.17,5.41-4.52s-2.6-3.67-4.59-3.94-4.38.5-4.4,2.89a3.37,3.37,0,0,0,1.78,2.86,6.06,6.06,0,0,0,4.26.25,1.51,1.51,0,0,0,.9-2.2c-1.76-2.47-6-2.51-7.33.47a1.55,1.55,0,0,0,.54,2.05,3.69,3.69,0,0,0,4.86-.56,1.51,1.51,0,0,0-.3-2.35c-1.49-1-3.24-1.93-5.08-1.5a3.78,3.78,0,0,0-3,3.35,1.47,1.47,0,0,0,.74,1.3c1.26.77,3.47.66,4.13-.9s-.83-3.28-2.18-3.76c-3.06-1.1-5.8,2.89-3.49,5.29s6.25,0,5.34-3a4,4,0,0,0-3.5-2.65c-1.94-.13-3.54,1.05-4.95,2.24a1.52,1.52,0,0,0,0,2.12,3.32,3.32,0,0,0,5.27-.82,4.23,4.23,0,0,0-1.87-5.47,4.69,4.69,0,0,0-5.62.84,4.08,4.08,0,0,0,.09,5.26,3.6,3.6,0,0,0,5.13.61,4.6,4.6,0,0,0,1.27-4.65,4.68,4.68,0,0,0-4.52-3.31c-2.09-.08-4.92,1.09-5.78,3.13-1.23,2.88,2.75,4.59,4.92,5.13a11.92,11.92,0,0,0,8-.86,1.51,1.51,0,0,0,.3-2.35,9.83,9.83,0,0,0-10-2.7,1.51,1.51,0,0,0-.36,2.74,8.45,8.45,0,0,0,8.17-.18,1.52,1.52,0,0,0,.54-2,6.54,6.54,0,0,0-9.12-1.78,1.54,1.54,0,0,0-.54,2.06,9.32,9.32,0,0,0,12.58,3.38,1.52,1.52,0,0,0,0-2.59c-3.47-2.29-9.71-4.62-13.44-1.59a4,4,0,0,0-.69,5.49c1.67,2.27,4.49,2.35,7,2.08a1.55,1.55,0,0,0,1.5-1.5c.4-4.33-4.48-7.8-8.51-7.48-1.93.16-3.83,1.41-3.76,3.53.06,1.87,1.78,3.69,3.73,3a1.55,1.55,0,0,0,1.1-1.44c.07-3.16-3.3-5.88-6.11-3.64-2.59,2.07-.33,6.64,2.89,5.36a1.55,1.55,0,0,0,1.1-1.45,7,7,0,0,0-1.68-4.18,1.51,1.51,0,0,0-1.46-.39c-3,.6-1.67,4.55-.55,6.2a11.92,11.92,0,0,0,6.55,4.59,24.66,24.66,0,0,0,9.26.54,20.12,20.12,0,0,0,7.42-2c2.1-1.1,4.81-3.4,4.76-6-.05-2.83-3.21-3.8-5.5-4.13a20.24,20.24,0,0,0-9,.75c-2.17.7-6.41,2.13-5.68,5.15s4.85,3.43,7.37,3.42a18.2,18.2,0,0,0,9.67-2.85,1.51,1.51,0,0,0,.54-2,11.42,11.42,0,0,0-13.28-3.92c-2.33.93-5,3.12-3.32,5.84,1.44,2.34,4.51,3.12,7.06,3.3,2.3.17,6.08.52,6.75-2.4.74-3.22-2.63-4.7-5.09-5.48-2.77-.88-6.56-1.89-9.25-.27a4.7,4.7,0,0,0-2.19,3.14,3,3,0,0,0,1.79,3.35c2.26,1.29,5.87,2.09,8.29.75,2.91-1.62,1.32-5.05-1-6.33s-5.84-1.83-8.32-.72c-2.21,1-3.35,3.66-1.5,5.61,1.68,1.78,4.88,2.28,7.18,2.61,2.71.4,5.58.24,7.82-1.53,1.88-1.49,3-5,.28-6.37s-5,1.25-4.77,3.79c.66,6.73,12.88,4.83,12.49-1.45-.16-2.72-3.59-5.17-5.95-3.12a3.89,3.89,0,0,0-1.14,3.77,6.88,6.88,0,0,0,3.07,3.85,1.48,1.48,0,0,0,1.51,0,3.58,3.58,0,0,0,2-2.8c.18-1.67-1-2.22-2.37-2.82a16.45,16.45,0,0,0-8.19-1.4c-2.24.21-5.64.75-6.8,3s1.21,5.13,3.54,3.72a1.53,1.53,0,0,0,.3-2.36,8.12,8.12,0,0,0-6.7-3c-2.3.16-4.61,1.73-4.41,4.26.17,2.06,2.34,3.95,4.34,2.68,1.62-1,2-3.91,0-4.8l-1.15,2.75a40.61,40.61,0,0,0,20.51.08c1.86-.48,1.07-3.38-.8-2.9a37.32,37.32,0,0,1-18.92-.08c-1.58-.42-2.75,2-1.15,2.74-.21-.09,0-.36-.21-.24.47-.24.22-.06.33-.34s0-.31.08-.53a1.65,1.65,0,0,1,1-.56A5.13,5.13,0,0,1,134,19.55l.3-2.35c.11-.07.56.1.62.09a1.62,1.62,0,0,0,.51-.21,10.25,10.25,0,0,1,1.43-.54,12.9,12.9,0,0,1,3.66-.52,13.57,13.57,0,0,1,6.88,1.92l-.74-1.3a.73.73,0,0,1-.49.88h1.51c-.63-.46-1.46-1.06-1.64-1.86-.12-.51,0-1,.5-.82,1.62.56,0,2.35-.78,2.77-1.21.68-3.36,1.16-4.54.19a1.43,1.43,0,0,1-.53-1.41c.13-.42.5-.69.35-.05-.32,1.35-2.34,1.89-3.5,2a14.79,14.79,0,0,1-5-.59c-.54-.14-3.46-.67-3.3-1.56.18-1.07,2.85-.81,3.48-.72a7.29,7.29,0,0,1,3.06,1c.68.48,1.14.91.14,1.09A7.48,7.48,0,0,1,130.23,16l.69.89c-.55-1.91,2.33-2,3.51-1.91a20.62,20.62,0,0,1,5.62,1.47c.43.18,1.49.58,1.47,1.21,0,.42-.79.25-1.22.27a14.85,14.85,0,0,1-4.75-.4,5.2,5.2,0,0,1-1.83-.93c-.77-.64-.7-.88.08-1.42A7.18,7.18,0,0,1,137.47,14a8.34,8.34,0,0,1,7.16,3.19l.54-2.06c-3.17,2-7.61,3.22-11.33,2.11a2.6,2.6,0,0,1-1.09-.57c-.23-.24-.22,0-.06-.19a4.9,4.9,0,0,1,1.42-.78,13.89,13.89,0,0,1,1.6-.67,17.67,17.67,0,0,1,6.06-1,15.71,15.71,0,0,1,3,.32c.51.11,1.77.33,2,.93s-.69,1.54-1.07,1.94a8.08,8.08,0,0,1-2,1.49c-3.2,1.75-7.35,2-10.92,1.82a12.56,12.56,0,0,1-6.35-1.86,7.6,7.6,0,0,1-2.11-2.08,6.83,6.83,0,0,1-.64-1.23,2.16,2.16,0,0,0-.16-.51c-.32-.41.6-.09-.35.1l-1.45-.39a3.51,3.51,0,0,1,.8,2.06l1.1-1.45c-.49.2-.25-.28.17-.29.71,0,.86.95.85,1.47l1.1-1.45c.35-.12-.12.2.08-.13s0-.27.4-.42a3.9,3.9,0,0,1,2.62.25c1.76.66,3.43,2.11,3.24,4.13l1.5-1.5c-1.41.15-3.71.55-4.65-.87-.7-1.07.48-1.68,1.38-1.91,2.94-.75,6.45.81,8.85,2.39V14.28A6.28,6.28,0,0,1,130.66,12l-.54,2a3.53,3.53,0,0,1,5,.71l.53-2.06a5.32,5.32,0,0,1-5.13.18l-.36,2.74a6.85,6.85,0,0,1,7.11,1.93l.3-2.36a8.65,8.65,0,0,1-7.89-.3c-.06,0-.84-.69-.8-.22,0-.16.6-.53.71-.6a4,4,0,0,1,1.8-.68,1.82,1.82,0,0,1,2.19,1.22c.09.46.05,1.38-.51,1.55s-1.18-.88-1-1.4c.22-.8,1.41-.84,2-.54a1.34,1.34,0,0,1,.79,1.1c0,.31-.22.82-.54.48v2.12a5.22,5.22,0,0,1,2.09-1.31c.35-.08,1.46,0,1.39.51,0-.09-.39.25-.32-.08s.58-.34.62.09l.44-1.06c-.06.07-.13.05-.18,0l.74,1.29c.07-.54,1.11-.46,1.45-.39A7.4,7.4,0,0,1,142.68,18l-.31-2.36a.79.79,0,0,1-1.23.09l.54,2.06c.32-.72,1.56-1.31,2.15-.48l.89-2.2a3.62,3.62,0,0,1-2.09,0s-.18-.36-.21-.13-.08-.06.26,0a4.66,4.66,0,0,1,2.52.63c.39.31.31-.15.07.25a3.23,3.23,0,0,1-.55.5,7.12,7.12,0,0,1-1.59,1,7.47,7.47,0,0,1-3.61.59c-.61-.05-2.62-.47-2.53-1.4s2.64-.74,3.17-.71a8.18,8.18,0,0,1,3.59,1.16c.72.43,2.59,1.63,1.89,2.59s-2.39,1.12-3.35,1.26a10.72,10.72,0,0,1-3.91-.19,10.57,10.57,0,0,1-3.44-1.46c-.66-.43-2-1.61-1.79-2.57s2.55-.88,3.2-1a21.71,21.71,0,0,1,4.63,0,20.89,20.89,0,0,1,4.13.92c.49.15,3.47,1.13,2.55,2-.39.37-1.7.3-2.16.34a25.3,25.3,0,0,1-2.61.1,25.06,25.06,0,0,1-5.25-.58c-2-.44-7.33-2-5.44-5.09,1-1.65-1.59-3.16-2.59-1.51Z"/>
<path class="cls-1" d="M171.54,34.52q-.73,45.87-.2,91.75.27,22.94.86,45.87c.39,15.06.65,30.18,2.69,45.13,2.23,16.27,7,32.32,6.18,48.87-.09,1.93,2.91,1.93,3,0,.69-14.7-2.92-29.08-5.33-43.48-2.5-14.89-3-30-3.39-45q-1.26-45.87-1.24-91.75,0-25.68.43-51.36a1.5,1.5,0,0,0-3,0Z"/>
<path class="cls-1" d="M203.48,30.89c2.63,6.55,3,13.57,2.7,20.54-.36,7.33-1.32,14.63-1.9,21.94-1.22,15.25-1.79,30.55-2,45.84-.43,30.64.55,61.28.59,91.93,0,17.29-.25,34.58-1.24,51.85-.11,1.92,2.89,1.92,3,0,1.77-30.93,1.25-61.93.83-92.89-.41-30.77-.72-61.58,1.48-92.3.59-8.2,1.61-16.37,2.14-24.57.5-7.79.24-15.8-2.7-23.13-.71-1.77-3.61-1-2.9.79Z"/>
<path class="cls-1" d="M189.25,33.64l-.78,68.82c-.22,19.9-1.15,40.14,2.68,59.78A86.1,86.1,0,0,0,202.52,192c1,1.63,3.63.13,2.59-1.51-10.27-16.2-13-35.57-13.67-54.39-.33-10-.12-20.1,0-30.14L191.82,72l.43-38.4a1.5,1.5,0,0,0-3,0Z"/>
<path class="cls-1" d="M228.38,112.82c.22-.59.43-1.19.67-1.77.08-.19,0,0,0,.09s.06-.14.1-.21.13-.29.19-.43c.14-.29.28-.57.44-.84s.3-.51.46-.75l.14-.19c.14-.2,0,0-.05,0a2,2,0,0,0,.3-.35,6.55,6.55,0,0,1,.65-.64l.14-.11c-.27.26-.14.1,0,0l.43-.28a1.5,1.5,0,0,0-1.52-2.59c-2.61,1.56-3.77,4.45-4.75,7.18a1.52,1.52,0,0,0,1,1.85,1.54,1.54,0,0,0,1.84-1.05Z"/>
<path class="cls-2" d="M276.57,259.49c-3.2-.67-6.29-5.7-6.88-11.17l-3.15-29.44c-.59-5.47-1.39-9.94-1.77-9.94s-1.09-4.49-1.56-10l-4.29-50.53c-.47-5.48-.69-10.28-.5-10.67s0-3.43-.52-6.75-2.48-12.07-3.35-12-2.7-.52-2.12-1.29a7.18,7.18,0,0,0,1.24-2.82,3.53,3.53,0,0,0-.53-2.29c-.39-.49,0-1.36.88-1.94s2-3.43,2.47-6.34,5.22-6.48,10.52-8a4.76,4.76,0,0,1,.93-.15c.35,0,18.91-1.15,18.91-1.15,5.49-.34,14.48-.62,20-.62h9.94A128.1,128.1,0,0,1,336.6,96.3s9.79,1.19,10.08,1.48.87,3.67,1.28,7.52l.38,3.49,1.27.26c1.39.3,2.53,1.09,2.53,1.77a19.4,19.4,0,0,1-.35,3,4.17,4.17,0,0,0,.88,3.17c.68.78-.08,1.53-1.67,1.68s-3.15,4.38-3.44,9.42-.45,9.48-.35,9.87-.15,5.19-.54,10.67l-3.51,49.11c-.39,5.49-1.1,10.29-1.59,10.68s-1.27,5.19-1.74,10.67l-2.51,29c-.47,5.48-3.16,10.6-6,11.37a96.81,96.81,0,0,1-15.08,2.05s-9.59,1.13-12.4,1.13-7.48-.16-10.39-.36S279.77,260.17,276.57,259.49Z"/>
<path class="cls-2" d="M264.06,208.94a200.8,200.8,0,0,0,40.52,3.87,201.13,201.13,0,0,0,36.29-3.52"/>
<path class="cls-2" d="M258.08,138.35a287,287,0,0,0,47,3.67,287.13,287.13,0,0,0,42.11-3.26"/>
<path class="cls-2" d="M254.2,119.1a252.13,252.13,0,0,0,49.44,4.6,252.25,252.25,0,0,0,44.28-4.17"/>
<path class="cls-2" d="M329.57,116.6a69.76,69.76,0,0,1,11.64.91,4.1,4.1,0,0,0,3.46-.57c1.44-1.06,2.72-3.51,2.24-5-.28-.9-1.16-1.54-1.53-1.22s0,1.86-.45,3.11a2.22,2.22,0,0,1-1.69,1.41C341.57,115.66,336.49,116.23,329.57,116.6Z"/></g></g></svg>
