<svg xmlns="http://www.w3.org/2000/svg" viewBox="0 0 263.2 157.4"><defs><style>.cls-1{fill:#fff;}</style></defs><g id="Layer_2" data-name="Layer 2"><g id="Layer_1-2" data-name="Layer 1">
<path class="cls-1" d="M0,32.52c.64,14,1.39,28.09,4.18,41.87,2.75,13.54,7.69,26.74,16.19,37.75,8.33,10.8,19.45,19.1,31.28,25.73a196.52,196.52,0,0,0,19.19,9.36,142.59,142.59,0,0,0,22.09,7.59,92.31,92.31,0,0,0,35.51,1.55,115.73,115.73,0,0,0,34.24-10.9,129.61,129.61,0,0,0,30.63-21.09A121.05,121.05,0,0,0,218,92.65a122.07,122.07,0,0,0,12.67-38.06A135.07,135.07,0,0,0,232.15,26c-.08-1.45-.18-2.9-.31-4.34-.16-1.91-3.16-1.93-3,0a127.55,127.55,0,0,1-8.79,59.52c-9.93,24-28.31,44.07-50.64,57.21-19.72,11.6-43.3,18.36-66.25,15.32-14.29-1.89-28-7.45-40.91-13.73-12-5.82-23.51-12.85-33-22.28C19.61,108.08,13.14,96.12,9.37,83S4.29,56.16,3.5,42.54c-.19-3.34-.35-6.68-.5-10-.09-1.92-3.09-1.93-3,0Z"/>
<path class="cls-1" d="M1.25,29.87c-3.58,6.83,4.36,12.55,9.88,14.7a158.91,158.91,0,0,0,26.1,7.22c8.91,1.8,17.89,3.23,26.86,4.72,9.29,1.54,18.59,3,27.94,4.19,18.48,2.34,37.21,3.56,55.8,1.83a146.17,146.17,0,0,0,43.9-10.83c13.66-5.83,26.36-14.21,36.4-25.22,1.23-1.35,2.41-2.74,3.56-4.16s-.91-3.62-2.12-2.12A98.64,98.64,0,0,1,196.1,46.41a136.42,136.42,0,0,1-41.44,12.33c-17.33,2.42-35,1.88-52.36.13C84.41,57.07,66.65,54,48.94,50.93c-8.52-1.49-17-3.13-25.37-5.45a94.41,94.41,0,0,1-12.28-4.06c-2.87-1.25-6.13-3.32-7.5-6.26a4.08,4.08,0,0,1,0-3.77c.9-1.71-1.69-3.23-2.59-1.52Z"/>
<path class="cls-1" d="M3.63,32.07A279.66,279.66,0,0,1,35.81,18.59,284.3,284.3,0,0,1,81.88,6.81a280.72,280.72,0,0,1,107.9,3.07,284.34,284.34,0,0,1,36.7,10.94l3.46,1.32c1.8.7,2.58-2.2.8-2.89A283.81,283.81,0,0,0,5.31,27.93L2.12,29.48c-1.73.85-.21,3.44,1.51,2.59Z"/>
<path class="cls-1" d="M231.76,48.6A29.7,29.7,0,0,1,256,64.1c2.86,5.39,3.75,11.58,4,17.6.31,6.42.2,13-1.39,19.23-2.59,10.19-9.13,19.06-17.41,25.43-9.26,7.12-20.72,11-32.23,12.47a132.19,132.19,0,0,1-21.15.49c-7.31-.25-14.69-.34-21.83,1.45-1.87.48-1.08,3.37.8,2.9,6.8-1.71,13.83-1.6,20.79-1.36a141.63,141.63,0,0,0,19.65-.28c12.2-1.29,24.39-5,34.41-12.28,8.92-6.48,16.13-15.54,19.35-26.18,1.92-6.34,2.27-13,2.09-19.63-.17-6.43-.86-13-3.4-19a32.63,32.63,0,0,0-28-19.39c-1.93-.1-1.92,2.9,0,3Z"/>
<path class="cls-1" d="M230.25,47.76c9,1.55,19.14,3.85,22.48,13.51,3,8.75.41,18.57-1.84,27.18a71.35,71.35,0,0,1-5.24,14.91A36.06,36.06,0,0,1,237,114.23c-6.93,5.94-15.68,9.37-24.3,12-11.84,3.67-24,6.52-35.95,9.69-1.58.42-1.32,3.17.39,2.95l27.74-3.59c8.49-1.1,17.17-2.06,25.18-5.28,12.55-5,22.26-15.6,27.06-28.16A46.71,46.71,0,0,0,260,79.77a1.51,1.51,0,0,0-3-.39,125.28,125.28,0,0,1-14.43,28.07c-5.67,8.28-12.42,15.75-21.7,20-5.37,2.43-11.13,3.85-16.82,5.29-1.87.47-1.08,3.34.8,2.89a105.7,105.7,0,0,1,15.23-2.44l-.4-2.94-31.3,4.52a1.51,1.51,0,0,0-.66,2.51c4,3.7,9.38,4.27,14.56,3.59,5.68-.75,11.26-2.64,16.68-4.43,11.19-3.7,22.24-9,29.27-18.83a29.68,29.68,0,0,0,5.8-17.1,1.52,1.52,0,0,0-2.56-1.06l-16.07,16.17,2.13,2.12A162.64,162.64,0,0,0,255,95.24l-2.59-1.52a158.81,158.81,0,0,1-20.23,28.71l2.36,1.82L252.11,99.6l-2.59-1.51L238.8,115.55c-.87,1.42,1.26,3.16,2.36,1.82,7.21-8.79,14.92-18.53,17-30a29,29,0,0,0-1.63-16.2,40.89,40.89,0,0,0-8.58-12.6,114.15,114.15,0,0,0-13.83-11.67l-1.16,2.74a28.57,28.57,0,0,1,15,14.28l2.36-1.82a38.48,38.48,0,0,1-8.06-11.43l-2.05,2.05a26.47,26.47,0,0,1,11.54,13,1.5,1.5,0,0,0,2.89-.8A19.88,19.88,0,0,0,249,54.49c-1.39-1.38-3.39.68-2.12,2.12a41.78,41.78,0,0,1,10.35,26.9l2.95-.4L257,73.87a1.5,1.5,0,0,0-2.89.79c2.25,16-8,30.69-16.88,43-.94,1.31.84,2.67,2.05,2,9.35-4.77,13.63-15.06,17.23-24.31A1.51,1.51,0,0,0,254,94l-24.21,29.51a1.51,1.51,0,0,0,1.46,2.5c12.13-3.25,21.81-13.44,25.12-25.47a33.78,33.78,0,0,0,1.17-10.45l-2.94.4c2.14,5.34.74,11.23-2.35,15.91-3.31,5-8.38,8.58-13.34,11.81-10.36,6.75-21.47,12.94-33.6,15.78a49.68,49.68,0,0,1-20.49.72l-.4,3,18.11-1.09a154.23,154.23,0,0,0,16.9-1.54A42.29,42.29,0,0,0,234,129.81a48.88,48.88,0,0,0,10.91-9,77.65,77.65,0,0,0,9.62-13.18c.84-1.44-1.21-3.13-2.36-1.82a86.43,86.43,0,0,0-9.46,13c-.85,1.43,1.23,3.15,2.35,1.82l10.06-11.87L253,106.66l-9,10.91c-1,1.21.3,3.38,1.81,2.35a33,33,0,0,0,9.7-10.12L253,108.29a42.68,42.68,0,0,1-8.64,11.37l2.51,1.46a18.89,18.89,0,0,1,4.71-6.86l-2.12-2.12a67,67,0,0,1-30.35,21.33,1.5,1.5,0,0,0,.8,2.89,30.56,30.56,0,0,0,16.94-8.31l-2.12-2.12a14.54,14.54,0,0,1-18.43,2.39l.54,2.05a4.84,4.84,0,0,1,6-2.14v-2.59a107.51,107.51,0,0,1-40.65,10.08v3c12.31-.85,24.22-4.11,36-7.42a1.51,1.51,0,0,0-.8-2.9c-11.56,3.24-23.22,6.49-35.25,7.32-1.91.13-1.94,3.09,0,3a111.23,111.23,0,0,0,42.16-10.49,1.51,1.51,0,0,0,0-2.59,7.87,7.87,0,0,0-10.14,3.22,1.54,1.54,0,0,0,.54,2,17.54,17.54,0,0,0,22.06-2.86,1.5,1.5,0,0,0-2.12-2.12,28,28,0,0,1-15.62,7.54l.8,2.89a69.84,69.84,0,0,0,31.67-22.1c1.19-1.48-.69-3.48-2.12-2.12a22.37,22.37,0,0,0-5.49,8.18c-.58,1.48,1.51,2.4,2.51,1.46a45,45,0,0,0,9.11-12,1.5,1.5,0,0,0-2.59-1.51,29.4,29.4,0,0,1-8.62,9l1.82,2.36,9-10.91c1.21-1.48-.87-3.61-2.13-2.12L243,118.53l2.36,1.82a82.57,82.57,0,0,1,9-12.43L252,106.1c-4.63,7.83-10.42,15.32-18.14,20.31-9,5.8-19.43,6.4-29.81,7l-19.57,1.18c-1.59.09-2.15,2.62-.4,2.94,13.23,2.47,26.42-.95,38.4-6.57a149.62,149.62,0,0,0,17.65-10c5.21-3.38,10.36-7,14.07-12.11,4-5.4,5.93-12.82,3.35-19.22-.58-1.45-3-1.44-2.95.39.69,14.83-9.74,29.18-24.09,33l1.46,2.51,24.21-29.5-2.51-1.46c-3.32,8.52-7.24,18.11-15.85,22.51l2,2C249.31,106,259.42,90.9,257,73.87l-2.89.79,3.14,9.25a1.5,1.5,0,0,0,2.94-.4,44.94,44.94,0,0,0-11.23-29l-2.12,2.12a17.3,17.3,0,0,1,4.83,9.14l2.89-.8a29.74,29.74,0,0,0-12.92-14.84,1.51,1.51,0,0,0-2,2,40.79,40.79,0,0,0,8.52,12,1.51,1.51,0,0,0,2.36-1.82,31.59,31.59,0,0,0-16.78-15.65c-1.71-.69-2.39,1.81-1.16,2.74,7.78,5.84,16.06,12.22,20.43,21.16a26,26,0,0,1,2.45,14.53A39.82,39.82,0,0,1,250.05,100a114.55,114.55,0,0,1-11,15.28l2.36,1.81L252.11,99.6c1-1.67-1.49-3.06-2.59-1.51L232,122.73c-1,1.39,1.23,3.09,2.35,1.82A162.14,162.14,0,0,0,255,95.24a1.5,1.5,0,0,0-2.59-1.52,156.76,156.76,0,0,1-17,21.85c-1.31,1.41.76,3.5,2.13,2.12l16.06-16.17-2.56-1.06c0,10.33-6.86,19.34-15.16,24.88a67.8,67.8,0,0,1-15.23,7.31,128.88,128.88,0,0,1-15.75,4.69c-5,1.07-11,1.53-15-2.23l-.66,2.5,31.3-4.52c1.66-.24,1.28-3.09-.4-3a109.84,109.84,0,0,0-16,2.55l.8,2.89a112.7,112.7,0,0,0,15.57-4.74,45.94,45.94,0,0,0,13.27-8.27c7.75-6.95,13.68-16.16,18.57-25.27a131.12,131.12,0,0,0,7.64-17.13l-2.95-.4a46.2,46.2,0,0,1-11.12,35.3,44.46,44.46,0,0,1-15.21,11.49C223.25,129.9,215,131,207.05,132l-29.91,3.87.4,3c11.38-3,22.86-5.79,34.15-9.15,9.2-2.73,18.42-6.21,26-12.21a38.75,38.75,0,0,0,9.37-10.56,61.94,61.94,0,0,0,6.13-15.59c2.52-9.22,5.33-19.48,3-29A20.19,20.19,0,0,0,247.28,50c-4.86-3-10.66-4.12-16.23-5.09-1.89-.32-2.7,2.57-.8,2.9Z"/>
<path class="cls-1" d="M257.54,107.59c3.9-5.68,3.91-12.83,3.85-19.45,0-3.92.22-8-.25-11.88A23.72,23.72,0,0,0,259.65,71l-2.21-6c-.56-1.51-3-1.38-2.95.4l.06,5.29a1.5,1.5,0,0,0,3,0l-.06-5.29-2.94.4,2,5.55a24.44,24.44,0,0,1,1.58,5.14c.48,3.65.18,7.52.22,11.21.06,6.25.27,13-3.43,18.4-1.09,1.6,1.51,3.1,2.59,1.52Z"/>
<path class="cls-1" d="M229.58,129.94c-.8,2,1.43,3.13,3.06,3.06a8.05,8.05,0,0,0,2.89-.94,31,31,0,0,0,3.2-1.62A34.48,34.48,0,0,0,249,121.18c1.06-1.41-1.16-2.94-2.35-1.82-6.62,6.22-14.88,10.32-23.57,12.81-9.72,2.79-19.74,3.28-29.77,4l-18.61,1.32c-1.91.14-1.93,3.14,0,3,11.36-.81,22.8-1.29,34.12-2.54a80.06,80.06,0,0,0,26.92-7.45,54.47,54.47,0,0,0,13-9l-2.36-1.82a30.58,30.58,0,0,1-6.85,6.68,31,31,0,0,1-4.11,2.45c-.65.33-1.32.64-2,.92-.28.11-.62.17-.88.29h-.36c-.38-.17-.3.08.25.74.72-1.79-2.18-2.57-2.89-.8Z"/>
<path class="cls-1" d="M231.48,49c.84,3,3.55,5,5.88,6.78,2.57,2,5.3,3.8,7.85,5.83,4.58,3.64,9,8.66,8.57,14.89-.14,1.93,2.86,1.92,3,0,.42-6.15-3.3-11.68-7.74-15.59-2.44-2.14-5.12-4-7.73-5.88-1.33-1-2.65-2-3.89-3s-2.59-2.18-3-3.78a1.5,1.5,0,0,0-2.89.8Z"/>
<path class="cls-1" d="M99,58.43a14.14,14.14,0,0,0,5.41-7.83,1.51,1.51,0,0,0-1-1.84c-10.12-1.57-21.13,1.72-30.81-2.48a16.09,16.09,0,0,1-5.36-3.68c-.27-.28-.65-.53-.48-.9s.93-.47,1.32-.41c1.19.18,2.29,1.15,3.3,1.74a36.29,36.29,0,0,0,13.55,4.65,36.83,36.83,0,0,0,16.29-1.43c1.3-.42,1.55-2.6,0-2.89-5.1-1-10.28-1.75-15.34-2.92-3.89-.89-8.94-2.91-9.55-7.48L74,34.26c8,4.59,17.76,9.6,27.18,6.23a1.5,1.5,0,0,0-.4-2.94A30.11,30.11,0,0,1,90,35.48c-2.1-.83-6.56-2.71-6.14-5.67l-2.21.9a30.65,30.65,0,0,0,18.24,5.1,1.52,1.52,0,0,0,1.29-2.26c-1-1.88-3-2.7-5-3.24-1.36-.36-4.29-.82-4.39-2.67l-2.26,1.3c3.51,1.54,7.62,3.19,11.52,3.2,3,0,6.06-2.1,5.21-5.46A10.17,10.17,0,0,0,104.15,23c-.82-1-2-2.24-2.13-3.62a3.89,3.89,0,0,1,2.12-3.57,4.44,4.44,0,0,1,4.44.26c4.06,2.4,3.92,7.64,2.72,11.6a1.5,1.5,0,0,0,1,1.84,12.51,12.51,0,0,0,10.41-3.21l-2.5-1.46A9.29,9.29,0,0,1,116.34,30c-1.39.88-.53,3.25,1.15,2.74a47.31,47.31,0,0,0,17.79-10.06l-2.51-1.46c-1.52,6.59-7.08,11.08-12.13,15.1a1.51,1.51,0,0,0,1.06,2.56,68.6,68.6,0,0,0,27.58-9.17l-2.05-2.05a28.23,28.23,0,0,1-20.55,12.86,1.51,1.51,0,0,0-.4,2.95c11.78,4.4,22.76-4.1,33.72-7l-1.84-1c.46,1.54-1.47,2.57-2.62,3.13a53.14,53.14,0,0,1-6.4,2.21L135.3,45.42c-1.84.61-4,1.09-5.41,2.46a5.82,5.82,0,0,0-1.74,4.78c.35,4.16,3.87,6.53,7.19,8.41a1.5,1.5,0,0,0,1.51-2.59c-2.43-1.38-7.17-4.13-5.46-7.69.79-1.64,3.4-2,4.94-2.56l6.8-2.25c4.24-1.4,8.62-2.6,12.76-4.26,2.84-1.14,6.22-3.51,5.16-7a1.54,1.54,0,0,0-1.85-1c-10.33,2.71-21,11.11-32.12,7l-.4,2.94a31.43,31.43,0,0,0,23.14-14.35,1.51,1.51,0,0,0-2-2.05,65.14,65.14,0,0,1-26.07,8.76l1.06,2.56c5.47-4.36,11.26-9.3,12.9-16.43a1.52,1.52,0,0,0-2.51-1.46,43.67,43.67,0,0,1-16.45,9.3l1.15,2.74a12.45,12.45,0,0,0,5.3-7,1.51,1.51,0,0,0-2.51-1.46,9.32,9.32,0,0,1-7.5,2.44l1,1.84c1.17-3.87,1.45-8.46-.94-12-2-2.94-5.77-5.06-9.35-3.84-3.22,1.08-5.71,4.67-4.64,8.09a13.24,13.24,0,0,0,2.57,4.11c.62.78,2,2.17,1.56,3.29-.65,1.59-3.53.87-4.74.61a41.09,41.09,0,0,1-7.55-2.45,1.51,1.51,0,0,0-2.25,1.29c.13,2.39,1.84,3.9,3.94,4.76,1.84.76,4.76.73,5.84,2.66l1.3-2.25a27.86,27.86,0,0,1-16.72-4.69A1.51,1.51,0,0,0,81,29c-.58,4.15,2.8,6.91,6.21,8.49a32.79,32.79,0,0,0,13.57,3l-.4-2.95c-8.64,3.09-17.51-1.73-24.86-5.93-.89-.5-2.42.11-2.26,1.29.69,5.18,4.94,8.37,9.67,9.82a73.42,73.42,0,0,0,8.18,1.74l9.25,1.73V43.36A33.85,33.85,0,0,1,84.44,44.6a34.22,34.22,0,0,1-7.94-2.29,33.15,33.15,0,0,1-3.32-1.66,24,24,0,0,0-3.79-2.07c-2.25-.81-5.18.11-5.73,2.68-.51,2.38,2.14,4.34,3.8,5.56,4.06,3,9.23,4.15,14.19,4.5,6.95.49,14-.74,20.9.33l-1-1.85a10.91,10.91,0,0,1-4,6c-1.54,1.13,0,3.74,1.51,2.59Z"/>
<path class="cls-1" d="M105.21,58.1c.26-.91.54-1.81.86-2.71.15-.44.31-.87.48-1.31l.27-.67.12-.29c0-.06,0-.12.08-.19-.09.2-.1.23,0,.08a1.72,1.72,0,0,0,.15-1.16,1.59,1.59,0,0,0-.69-.9,1.56,1.56,0,0,0-1.16-.15,1.46,1.46,0,0,0-.9.69,52.18,52.18,0,0,0-2.08,5.81,1.5,1.5,0,0,0,2.9.8Z"/>
<path class="cls-1" d="M103.42,16.55a13.28,13.28,0,0,0,3.2,11.88c1,1.06,3.06,0,2.51-1.46a45.33,45.33,0,0,1-2.76-10.49c-.25-1.85-3.12-2-3,0a54.93,54.93,0,0,0,3,15c.64,1.8,3.46,1.08,2.89-.79l-3.92-12.94-2.89.8a42.5,42.5,0,0,0,3.48,7.94l2.59-1.51a26.27,26.27,0,0,1-3-7.27l-2.89.79,1.58,5.5L107,22.8l-2.17-4.69c-.6-1.3-2.32-.7-2.74.36a4.28,4.28,0,0,0,1.22,4.79,1.51,1.51,0,0,0,2.51-1.46,1.5,1.5,0,0,1,.71-1.7l-2.2-.9,2.35,6.89a1.5,1.5,0,0,0,2.89-.8L107.6,18l-2.75,1.16a99.31,99.31,0,0,1,3.84,10.15l2.89-.8a48.59,48.59,0,0,1-2.42-9.8l-2.94.4a55.35,55.35,0,0,0,3.41,9.76c.71,1.56,3.21.45,2.74-1.16a73.34,73.34,0,0,0-3.89-10.32l-2.59,1.52,5,7.39,2.59-1.51a30.55,30.55,0,0,1-4.24-7.61l-2.51,1.46,2.1,2,1.46-2.51a4.46,4.46,0,0,1-3-2.73l-1.44,1.9c2,.27,3.37,2.22,3.88,4,.74,2.62.07,5.42-.51,8h2.89l-.35-2c-.28-1.56-2.47-1.29-2.9,0a51.39,51.39,0,0,0-2.43,12.58l2.94-.4-1.43-8c-.32-1.78-2.81-1.17-3,.4l-.89,9.87h3a58.4,58.4,0,0,0-.65-8.76c-.21-1.43-2.69-1.43-2.89,0a74.78,74.78,0,0,0-.78,9.21h3l-.73-8.69a1.5,1.5,0,0,0-3,0L102,41.31c0,1.94,2.89,1.91,3,0a41.64,41.64,0,0,0-.22-7.32c-.23-1.86-3-2-3,0l0,4.77c0,2,2.83,1.9,3,0a10.78,10.78,0,0,0-.31-3.62,1.52,1.52,0,0,0-2.74-.36l-1.06,1.46,2.05-.54a24.37,24.37,0,0,0-8.44-1.78c-2.65-.24-5.52-.52-7.5-2.5l-1.82,2.36a30,30,0,0,0,13,4.5c1.92.13,4-.42,5-2.19a3.59,3.59,0,0,0-.63-4.56,1.5,1.5,0,0,0-2.12,2.12,8.81,8.81,0,0,0,2.93,2.42,1.53,1.53,0,0,0,2.21-.89l1.38-4.84L104,30.7l2,4.12a1.52,1.52,0,0,0,2.74-.36l.77-4.53h-2.89c.33,1.91,2.28,2.91,4.09,2.87,2.26,0,3.82-1.81,5.73-2.75,1.55-.77.45-3.15-1.16-2.74a10.77,10.77,0,0,0-7.77,7.77c-.21.84.44,2,1.45,1.9a55.41,55.41,0,0,0,20.61-6.92l-1.81-2.36a67.31,67.31,0,0,1-9.54,8l2.21.89a7.81,7.81,0,0,1-.38-2.88c.07-1.56-2-1.94-2.79-.76-.28.43-.93,1-1.5.79a.57.57,0,0,1-.28-.82l-2.59-1.51a10.12,10.12,0,0,0-1.26,4.81l3-.4L114,32.66c-.28-1.59-2.43-1.24-2.89,0a9.4,9.4,0,0,0-.57,4,1.54,1.54,0,0,0,1.5,1.5l1.38.11c1.92.15,1.91-2.85,0-3L112,35.16l1.5,1.5a7.29,7.29,0,0,1,.46-3.2H111.1l.55,3.13c.3,1.7,2.93,1.24,2.94-.4a6.93,6.93,0,0,1,.85-3.3,1.5,1.5,0,0,0-2.59-1.51,3.59,3.59,0,0,0,1.44,5c2,1.08,4.37-.12,5.52-1.9l-2.8-.76a10.23,10.23,0,0,0,.49,3.68,1.51,1.51,0,0,0,2.2.9,71.78,71.78,0,0,0,10.14-8.43A1.51,1.51,0,0,0,128,27.47,51.65,51.65,0,0,1,108.92,34l1.44,1.9A7.8,7.8,0,0,1,116,30.2l-1.16-2.74c-.78.38-5,3.85-5.41,1.67a1.51,1.51,0,0,0-2.89,0l-.77,4.53,2.74-.36-2-4.12a1.52,1.52,0,0,0-2.74.36l-1.39,4.84,2.21-.9a6.76,6.76,0,0,1-2.33-1.95l-2.12,2.12c.82.64-.24,1.45-.93,1.59a10.28,10.28,0,0,1-4.29-.5,29.79,29.79,0,0,1-8.54-3.56,1.51,1.51,0,0,0-1.82,2.36c4.53,4.53,11.23,2.23,16.55,4.75a1.54,1.54,0,0,0,2-.54l1.06-1.46-2.74-.36a8.19,8.19,0,0,1,.2,2.83h3l0-4.77h-3a41.64,41.64,0,0,1,.22,7.32h3l.13-7.84h-3l.73,8.69a1.5,1.5,0,0,0,3,0,69.58,69.58,0,0,1,.67-8.41h-2.89a53,53,0,0,1,.54,8c0,2,2.83,1.89,3,0l.89-9.87-3,.4,1.44,8c.31,1.75,2.84,1.2,2.95-.4a47.32,47.32,0,0,1,2.33-11.78h-2.9l.36,2c.25,1.47,2.57,1.39,2.89,0,.78-3.45,1.54-7.22.15-10.61a8.05,8.05,0,0,0-6.41-5.2,1.51,1.51,0,0,0-1.45,1.9A7.65,7.65,0,0,0,109.54,21a1.51,1.51,0,0,0,1.46-2.5l-2.1-2c-1-1-3.06,0-2.5,1.46a32.83,32.83,0,0,0,4.54,8.32c1.13,1.5,3.7.11,2.59-1.51l-5-7.4a1.5,1.5,0,0,0-2.59,1.52,68.4,68.4,0,0,1,3.59,9.6l2.74-1.16a51.35,51.35,0,0,1-3.11-9c-.39-1.59-3.17-1.3-3,.4a52.28,52.28,0,0,0,2.53,10.6c.64,1.79,3.48,1.06,2.89-.8a102.39,102.39,0,0,0-4.14-10.86c-.7-1.59-3.16-.45-2.74,1.15l2,7.28,2.89-.8-2.35-6.88a1.52,1.52,0,0,0-2.2-.9,4.59,4.59,0,0,0-2.09,5.09l2.5-1.46a1.44,1.44,0,0,1-.45-1.87l-2.74.36,2.17,4.69c.72,1.56,3.2.45,2.74-1.16l-1.59-5.49a1.5,1.5,0,0,0-2.89.79,28.82,28.82,0,0,0,3.3,8,1.5,1.5,0,0,0,2.59-1.51,37.89,37.89,0,0,1-3.18-7.23c-.58-1.83-3.45-1.06-2.89.8l3.92,12.93,2.89-.79a52.39,52.39,0,0,1-2.9-14.17h-3a48.85,48.85,0,0,0,2.86,11.29l2.51-1.46a10.16,10.16,0,0,1-2.43-9c.41-1.88-2.48-2.69-2.89-.8Z"/>
<path class="cls-1" d="M130.46,25.67l-10.38,7.7c-.83.62-3,2.93-3.9,1.55s.43-3.22,1.15-4.36c1-1.67-1.48-3-2.59-1.52a91.48,91.48,0,0,0-6.46,10.36l2.79.75-.28-6.29c-.06-1.36-2.14-2.21-2.79-.76l-1.83,4.08a16.51,16.51,0,0,1-.88,1.91c-.33.52-.7.51-1.29.54a16.64,16.64,0,0,0-7.3,2c-1.47.81-.48,3.3,1.15,2.75a7.92,7.92,0,0,1,4.09-.36c1.58.29,2.75-1.89,1.16-2.74A12.69,12.69,0,0,0,97.27,40a37,37,0,0,1-6.64-.67,33.83,33.83,0,0,1-12.17-5.16c-1.6-1.09-3.1,1.51-1.51,2.59a36.39,36.39,0,0,0,12,5.28,36.49,36.49,0,0,0,6.42.9c2.06.11,4.3-.13,6.19.88l1.15-2.74a11.11,11.11,0,0,0-5.69.35l1.16,2.74a12.8,12.8,0,0,1,4.12-1.44c1.24-.2,2.57,0,3.75-.5a4.81,4.81,0,0,0,2.37-2.9l2.14-4.75-2.8-.76.28,6.29a1.52,1.52,0,0,0,2.8.76,91.35,91.35,0,0,1,6.46-10.35L114.74,29c-1.2,1.91-2.39,4.17-1.58,6.46A4,4,0,0,0,118,38.26a10.52,10.52,0,0,0,3-1.85l3.6-2.67L132,28.26c1.53-1.14,0-3.75-1.52-2.59Z"/>
<path class="cls-1" d="M66.74,42.19a57,57,0,0,0,8.56,6.24c1.41.84,3.19-1.29,1.81-2.36a32.5,32.5,0,0,0-7.59-4.45c-1.65-.69-2.48,1.85-1.16,2.74,11.51,7.75,25.93,5.32,38.68,2.86a1.52,1.52,0,0,0,1.1-1.45,15.88,15.88,0,0,0-1-6.4c-.46-1.19-2.67-1.63-2.89,0a36.44,36.44,0,0,0-.29,7.74l3-.4-1.25-3.36a1.51,1.51,0,0,0-3,.39l-.18,4.15h3a15.21,15.21,0,0,0-1-4.76,1.51,1.51,0,0,0-2.89,0,6.16,6.16,0,0,0,.56,5.53,1.5,1.5,0,0,0,2.59-1.52l-1-2.27c-.7-1.55-3.23-.45-2.74,1.16l1.06-.72a1.52,1.52,0,0,0-2.26,1.3,3.18,3.18,0,0,0,1.63,2.58c1,.64,1.72,1,1.88,2.24.35,2.63-2.23,4.52-4.07,5.9a1.52,1.52,0,0,0,0,2.59c3,2,6.63-.77,7.33-3.84.45-2,.08-4,.15-6,0-1.41.39-3,1.72-3.66l-2.25-1.3a20.6,20.6,0,0,1-.58,8l2.9.8,1.77-10.42-3-.39a39.85,39.85,0,0,1-.25,8.24l3,.4A55.69,55.69,0,0,1,111.56,39l-2.94-.4.66,13.5c.08,1.59,2.68,2.16,3,.4l1.82-12.27-2.94-.4a67.38,67.38,0,0,1-.23,12h3L115,39.26c.17-1.95-2.78-1.88-3,0a72.89,72.89,0,0,0-.27,14.47c.12,1.55,2.7,2.19,2.94.39l2.16-15.53-3-.39.41,12.68a1.5,1.5,0,0,0,3,0l1.18-14.58-2.94.4a42.2,42.2,0,0,1,.56,12h3a55,55,0,0,1,.42-9.42h-3l-.77,9.82c-.13,1.67,2.64,2.07,3,.4l1.77-9.6-2.94-.4a101.89,101.89,0,0,1,.37,10.91c0,2,2.87,1.92,3,0l.74-11.27-2.95.4a32,32,0,0,1,.49,8.12h3l-.49-9.55-2.94.4a62,62,0,0,1,.64,10.63h3a31.63,31.63,0,0,1,.49-7.89l-2.94-.39,0,11.83h3a57.6,57.6,0,0,1,.33-10.17h-3a65.53,65.53,0,0,1,.2,8.05c-.08,1.94,2.88,1.91,3,0l.61-10.08L123,42a62.7,62.7,0,0,0,19.21-6.68c1.7-.92.19-3.49-1.51-2.59a30.12,30.12,0,0,1-12.58,3.46c-1.56.07-3.26,0-4.67.84A3.37,3.37,0,0,0,122,41.24a11.48,11.48,0,0,0,1.57,2.51c.64.89,1.24,1.85,2,2.67,1.45,1.64,3.36,1.49,5.34,1.23a66.31,66.31,0,0,0,12.88-3c4.84-1.66,9.52-3.75,14.19-5.84,1.76-.78.24-3.37-1.51-2.59-4.44,2-8.88,4-13.48,5.54a68.16,68.16,0,0,1-7.17,2,31.21,31.21,0,0,1-6.83,1.11c-1.24,0-1.7-1.11-2.36-2a10.08,10.08,0,0,1-1.77-2.57c-.2-.8.53-.88,1.23-1,1-.15,2-.09,3-.16a33.68,33.68,0,0,0,13.19-3.82l-1.51-2.59a60.41,60.41,0,0,1-18.49,6.38,1.52,1.52,0,0,0-1.11,1.44l-.61,10.08h3a65.53,65.53,0,0,0-.2-8.05,1.5,1.5,0,0,0-3,0,57.6,57.6,0,0,0-.33,10.17c.11,1.92,3,2,3,0l0-11.83c0-1.64-2.62-2.11-3-.4a34.16,34.16,0,0,0-.6,8.68,1.5,1.5,0,0,0,3,0,66.27,66.27,0,0,0-.75-11.43c-.25-1.67-3-1.28-2.95.4l.49,9.55a1.5,1.5,0,0,0,3,0,35.12,35.12,0,0,0-.6-8.92c-.33-1.75-2.84-1.2-2.94.4l-.74,11.27h3a101.89,101.89,0,0,0-.37-10.91c-.14-1.56-2.62-2.19-2.95-.4l-1.78,9.6,2.95.4.77-9.82c.15-2-2.76-1.86-3,0a55,55,0,0,0-.42,9.42,1.5,1.5,0,0,0,3,0,44.82,44.82,0,0,0-.67-12.82c-.34-1.76-2.82-1.19-3,.39l-1.18,14.58h3l-.41-12.68c0-1.61-2.7-2.15-2.94-.4l-2.16,15.53,3,.4A72.89,72.89,0,0,1,115,39.26h-3L110.88,51.9c-.17,1.93,2.79,1.89,3,0a67.38,67.38,0,0,0,.23-12c-.11-1.56-2.68-2.18-3-.4l-1.83,12.28,3,.39-.66-13.5c-.08-1.62-2.55-2.11-3-.39a59.13,59.13,0,0,0-1.58,13.52c0,1.63,2.71,2.11,2.94.4a44.1,44.1,0,0,0,.36-9c-.11-1.58-2.64-2.17-3-.4l-1.77,10.41c-.31,1.87,2.37,2.7,2.9.8a23,23,0,0,0,.68-8.81A1.52,1.52,0,0,0,107,43.82c-2.55,1.35-3.27,4.34-3.21,7,0,1.66.43,3.65-.27,5.22-.44,1-1.67,2-2.7,1.27v2.59c2.45-1.83,5.08-3.92,5.51-7.16a6.08,6.08,0,0,0-.74-4,4.79,4.79,0,0,0-1.39-1.48c-.26-.18-.52-.32-.79-.48s-.55-.47-.54-.23l-2.25,1.29A2.32,2.32,0,0,0,104,45.23l-2.74,1.16,1,2.27,2.59-1.52a3.38,3.38,0,0,1-.26-3.22h-2.89a12.92,12.92,0,0,1,.84,4,1.5,1.5,0,0,0,3,0l.18-4.15-2.94.4L104,47.51c.54,1.47,3.07,1.41,2.94-.4a33.53,33.53,0,0,1,.18-6.94h-2.89a13.72,13.72,0,0,1,.91,5.6l1.1-1.44c-12,2.3-25.55,4.72-36.36-2.56l-1.16,2.74A27.59,27.59,0,0,1,75,48.19l1.82-2.35a52.42,52.42,0,0,1-7.94-5.77c-1.45-1.27-3.58.85-2.13,2.12Z"/>
<path class="cls-1" d="M125.47,43.13a3.47,3.47,0,0,1,1.17,3.25l2.94.4a6.43,6.43,0,0,1,.9-2.65L127.73,43l-2.42,6.18,2.9.8a7.92,7.92,0,0,1,1.51-3.52l-2.56-1.06a10.8,10.8,0,0,1-1.89,5.86l2.74.36A29.9,29.9,0,0,1,128,44c.17-1.47-2.18-2-2.8-.76a20.07,20.07,0,0,0-2,8.61h3l-.41-5.73a1.5,1.5,0,0,0-3,0,12.37,12.37,0,0,0,1,6.57c.49,1.14,2,.8,2.59,0a7.51,7.51,0,0,0,1.35-5.36c0-.43-.33-1.48,0-1.89s.29.43.24.7a3.43,3.43,0,0,1-.83,1.47,8.14,8.14,0,0,1-2.73,2,44,44,0,0,1-7.1,2.23l-8.77,2.46a1.5,1.5,0,0,0,.4,2.94,30.42,30.42,0,0,0,9.08-.52c1.63-.34,1.29-3.1-.4-3a23.93,23.93,0,0,1-8.47-.74,1.51,1.51,0,0,0-1.46,2.5,8.66,8.66,0,0,0,6.22,2.63c1.65,0,2.08-2.58.4-2.95a8.45,8.45,0,0,1-2.51-1.26c-.27-.39-.35-.4-.25,0s.09.36.33,0a11.49,11.49,0,0,0,1.12-.89,11.54,11.54,0,0,1,2.33-1.23,12,12,0,0,1,1.16-.36c.26-.07.52-.13.79-.18.74,0,.82-.45.24-1.43-.92,1,0,3.07,1.46,2.51l1.69-.64-1.46-2.5c-1.87,1.87-4.48,2.54-6.91,3.37s-5,1.88-6.72,3.91a1.52,1.52,0,0,0,.31,2.36c3.35,2,7.58,1.86,11.33,1.38a5.38,5.38,0,0,0,4.32-2.44,3.63,3.63,0,0,0-.48-4.4c-1-1-3,0-2.51,1.46A10,10,0,0,0,120.4,58a1.53,1.53,0,0,0,2.36-.3,4,4,0,0,0-.56-5.13,1.54,1.54,0,0,0-2.12,0c-2.56,2.13-.75,6.21,2.33,6.44,3.8.29,5.47-3.54,5-6.75-.26-1.75-2.86-1.2-2.94.4a8,8,0,0,0,1.46,5.13,1.5,1.5,0,0,0,2.59-1.52c-.79-1.8-2.43-6.91-5.26-4.33-1.89,1.71-1.33,5,.39,6.57a1.53,1.53,0,0,0,2.12,0A7.84,7.84,0,0,0,127.86,53l-2.79.75,2.23,4.92a1.51,1.51,0,0,0,2.59,0,4.82,4.82,0,0,0,.62-2.62l-2.95.39A8.53,8.53,0,0,0,131,61.86l1.16-2.74-7.92-1.6c-.47-.09-6.33-1.12-6-1.71l-2.59-1.52c-.73,1.55-1.26,3.31-.14,4.82s3.25,1.75,4.93,2a39.82,39.82,0,0,0,12.47.21c1-.13,1.29-1.45.9-2.2l-2.1-4a20.52,20.52,0,0,0-1.91-3.47,2.87,2.87,0,0,0-3.21-.84c-1.52.37-3,.91-4.54,1.37l-18,5.42,1.16,2.74L108,58.93c1.73-.86.21-3.45-1.51-2.59l-2.86,1.44c-1.52.76-.46,3.23,1.16,2.74l15.55-4.7,3.83-1.15c.69-.21,2.87-1.18,3.32-.9s.66,1.26.86,1.63l.88,1.69,1.88,3.59.9-2.2a36.1,36.1,0,0,1-8.44.13,33.55,33.55,0,0,1-4.09-.68,3.84,3.84,0,0,1-1.48-.44c-.52-.42-.11-1.17.13-1.68.81-1.74-1.76-3.26-2.59-1.52a3.31,3.31,0,0,0,.56,3.82,7,7,0,0,0,3.93,1.63L131.33,62a1.51,1.51,0,0,0,1.16-2.74,5.54,5.54,0,0,1-2-3.61c-.29-1.67-3-1.28-3,.4a1.87,1.87,0,0,1-.21,1.11h2.59l-2.23-4.92c-.64-1.4-2.81-.64-2.8.76a4.77,4.77,0,0,1-1.23,3.33h2.12a1.82,1.82,0,0,1-.65-1.1c0-.19,0-.4,0-.58a1,1,0,0,1,.06-.25c.15-.35-.12-.42-.81-.2-.07.21.59,1.28.69,1.52l.88,2,2.59-1.52a5.37,5.37,0,0,1-1-3.61l-3,.39c.17,1.12-.16,2.67-1.45,2.94-.86.18-1.63-.65-.85-1.3h-2.12a1,1,0,0,1,.09,1.49l2.35-.3a6.11,6.11,0,0,1-1.11-1.89l-2.5,1.46c.59.61-.5,1.34-1,1.52a12.38,12.38,0,0,1-3.59.41c-2.4.11-4.85.07-7-1.18l.31,2.36c1.72-2,4.25-2.76,6.69-3.58a17.06,17.06,0,0,0,6.94-3.71c1-1,0-3.06-1.46-2.51l-1.7.64,1.46,2.5c1.49-1.63.09-3.78-2-3.75a12.08,12.08,0,0,0-5.87,2c-1.41.89-3.75,2.4-3.16,4.39s3.07,3.12,4.85,3.52l.4-3a5.63,5.63,0,0,1-4.1-1.75l-1.46,2.51a26.11,26.11,0,0,0,9.27.85l-.4-2.95a27.4,27.4,0,0,1-8.28.42l.4,3c4.07-1.14,8.14-2.26,12.21-3.41,3-.85,6.09-1.92,8.06-4.42a5.28,5.28,0,0,0,1.27-4.53,3.32,3.32,0,0,0-3.61-2.44,3.46,3.46,0,0,0-2.62,3.36c-.06.92.21,1.82.19,2.74a4.9,4.9,0,0,1-1,2.74h2.59a9.53,9.53,0,0,1-.63-5.06h-3l.41,5.73c.14,1.9,3,2,3,0a16.41,16.41,0,0,1,1.6-7.09L125,44a32.52,32.52,0,0,0,.15,8.42c.2,1.38,2.11,1.31,2.74.36a13.87,13.87,0,0,0,2.3-7.38c0-1.21-1.73-2.11-2.56-1.07a11.16,11.16,0,0,0-2.29,4.85,1.51,1.51,0,0,0,2.9.8l2.42-6.18c.63-1.61-1.91-2.59-2.74-1.15a10,10,0,0,0-1.31,4.16c-.16,1.68,2.63,2.06,3,.4A6.55,6.55,0,0,0,127.6,41c-1.42-1.31-3.55.81-2.13,2.12Z"/>
<path class="cls-1" d="M196.39,12.38c-2,3.14-2.33,6.83-3.29,10.35A12.62,12.62,0,0,1,191.2,27c-1.07,1.46-2.48,1.91-4.07,2.62-2.94,1.31-3.7,4.12-3.92,7.08a23.8,23.8,0,0,1-.43,4.12c-.43,1.68-1.57,2.66-2.88,3.72a23.3,23.3,0,0,0-7,9.53c-.72,1.79,2.18,2.57,2.89.8A20.54,20.54,0,0,1,182,46.62,10.1,10.1,0,0,0,185.18,43a12.46,12.46,0,0,0,.89-4.19,26.08,26.08,0,0,1,.4-4A3.57,3.57,0,0,1,189,32a10.83,10.83,0,0,0,6.4-6.77c1.41-3.73,1.32-8,3.55-11.37,1.06-1.62-1.54-3.13-2.59-1.51Z"/>
<path class="cls-1" d="M183,52.87c.74-1.58,2.26-2.37,3.64-3.31a9.46,9.46,0,0,0,3.45-3.68c1.54-3.31.32-7.59,3.46-10.09,1.33-1.06,2.88-1.82,4.2-2.91a8.42,8.42,0,0,0,2.85-4.7c.47-2.07.55-4.18,1.16-6.23a21.06,21.06,0,0,1,3-6c1.1-1.58-1.5-3.09-2.6-1.51a24.23,24.23,0,0,0-3,6,39.62,39.62,0,0,0-1.26,6.2,6.39,6.39,0,0,1-2.74,4.58,36.26,36.26,0,0,0-4.2,3,8.54,8.54,0,0,0-2.45,4.72c-.34,1.82-.26,3.82-1,5.56-.65,1.56-2.12,2.41-3.46,3.31a9.54,9.54,0,0,0-3.62,3.65c-.82,1.74,1.77,3.26,2.59,1.52Z"/>
<path class="cls-1" d="M194.56,49c2.36-1.9,2.73-5,3.57-7.67.89-2.87,3.12-4.52,5.13-6.6a12,12,0,0,0,2.5-3.53,21.84,21.84,0,0,0,1.07-4.87,9.86,9.86,0,0,1,5.42-7.23c1.73-.86.21-3.45-1.52-2.59a12.7,12.7,0,0,0-6.17,6.77,31.34,31.34,0,0,0-1.08,5.16,7.84,7.84,0,0,1-2.1,3.92c-2,2.14-4.41,3.89-5.6,6.68-1.08,2.55-1,6-3.34,7.84-1.51,1.21.63,3.32,2.12,2.12Z"/>
<path class="cls-1" d="M202.57,45.27a15.28,15.28,0,0,1,4.26-6.77c1.85-1.71,4.14-3,5.42-5.23s1-5.19,2.27-7.56a9.41,9.41,0,0,1,5.35-4.56c1.82-.6,1-3.5-.8-2.89a12.57,12.57,0,0,0-6.29,4.58A11.87,11.87,0,0,0,211,26.35c-.47,1.52-.48,3.14-1,4.63-1,2.67-4,4-5.9,5.95a18.65,18.65,0,0,0-4.45,7.54c-.57,1.85,2.33,2.64,2.9.8Z"/>
<path class="cls-1" d="M217.67,33.86c-.27-2.41,1.88-4.26,3.52-5.73a22.64,22.64,0,0,0,4.95-5.39,1.5,1.5,0,0,0-2.59-1.51c-1.19,2.1-3.23,3.6-5,5.27-2,1.87-4.2,4.41-3.86,7.36a1.54,1.54,0,0,0,1.5,1.5,1.51,1.51,0,0,0,1.5-1.5Z"/>
<path class="cls-1" d="M6.24,31.42c.57-.24,1.32.5,1.64.88a6.13,6.13,0,0,1,1,2.63C9.42,37,10,39.06,11.69,40.47A17.79,17.79,0,0,0,16.52,43a6.93,6.93,0,0,1,3.56,2.44c1,1.64,3.61.13,2.6-1.52a9.56,9.56,0,0,0-4.81-3.59c-1.58-.66-3.42-1.2-4.61-2.48C11.7,36.17,12,33.4,10.9,31.44c-1.23-2.26-3.69-3.67-6.17-2.61a1.51,1.51,0,0,0-.54,2.05,1.54,1.54,0,0,0,2.05.54Z"/>
<path class="cls-1" d="M14.59,27.3c.95,0,1.39,1.31,1.52,2.09.26,1.47,0,3,.32,4.46.53,2.6,2.49,4,4.76,5a12.78,12.78,0,0,1,5.12,3.53A15,15,0,0,1,28.9,49.1c.32,1.89,3.21,1.09,2.89-.8a17.42,17.42,0,0,0-2.89-7.45A14.36,14.36,0,0,0,23,36.37a7.65,7.65,0,0,1-3.07-1.85c-1-1.23-.67-3-.76-4.49-.15-2.68-1.55-5.63-4.58-5.73-1.93-.06-1.93,2.94,0,3Z"/>
<path class="cls-1" d="M21.18,23.33c2.28,1.11,1.74,4.34,1.64,6.41-.14,3,.37,5.72,3,7.5,1.17.8,2.48,1.36,3.61,2.22A16.34,16.34,0,0,1,35.63,50c.31,1.9,3.2,1.1,2.89-.79a19.69,19.69,0,0,0-10.21-14A4.07,4.07,0,0,1,25.84,32a35.16,35.16,0,0,1,.1-4.47c0-2.61-.71-5.59-3.25-6.82-1.73-.84-3.25,1.75-1.51,2.59Z"/>
<path class="cls-1" d="M27.71,22.39c2,2.06,2,5.1,1.93,7.78C29.55,33.12,29.25,36.1,32,38c1.12.78,2.43,1.24,3.57,2a12.93,12.93,0,0,1,3,2.93,13.28,13.28,0,0,1,2.66,7.88,1.5,1.5,0,0,0,3,0,16.44,16.44,0,0,0-9.1-14.5c-1.55-.77-2.55-1.4-2.59-3.27,0-1.51.15-3,.12-4.55-.06-3-.7-6-2.83-8.23-1.33-1.4-3.45.73-2.12,2.13Z"/>
<path class="cls-1" d="M32.27,19.05c1.17,1.35,2.29,2.71,2.3,4.58S34,27.17,33.82,29a8.76,8.76,0,0,0,3.48,7.58c2.21,1.85,4.91,3.13,6.86,5.27A10.79,10.79,0,0,1,46.73,51c-.36,1.89,2.53,2.7,2.89.8a14,14,0,0,0-1.93-10.27c-1.83-2.79-4.62-4.41-7.26-6.31a10.42,10.42,0,0,1-3-2.91c-.92-1.56-.7-3.27-.38-5a12.8,12.8,0,0,0,.25-5.67,12.38,12.38,0,0,0-2.94-4.7c-1.27-1.46-3.39.67-2.12,2.12Z"/></g></g></svg>
