<svg xmlns="http://www.w3.org/2000/svg" viewBox="0 0 1100 800"><path stroke="#ffffff" stroke-width="3" fill="none" d="M62.1,100.73c3.31,20.72-6.46,40.83-17.78,57.51S19.07,189.79,9.74,207.75a83.68,83.68,0,0,0-9,27.06A75.65,75.65,0,0,0,1.84,262,65.59,65.59,0,0,0,12.9,286.54a67.93,67.93,0,0,0,19.59,17.59c15.45,9.34,33.51,13.35,51.13,16.2,4.67.76,9.35,1.43,14,2.08a116.69,116.69,0,0,0,16.9,1.45,55.12,55.12,0,0,0,28-8.19c8.27-4.95,15.5-11.49,22-18.5,6.86-7.34,13.27-15.39,17.31-24.66a60.15,60.15,0,0,0,4.33-31.67c-1.33-10.59-4.82-20.7-8.72-30.58a217.21,217.21,0,0,0-10.44-23.44c-3-5.61-6.48-11-9.78-16.41A283.17,283.17,0,0,1,133.5,119.6q-1.81-5-3.48-10.12c-.59-1.83-3.49-1-2.89.8a310,310,0,0,0,21.59,51.18c6.4,11.84,14.27,22.81,19.9,35.08a244.84,244.84,0,0,1,10.81,27.68c3.15,9.93,5.14,20.31,4.09,30.76s-5.31,20-11.39,28.52A122.1,122.1,0,0,1,152.26,305c-7.12,6.1-15.24,11.32-24.29,14-10.52,3.1-21.35,1.73-32,.22-17.5-2.47-35.43-5.23-51.74-12.36a75.67,75.67,0,0,1-21.68-13.9A60.31,60.31,0,0,1,7.76,271.07c-6.65-16.92-6.14-36,.45-52.81,7.22-18.44,20.43-33.71,32.15-49.39,12-16,23.24-34.1,25.14-54.48A57.77,57.77,0,0,0,65,99.94c-.31-1.91-3.2-1.1-2.9.79Z"/>
<path stroke="#ffffff" stroke-width="3" fill="none" d="M63.3,315.28a14.42,14.42,0,0,0,3.13,12.57c3.41,4,8.59,5.1,13.65,4.92,2.94-.11,5.86-.48,8.79-.67,3.19-.2,6.38-.31,9.57-.31a152.61,152.61,0,0,1,18.63,1.14c2.35.29,5.26.67,6.88-1.51a5.25,5.25,0,0,0,.71-4c-.24-1.7-.59-3.38-.89-5.06-.35-1.9-3.24-1.09-2.9.8l.69,3.8c.15.86.6,2.34-.29,2.94a3.93,3.93,0,0,1-2.4.26c-1.25-.1-2.5-.3-3.75-.44a151.62,151.62,0,0,0-15.94-.91c-5.27,0-10.51.29-15.75.75-4.46.39-9.59.76-13.29-2.24a11.4,11.4,0,0,1-4-11.23c.45-1.87-2.44-2.67-2.89-.79Z"/>
<path stroke="#ffffff" stroke-width="3" fill="none" d="M16.74,20.57l53,65.11L84.64,104c1.22,1.5,3.33-.64,2.12-2.12l-53-65.11L18.86,18.45c-1.22-1.5-3.33.63-2.12,2.12Z"/>
<path stroke="#ffffff" stroke-width="3" fill="none" d="M100.49,104.38q34-34.17,68.05-68.33,9.51-9.57,19-19.12c1.36-1.37-.76-3.5-2.12-2.12q-34,34.15-68.05,68.33l-19,19.12a1.5,1.5,0,0,0,2.12,2.12Z"/>
<path stroke="#ffffff" stroke-width="3" fill="none" d="M18.93,19.11C23.05,15.82,28,13.83,33,12.33S43.4,9.63,48.66,8.54A268.35,268.35,0,0,1,82.07,3.82a270.62,270.62,0,0,1,104,12.09c1.84.59,2.63-2.3.8-2.89A274.79,274.79,0,0,0,51,5c-6.18,1.19-12.38,2.53-18.42,4.3A45.41,45.41,0,0,0,16.81,17c-1.51,1.21.63,3.32,2.12,2.13Z"/>
<path stroke="#ffffff" stroke-width="3" fill="none" d="M17.34,21a501.68,501.68,0,0,0,66,6.13,499.33,499.33,0,0,0,66.3-2.68q18.51-2,36.85-5.35c1.89-.34,1.09-3.24-.8-2.89a495.36,495.36,0,0,1-65.28,7.51,499,499,0,0,1-65.62-1.16Q36.39,21,18.14,18.11c-1.89-.3-2.7,2.59-.8,2.89Z"/>
<path d="M48.28,65.52c1.89-1,5,.27,9.32,1.7C81.16,75,118.43,74,141.4,63.67c5.38-2.41,10.48-5.56,13-4.35,3.21,1.53-.21,8.52-3.27,16.15,0,0-6.66,16.61-9.26,31.71-4.92,28.42,21.6,51.67,15.52,54.33-.62.27-1.26.19-2.68-.06a106,106,0,0,1-23.5-6.84c-7.24-3.14-14.48-3.23-28.94-3.39-32.66-.38-58.17,13.87-61.9,9.71-.8-.89-.63-2.83.6-6.63,1.41-4.31,2.11-6.46,5.62-10.86,6.09-7.66,13.73-24,15.73-32C68.27,87.86,42,68.93,48.28,65.52Z"/>
<path stroke="#ffffff" stroke-width="3" fill="none" d="M49,66.82c1.43-.71,3.78.39,5.13.84,2.1.69,4.17,1.41,6.29,2a100.75,100.75,0,0,0,11.9,2.54,143.67,143.67,0,0,0,26.78,1.53,138.57,138.57,0,0,0,26.53-3.35,94.08,94.08,0,0,0,11.84-3.52c4.36-1.63,8.39-4,12.74-5.63.8-.3,3-1.27,3.75-.4s-.15,3.41-.46,4.39c-1.09,3.53-2.68,6.9-4,10.34A193.3,193.3,0,0,0,143,95.46a95.14,95.14,0,0,0-3,14.25,46.15,46.15,0,0,0,.4,12.42A70.32,70.32,0,0,0,148,143.25c2.52,4.81,5.64,9.33,8,14.22a9.43,9.43,0,0,1,.77,2c0,.14.06.27.09.41-.08-.44,0,0,0,.07,0,.36,0,.05,0,.05a.28.28,0,0,1,0,.15c-.12.23.08,0,.07-.11s-.13.46,0,0c-.08.25-.06,0,0,0a5.2,5.2,0,0,1-1.75-.09q-3.91-.67-7.79-1.64a107.86,107.86,0,0,1-11.52-3.54c-2.26-.83-3.48-1.45-5.65-2.26-6.82-2.58-14.36-2.64-21.56-2.77-5.24-.09-10.47-.17-15.71.2a140.27,140.27,0,0,0-14.72,1.85c-8,1.43-15.77,3.54-23.55,5.72-2.68.76-5.36,1.53-8.08,2.12a22.77,22.77,0,0,1-2.71.45,8.77,8.77,0,0,1-1.15.05l-.47,0c-.11,0,.16,0-.23,0l-.36-.11c-.15,0,.23.19-.08,0s.09.26,0,0a.42.42,0,0,1-.08-.27c-.17-1.75.61-3.68,1.14-5.32a33,33,0,0,1,2.19-5.53,45.2,45.2,0,0,1,3.74-5.37c4.89-6.48,8.56-14,11.71-21.48,2.87-6.77,5.17-13.66,4.31-21.12-.81-7-3.75-13.59-7.39-19.62-1.52-2.51-3.17-4.94-4.79-7.39-.66-1-1.31-2-1.92-3-.26-.42-.5-.84-.73-1.27-.11-.21-.22-.41-.32-.62s-.29-.65-.2-.42c-.12-.31-.21-.62-.3-.93s-.06-.36,0-.18c0-.12,0-.25,0-.38,0-.31-.15.26,0-.07s-.2.27,0,0c.1-.13-.25.19,0,0,.06,0-.22.12.15-.09a1.5,1.5,0,0,0-1.51-2.6c-3.79,2.16-.35,7.16,1.22,9.6,3.43,5.31,7.1,10.46,9.68,16.26,3,6.82,4.29,14.38,2.3,21.68-2.13,7.8-5.85,15.36-9.82,22.37a100.63,100.63,0,0,1-6.72,10,34.37,34.37,0,0,0-5.31,12.08c-.61,2.43-1,5.7,1.95,6.68a10.93,10.93,0,0,0,5.24-.08c6.31-1.12,12.45-3.3,18.64-4.91a154.27,154.27,0,0,1,28-4.9c5.45-.4,10.9-.31,16.35-.21a111.09,111.09,0,0,1,12.37.7,35.92,35.92,0,0,1,9.11,2.4c2,.86,4.08,1.68,6.17,2.41A109.61,109.61,0,0,0,149.74,162c1.37.3,2.74.57,4.12.82a9.89,9.89,0,0,0,3.33.29,3.13,3.13,0,0,0,2.23-1.44c.79-1.37.29-3-.26-4.4a49.09,49.09,0,0,0-3.2-6c-7.51-12.85-14.8-26.64-12.86-42.06a102.34,102.34,0,0,1,3.35-14.94c1.18-4.19,2.51-8.34,4-12.44.69-2,1.4-3.93,2.17-5.87,1.64-4.11,3.9-8.32,4.52-12.75a5.16,5.16,0,0,0-1-4.45,4.87,4.87,0,0,0-4.59-1A28.27,28.27,0,0,0,145,60.31c-2.17,1-4.32,2.11-6.56,3a103.64,103.64,0,0,1-25.37,6.31,149,149,0,0,1-28.24.93,109.88,109.88,0,0,1-25.45-4.33c-2.21-.68-4.38-1.55-6.62-2.13a7.33,7.33,0,0,0-5.22.13C45.79,65.07,47.31,67.66,49,66.82Z"/>
<path stroke="#ffffff" stroke-width="3" fill="none" d="M62.82,114.14a184,184,0,0,0,60.8,2.84q8.61-1,17.07-2.87c1.69-.37,1.26-2.92-.4-3l-30.45-.57c-10-.19-20-.24-29.94-.61a79.65,79.65,0,0,1-16.43-2c-1.33-.33-2.72,1.53-1.46,2.51,17.75,13.8,40.84,5.25,60.93,4.26,6.67-.33,13.24.61,19.89.82l-1.5-1.5c1.75,13.64,15.32,21.06,19,33.82a1.5,1.5,0,0,0,2.89-.8c-1.83-6.33-6-11.47-10.05-16.54-3.86-4.85-8-10.13-8.84-16.48a1.55,1.55,0,0,0-1.5-1.5c-5.68-.18-11.32-1-17-.91a127.75,127.75,0,0,0-16.68,1.59c-10.08,1.43-20.39,3.14-30.54,1.25a33.45,33.45,0,0,1-14.48-6.13l-1.46,2.5c9.61,2.39,19.62,2.21,29.45,2.39l30.7.58,17.47.33-.39-3a181.52,181.52,0,0,1-59.53,2.85c-5.63-.67-11.22-1.62-16.75-2.81-1.89-.41-2.69,2.49-.8,2.89Z"/>
<path stroke="#ffffff" stroke-width="3" fill="none" d="M142,114.67c3,.59,4.55,3.36,5.89,5.83,1.53,2.84,3.13,5.38,5.87,7.19,2.59,1.7,5.59,2.6,8.37,3.93a35.27,35.27,0,0,1,8.51,5.74c1.42,1.3,3.55-.82,2.12-2.12a37.73,37.73,0,0,0-8.53-5.92c-3-1.48-6.19-2.4-9-4.22-5.23-3.44-5.58-12-12.48-13.32-1.89-.37-2.7,2.52-.8,2.89Z"/></g></g></svg>
