<svg xmlns="http://www.w3.org/2000/svg" viewBox="0 0 225.24 196.81"><defs><style>.cls-1{fill:#fcfcfc;}</style></defs><title>cezve</title><g id="Layer_2" data-name="Layer 2"><g id="Layer_1-2" data-name="Layer 1"><path class="cls-1" d="M25.32,36.11,8.73,34.31l.76,2.8c5.89-3.38,11.9-6.61,17.67-10.19a68.51,68.51,0,0,1,13.39-6.45A76.38,76.38,0,0,1,73,16.9a55,55,0,0,1,13.66,2.91c3.07,1.12,6.45,2.72,8.47,5.4a8.2,8.2,0,0,1,1.45,3.36c.35,1.7-.44,3.26-1.13,4.77-1.4,3-2.66,6.13-3.87,9.24-1.44,3.72-2.8,7.48-3.89,11.31-.78,2.76-1.79,6-1.32,8.88,1,5.94,9.33.85,12-.64,8.68-4.9,16.85-10.73,25.17-16.2a357.73,357.73,0,0,1,32.46-19.47A254.58,254.58,0,0,1,218.35,4.13q2.9-.63,5.81-1.2L222.47.72a62.72,62.72,0,0,1-21.79,24.55C191.64,31,181.32,34,171,36.54c-9.87,2.43-19.81,4.66-29.25,8.51a115.46,115.46,0,0,0-22.41,12.24,149.67,149.67,0,0,0-29.19,27.3,1.49,1.49,0,0,0-.39,1.46q8.67,23.13,17.09,46.36,4.2,11.63,8.35,23.26c1.31,3.68,2.67,7.36,3.9,11.07,1.09,3.26,1.83,6.75,1,10.17-2,8.37-11.32,12-18.76,13.82-9.7,2.45-19.85,3-29.81,3.06-9.27.1-18.6,0-27.85-.6a126.74,126.74,0,0,1-15.91-1.78A51.84,51.84,0,0,1,13.55,187c-3.69-1.88-7.06-4.52-8.88-8.33A15.18,15.18,0,0,1,3,171.78c.12-3.73,2.08-7.38,3.4-10.8Q15.22,138,24.06,115.07a88.76,88.76,0,0,0,5.29-18.19,86.67,86.67,0,0,0,.95-17.63c-.22-4.55-.9-9-1.41-13.57C28.25,60,27.78,54.25,27.4,48.51q-.34-5.44-.58-10.9c-.09-1.92-3.09-1.93-3,0,.51,11.59,1.49,23.09,2.88,34.6a81.28,81.28,0,0,1-2.79,34.46c-2.49,7.84-5.77,15.47-8.73,23.14q-4.54,11.82-9.11,23.65L1.51,165.28a17.19,17.19,0,0,0-1.26,9.64,19.66,19.66,0,0,0,6.82,11.44c8,6.49,19.18,8.21,29.09,9.23s19.76,1.13,29.63,1.21c10.17.08,20.42-.21,30.47-1.94,8.39-1.44,18.31-4,23.8-11.07,3.75-4.82,4-10.92,2.32-16.63-1.09-3.68-2.51-7.28-3.79-10.89l-4.32-12.1Q105.75,120.44,97,96.82,94.83,91,92.65,85.25l-.38,1.46c13.36-16.06,29.62-30,49-38.22,19-8.09,40.6-8.79,58.62-19.22a65.42,65.42,0,0,0,25.2-27A1.52,1.52,0,0,0,223.37,0a260.39,260.39,0,0,0-59.69,19.31,287.46,287.46,0,0,0-34,19c-9.25,5.93-18.28,12.21-27.59,18a76.15,76.15,0,0,1-9.53,5.35c-.42.18-.94.38-1.42.54-.23.08-.47.15-.71.21s-.84.15-.46.11l-.54,0c-.44,0,.25.06-.14,0s.09.19-.08,0c.07.09.23.31.11.05s.12.32,0,0a1.41,1.41,0,0,1-.06-.22,1.59,1.59,0,0,1,0-.45,12.54,12.54,0,0,1,.1-1.84,34.58,34.58,0,0,1,1-4.61,118.35,118.35,0,0,1,3.79-11.27c1.16-3,2.39-6.07,3.73-9,.83-1.82,1.8-3.66,1.78-5.71a10.23,10.23,0,0,0-1.13-4.36c-1.44-2.93-4.3-5-7.14-6.45a44.53,44.53,0,0,0-12.6-4,81.46,81.46,0,0,0-31,.66,69.75,69.75,0,0,0-16.58,5.91c-4.87,2.46-9.51,5.44-14.25,8.15L8,34.52a1.51,1.51,0,0,0,.75,2.79l16.59,1.8C27.23,39.32,27.22,36.32,25.32,36.11Z"/><path class="cls-1" d="M25,39.07a124.77,124.77,0,0,0,60.31-2.23A124.73,124.73,0,0,0,98.4,32.2a1.55,1.55,0,0,0,1-1.85,1.49,1.49,0,0,0-1.84-1,122.11,122.11,0,0,1-57.91,9,119.13,119.13,0,0,1-13.93-2.1c-1.89-.39-2.69,2.5-.8,2.9Z"/><path class="cls-1" d="M8.28,37.47c6,2.51,11.42,6.31,16.7,10A1.53,1.53,0,0,0,27,46.91a1.55,1.55,0,0,0-.54-2.06C21,41,15.3,37.2,9.08,34.58a1.52,1.52,0,0,0-1.85,1.05,1.54,1.54,0,0,0,1,1.84Z"/></g></g></svg>