<svg xmlns="http://www.w3.org/2000/svg" viewBox="0 0 330.11 306.89"><defs><style>.cls-1{fill:#fff;}</style></defs><g id="Layer_2" data-name="Layer 2"><g id="Layer_1-2" data-name="Layer 1"><path class="cls-1" d="M313.63,42.84c-3.21,27.35-6.85,54.74-8.83,82.22a178.42,178.42,0,0,0-.61,21.81c.47,9.17,2.55,18.33,4.36,27.3,2.78,13.73,5.92,27.39,9.27,41q2.34,9.5,4.85,19c1.4,5.24,3.24,10.5,4,15.88,1.13,7.57,0,15.82-4.75,22-4.37,5.67-11,9.33-17.46,12a148.15,148.15,0,0,1-51,10.74c-15.32.57-32.15-1.36-42.07-14.5-9.44-12.49-10.43-29.41-8.74-44.43a93.9,93.9,0,0,1,3.1-15.41A73.28,73.28,0,0,0,208,210a124.22,124.22,0,0,0,.58-25.5c-.74-11.12-2.32-22.18-4.12-33.17-2.37-14.54-5.18-29-8-43.46-3.25-16.5-6.54-33-10.12-49.41C185.16,53.13,184,47.84,183,42.5a63.3,63.3,0,0,1-1.25-10.89C181.7,25.23,184.22,20,189,15.52,197.4,7.72,209.58,5,220.61,3.8c11.9-1.28,23.93-.85,35.85,0a218.7,218.7,0,0,1,44.47,7.16q8.74,2.45,17.24,5.67l-1.1-1.45q-1.8,13.83-3.44,27.7c-.22,1.91,2.78,1.89,3,0q1.64-13.86,3.44-27.7c.09-.69-.54-1.23-1.1-1.45A201.44,201.44,0,0,0,277.21,2.82,279.55,279.55,0,0,0,237.89,0c-12.31,0-25.16.74-36.8,5-8.56,3.17-17.15,8.81-20.76,17.56-2.53,6.12-1.55,13-.46,19.36,2.25,13,5.5,25.93,8.14,38.9,3.43,16.89,6.79,33.8,9.94,50.74,2.36,12.71,4.62,25.45,6.2,38.27a190.82,190.82,0,0,1,1.75,29.25,93,93,0,0,1-1,11.66,104.52,104.52,0,0,1-2.51,10.74,96.69,96.69,0,0,0-3,17.47,82.58,82.58,0,0,0,1.4,24.85,47.31,47.31,0,0,0,9.39,19.66,37.75,37.75,0,0,0,18.7,12c7.78,2.28,16,2.61,24.07,2.34a158,158,0,0,0,26.82-3.21,143.87,143.87,0,0,0,25.14-7.49c6.63-2.7,13.26-6.22,18.08-11.64,5.25-5.91,7.43-13.72,7.11-21.54-.24-5.77-2-11.18-3.47-16.7-3.61-13.26-6.9-26.6-10-40-3-13-5.84-26-8-39.13a104.58,104.58,0,0,1-1.47-20.22c.23-9.21,1.05-18.4,1.93-27.57,1.34-13.88,2.94-27.73,4.54-41.58q1.5-12.95,3-25.89C316.86,40.92,313.86,40.94,313.63,42.84Z"/><path class="cls-1" d="M212.94,281.62a422.62,422.62,0,0,1-61.19,16.23,377.2,377.2,0,0,1-42,5.51c-7.25.52-14.55.6-21.82.47a206.15,206.15,0,0,1-39.42-4c-12.57-2.67-26.21-7-35.09-16.8a39.75,39.75,0,0,1-7.78-12.8C3.1,263.33,2,255.53,4,248.34c1.82-6.38,5.91-12,10.59-16.61a66.36,66.36,0,0,1,19.26-13c14.18-6.39,30.06-8.29,45.44-9.21,20.71-1.24,41.53-.86,62.26-.78q28.16.09,56.3.49l10.51.15c1.93,0,1.93-3,0-3q-26.33-.42-52.64-.58c-21.64-.13-43.33-.43-65,.22-16.65.5-33.77,1.55-49.72,6.76-14.71,4.8-29.54,14-37.09,27.91A32.52,32.52,0,0,0,0,257.85a45,45,0,0,0,6.3,20.68c6.54,11,18,17.31,29.84,21.14,13.26,4.28,27.33,6,41.19,6.78a276.1,276.1,0,0,0,29.62.08c10.53-.55,21-1.87,31.47-3.43a414.82,414.82,0,0,0,59.09-13.33q8.15-2.46,16.2-5.26c1.81-.63,1-3.52-.8-2.89Z"/><path class="cls-1" d="M201.29,256.06c-15.39,3.13-30.88,5.79-46.45,7.83q-18.34,2.42-36.81,3.67c-11,.73-22.16,1.37-33.22.86a173.77,173.77,0,0,1-43.37-7.64A187.8,187.8,0,0,1,9,247.24l-3.12-1.7c-1.69-.93-3.21,1.66-1.51,2.59A195.33,195.33,0,0,0,35.56,262a178.52,178.52,0,0,0,43.35,9c11.68.94,23.4.45,35.08-.24,12.08-.71,24.13-1.84,36.13-3.32q23-2.83,45.68-7.29,3.15-.6,6.28-1.25c1.9-.38,1.1-3.27-.79-2.89Z"/><path class="cls-1" d="M38,237.85a301.14,301.14,0,0,0,52.72,5.7,301.53,301.53,0,0,0,52.67-3.62,297.17,297.17,0,0,0,29.36-6.15,1.5,1.5,0,0,0-.8-2.89,297.07,297.07,0,0,1-51.72,8.78,299.88,299.88,0,0,1-52.16-.41A292.63,292.63,0,0,1,38.81,235c-1.88-.37-2.69,2.52-.79,2.9Z"/><path class="cls-1" d="M33.73,231.28a381.78,381.78,0,0,0,57.32,4,380.11,380.11,0,0,0,66-6.16q15.39-2.79,30.52-6.87a1.5,1.5,0,0,0-.8-2.89,377.16,377.16,0,0,1-57.64,10.79,379.29,379.29,0,0,1-64.82,1.34q-14.92-1-29.74-3.13c-1.89-.27-2.7,2.62-.8,2.89Z"/><path class="cls-1" d="M133.07,117.9a137.56,137.56,0,0,1,17.54,17.35,117.2,117.2,0,0,1,15.23,22.12,216.18,216.18,0,0,1,11.31,27.26,215.93,215.93,0,0,1,7.78,28.58,59.18,59.18,0,0,1,1.36,8c.13,2.49-1.16,3.79-3.28,4.78-4.32,2-8.79,3.76-13.28,5.38-1.8.65-1,3.55.8,2.89,4.1-1.48,8.16-3.08,12.15-4.84,1.8-.8,3.71-1.55,5-3.09a7.77,7.77,0,0,0,1.46-6.35A178.33,178.33,0,0,0,182,189.77a250.07,250.07,0,0,0-11.28-29.08,119,119,0,0,0-14.57-23.34,138,138,0,0,0-21-21.57c-1.47-1.23-3.61.89-2.12,2.12Z"/><path class="cls-1" d="M38.43,236.08q-1.86-4.11-3.31-8.38a36.8,36.8,0,0,1-1.2-5.39c-.54-3-1-8.05-4.13-9.54-1.64-.77-3.53-.87-5.13-1.69a18.22,18.22,0,0,1-6-5.62c-3.33-4.68-4.68-10.29-4.88-16-.22-5.86.64-11.69,1.51-17.46q1.41-9.33,3.11-18.61c.51-2.78.91-5.72,2.17-8.28a14.43,14.43,0,0,1,4.22-5c3.71-2.84,8.36-4.26,12.9-5.1,5.69-1,11.61-1.35,17-3.78s8.61-7.25,13-10.68a1.5,1.5,0,0,0,0-2.12,1.54,1.54,0,0,0-2.12,0c-4,3.11-7.12,7.54-11.71,9.87-4.76,2.41-10.37,2.72-15.55,3.57a36.37,36.37,0,0,0-13.69,4.73,18.45,18.45,0,0,0-8.31,12c-1.37,6-2.26,12.17-3.22,18.26a161.47,161.47,0,0,0-2.29,18.47c-.23,5.79.35,11.71,2.68,17.07a26.32,26.32,0,0,0,4.41,6.9,17.56,17.56,0,0,0,6,4.77,32.66,32.66,0,0,0,3.2,1,3.28,3.28,0,0,1,2,1c1.12,1.54,1.36,4,1.71,5.8a52.72,52.72,0,0,0,1.29,6.24,85.11,85.11,0,0,0,3.76,9.54c.79,1.76,3.38.24,2.59-1.51Z"/><path class="cls-1" d="M66.76,120.77a107.47,107.47,0,0,0,53,2.14,110.32,110.32,0,0,0,14.6-4.13c1.8-.65,1-3.55-.8-2.9a106,106,0,0,1-51.49,5.29,103.75,103.75,0,0,1-14.55-3.29c-1.85-.56-2.64,2.33-.8,2.89Z"/><path class="cls-1" d="M67.62,122C64.46,129.71,56.7,134.28,49,136.41c-4.34,1.19-8.77,1.26-13.17,2.07a15.83,15.83,0,0,0-6.63,2.67,19.44,19.44,0,0,0-4.74,5.32,42.38,42.38,0,0,0-5.17,14,152.06,152.06,0,0,0-2.46,16.31c-.28,2.85-.49,5.71-.61,8.58a43.41,43.41,0,0,0,.09,8,17.81,17.81,0,0,0,2.74,7,44.52,44.52,0,0,0,4.26,5.84,11.79,11.79,0,0,0,2.84,2.38A21.45,21.45,0,0,0,30,210a8.83,8.83,0,0,1,5,4.71c2.55,5.07,1.82,11.08,3.47,16.42.56,1.84,3.46,1,2.89-.8-1.48-4.8-1.1-10-2.76-14.74a16.2,16.2,0,0,0-3-5.39A11.51,11.51,0,0,0,30,206.8a10.19,10.19,0,0,1-5.55-4,39.1,39.1,0,0,1-3.95-6,16.15,16.15,0,0,1-1.38-7.55c0-2.85.19-5.69.4-8.53a152.57,152.57,0,0,1,2.2-16.9c.89-4.77,2-9.62,4.29-13.93a19.62,19.62,0,0,1,4.25-5.68,13,13,0,0,1,6.4-2.78c4.4-.8,8.83-.88,13.17-2.07,8.84-2.44,17.14-7.75,20.72-16.5.73-1.79-2.17-2.56-2.89-.8Z"/><path class="cls-1" d="M59.37,132.05c-8.29,8.07-12.29,19.63-15.61,30.44a175.06,175.06,0,0,0-7.56,58.18c.08,1.92,3.08,1.93,3,0a172.49,172.49,0,0,1,2.45-36.59,157.14,157.14,0,0,1,9.92-34.55c2.42-5.64,5.49-11.05,9.92-15.36,1.39-1.35-.73-3.47-2.12-2.12Z"/><path class="cls-1" d="M192.94,31.85c4.59,15.92,8.81,32,12.22,48.18a332.51,332.51,0,0,1,5.47,33.18c.43,4,.76,8,.94,12,.27,5.92.24,11.82.87,17.72a202.57,202.57,0,0,0,5.28,27.85c1.17,4.6,2.43,9.18,3.72,13.75,1.13,4,2,8.37,4.4,11.87,4.58,6.77,13.38,8,20.85,8.93a108.76,108.76,0,0,0,28.44.32c7.24-.94,15.06-2.6,20.61-7.7a16.79,16.79,0,0,0,5.21-9.61c.72-4.22.17-8.46-.44-12.65-2.64-18.08-6-36.16-6.82-54.45a78,78,0,0,1,0-8.09c.07-1.22.18-2.43.32-3.63,0-.31.07-.62.11-.93,0-.13,0-.25.05-.38s.05-.42,0-.3c.09-.62.18-1.25.28-1.88,1.13-7.46,2.53-14.88,3.62-22.35,2.25-15.3,3.94-30.68,5.36-46.08.29-3.15.57-6.29.83-9.44a1.51,1.51,0,0,0-.74-1.3A85.63,85.63,0,0,0,278.8,15.94c-7.59-2-15.28-2.31-23.09-2.11A283.77,283.77,0,0,0,225,15.88a70.08,70.08,0,0,0-17.66,4.26,39.57,39.57,0,0,0-14,10.25c-1.29,1.43.83,3.56,2.13,2.12a37.51,37.51,0,0,1,11.86-9.1C212,21.22,217.62,20,222.89,19.2c9.7-1.54,19.56-1.89,29.36-2.25,7.47-.28,15-.45,22.36,1.09a81.65,81.65,0,0,1,27.45,11.43l-.74-1.29c-1.28,15.38-2.85,30.75-4.87,46.05-1.17,8.9-2.62,17.75-4.12,26.6a101.45,101.45,0,0,0-1.72,15.34c-.07,4.29.24,8.58.59,12.84.78,9.46,2.08,18.87,3.49,28.25.71,4.71,1.45,9.42,2.16,14.13.66,4.35,1.53,8.75,1.45,13.17A15.19,15.19,0,0,1,294.48,195a21.68,21.68,0,0,1-8.62,5.26c-8,2.84-17,3.34-25.42,3.17a122.93,122.93,0,0,1-13.83-1.1A50.39,50.39,0,0,1,235,199.82a13.92,13.92,0,0,1-8-7.42c-1.77-4-2.66-8.42-3.82-12.59-2.49-9-4.82-18.06-6.42-27.26a158,158,0,0,1-2.11-23.67c-.08-3.63-.3-7.25-.61-10.87a294.25,294.25,0,0,0-4.33-30.26C207,73.1,203.44,58.6,199.52,44.21c-1.19-4.4-2.43-8.78-3.69-13.16A1.5,1.5,0,0,0,192.94,31.85Z"/><path class="cls-1" d="M248.59,29q1.82,31,3.83,62.05t4.21,62q1.23,17.43,2.53,34.86c.14,1.92,3.14,1.93,3,0q-2.3-31-4.42-62t-4-62Q252.61,46.47,251.59,29c-.12-1.92-3.12-1.94-3,0Z"/><path class="cls-1" d="M255.28,173.09a7.65,7.65,0,0,0,3.77.24,7.56,7.56,0,0,0,3.39-1.58,1.52,1.52,0,0,0,.44-1.06,1.54,1.54,0,0,0-.44-1.06,1.47,1.47,0,0,0-1.06-.44,1.74,1.74,0,0,0-1.06.44c.36-.29,0,0-.06,0l-.3.19c-.2.12-.44.19-.63.32l.11,0-.16.06-.34.11c-.23.07-.46.11-.69.16l.14,0-.18,0-.35,0a5.58,5.58,0,0,1-.71,0H257c-.16,0-.11,0,.14,0-.11,0-.24,0-.35-.06a5.27,5.27,0,0,1-.68-.19,1.5,1.5,0,1,0-.8,2.89Z"/><path class="cls-1" d="M254,160.16a8,8,0,0,0,2.91-.37,8.78,8.78,0,0,0,2.84-1.53,1.5,1.5,0,0,0,0-2.12,1.52,1.52,0,0,0-1.06-.44,1.74,1.74,0,0,0-1.06.44l-.06.05.3-.24a7.17,7.17,0,0,1-1.49.87l.36-.15a7.6,7.6,0,0,1-1.81.5l.4-.06a6.58,6.58,0,0,1-1.33,0,1.51,1.51,0,0,0-1.5,1.5,1.53,1.53,0,0,0,1.5,1.5Z"/><path class="cls-1" d="M254.1,142.37l4.66-1.77a1.66,1.66,0,0,0,.9-.68,1.62,1.62,0,0,0,.15-1.16,1.52,1.52,0,0,0-1.85-1l-4.65,1.77a1.59,1.59,0,0,0-.9.69,1.5,1.5,0,0,0,1.69,2.2Z"/><path class="cls-1" d="M253.25,128a11.37,11.37,0,0,0,6.42-1.51,1.51,1.51,0,0,0,.54-2.05,1.54,1.54,0,0,0-2-.54c-.21.13-.43.24-.65.35l-.32.14c-.14.07-.12.06.09,0l-.18.07a10,10,0,0,1-1.32.4l-.68.13c-.16,0-.13,0,.11,0l-.19,0-.3,0a9,9,0,0,1-1.47,0,1.5,1.5,0,0,0-1.5,1.5,1.53,1.53,0,0,0,1.5,1.5Z"/><path class="cls-1" d="M251.4,109.48l5-.13a1.5,1.5,0,0,0,0-3l-5,.13a1.5,1.5,0,0,0,0,3Z"/><path class="cls-1" d="M250.15,95.26,257,93.72a1.52,1.52,0,0,0,1.05-1.84,1.54,1.54,0,0,0-1.85-1l-6.88,1.53a1.52,1.52,0,0,0-1,1.85,1.54,1.54,0,0,0,1.84,1.05Z"/><path class="cls-1" d="M249.81,75.67a9.66,9.66,0,0,0,6.78-.81,1.5,1.5,0,1,0-1.51-2.59l-.35.17c-.34.15,0,0,0,0s-.57.2-.64.22a5.19,5.19,0,0,1-.65.17l-.38.08-.19,0c.22,0,.27,0,.16,0a8.74,8.74,0,0,1-1.35,0c-.12,0-.23,0-.34,0l-.19,0,.16,0c-.24,0-.48-.08-.71-.14a1.5,1.5,0,1,0-.8,2.89Z"/><path class="cls-1" d="M249.25,60.12l3.93-.23a1.56,1.56,0,0,0,1.06-.44,1.5,1.5,0,0,0,.44-1.06,1.56,1.56,0,0,0-.44-1.06,1.5,1.5,0,0,0-1.06-.44l-3.93.23a1.64,1.64,0,0,0-1.06.44,1.52,1.52,0,0,0-.44,1.06,1.5,1.5,0,0,0,1.5,1.5Z"/><path class="cls-1" d="M237.47,34.06c.05.25.09.5.13.75l0,.17c0-.2,0-.22,0,0s0,.23,0,.35a14.09,14.09,0,0,1,.08,1.45,14.24,14.24,0,0,1,0,1.46q0,.35-.06.69l0,.24,0-.17a3.65,3.65,0,0,1-.07.46,1.67,1.67,0,0,0,.15,1.16,1.51,1.51,0,0,0,2.75-.36,19.27,19.27,0,0,0-.1-6.94,1.49,1.49,0,0,0-1.84-1.05,1.54,1.54,0,0,0-1.05,1.84Z"/><path class="cls-1" d="M241.56,57.63l-.9-1.3v1.52l-.12.15s.07,0,.08-.08-.28.2-.16.13-.24.09-.21.08c.26-.08-.05,0-.14,0h.1c.18,0,.11.12-.16,0a.61.61,0,0,0,.21.06s-.29-.15-.18-.07l.1,0c.06,0,.14.12.2.13s-.24-.21-.14-.11l.13.11.17.19c.11.09-.1-.13-.1-.14a.61.61,0,0,0,.07.1l.14.22c.16.27-.06-.23,0,0s0,.2.07.29,0-.19,0-.2a.48.48,0,0,0,0,.12c0,.12,0,.23,0,.34s0-.11,0-.1,0,.19,0,.23a25.82,25.82,0,0,0-.72,3.25,3.15,3.15,0,0,0,1.4,3,2.49,2.49,0,0,0,1.52.44,2,2,0,0,0,1.85-1.48,1.51,1.51,0,0,0-1-1.85,1.54,1.54,0,0,0-1.85,1.05s.16-.33.09-.2.16-.22.14-.19a1.05,1.05,0,0,1,.75-.32c-.24,0,.39,0,.15,0l-.1,0c-.11,0,.25.14.16.06s-.28-.19-.07,0,0,0-.05-.06,0-.07-.08-.09a1.42,1.42,0,0,0,.12.15s0-.09-.06-.1.1.34.07.15,0,.34,0,0c0-.11,0-.23,0-.35s0-.31,0-.35,0,.3,0,.11,0-.15.05-.23c.1-.49.26-1,.39-1.45a5,5,0,0,0,0-3.31,3.88,3.88,0,0,0-1.88-2,2.94,2.94,0,0,0-1.91-.27,2.6,2.6,0,0,0-1.55,1.13,1.5,1.5,0,0,0,0,1.52l.91,1.3a1.5,1.5,0,1,0,2.59-1.52Z"/><path class="cls-1" d="M240.28,75.76l1.1-.75-2.2-.9c.48,1.17,1,2.33,1.44,3.52a4,4,0,0,1,.15.45c0,.07,0,.15,0,.23s0,.15,0-.06a2,2,0,0,1,0,.35c0-.2,0-.23,0-.08a1.09,1.09,0,0,1-.05.17c.1-.22.11-.26,0-.11l-.1.15c.14-.18.16-.22.06-.1s-.09.08.09-.06a.53.53,0,0,1-.15.08q.34-.14.12-.06c.27,0,.31,0,.15,0,.26,0,.31.05.15,0a1.5,1.5,0,1,0-.8,2.9,2.7,2.7,0,0,0,2.65-.83,3.4,3.4,0,0,0,.76-2.91A9.49,9.49,0,0,0,243,75.6l-1-2.29a1.56,1.56,0,0,0-.86-1,1.44,1.44,0,0,0-1.34.08l-1.1.75a1.5,1.5,0,1,0,1.51,2.59Z"/><path class="cls-1" d="M241.18,92.9a5.71,5.71,0,0,0,.64,7.89,1.61,1.61,0,0,0,1.06.44,1.54,1.54,0,0,0,1.06-.44,1.51,1.51,0,0,0,0-2.12,4.51,4.51,0,0,1-.54-.53c-.17-.18.16.25.07.1l-.11-.16a3.37,3.37,0,0,1-.19-.32c0-.07-.19-.42-.08-.16s0,0,0,0l-.06-.18c0-.12-.07-.25-.09-.37a1.06,1.06,0,0,1,0-.19c0-.24,0,.32,0,.14a5.77,5.77,0,0,1,0-.72c0-.06,0-.12,0-.19,0-.26,0,.08,0,.14a1.21,1.21,0,0,1,.07-.37c0-.12.07-.24.11-.36a.78.78,0,0,0,.05-.14c-.1.38-.09.21,0,.08a2.69,2.69,0,0,1,.16-.29c.06-.11.37-.5.05-.1a1.61,1.61,0,0,0,.44-1.06,1.54,1.54,0,0,0-.44-1.06,1.51,1.51,0,0,0-2.12,0Z"/><path class="cls-1" d="M243,97.26a18.79,18.79,0,0,0,1.08,7.21,1.5,1.5,0,1,0,2.89-.8,17.64,17.64,0,0,1-.84-3.29s-.09-.46,0-.1c0-.14,0-.29,0-.44L246,99a17.22,17.22,0,0,1,0-1.76,1.51,1.51,0,0,0-1.5-1.5,1.54,1.54,0,0,0-1.5,1.5Z"/><path class="cls-1" d="M246,122.66l1.44-.73a1.5,1.5,0,0,0,.31-2.35,2.49,2.49,0,0,0-2-.63,3,3,0,0,0-1.63.77,3.18,3.18,0,0,0-.88,3.32,7.75,7.75,0,0,0,2,2.85c.08.09.17.18.25.28l.12.15s-.13-.2,0,0a6.17,6.17,0,0,1,.42.7c-.11-.23,0,0,0,.09s.07.23,0,0,0,0,0,0a1.08,1.08,0,0,0,0,.18c0,.19,0-.1,0-.09s0,.1,0,.11c-.06.17.11-.33.06-.16s0,.06-.06.1.23-.27.09-.13.3-.17,0,0l-.1,0c-.16.11.1,0,.15,0a1,1,0,0,0-.25.07c-.12,0,.2,0,.21,0a.71.71,0,0,0-.14,0c-.23,0,.38.1.09,0s.24.11.21.09.13.11.14.12-.11-.14,0,.05,0-.19.14.26a1.5,1.5,0,1,0-2.89.8,2.47,2.47,0,0,0,3,1.6A2.93,2.93,0,0,0,249,128a4.42,4.42,0,0,0-1.24-3.86c-.33-.41-.71-.77-1.05-1.16,0,0-.24-.32-.14-.17s0,0,0,0l-.13-.2a2.69,2.69,0,0,1-.16-.29s-.08-.21,0,0,0,0,0-.08a.75.75,0,0,0,0-.16c-.06-.26,0,.06,0,.06V122c.06-.17-.07.39,0,.08,0-.07.08-.14,0,0s0,0,0,0,.08-.12.07-.12-.23.24,0,.08a.38.38,0,0,0,.09-.09c.09-.12-.22.12-.09.06a.47.47,0,0,0,.12-.07c.18-.12-.08.07-.12,0s.15,0,.16,0-.37,0-.16,0c0,0-.36-.06-.2,0s.06,0-.06,0a.56.56,0,0,1-.26-.17l.3-2.36-1.44.73a1.51,1.51,0,0,0-.54,2.05,1.54,1.54,0,0,0,2.05.54Z"/><path class="cls-1" d="M246.68,140.06c-2.39,1.14-4.63,3.58-3.89,6.42a4.36,4.36,0,0,0,2.66,3A2.3,2.3,0,0,0,248,149a2.42,2.42,0,0,0,.2-2.61,2.33,2.33,0,0,0-2.62-1.17,2.48,2.48,0,0,0-1.85,2.29,1.49,1.49,0,0,0,1.5,1.5,1.54,1.54,0,0,0,1.5-1.5c-.05.26-.05.31,0,.16a.74.74,0,0,1-.22.38c.18-.19-.3.14,0,0-.22.08-.28.1-.17.07s.05,0-.19,0c.16,0,.11,0-.15,0s-.27-.13-.17-.07,0,0-.15-.12c.11.11.08.07-.08-.12.14.21-.09-.34,0-.06,0-.27,0-.32,0-.16v.08a.74.74,0,0,1,.12-.46,1,1,0,0,1-.08.14l.89-.69c.46-.07.17,0,.06,0-.28,0,.33.09.06,0l-.24-.06c-.26-.07.29.17.06,0l-.22-.13c-.23-.14.24.23,0,0l-.16-.15s-.24-.28-.08-.08,0,0-.05-.1-.09-.16-.14-.23c-.13-.24,0,0,0,.07,0-.06-.07-.19-.09-.26l-.06-.26c-.08-.29,0,.36,0,.05,0-.09,0-.18,0-.27s0-.09,0-.13,0-.06,0,.18a2.51,2.51,0,0,0,.15-.57c.07-.26-.1.2,0,0s.08-.18.13-.27.21-.44.3-.45c-.14.17-.15.19-.05.06l.06-.07.21-.22a6,6,0,0,1,.45-.42c.26-.23-.27.19,0,0l.25-.18a8.62,8.62,0,0,1,1.07-.6,1.51,1.51,0,0,0,.54-2.05,1.54,1.54,0,0,0-2-.54Z"/><path class="cls-1" d="M241.08,163.6a2.5,2.5,0,0,0,2.08,2.41,12.77,12.77,0,0,0,1.51.22c.14,0-.35-.07,0,0l.35.06.29.07.09,0c.15.06.12,0-.1,0a1.82,1.82,0,0,0,.27.15c-.26-.16,0,0,.05.09-.22-.25,0,0,0,.11.17.27,0-.19,0,.1.17.61.3,1.22.42,1.84l.84,4.22a1.51,1.51,0,0,0,1.85,1,1.54,1.54,0,0,0,1-1.84l-.83-4.14a6.74,6.74,0,0,0-1.36-3.54,4.68,4.68,0,0,0-3-1.15l-.3,0c-.34,0,.3.06,0,0l-.53-.11-.15-.05c.22.1.28.12.18.07-.27-.15.16.17.07.07a.86.86,0,0,1,.13.23c.06.14.07.15,0,0,0,.27,0,.32,0,.16a1.5,1.5,0,0,0-3,0Z"/><path class="cls-1" d="M244.8,170.33l3.33.27a1.5,1.5,0,0,0,1.5-1.5,1.54,1.54,0,0,0-.44-1.06,1.68,1.68,0,0,0-1.06-.44l-3.33-.27a1.5,1.5,0,0,0-1.06.44,1.52,1.52,0,0,0-.44,1.06,1.46,1.46,0,0,0,.44,1.06,1.64,1.64,0,0,0,1.06.44Z"/><path class="cls-1" d="M196.81,6.6c-13,9.75-29.71,11.08-45.39,11.06-8.92,0-17.86-.37-26.76.29s-17.85,2.26-26.84,2.57c-15.37.53-32.26-1.4-44.83,9.35-4.87,4.16-8.39,10-8.55,16.56-.11,4.16,1.11,8.29,2.43,12.2a97.53,97.53,0,0,0,4.65,11.25,180,180,0,0,0,12.38,21c4.83,7.27,9.78,14.46,14.68,21.68L82.3,118c1.07,1.59,3.67.09,2.59-1.51L70.24,95C65.75,88.34,61.3,81.69,57.41,74.7a90.46,90.46,0,0,1-9.19-22.08,19.74,19.74,0,0,1,0-10.78A20.37,20.37,0,0,1,53,34c11.08-11.62,28-10.09,42.67-10.38,8.73-.18,17.33-1.56,26-2.38s17.51-.63,26.27-.55c15.48.13,31.86-.45,45.64-8.36a44.34,44.34,0,0,0,4.7-3.1c1.52-1.15,0-3.75-1.51-2.59Z"/><path class="cls-1" d="M142.88,20.64Q135.71,57.57,126.17,94q-2.7,10.32-5.59,20.58a1.5,1.5,0,0,0,2.89.79q10.2-36.21,18.05-73,2.23-10.42,4.26-20.89c.36-1.89-2.53-2.7-2.9-.8Z"/><path class="cls-1" d="M82.22,119.23c1.88,2.76,5,3.52,8.22,3.72,4.16.28,8.35.25,12.52.37,7.34.19,15.67,0,20.38-6.6,1.12-1.57-1.48-3.07-2.59-1.51-4,5.53-11.75,5.27-17.79,5.11-3.71-.1-7.42-.19-11.13-.3-2.35-.08-5.55-.14-7-2.31-1.08-1.58-3.68-.08-2.59,1.52Z"/><path class="cls-1" d="M54,54.3q8.38,15.84,17.59,31.22,4.6,7.7,9.41,15.25c2.8,4.39,5.44,9.58,9.64,12.8s9.89,3.37,15,2.29a17.88,17.88,0,0,0,12-8.23c2.49-4.21,3.41-9.13,4.39-13.86l3.84-18.6,8.48-41.12a1.53,1.53,0,0,0-1.45-1.9,94.07,94.07,0,0,0-31.11,1.51c-3.32.72-6.59,1.65-9.92,2.28-7,1.32-13.71,0-20.68-.37-5.53-.27-12,.33-16,4.63-3.65,3.9-4,10.6.46,14,1.53,1.17,3-1.43,1.51-2.59-3.54-2.72-1.5-8.36,1.53-10.51,4.51-3.2,10.64-2.76,15.85-2.28,3.09.29,6.17.68,9.27.77a41.57,41.57,0,0,0,9.11-.8c6.25-1.21,12.31-3,18.66-3.73a92.87,92.87,0,0,1,21.34.09l-1.44-1.9-7.22,35-3.59,17.38c-1.07,5.19-1.88,10.53-3.49,15.59-1.42,4.5-3.87,8.46-8.3,10.47s-10.31,2.75-14.65.59c-4.52-2.25-7.09-7.54-9.7-11.61q-4.56-7.15-9-14.41-10-16.45-18.95-33.47c-.91-1.71-3.5-.2-2.59,1.51Z"/><path class="cls-1" d="M77.52,40.27Q84.8,66.6,92.86,92.71q2.31,7.44,4.67,14.86c.59,1.84,3.48,1.05,2.89-.79q-8.3-26-15.8-52.31-2.15-7.5-4.21-15a1.5,1.5,0,0,0-2.89.8Z"/><path class="cls-1" d="M63,58.76A34.35,34.35,0,0,1,77.27,57a1.51,1.51,0,0,0,1.5-1.5,1.53,1.53,0,0,0-1.5-1.5,36.53,36.53,0,0,0-15.06,1.83,1.53,1.53,0,0,0-1,1.84,1.51,1.51,0,0,0,1.84,1Z"/><path class="cls-1" d="M70.76,69.68h13a1.5,1.5,0,0,0,0-3h-13a1.5,1.5,0,0,0,0,3Z"/><path class="cls-1" d="M76.08,81.43A20.86,20.86,0,0,0,83.59,81a1.52,1.52,0,0,0,1-1.85,1.54,1.54,0,0,0-1.84-1c-.58.14-1.15.25-1.73.34-.36.05.2,0-.14,0l-.47,0-.88.07a19.5,19.5,0,0,1-3.5-.16,1.5,1.5,0,0,0-1.5,1.5,1.54,1.54,0,0,0,1.5,1.5Z"/><path class="cls-1" d="M84.33,92.7A19.47,19.47,0,0,0,91.2,92a1.5,1.5,0,0,0-.8-2.89c-.51.15-1,.28-1.53.38-.27.06-.55.11-.83.15-.06,0-.46.08-.08,0a3,3,0,0,1-.42,0,18.12,18.12,0,0,1-3.21,0,1.5,1.5,0,0,0,0,3Z"/><path class="cls-1" d="M112,36q-6.14,25.81-9.68,52.15-1,7.44-1.79,14.9c-.2,1.92,2.8,1.9,3,0q2.77-26.07,8.13-51.77,1.52-7.26,3.23-14.49c.45-1.87-2.44-2.68-2.89-.79Z"/><path class="cls-1" d="M116.21,50.8h5.9a1.5,1.5,0,0,0,0-3h-5.9a1.5,1.5,0,0,0,0,3Z"/><path class="cls-1" d="M114,59.65a17.12,17.12,0,0,0,6.9.56,1.63,1.63,0,0,0,1.07-.44,1.49,1.49,0,0,0,.43-1.06c0-.73-.66-1.6-1.5-1.5a15.65,15.65,0,0,1-3.21.09,6.82,6.82,0,0,1-.79-.08c.38.08,0,0-.08,0l-.42-.07a14.91,14.91,0,0,1-1.6-.39,1.53,1.53,0,0,0-1.85,1,1.55,1.55,0,0,0,1,1.85Z"/><path class="cls-1" d="M112.26,72.59a10.5,10.5,0,0,0,5.52.56,1.49,1.49,0,0,0,.9-.69,1.52,1.52,0,0,0,.15-1.16,1.5,1.5,0,0,0-.69-.89,1.71,1.71,0,0,0-1.16-.15l-.17,0,.4,0a9.18,9.18,0,0,1-2.4,0l.4,0a8.86,8.86,0,0,1-2.15-.57,1.47,1.47,0,0,0-1.16.15,1.48,1.48,0,0,0-.53,2.05,1.75,1.75,0,0,0,.89.69Z"/><path class="cls-1" d="M109.72,85.53l7.07.74a1.51,1.51,0,0,0,1.5-1.5,1.54,1.54,0,0,0-1.5-1.5l-7.07-.74a1.51,1.51,0,0,0-1.5,1.5,1.54,1.54,0,0,0,1.5,1.5Z"/><path class="cls-1" d="M94.8,53.24c1.13-.28,2.27-.52,3.43-.69l.39-.06c-.33,0,.07,0,.14,0l.93-.1c.58-.06,1.16-.1,1.75-.13a1.5,1.5,0,0,0,0-3A38.07,38.07,0,0,0,94,50.35a1.5,1.5,0,0,0,.8,2.89Z"/><path class="cls-1" d="M95.75,63.68a16.94,16.94,0,0,0,6.29.69,1.54,1.54,0,0,0,1.5-1.5,1.51,1.51,0,0,0-1.5-1.5,15.83,15.83,0,0,1-2.92,0l-.38,0,.18,0-.22,0L98,61.16c-.48-.1-1-.23-1.44-.38a1.51,1.51,0,0,0-1.84,1,1.53,1.53,0,0,0,1,1.85Z"/><path class="cls-1" d="M96.73,75h3a1.56,1.56,0,0,0,1.06-.44,1.52,1.52,0,0,0,.44-1.06,1.49,1.49,0,0,0-1.5-1.5h-3a1.49,1.49,0,0,0-1.5,1.5,1.52,1.52,0,0,0,.44,1.06,1.54,1.54,0,0,0,1.06.44Z"/><path class="cls-1" d="M99.44,103.2l-.66,4.72a1.65,1.65,0,0,0,.15,1.15,1.55,1.55,0,0,0,.9.69,1.52,1.52,0,0,0,1.16-.15,1.43,1.43,0,0,0,.68-.9l.67-4.71a1.69,1.69,0,0,0-.15-1.15,1.51,1.51,0,0,0-2.06-.54,1.47,1.47,0,0,0-.69.89Z"/><path class="cls-1" d="M68.17,120.07a5.22,5.22,0,0,1,2.33-1.44,20.19,20.19,0,0,1,3.15-.89,49.08,49.08,0,0,1,6.63-.74,1.54,1.54,0,0,0,1.5-1.5,1.51,1.51,0,0,0-1.5-1.5,53.34,53.34,0,0,0-7.66.89A20.22,20.22,0,0,0,69.05,116a7.27,7.27,0,0,0-3,2,1.53,1.53,0,0,0,0,2.12,1.5,1.5,0,0,0,2.12,0Z"/><path class="cls-1" d="M124.77,113.62c-.2.17.21-.12.28-.15-.27.12.18,0,.24,0s.09,0-.05,0l.29,0c.06,0,.58,0,.34,0a6.39,6.39,0,0,1,2,.76c1.54.77,3,1.62,4.49,2.53a1.51,1.51,0,0,0,2.05-.54,1.53,1.53,0,0,0-.53-2,45.91,45.91,0,0,0-5.28-2.91c-2-.9-4.2-1.23-6,.3a1.5,1.5,0,0,0,0,2.12,1.53,1.53,0,0,0,2.12,0Z"/></g></g></svg>