<svg xmlns="http://www.w3.org/2000/svg" viewBox="0 0 1100 800">
  <path stroke="#ffffff" stroke-width="3" fill="none"  d="M.34,20.11C0,23.6,2,26.79,4.23,29.27a47.66,47.66,0,0,0,10.09,8c3.85,2.44,7.87,4.59,11.94,6.64a128.61,128.61,0,0,0,12.67,5.73c20.56,7.69,42.9,6.24,64.41,5.17a213.26,213.26,0,0,0,35.34-4.49,187.75,187.75,0,0,0,25.85-7.83c7.57-2.86,15.71-6.15,21.7-11.75,2.4-2.24,4.43-5.08,4.7-8.43a9.69,9.69,0,0,0-2.41-7c-1.89-2.09-4.64-3.35-7.19-4.41a74.66,74.66,0,0,0-11.51-3.54,249.78,249.78,0,0,0-33.89-5.15C122.17.85,108.35.19,94.53,0S66.91.22,53.15,1.36C41.94,2.28,30.59,3.6,19.71,6.57A55.29,55.29,0,0,0,8.29,10.84a17.08,17.08,0,0,0-6.73,5.7A8.73,8.73,0,0,0,.34,20.11c-.11.81.76,1.49,1.5,1.5a1.54,1.54,0,0,0,1.5-1.5c-.08.53.06-.26.1-.44s.17-.53.26-.78c-.14.39.1-.2.21-.41a9,9,0,0,1,.47-.78c.07-.1.15-.2.22-.31-.08.12-.12.14.07-.07s.43-.5.66-.74L6,16c.16-.14.87-.71.59-.5A30.81,30.81,0,0,1,15.4,11c9.41-3.31,19.5-4.78,29.37-5.88A385.3,385.3,0,0,1,83.64,3q20.58-.21,41.14,1.22a329.9,329.9,0,0,1,35.46,4.14,136.12,136.12,0,0,1,13.66,3.08c1.79.52,3.56,1.08,5.3,1.74,1,.37,1.23.48,2,.82s1.3.62,1.94,1,1.13.65,1.67,1c.14.09.81.61.42.3.23.18.46.37.67.57l.5.5c.07.07.13.16.2.24.24.26-.19-.32.06.07a7.75,7.75,0,0,1,1.3,3.89c.08,2.76-1.86,5.16-3.76,7A41.06,41.06,0,0,1,174.4,35a146.26,146.26,0,0,1-21.25,8.31,174.74,174.74,0,0,1-30.91,6.87A354.75,354.75,0,0,1,86.1,52.51c-10.22.29-20.53.24-30.63-1.52a96.92,96.92,0,0,1-26.91-9.28c-3.89-1.94-7.73-4-11.44-6.23a50.52,50.52,0,0,1-10.2-7.72c-2-2.05-3.92-4.64-3.58-7.65C3.55,18.19.54,18.2.34,20.11Z"/>
  <path class="cls-1" d="M0,20.45q.32,24.9,3,49.7.75,7,1.69,14a1.56,1.56,0,0,0,1.5,1.5c.73,0,1.61-.7,1.5-1.5q-3.3-24.69-4.28-49.6-.27-7-.36-14.12a1.5,1.5,0,0,0-3,0Z"/>
  <path class="cls-1" d="M187.6,21.47a221.8,221.8,0,0,0,2.31,58.84c.33,1.9,3.22,1.1,2.89-.79a218.8,218.8,0,0,1-2.2-58c.18-1.92-2.82-1.91-3,0Z"/>
  <path class="cls-1" d="M4.73,86.08a136.71,136.71,0,0,0,32.13,20.61,143,143,0,0,0,45.08,12.14,138.76,138.76,0,0,0,39.24-1.57,131.25,131.25,0,0,0,34.72-11.89,137.72,137.72,0,0,0,34.42-24.61c.87-.85,1.73-1.72,2.58-2.59,1.34-1.39-.78-3.51-2.12-2.12A136,136,0,0,1,160.1,99.74a131.12,131.12,0,0,1-37,14.09,133.21,133.21,0,0,1-34.45,2.51,139.92,139.92,0,0,1-46.41-10.56A132.37,132.37,0,0,1,10.49,87c-1.23-1-2.44-2-3.64-3-1.45-1.25-3.59.86-2.12,2.12Z"/>
  <path class="cls-1" d="M46.85,264.94c7.13,6.05,16,9.18,25.05,11.27a165.53,165.53,0,0,0,28.46,4A170.57,170.57,0,0,0,157,273.57a167.19,167.19,0,0,0,30.11-12.09c1.72-.89.2-3.48-1.51-2.59A166.36,166.36,0,0,1,76.89,274.22c-9.86-2-20.1-4.76-27.92-11.41-1.46-1.24-3.59.87-2.12,2.13Z"/>
  <path class="cls-1" d="M4.35,84.63l16.35,70,16.35,70q4.61,19.7,9.2,39.39c.44,1.88,3.34,1.09,2.9-.8q-8.17-35-16.36-70l-16.35-70q-4.61-19.69-9.2-39.39c-.44-1.88-3.33-1.08-2.89.8Z"/>
  <path class="cls-1" d="M69,114.32q1,30.84,2.53,61.67,1.48,30.57,3.4,61.13,1.09,17.38,2.34,34.76c.13,1.92,3.13,1.93,3,0q-2.19-30.78-3.94-61.59-1.73-30.57-3-61.15Q72.6,131.73,72,114.32c-.06-1.93-3.06-1.94-3,0Z"/>
  <path class="cls-1" d="M122.45,115.37q.33,31.41,1.72,62.81T128,240.89q1.4,17.58,3.11,35.13c.19,1.9,3.19,1.92,3,0q-3.06-31.27-5.07-62.63t-2.92-62.76q-.53-17.62-.7-35.26a1.5,1.5,0,0,0-3,0Z"/>
  <path class="cls-1" d="M190.34,76.31q-1,35.75-2.08,71.47T186.2,219L185,259.22c-.06,1.93,2.94,1.93,3,0l2.07-71.46,2.07-71.22,1.17-40.23c0-1.93-3-1.93-3,0Z"/>
  <path class="cls-1" d="M136,128.4l2.68-4.89a1.5,1.5,0,1,0-2.59-1.51l-2.68,4.88A1.5,1.5,0,0,0,136,128.4Z"/>
  <path class="cls-1" d="M135.43,137l3.33-6L136,129.87l-2.31,12.22a1.55,1.55,0,0,0,1,1.85,1.52,1.52,0,0,0,1.85-1.05l2.31-12.23a1.54,1.54,0,0,0-.87-1.77,1.51,1.51,0,0,0-1.88.62l-3.33,6c-.94,1.69,1.65,3.2,2.59,1.51Z"/>
  <path class="cls-1" d="M137.47,158.47,141.56,148a1.5,1.5,0,0,0-2.89-.8l-4.09,10.47a1.5,1.5,0,0,0,1,1.84,1.53,1.53,0,0,0,1.84-1.05Z"/>
  <path class="cls-1" d="M138.65,166.87l3.13-8.34a1.52,1.52,0,0,0-1.05-1.85,1.55,1.55,0,0,0-1.85,1l-3.12,8.34a1.5,1.5,0,0,0,1,1.85,1.55,1.55,0,0,0,1.85-1Z"/>
  <path class="cls-1" d="M136.39,177.24l3-8.38a1.51,1.51,0,0,0-1-1.85,1.55,1.55,0,0,0-1.85,1.05l-3,8.38a1.51,1.51,0,0,0,1.05,1.85,1.54,1.54,0,0,0,1.84-1Z"/>
  <path class="cls-1" d="M138.73,187.33a7.66,7.66,0,0,1,0-.83c0-.13,0-.27,0-.41,0,.27,0-.05,0-.14.06-.25.12-.49.2-.73s.09-.26.14-.39,0-.09,0,0l.09-.19a7,7,0,0,1,.36-.66l.23-.34c.25-.36-.18.19.11-.13a8.08,8.08,0,0,1,.57-.6,2.75,2.75,0,0,1,.26-.22c.08-.07.07-.06,0,0l.22-.16-2.2-1.69-2,9.15a1.5,1.5,0,0,0,2.89.8l2-9.16a1.5,1.5,0,0,0-.54-1.57,1.46,1.46,0,0,0-1.66-.12,8.35,8.35,0,0,0-3.68,7.33,1.5,1.5,0,0,0,3,0Z"/>
  <path class="cls-1" d="M138.24,199.26a1.5,1.5,0,0,0,0-3,1.5,1.5,0,0,0,0,3Z"/>
  <path class="cls-1" d="M141.55,192.23l3.13-7.3a1.62,1.62,0,0,0,.15-1.16,1.47,1.47,0,0,0-.69-.89,1.5,1.5,0,0,0-2,.53l-3.13,7.3a1.61,1.61,0,0,0-.15,1.16,1.47,1.47,0,0,0,.69.89,1.5,1.5,0,0,0,2.05-.53Z"/>
  <path class="cls-1" d="M139.28,197.17a1.5,1.5,0,0,0,0-3,1.5,1.5,0,0,0,0,3Z"/>
  <path class="cls-1" d="M82,124l1.26-4.11a1.5,1.5,0,0,0-2.89-.79l-1.26,4.1A1.5,1.5,0,1,0,82,124Z"/>
  <path class="cls-1" d="M78.83,146.26,81,142.1A1.59,1.59,0,0,0,81.1,141a1.56,1.56,0,0,0-.69-.9,1.52,1.52,0,0,0-2,.54l-2.12,4.15a1.62,1.62,0,0,0-.16,1.16,1.59,1.59,0,0,0,.69.9,1.54,1.54,0,0,0,2.06-.54Z"/>
  <path class="cls-1" d="M83,137.72a1.5,1.5,0,0,0,0-3,1.5,1.5,0,0,0,0,3Z"/>
  <path class="cls-1" d="M78,156.8l5.21-11.48a1.54,1.54,0,0,0-.54-2,1.51,1.51,0,0,0-2,.54l-5.21,11.47a1.54,1.54,0,0,0,.53,2.05A1.52,1.52,0,0,0,78,156.8Z"/>
  <path class="cls-1" d="M80.33,158.54a29.25,29.25,0,0,1,3.6-9.24,1.5,1.5,0,0,0-2.59-1.51,32.16,32.16,0,0,0-3.9,10,1.5,1.5,0,1,0,2.89.79Z"/>
  <path class="cls-1" d="M79.27,166.9l4.17-10.43a1.51,1.51,0,0,0-1-1.85,1.54,1.54,0,0,0-1.85,1L76.38,166.1a1.51,1.51,0,0,0,1,1.85,1.55,1.55,0,0,0,1.85-1Z"/>
  <path class="cls-1" d="M82.08,166.11,85.23,162a1.52,1.52,0,0,0,.15-1.16,1.54,1.54,0,0,0-.69-.89,1.52,1.52,0,0,0-1.16-.16l-.35.16a1.45,1.45,0,0,0-.54.53l-3.15,4.16a1.5,1.5,0,0,0-.16,1.15,1.56,1.56,0,0,0,.69.9,1.52,1.52,0,0,0,1.16.15l.36-.15a1.55,1.55,0,0,0,.54-.54Z"/>
  <path class="cls-1" d="M81.16,177.25l3-8.37a1.51,1.51,0,0,0-1-1.85,1.54,1.54,0,0,0-1.84,1.05l-3,8.38a1.5,1.5,0,0,0,1,1.84,1.53,1.53,0,0,0,1.84-1.05Z"/>
  <path class="cls-1" d="M83.36,182.51l2.09-7.3a1.5,1.5,0,0,0-2.89-.8l-2.09,7.3a1.5,1.5,0,1,0,2.89.8Z"/>
  <path class="cls-1" d="M84.52,189.42a27.88,27.88,0,0,1,2.73-9.74,1.55,1.55,0,0,0-.53-2.06,1.53,1.53,0,0,0-2.06.54,31.61,31.61,0,0,0-3.14,11.26,1.51,1.51,0,0,0,1.5,1.5,1.53,1.53,0,0,0,1.5-1.5Z"/>
  <path class="cls-1" d="M85.69,193.61a42.73,42.73,0,0,1,4.41-14.08c.89-1.72-1.7-3.24-2.59-1.52a47,47,0,0,0-4.82,15.6,1.5,1.5,0,0,0,3,0Z"/>
  <path class="cls-1" d="M86.11,203l1-1a1.72,1.72,0,0,0,.44-1.06,1.15,1.15,0,0,0-.13-.58,1,1,0,0,0-.31-.48l-.3-.24a1.57,1.57,0,0,0-.76-.2l-.4.05a1.44,1.44,0,0,0-.66.39l-1,1a1.28,1.28,0,0,0-.31.48,1.46,1.46,0,0,0,0,1.16A1.37,1.37,0,0,0,84,203l.31.23a1.43,1.43,0,0,0,.76.21l.39-.05a1.56,1.56,0,0,0,.67-.39Z"/>
  <path class="cls-1" d="M84.31,213.76l2.09-5.21a1.5,1.5,0,0,0-1.05-1.85,1.51,1.51,0,0,0-1.16.15,1.82,1.82,0,0,0-.69.9L81.42,213a1.54,1.54,0,0,0,.15,1.15,1.52,1.52,0,0,0,.9.69,1.49,1.49,0,0,0,1.15-.15,1.68,1.68,0,0,0,.69-.9Z"/>
  <path class="cls-1" d="M86.49,209.63l1-6.26a1.62,1.62,0,0,0-.15-1.16,1.5,1.5,0,0,0-2.74.36l-1,6.26a1.61,1.61,0,0,0,.15,1.16,1.56,1.56,0,0,0,.9.69,1.52,1.52,0,0,0,1.84-1.05Z"/>
  <path class="cls-1" d="M81,148l2.26-9.35a1.5,1.5,0,0,0-2.9-.8l-2.25,9.35A1.5,1.5,0,1,0,81,148Z"/>
  <path class="cls-1" d="M81.13,135.94l2.08-4.18a1.59,1.59,0,0,0,.15-1.15,1.49,1.49,0,0,0-.69-.9,1.52,1.52,0,0,0-2,.54l-2.08,4.17a1.57,1.57,0,0,0-.16,1.16,1.51,1.51,0,0,0,2.75.36Z"/>
  <path class="cls-1" d="M81.31,134.77c0-.08,0-.17,0-.25,0,.19,0,.19,0,0l0-.38c0-.3,0-.6,0-.9s0-.61,0-.91l0-.38c0-.05.06-.51,0-.32s0-.26,0-.31,0-.25.07-.38c.06-.29.14-.58.22-.87a8.63,8.63,0,0,1,.28-.86l.13-.36h0l.11-.24a1.53,1.53,0,0,0-.54-2.05,1.52,1.52,0,0,0-2,.54,14.4,14.4,0,0,0-1.13,8.46,1.5,1.5,0,0,0,1.84,1.05,1.54,1.54,0,0,0,1-1.85Z"/>
  <path class="cls-1" d="M80.87,123.12a1.5,1.5,0,0,0,0-3,1.5,1.5,0,0,0,0,3Z"/>
  <path class="cls-1" d="M137.17,155.76a14.08,14.08,0,0,1,1.63-11.28c1-1.64-1.57-3.15-2.59-1.52a17.11,17.11,0,0,0-1.93,13.6,1.5,1.5,0,0,0,2.89-.8Z"/>
  <path class="cls-1" d="M135.47,155.38l2.09-9.38a1.5,1.5,0,1,0-2.9-.8l-2.08,9.39a1.5,1.5,0,1,0,2.89.79Z"/>
  <path class="cls-1" d="M134.25,153.93l1.37-18.18c.13-1.8-2.39-1.87-3-.4l-1.11,2.93,2.95.4a16.86,16.86,0,0,1,.76-7.36c.61-1.84-2.29-2.63-2.89-.8a19,19,0,0,0-.87,8.16,1.5,1.5,0,0,0,2.94.4l1.11-2.93-2.94-.4-1.37,18.18c-.15,1.93,2.86,1.92,3,0Z"/>
  <path class="cls-1" d="M135.11,125.21a1.5,1.5,0,0,0,0-3,1.5,1.5,0,0,0,0,3Z"/>
  <path class="cls-1" d="M133.61,123.71v21.9a1.5,1.5,0,0,0,3,0v-21.9a1.5,1.5,0,0,0-3,0Z"/>
  <path class="cls-1" d="M136.62,154.58c0-.17-.07-.34-.1-.52s0-.17,0,0l0-.27c0-.35,0-.7,0-1.05a9.28,9.28,0,0,1,.08-1.06c-.05.36,0-.19.05-.26l.09-.45c.08-.32.17-.64.28-.95s.12-.34.19-.5c-.13.31.09-.19.12-.25a8.26,8.26,0,0,1,.51-.92c.09-.15.19-.3.29-.44s.11-.15.16-.22c-.1.13-.1.13,0,0a1.54,1.54,0,0,0,0-2.12,1.52,1.52,0,0,0-2.12,0,11.61,11.61,0,0,0-2.38,9.81,1.5,1.5,0,0,0,1.84,1.05,1.53,1.53,0,0,0,1.05-1.85Z"/>
  <path class="cls-1" d="M135.11,175.27a1.5,1.5,0,0,0,0-3,1.5,1.5,0,0,0,0,3Z"/>
  <path class="cls-1" d="M137.71,168.56c0-.27,0-.54,0-.81s0-.31.05-.46l0,.17,0-.23a14.38,14.38,0,0,1,.35-1.58,16.08,16.08,0,0,1,.5-1.53c0-.06.16-.43,0-.07a2.68,2.68,0,0,1,.19-.42c.11-.25.23-.49.36-.73a1.5,1.5,0,0,0-2.59-1.51,16.77,16.77,0,0,0-1.95,7.17,1.51,1.51,0,0,0,1.5,1.5,1.54,1.54,0,0,0,1.5-1.5Z"/>
  <path class="cls-1" d="M135.45,180.42a23.66,23.66,0,0,1,2.84-8.5l-2.8-.75.2,5.73a1.5,1.5,0,1,0,3,0l-.2-5.73a1.51,1.51,0,0,0-2.79-.76,26.29,26.29,0,0,0-3.14,9.21,1.55,1.55,0,0,0,1.05,1.85,1.51,1.51,0,0,0,1.84-1.05Z"/>
  <path class="cls-1" d="M138.64,185.64l2.12-8.15-2.94-.4a14.55,14.55,0,0,1,.11,1.75q0,.43,0,.87c0,.15,0,.29,0,.44s-.06.48,0,.18a14,14,0,0,1-.36,1.71c-.08.26-.15.51-.24.77l-.15.41c0,.05-.21.49-.1.25a1.53,1.53,0,0,0,.54,2.05,1.51,1.51,0,0,0,2.05-.54,15.08,15.08,0,0,0,1.23-7.89,1.52,1.52,0,0,0-1.3-1.47,1.49,1.49,0,0,0-1.65,1.07l-2.12,8.15a1.5,1.5,0,1,0,2.89.8Z"/>
  <path class="cls-1" d="M140.69,192.93l2-5.24a1.5,1.5,0,0,0-2.2-1.69,1.7,1.7,0,0,0-.69.89l-2,5.24a1.45,1.45,0,0,0,.15,1.15,1.49,1.49,0,0,0,.89.69,1.51,1.51,0,0,0,1.16-.15,1.7,1.7,0,0,0,.69-.89Z"/>
  <path class="cls-1" d="M141.79,197.76c0-.34,0-.68,0-1a2.34,2.34,0,0,1,0-.38c0-.07,0-.62,0-.23a9.23,9.23,0,0,1,.39-1.79q.13-.45.3-.9a3.65,3.65,0,0,1,.14-.35c-.14.33.07-.17.1-.22a12.77,12.77,0,0,1,.94-1.65,1.51,1.51,0,0,0-.54-2,1.53,1.53,0,0,0-2.05.54,14.08,14.08,0,0,0-2.35,8,1.5,1.5,0,0,0,3,0Z"/>
  <path class="cls-1" d="M20.84,112.65l1.05-4.17a1.5,1.5,0,1,0-2.89-.8L18,111.85a1.5,1.5,0,1,0,2.89.8Z"/>
  <path class="cls-1" d="M21.61,120.91l1.69-5.38-2.95-.4-.58,5.94a1.49,1.49,0,0,0,1.3,1.47,1.53,1.53,0,0,0,1.65-1.07l3.11-7.56-2.9-.8-1.82,9.17a1.5,1.5,0,1,0,2.89.8l1.83-9.17a1.54,1.54,0,0,0-1-1.85,1.56,1.56,0,0,0-1.85,1l-3.11,7.56,2.95.4.58-5.94a1.48,1.48,0,0,0-1.3-1.48,1.5,1.5,0,0,0-1.64,1.08l-1.69,5.38A1.5,1.5,0,0,0,19.77,122a1.52,1.52,0,0,0,1.84-1Z"/>
  <path class="cls-1" d="M21.92,130.4l.44,3.06a1.51,1.51,0,0,0,2.74.36l2.9-6.19a1.5,1.5,0,0,0-2.59-1.52l-2.9,6.2,2.74.36-.44-3.07a1.5,1.5,0,0,0-2.74-.36,1.78,1.78,0,0,0-.15,1.16Z"/>
  <path class="cls-1" d="M27.93,137.61l2.16-6.23A1.52,1.52,0,0,0,29,129.53a1.54,1.54,0,0,0-1.85,1.05L25,136.81a1.51,1.51,0,0,0,1,1.85,1.55,1.55,0,0,0,1.85-1Z"/>
  <path class="cls-1" d="M30.23,143.52c0-.18,0-.37.05-.56l0-.28c0,.17,0,.16,0,0,.07-.37.13-.74.22-1.11a15.77,15.77,0,0,1,.6-2l.21-.52c-.11.27.11-.24.14-.29.14-.3.29-.59.44-.88a17,17,0,0,1,1.23-1.89,1.51,1.51,0,0,0-.54-2.06,1.55,1.55,0,0,0-2.05.54,17.26,17.26,0,0,0-3.33,9.1,1.5,1.5,0,0,0,1.5,1.5,1.54,1.54,0,0,0,1.5-1.5Z"/>
  <path class="cls-1" d="M31.25,148.74A14.9,14.9,0,0,1,34,141.37l-2.74-1.15-3.37,14.92a1.5,1.5,0,0,0,2.89.8l2.61-6.78a1.51,1.51,0,0,0-1.05-1.85,1.53,1.53,0,0,0-1.84,1.05l-2.61,6.78,2.89.8L34.11,141a1.51,1.51,0,0,0-2.74-1.16,17.83,17.83,0,0,0-3.12,8.88,1.5,1.5,0,0,0,3,0Z"/>
  <path class="cls-1" d="M32.2,160.59l3.14-9.38a1.5,1.5,0,1,0-2.89-.8l-3.15,9.38a1.52,1.52,0,0,0,1.05,1.85,1.55,1.55,0,0,0,1.85-1Z"/>
  <path class="cls-1" d="M33.22,168.92l2.08-6.25a1.5,1.5,0,1,0-2.89-.8l-2.09,6.26A1.51,1.51,0,0,0,31.37,170a1.54,1.54,0,0,0,1.85-1.05Z"/>
  <path class="cls-1" d="M33.11,169.29,36.19,164a1.51,1.51,0,0,0-.54-2,1.53,1.53,0,0,0-2,.54l-3.08,5.25a1.5,1.5,0,1,0,2.59,1.51Z"/>
  <path class="cls-1" d="M35.28,177.26,37.62,170a1.51,1.51,0,0,0-1-1.84,1.52,1.52,0,0,0-1.84,1.05l-2.34,7.21a1.5,1.5,0,1,0,2.89.8Z"/>
  <path class="cls-1" d="M37.51,184.2a19.25,19.25,0,0,1,1.92-9.66,1.55,1.55,0,0,0-.54-2.06,1.52,1.52,0,0,0-2,.54,22.45,22.45,0,0,0-2.33,11.18,1.54,1.54,0,0,0,1.5,1.5,1.51,1.51,0,0,0,1.5-1.5Z"/>
  <path class="cls-1" d="M42.61,194l2.09-6.26a1.52,1.52,0,0,0-1.05-1.84,1.54,1.54,0,0,0-1.85,1l-2.08,6.26a1.5,1.5,0,1,0,2.89.8Z"/>
  <path class="cls-1" d="M21.48,21.7A27.66,27.66,0,0,1,38,26.91c4.32,3.11,7.43,7.57,10.68,11.71s6.89,8.31,11.78,10.61c5.33,2.51,11.24,2.76,17,2a70.5,70.5,0,0,0,9.29-2c2.61-.72,5.58-1.3,7.88-2.83,1.89-1.26,3.74-3.51,2.57-5.89-1-2.09-4.08-3.07-6.2-3.39-5.35-.8-10.67.8-16-.8S65.38,31.14,61.89,27a14.35,14.35,0,0,1-2.76-4.14c-.6-1.68.23-2.9,1.47-4A18.56,18.56,0,0,1,69.43,15c7.19-1.32,14.47.92,21.18,3.32a1.54,1.54,0,0,0,1.85-1.05c1.62-4.31-3.15-7.39-6.41-8.92A46.26,46.26,0,0,0,71.92,4,34.51,34.51,0,0,0,57.05,5.75C52.31,7.29,47.76,9.41,43,10.8c-5.19,1.51-11,2.3-16.13.09-1.75-.76-3.28,1.83-1.51,2.59,8.81,3.8,18.08.59,26.51-2.65,4.38-1.68,8.87-3.44,13.56-3.94A32.06,32.06,0,0,1,79.21,8.73a43.56,43.56,0,0,1,7.19,3.1c1.58.89,3.95,2.52,3.17,4.6l1.84-1c-6.11-2.19-12.55-4.13-19.12-3.76a25.47,25.47,0,0,0-8.35,1.83c-2.57,1.06-5.35,2.65-7,5-1.78,2.54-1,5.47.61,7.87A35.86,35.86,0,0,0,63,32.53,27.54,27.54,0,0,0,77.61,39.9a42.77,42.77,0,0,0,8.08,0c2.43-.12,5.17-.27,7.4.88.81.42,1.87.92,1.21,1.89a6.28,6.28,0,0,1-3.09,2.05,81.87,81.87,0,0,1-8.82,2.48c-5.75,1.35-11.92,2.14-17.69.44C59.33,46.08,55.41,42.21,52,38c-3.8-4.7-7.19-9.76-12.11-13.4A30.41,30.41,0,0,0,21.48,18.7c-1.93,0-1.94,3,0,3Z"/>
  <path class="cls-1" d="M74.37,27.51a18.38,18.38,0,0,0,9.52,4.87,46.39,46.39,0,0,0,5.5.79A16.51,16.51,0,0,0,95.13,33c3.38-.9,6.28-4.44,4.63-8-1.79-3.85-6.48-3.85-10.09-3.64a80.07,80.07,0,0,0-14.86,2.31,1.51,1.51,0,0,0-.66,2.51,13.64,13.64,0,0,0,6.22,3.06c1.15.23,2.51-1,1.69-2.2a7.15,7.15,0,0,0-2.22-2.09l-1.15,2.75a23,23,0,0,1,6.51,2.67c1.7,1,3-1.46,1.52-2.59l-4.8-3.64-1.16,2.75a11.4,11.4,0,0,1,4.11,2.58L86.33,27l-5.67-1.64c-1.38-.39-2.63,1.52-1.46,2.51a19.44,19.44,0,0,0,7.12,3.89A1.51,1.51,0,0,0,88,29.52L84.37,24l-2.05,2.05,5.62,3.27c1.56.91,2.83-1.09,1.81-2.36l-2.21-2.77-1.82,2.36L90,29c1.22.68,3-.77,2.05-2l-1.22-1.73-2,2,3.61,2.53c1,.72,2.13-.29,2.25-1.3A6,6,0,0,0,94,25l-2.36,1.82,2.88,2.44A1.52,1.52,0,0,0,96.86,29c1-1.54-.38-3.07-1.84-3.55-2.06-.66-4.3-1-6.41-1.48A1.54,1.54,0,0,0,86.76,25a5.68,5.68,0,0,0,1.56,5.57,1.51,1.51,0,0,0,2.36-1.82,21.17,21.17,0,0,0-2.56-3.81L86.3,27.3,90.13,30a1.5,1.5,0,0,0,2.25-1.29,11.34,11.34,0,0,0-1-4.21l-2.06,2.05L93.42,29a1.52,1.52,0,0,0,2.2-1.69L95.42,26l-1.85,1.84a4.59,4.59,0,0,1,1.49.88,1.52,1.52,0,0,0,2.56-1.06v-2L95.72,27l.19.08-.9-.69c.83-1,.84-1.52,0-1.63l-.41-.11c-.41-.11-.82-.19-1.24-.26a14.43,14.43,0,0,0-2.71-.21c-.47,0-4.41.7-4.44.17l-1.5,1.5a27.36,27.36,0,0,1,11.73,2.39V25.67a18.43,18.43,0,0,1-6,1.71c-1.31.14-2.24,2.09-.75,2.8l4.14,2L95,29.42,83.31,26.26a1.5,1.5,0,0,0-.8,2.89L94.2,32.31c1.59.43,2.73-2,1.15-2.74l-4.14-2-.76,2.79A22.76,22.76,0,0,0,98,28.26a1.5,1.5,0,0,0,0-2.59,30.83,30.83,0,0,0-13.24-2.8,1.52,1.52,0,0,0-1.5,1.5,3.35,3.35,0,0,0,3.06,3.18c1.79.25,3.61-.45,5.44-.33a12.51,12.51,0,0,1,2.7.52,3.12,3.12,0,0,0,2.49,0,2,2,0,0,0-.42-3.59,1.51,1.51,0,0,0-1.9,1.45v2l2.56-1.06a8.14,8.14,0,0,0-2.81-1.65c-1.19-.42-2,.82-1.84,1.85l.2,1.31,2.2-1.69L90.84,24c-1.41-.81-2.62.76-2,2.05a7.61,7.61,0,0,1,.59,2.7l2.26-1.3-3.82-2.74C86.34,23.65,85,25.85,86,27.06a17.78,17.78,0,0,1,2.09,3.2l2.35-1.81a2.64,2.64,0,0,1-.79-2.65l-1.84,1.05,3.59.82,1.79.41.9.2c.39.21.46-.07.18-.81l2.36-.3-2.88-2.45a1.51,1.51,0,0,0-2.35,1.82,3.29,3.29,0,0,1,.23,1.93l2.26-1.3-3.61-2.52a1.51,1.51,0,0,0-2,2.05l1.22,1.73,2-2.05L87.24,24a1.51,1.51,0,0,0-1.82,2.36l2.21,2.76,1.82-2.35L83.83,23.5c-1.25-.73-2.9.77-2,2.05L85.42,31l1.69-2.2a16,16,0,0,1-5.79-3.12l-1.46,2.51,5.67,1.63A1.51,1.51,0,0,0,87,27.34,15,15,0,0,0,81.56,24c-1.74-.62-2.4,1.81-1.16,2.74l4.8,3.64,1.52-2.59a26,26,0,0,0-7.24-3,1.51,1.51,0,0,0-1.15,2.74,3.81,3.81,0,0,1,1.14,1l1.69-2.2a10.62,10.62,0,0,1-4.89-2.29l-.67,2.5a75.46,75.46,0,0,1,13.18-2.14c2-.15,4.51-.52,6.47.28,1.55.64,2.58,2.18,1.55,3.73s-3,1.91-4.83,1.9a37,37,0,0,1-5.65-.52c-3.62-.6-7.21-1.72-9.83-4.41-1.34-1.38-3.46.74-2.12,2.12Z"/>
  <path class="cls-1" d="M95.15,29.57A3.37,3.37,0,0,0,98.73,28a3.8,3.8,0,0,0,.11-3.83c-1.21-2.44-4-2.91-6.38-3.49a1.51,1.51,0,0,0-1.69.69A1.56,1.56,0,0,0,91,23.2l3.3,3.85a1.51,1.51,0,0,0,2,.12,1.52,1.52,0,0,0,.38-1.94A5.28,5.28,0,0,0,93,22.38a1.52,1.52,0,0,0-1.85,1.84,33.08,33.08,0,0,0,2.34,7.26,1.51,1.51,0,0,0,2,.54A1.55,1.55,0,0,0,96.07,30c-.07-.15-.13-.29-.19-.44-.21-.47.1.26-.1-.22-.1-.24-.19-.49-.29-.73-.21-.57-.41-1.14-.59-1.72A30.75,30.75,0,0,1,94,23.43l-1.84,1.84a3.89,3.89,0,0,1,.43.11.49.49,0,0,1,.17.06l-.06,0,.39.2c.06,0,.36.26.1.06a3.87,3.87,0,0,1,.54.53c-.21-.24,0,0,.06.1a3.75,3.75,0,0,1,.24.44l2.36-1.81-3.3-3.85-1.46,2.51c.9.22,1.82.37,2.7.66l.29.11.14.05h0a3.74,3.74,0,0,1,.52.28l.22.14c.22.15-.06-.07,0,0s.28.27.41.41.08.11,0,0l.13.21s.19.34.1.16,0,.08,0,.11,0,.2.08.31c0-.12,0-.2,0,0,0,.33.07-.16,0,0a2.17,2.17,0,0,0-.07.24c0,.15.13-.2,0,0l-.12.21c.09-.17.08-.1,0,0s-.22.2-.07.08-.14.07-.14.07.22-.1,0,0,0,0,.06,0-.46-.08-.06,0a1.5,1.5,0,0,0-.8,2.89Z"/>
  <path class="cls-1" d="M72.3,41.4l2,1.47a1.73,1.73,0,0,0,1.16.16,1.26,1.26,0,0,0,.51-.27,1.18,1.18,0,0,0,.38-.42,1.47,1.47,0,0,0,.15-1.16l-.15-.36a1.61,1.61,0,0,0-.53-.54l-2-1.47a1.12,1.12,0,0,0-.56-.18,1.22,1.22,0,0,0-.6,0,1.15,1.15,0,0,0-.51.27,1,1,0,0,0-.38.42,1.46,1.46,0,0,0-.15,1.15l.15.36a1.4,1.4,0,0,0,.54.54Z"/>
  <path class="cls-1" d="M66.69,37.06a10.44,10.44,0,0,0,2.84,5.1,1.52,1.52,0,0,0,2.12,0,1.54,1.54,0,0,0,0-2.12,10.17,10.17,0,0,1-.82-.92l.24.3a9.07,9.07,0,0,1-1.16-2l.15.36a9.82,9.82,0,0,1-.48-1.51,1.51,1.51,0,0,0-1.84-1.05,1.53,1.53,0,0,0-1,1.84Z"/>
  <path class="cls-1" d="M64.25,36.57a5.86,5.86,0,0,0,2.64,3.36,1.5,1.5,0,0,0,2-.54,1.54,1.54,0,0,0,.15-1.15,1.59,1.59,0,0,0-.69-.9,4.76,4.76,0,0,1-.47-.31l.3.23a4.74,4.74,0,0,1-.77-.78l.23.31a5,5,0,0,1-.55-.95l.15.36a3.12,3.12,0,0,1-.15-.43,1.54,1.54,0,0,0-.69-.89,1.57,1.57,0,0,0-1.16-.16,1.54,1.54,0,0,0-.89.69,1.52,1.52,0,0,0-.15,1.16Z"/>
  <path class="cls-1" d="M61.91,37.43l1,1.48a1,1,0,0,0,.38.42,1.06,1.06,0,0,0,.51.27,1.66,1.66,0,0,0,1.16-.15l.3-.23a1.49,1.49,0,0,0,.39-.66l.05-.4a1.54,1.54,0,0,0-.2-.76l-1-1.48a1.12,1.12,0,0,0-.39-.42,1.14,1.14,0,0,0-.51-.27,1.18,1.18,0,0,0-.59,0,1.12,1.12,0,0,0-.56.18l-.31.24a1.45,1.45,0,0,0-.38.66l0,.4a1.41,1.41,0,0,0,.2.75Z"/>
  <path class="cls-1" d="M60.4,36.47l.5,1a1.12,1.12,0,0,0,.39.42,1.14,1.14,0,0,0,.51.27,1.08,1.08,0,0,0,.59,0A1.12,1.12,0,0,0,63,38l.31-.23a1.57,1.57,0,0,0,.38-.66l0-.4a1.47,1.47,0,0,0-.2-.76L63,35a1.12,1.12,0,0,0-.39-.42,1.14,1.14,0,0,0-.51-.27,1.07,1.07,0,0,0-.59,0,1.11,1.11,0,0,0-.56.17l-.3.24a1.49,1.49,0,0,0-.39.66l0,.4a1.47,1.47,0,0,0,.2.76Z"/>
  <path class="cls-1" d="M54.83,29.23a35.48,35.48,0,0,0,3.49,7.17,1.5,1.5,0,0,0,2.79-.76,3.1,3.1,0,0,0-1.56-2.7A1.5,1.5,0,1,0,58,35.53l.17.1-.15-.1c.21.17-.14-.26,0,0a.83.83,0,0,1,.07.13q-.11-.28-.06-.12c0,.4,0-.27,0,0l2.8-.76a33.5,33.5,0,0,1-1.84-3.25c-.27-.56-.54-1.13-.78-1.7.13.31,0,0,0-.1l-.18-.47c-.12-.31-.24-.62-.35-.93a1.5,1.5,0,1,0-2.89.8Z"/>
  <path class="cls-1" d="M52.5,26.17,55,31.07a1.51,1.51,0,0,0,2.05.54,1.53,1.53,0,0,0,.54-2.05l-2.48-4.91A1.51,1.51,0,0,0,53,24.11a1.54,1.54,0,0,0-.54,2.06Z"/>
  <path class="cls-1" d="M51.9,25.36v.49a1.14,1.14,0,0,0,.12.58,1.21,1.21,0,0,0,.31.48,1.11,1.11,0,0,0,.49.31,1.06,1.06,0,0,0,.58.13l.39-.05a1.47,1.47,0,0,0,.67-.39l.23-.3a1.55,1.55,0,0,0,.21-.76v-.49a1.29,1.29,0,0,0-.13-.58,1.24,1.24,0,0,0-.31-.48A1.21,1.21,0,0,0,54,24a1.14,1.14,0,0,0-.57-.13l-.4.06a1.54,1.54,0,0,0-.67.38l-.23.31a1.41,1.41,0,0,0-.2.75Z"/>
  <path class="cls-1" d="M51.53,17.81l1.93,3.46a1.53,1.53,0,0,0,.89.69,1.56,1.56,0,0,0,1.16-.15,1.53,1.53,0,0,0,.54-2l-1.93-3.47a1.49,1.49,0,0,0-2-.53,1.52,1.52,0,0,0-.54,2Z"/>
  <path class="cls-1" d="M54.46,16.83l1,2a1,1,0,0,0,.38.42,1.26,1.26,0,0,0,.51.27,1.22,1.22,0,0,0,.6,0,1.12,1.12,0,0,0,.56-.18,1.52,1.52,0,0,0,.69-.9l0-.4a1.5,1.5,0,0,0-.2-.75l-1-2a1.72,1.72,0,0,0-.9-.69,1.22,1.22,0,0,0-.6,0,1.16,1.16,0,0,0-.56.18,1.5,1.5,0,0,0-.68.9l-.06.4a1.42,1.42,0,0,0,.21.75Z"/>
  <path class="cls-1" d="M56.81,14.06v2a1.59,1.59,0,0,0,.44,1.07,1.17,1.17,0,0,0,.48.31,1.14,1.14,0,0,0,.58.12,1.49,1.49,0,0,0,1.06-.43A1.59,1.59,0,0,0,59.81,16v-2A1.54,1.54,0,0,0,59.37,13a1.14,1.14,0,0,0-.48-.31,1.06,1.06,0,0,0-.58-.13,1.5,1.5,0,0,0-1.06.44,1.54,1.54,0,0,0-.44,1.06Z"/>
  <path class="cls-1" d="M60.25,12.58v.5a1,1,0,0,0,.13.57,1.11,1.11,0,0,0,.31.49,1.17,1.17,0,0,0,.48.31,1.27,1.27,0,0,0,.58.13l.4-.06a1.57,1.57,0,0,0,.66-.38l.23-.31a1.42,1.42,0,0,0,.21-.75v-.5a1.14,1.14,0,0,0-.13-.57,1.11,1.11,0,0,0-.31-.49,1.24,1.24,0,0,0-.48-.31,1.27,1.27,0,0,0-.58-.13l-.4.06a1.57,1.57,0,0,0-.66.38l-.24.31a1.5,1.5,0,0,0-.2.75Z"/>
  <path class="cls-1" d="M63.2,12.58v.5a1,1,0,0,0,.13.57,1.34,1.34,0,0,0,.79.8,1.27,1.27,0,0,0,.58.13l.4-.06a1.57,1.57,0,0,0,.66-.38l.23-.31a1.42,1.42,0,0,0,.21-.75v-.5a1.14,1.14,0,0,0-.13-.57,1.11,1.11,0,0,0-.31-.49,1.24,1.24,0,0,0-.48-.31,1.29,1.29,0,0,0-.58-.13l-.4.06a1.51,1.51,0,0,0-.66.38l-.24.31a1.5,1.5,0,0,0-.2.75Z"/>
  <path class="cls-1" d="M64.7,14.08h1.47a1.14,1.14,0,0,0,.58-.12,1.34,1.34,0,0,0,.79-.8,1.06,1.06,0,0,0,.13-.58l0-.39a1.47,1.47,0,0,0-.39-.67,1.54,1.54,0,0,0-1.06-.44H64.7a1.27,1.27,0,0,0-.58.13,1.34,1.34,0,0,0-.79.8,1,1,0,0,0-.13.57l0,.4a1.47,1.47,0,0,0,.39.67,1.53,1.53,0,0,0,1.06.43Z"/>
  <path class="cls-1" d="M68.11,11.11v1a1.15,1.15,0,0,0,.13.58,1.11,1.11,0,0,0,.31.48,1.14,1.14,0,0,0,.48.31,1.08,1.08,0,0,0,.58.13l.4-.05a1.39,1.39,0,0,0,.66-.39l.24-.3a1.54,1.54,0,0,0,.2-.76v-1a1.06,1.06,0,0,0-.13-.58,1.14,1.14,0,0,0-.31-.48,1,1,0,0,0-.48-.31,1.15,1.15,0,0,0-.58-.13l-.4.05a1.59,1.59,0,0,0-.66.39l-.23.3a1.48,1.48,0,0,0-.21.76Z"/>
  <path class="cls-1" d="M71.5,11.19l.49.49a1.14,1.14,0,0,0,.48.31,1.17,1.17,0,0,0,.58.13,1.15,1.15,0,0,0,.58-.13,1,1,0,0,0,.48-.31l.24-.3a1.57,1.57,0,0,0,.2-.76l0-.4a1.49,1.49,0,0,0-.39-.66l-.49-.49a1,1,0,0,0-.48-.31,1.36,1.36,0,0,0-1.16,0,1.14,1.14,0,0,0-.48.31l-.23.3a1.45,1.45,0,0,0-.21.76l0,.4a1.59,1.59,0,0,0,.39.66Z"/>
  <path class="cls-1" d="M74.5,9.64v1a1.15,1.15,0,0,0,.13.58,1.36,1.36,0,0,0,.79.79,1.15,1.15,0,0,0,.58.13l.4,0a1.59,1.59,0,0,0,.66-.39l.24-.3a1.57,1.57,0,0,0,.2-.76v-1a1.06,1.06,0,0,0-.13-.58,1,1,0,0,0-.31-.48,1,1,0,0,0-.48-.31A1.06,1.06,0,0,0,76,8.14l-.4,0a1.49,1.49,0,0,0-.66.39l-.23.3a1.45,1.45,0,0,0-.21.76Z"/>
  <path class="cls-1" d="M147.12,9.65c-4,2.7-8.22,5.32-13,6.2-5.06.92-9.36-1.31-14.11-2.59a17,17,0,0,0-6.87-.57c-1.77.26-4.55,1-5.1,3-.63,2.3,2.16,4,3.83,4.94,1.86,1.05,3.91,1.77,5.69,3s3.2,3,2.73,5.18-2.26,3.86-4,5.17c-2.63,2-8.48,5.26-6.92,9.4,1.47,3.91,7.12,3.39,10.29,2.55a27.9,27.9,0,0,0,11.46-6.84c7.34-6.79,14.1-18.19,25.5-17.6l-1.44-1.9c-.85,2.15-3.21,3.32-4.71,4.95s-2.8,4-2.17,6.36a3.48,3.48,0,0,0,4.48,2.62A10.15,10.15,0,0,0,155,32.35a5.71,5.71,0,0,0,1-.6c.3-.32.22.19,0-.17a9.33,9.33,0,0,1,.26,1.68,4.32,4.32,0,0,0,.48,1.13,4.59,4.59,0,0,0,2.39,1.85,6.21,6.21,0,0,0,5.8-1c3.08-2.31,5.49-9.81,10.33-6.94,2.14,1.27,3.81,3,6.39,3.31,2.29.26,4.39-.59,5.24-2.82C187.6,27,184.7,26.2,184,28c-.47,1.22-2.72.6-3.53.21-1.85-.9-3.25-2.49-5.21-3.22-4.52-1.69-7.61,2.19-9.93,5.44-1,1.41-2.31,3.16-4.22,3.15a2.28,2.28,0,0,1-1.68-.58c-.6-.66-.35-1.82-.71-2.62A2.81,2.81,0,0,0,155,28.91,10,10,0,0,0,153.15,30c-.31.2-1.14.91-1.55.76-.84-.31-.26-2,0-2.54a8.33,8.33,0,0,1,2.14-2.55c1.79-1.56,3.51-3,4.41-5.25.38-1-.57-1.85-1.45-1.9-9.21-.47-16.21,6.35-22,12.63-3.09,3.36-6.18,6.83-10.06,9.3A20.33,20.33,0,0,1,119.11,43c-1.77.49-4,.93-5.77.21-.49-.2-1.15-.54-1.17-1.15,0-.81,1.09-1.77,1.61-2.28,1.48-1.43,3.24-2.52,4.85-3.8,3.08-2.45,5.89-6.42,4.29-10.51s-5.87-5.38-9.36-7.3a7.06,7.06,0,0,1-2.49-1.78c.14.21-.74.32.18,0,.19-.06.37-.19.55-.26a7,7,0,0,1,1.74-.49,14.26,14.26,0,0,1,6.28.68c2.49.73,4.89,1.75,7.43,2.31a19.26,19.26,0,0,0,7.45.14c5.11-.89,9.72-3.66,13.94-6.53,1.58-1.09.08-3.69-1.52-2.6Z"/>
  <path class="cls-1" d="M121.11,20.1c1.93-.62,3.2,1.8,4.13,3.08a8.74,8.74,0,0,0,4.17,3.32c3.62,1.3,7.6-.1,10.66-2.12,3.63-2.41,6.79-5.27,10.78-7.13a33.45,33.45,0,0,1,6-2.11c1.61-.4,4.59-1.42,6,0s-1.66,3-2.48,3.94a8.48,8.48,0,0,0-2.2,6.05,1.52,1.52,0,0,0,2.26,1.29l5-3.14L163.12,22a14.48,14.48,0,0,1-1,4.58c-.52,1.35,1.15,2.18,2.21,1.69,2.12-1,3.46-2.86,4.81-4.69,1.11-1.49,2.9-3.63,5-3.26,1,.17,1.25,1.11,1.76,1.86a4.49,4.49,0,0,0,2.6,1.87c2.28.58,4.68-.48,6.62-1.61a1.5,1.5,0,0,0-1.51-2.59,9.59,9.59,0,0,1-3.14,1.3A2,2,0,0,1,178.15,20a4.9,4.9,0,0,0-5.31-2.63,8.69,8.69,0,0,0-5.29,3.34c-1.43,1.79-2.59,3.94-4.75,4.93l2.2,1.7A16.89,16.89,0,0,0,166.12,22a1.52,1.52,0,0,0-2.26-1.3l-5,3.14,2.26,1.3c-.08-2.24,1-3.73,2.63-5.12,1.47-1.24,2.83-2.81,2.38-4.87-1.11-5-7.68-3.56-11.14-2.57a37.2,37.2,0,0,0-12.3,6.18c-3.25,2.46-7,6-11.45,5.18-2.5-.45-3.46-2.49-4.91-4.31s-3.68-3.13-6-2.37c-1.83.59-1,3.49.8,2.89Z"/>
  <path class="cls-1" d="M118.8,40.58A13.88,13.88,0,0,0,129.35,31c.32-1.05.72-3.42,2.08-3.53a1.5,1.5,0,0,0,0-3,5.15,5.15,0,0,0-4.3,3.6,26.71,26.71,0,0,1-1.84,4.69A11,11,0,0,1,118,37.69a1.5,1.5,0,0,0,.8,2.89Z"/>
  <path class="cls-1" d="M22,18.61c-1.76.11-3.55.16-5.3.38a25.36,25.36,0,0,0-4.85,1.23C9.49,21,6.2,22,4.22,19.81,2.93,18.37.81,20.5,2.1,21.93,4.36,24.44,8,24.45,11,23.62c1.76-.49,3.45-1.21,5.25-1.55A45.79,45.79,0,0,1,22,21.61c1.92-.12,1.93-3.12,0-3Z"/>
  <path class="cls-1" d="M27.35,11.26A15.11,15.11,0,0,0,20.93,9a13,13,0,0,0-3.46.4,3.93,3.93,0,0,1-2.58,0,1.5,1.5,0,0,0-1.51,2.59,5.85,5.85,0,0,0,3.39.59c1.11-.13,2.19-.5,3.31-.55a10.82,10.82,0,0,1,5.76,1.88,1.5,1.5,0,0,0,1.51-2.59Z"/>
  <path class="cls-1" d="M184,22.52a9.69,9.69,0,0,0,1.41-.25,10,10,0,0,1,1.09-.23l-.4.05a3.1,3.1,0,0,1,.86,0l-.39,0a2.91,2.91,0,0,1,.58.15L186.8,22a1.63,1.63,0,0,1,.4.24l-.3-.24a1.88,1.88,0,0,1,.24.25,1.52,1.52,0,0,0,1.06.44,1.54,1.54,0,0,0,1.07-.44,1.49,1.49,0,0,0,.43-1.06l0-.4a1.57,1.57,0,0,0-.38-.66,3.51,3.51,0,0,0-2.72-1.11,20.42,20.42,0,0,0-2.79.51l.4-.06-.15,0A1.66,1.66,0,0,0,183,20a1.52,1.52,0,0,0-.44,1.06,1.5,1.5,0,0,0,.44,1.06,1.42,1.42,0,0,0,1.06.44Z"/>
  <path class="cls-1" d="M148.57,12.32q1.29-1.29,2.67-2.49c.44-.39.9-.77,1.36-1.14.24-.2.48-.4.74-.58-.08.05-.21.16-.06,0l.17-.12.41-.32a1.61,1.61,0,0,0,.69-.89,1.5,1.5,0,0,0-2.2-1.7,52,52,0,0,0-5.9,5.08,1.5,1.5,0,0,0,2.12,2.12Z"/>
  <path class="cls-1" d="M3.54,37.87a132.88,132.88,0,0,0,67.8,24.68c13.86,1.08,27.75-.4,41.57-1.34,13.31-.9,26.65-1.54,39.56-5.21A111.39,111.39,0,0,0,188.8,38c1.52-1.15,0-3.75-1.52-2.59a108.88,108.88,0,0,1-31.5,16.44A109.58,109.58,0,0,1,138.18,56c-6.72,1-13.52,1.39-20.29,1.84L97,59.29a188.57,188.57,0,0,1-20.31.57A133.29,133.29,0,0,1,40.84,53.5,127.41,127.41,0,0,1,5.06,35.28C3.5,34.14,2,36.75,3.54,37.87Z"/>
  <path class="cls-1" d="M4.94,76.89A149.32,149.32,0,0,0,40.44,98a139.37,139.37,0,0,0,29.82,9,125.62,125.62,0,0,0,46.19-.44,154.13,154.13,0,0,0,38.11-12.91A147.79,147.79,0,0,0,186.4,72.35c1.13-1,2.23-2,3.33-3,1.42-1.31-.71-3.43-2.12-2.12a145.3,145.3,0,0,1-30.36,21.61,153.19,153.19,0,0,1-37,13.75,122.36,122.36,0,0,1-44.35,2.21,133.66,133.66,0,0,1-32.09-8.65A147.78,147.78,0,0,1,12.15,78.66q-2.58-1.89-5.09-3.89c-1.49-1.2-3.63.91-2.12,2.12Z"/></g></g></svg>
