<svg xmlns="http://www.w3.org/2000/svg" viewBox="0 0 1100 800"><path stroke="#ffffff" stroke-width="3" fill="none"  d="M25,13.67q8.44,20.22,17.63,40.15C49.1,67.75,55.89,81.53,62.78,95.25q2.82,5.59,5.68,11.18c.88,1.72,3.47.21,2.59-1.51q-7-13.62-13.72-27.36-11-22.38-21.06-45.18Q32,22.66,27.91,12.87a1.57,1.57,0,0,0-1.85-1,1.51,1.51,0,0,0-1,1.85Z"/>
<path class="cls-1" d="M155.87,7.37a381.88,381.88,0,0,1-11.19,77.35q-2.4,9.56-5.27,19c-.56,1.85,2.33,2.64,2.89.8A389.06,389.06,0,0,0,157.21,30.7q1.18-11.62,1.66-23.33c.08-1.93-2.92-1.92-3,0Z"/>

<path class="cls-1" d="M68.31,105.33A128,128,0,0,1,127,103.42c4.24.85,8.45,1.9,12.6,3.13,1.85.55,2.65-2.35.8-2.89A134.3,134.3,0,0,0,84.74,99a129.44,129.44,0,0,0-17.23,3.46,1.5,1.5,0,0,0,.8,2.89Z"/>
<path class="cls-1" d="M66.93,105.14c2.12,4.33,6.77,6.41,11.18,7.64a99,99,0,0,0,17.6,3,106.73,106.73,0,0,0,35.83-2.74c4.51-1.16,10-3.55,10.85-8.69.33-1.89-2.56-2.7-2.89-.8-.69,4-5.11,5.65-8.59,6.55a96.86,96.86,0,0,1-16.13,2.71,106.47,106.47,0,0,1-33.1-2.28c-4.52-1-9.94-2.42-12.16-7-.85-1.73-3.43-.21-2.59,1.52Z"/>
<path class="cls-1" d="M26.88,14A262.73,262.73,0,0,1,77.27,4.18a267,267,0,0,1,51.28.11A261.3,261.3,0,0,1,157.2,8.77c1.88.4,2.69-2.49.8-2.89A266.82,266.82,0,0,0,26.08,11.1c-1.84.55-1.06,3.45.8,2.89Z"/>
<path class="cls-1" d="M26.59,16.14a452,452,0,0,0,54.45,2,457.64,457.64,0,0,0,50.17-3.95q13-1.76,26-4.21c1.89-.36,1.09-3.25-.8-2.89a466,466,0,0,1-46.93,6.5,453.65,453.65,0,0,1-52,1.49q-15.45-.45-30.85-2c-1.92-.19-1.9,2.81,0,3Z"/>
<path class="cls-1" d="M36.4,33.92c-8.07-2.87-17.06-5.81-25.47-2.47a16.3,16.3,0,0,0-8.56,7.33A22.48,22.48,0,0,0,.05,50.69c.46,7.57,4,14.59,9,20.17A47,47,0,0,0,29.27,83.62c9.5,3.23,19.62,4.15,29.57,4.71,1.93.11,1.92-2.89,0-3-15.37-.87-32.4-2.7-44.41-13.38C9.23,67.33,5.11,61.32,3.59,54.47S3.25,39.08,9.88,35.25C18,30.6,27.55,34,35.61,36.81c1.82.65,2.6-2.25.79-2.89Z"/>
<path class="cls-1" d="M36.79,35.19c-4.46-.55-8.93-1.18-13.4-1.62-3.71-.36-7.58-.38-11,1.17C5.4,37.87,3.9,46.41,4.81,53.22c2,15,14.66,26.72,28.64,31.09a44.54,44.54,0,0,0,23.88.8c1.88-.46,1.08-3.35-.79-2.89a42.07,42.07,0,0,1-36.6-8.58,35.16,35.16,0,0,1-11.38-17c-1.62-5.72-2-14.27,3.46-18.22,3.14-2.28,7.29-2.18,11-1.85,4.61.42,9.21,1.09,13.8,1.66,1.91.23,1.9-2.77,0-3Z"/>
<path class="cls-1" d="M55.7,86.6h1.9a1.52,1.52,0,0,0,1.06-.44,1,1,0,0,0,.31-.48,1.15,1.15,0,0,0,.13-.58A1.52,1.52,0,0,0,58.66,84a1.54,1.54,0,0,0-1.06-.44H55.7a1.58,1.58,0,0,0-1.06.44,1.21,1.21,0,0,0-.31.49,1.22,1.22,0,0,0-.13.57,1.54,1.54,0,0,0,.44,1.06,1.58,1.58,0,0,0,1.06.44Z"/>
<path class="cls-1" d="M33.14,28.87a258.53,258.53,0,0,0,44.72,6.38,255.14,255.14,0,0,0,54-2.89q12.51-2,24.77-5.26a1.5,1.5,0,0,0-.8-2.89A252.55,252.55,0,0,1,109,32a251.5,251.5,0,0,1-52.25-1.76Q45.26,28.63,33.94,26c-1.88-.44-2.68,2.45-.8,2.89Z"/>
<path class="cls-1" d="M40.81,44.14a196.21,196.21,0,0,0,48.32,8.32,207.72,207.72,0,0,0,43.42-2.69c6.9-1.14,13.74-2.62,20.5-4.39a1.5,1.5,0,0,0-.8-2.89A218.56,218.56,0,0,1,114.57,49a197.36,197.36,0,0,1-46.14-1.59A194.18,194.18,0,0,1,41.6,41.24c-1.85-.56-2.64,2.33-.79,2.9Z"/>
<path class="cls-1" d="M47.72,64.37A176.33,176.33,0,0,0,85.94,71a175.6,175.6,0,0,0,45.47-3.12,173.81,173.81,0,0,0,18.69-4.85c1.83-.59,1.05-3.48-.8-2.89A172.53,172.53,0,0,1,113,67.62a172.35,172.35,0,0,1-45.25-1.7,177.63,177.63,0,0,1-19.21-4.44,1.5,1.5,0,0,0-.8,2.89Z"/>
<path class="cls-1" d="M56.31,85.41a155.34,155.34,0,0,0,71.72.94,154.06,154.06,0,0,0,17.35-5c1.81-.64,1-3.54-.79-2.89a151.84,151.84,0,0,1-71.4,7.21,154.28,154.28,0,0,1-16.08-3.15c-1.88-.47-2.68,2.42-.8,2.89Z"/>
<path class="cls-1" d="M63.67,18.65c-1.4-.07-2.16,1.19-2.65,2.31a13,13,0,0,0-1,3.23,13.14,13.14,0,0,0,.64,6.69,1.53,1.53,0,0,0,1.84,1.05,1.51,1.51,0,0,0,1-1.85,10,10,0,0,1-.67-4.81c0-.12,0-.23,0-.34,0,.11,0,.08,0-.11l.09-.51q.15-.68.36-1.32a7.43,7.43,0,0,1,.37-.91,6.36,6.36,0,0,1,.3-.58c.1-.15.11-.17,0-.05a.77.77,0,0,1-.46.2,1.51,1.51,0,0,0,1.5-1.5,1.54,1.54,0,0,0-1.5-1.5Z"/>
<path class="cls-1" d="M64.8,19.44A3.54,3.54,0,0,0,62.72,22a8.43,8.43,0,0,0-.34,3c.08,2.15.42,4.32.65,6.47a1.54,1.54,0,0,0,1.5,1.5,1.52,1.52,0,0,0,1.5-1.5c-.2-1.88-.44-3.76-.6-5.64,0-.39-.06-.78-.06-1.17a10.24,10.24,0,0,1,0-1,5.56,5.56,0,0,1,.25-1c0-.1,0-.1,0,0l.15-.29c0-.09.11-.18.17-.27a.61.61,0,0,1-.38.26,1.5,1.5,0,0,0-.8-2.89Z"/>
<path class="cls-1" d="M65.1,20.47a12.16,12.16,0,0,0,.1,10,1.5,1.5,0,0,0,2,.54A1.54,1.54,0,0,0,67.79,29l-.12-.26c.06.13.06.12,0,0l-.15-.41c-.1-.32-.19-.64-.27-1s-.08-.37-.11-.56-.06-.44,0-.17A9.77,9.77,0,0,1,67,25.49a8.35,8.35,0,0,1,0-1c0-.06.07-.55,0-.25,0-.16,0-.33.09-.49a8.24,8.24,0,0,1,.24-1l.15-.48c0-.05.23-.56.12-.31a1.54,1.54,0,0,0-.54-2.05,1.51,1.51,0,0,0-2.05.54Z"/>
<path class="cls-1" d="M65.15,38.06h.06a1.51,1.51,0,0,0,1.3-.74,1.67,1.67,0,0,0-.92-2.4,1.75,1.75,0,0,0-2.11,1.23,20.63,20.63,0,0,0-.78,3.65A10,10,0,0,0,64,47a1.53,1.53,0,0,0,1.88.61,1.5,1.5,0,0,0,.87-1.77l-.18-.58a1.5,1.5,0,0,0-2.89.79l.17.59,2.74-1.16a4.83,4.83,0,0,1-.87-1.87,6.2,6.2,0,0,1-.21-1.9,11.71,11.71,0,0,1,.24-2.23c.09-.44.18-.87.29-1.3,0-.19.09-.38.13-.56s.07-.25.1-.37c.1-.33,0-.26-.2.2l-.66.39.09,0h-.8l.07,0-.9-.69,0,.06-.21-.76v.08l.2-.76,0,0,1.29-.74h-.06a1.54,1.54,0,0,0-1.5,1.5,1.52,1.52,0,0,0,1.5,1.5Z"/>
<path class="cls-1" d="M64.88,36.75a12.1,12.1,0,0,0,.39,9.82,1.51,1.51,0,0,0,2.79-.76,2.51,2.51,0,0,0-.65-1.62,1.49,1.49,0,0,0-2.12,0,1.54,1.54,0,0,0,0,2.12.75.75,0,0,1-.23-.5l2.8-.76s-.25-.56-.15-.31l-.18-.48a9.65,9.65,0,0,1-.3-1l-.09-.43c0-.06-.09-.63-.06-.33,0-.34-.06-.68-.07-1s0-.68,0-1c0-.06.07-.63,0-.33,0-.15,0-.29.07-.44a10.08,10.08,0,0,1,.63-2.09,1.51,1.51,0,0,0-1-1.85,1.54,1.54,0,0,0-1.84,1Z"/>
<path class="cls-1" d="M66.45,36.08c-1,3.64-1.9,7.88.47,11.21a1.54,1.54,0,0,0,2,.54,1.51,1.51,0,0,0,.54-2,6,6,0,0,1-1.11-3.86,20.54,20.54,0,0,1,.94-5,1.5,1.5,0,0,0-2.89-.8Z"/>
<path class="cls-1" d="M64.8,53.37a10.15,10.15,0,0,0,.89,10.34,1.53,1.53,0,0,0,2.06.54,2,2,0,0,0,.93-1.59,1.91,1.91,0,0,0-.59-1.46A1.5,1.5,0,0,0,66,63.32c-.43-.52-.34-1.08.27-1.66l2,.54a10.71,10.71,0,0,1-.59-.9c-.09-.16-.18-.32-.26-.48a2.56,2.56,0,0,0-.11-.24c.07.13,0,.1,0,0a9.49,9.49,0,0,1-.33-1,4.54,4.54,0,0,1-.12-.53c0-.09,0-.18,0-.27,0,.22,0,.06,0-.07a7.8,7.8,0,0,1,0-1.08,4.89,4.89,0,0,1,0-.54,2.45,2.45,0,0,1,0-.27c0-.23,0,.23,0,0a9.92,9.92,0,0,1,.24-1.05c0-.17.11-.35.17-.51s.12-.29,0-.14.1-.2.09-.19a1.5,1.5,0,1,0-2.59-1.51Z"/>
<path class="cls-1" d="M66.68,52.34a4.32,4.32,0,0,0-1.17,2.81,12.26,12.26,0,0,0,0,2.84,14.23,14.23,0,0,0,1.9,5.73,1.51,1.51,0,0,0,2,.53,1.53,1.53,0,0,0,.54-2l-.26-.53a1.51,1.51,0,0,0-2-.53,1.54,1.54,0,0,0-.54,2l.26.53L70,62.2A11,11,0,0,1,68.5,58c0-.21-.07-.76-.07-1.1a10.84,10.84,0,0,1,0-1.14c0-.21,0-.43.06-.64,0,.27,0-.08,0-.16s.21-.56.07-.3a1.76,1.76,0,0,1,.14-.23c-.09.12-.08.12,0,0a1.5,1.5,0,1,0-2.12-2.12Z"/>
<path class="cls-1" d="M67.88,52.11A12.38,12.38,0,0,0,70,65.82l.3-2.35-.09.05.75-.2.67.28.39.67,0-.11c-.56-1.85-3.45-1.06-2.9.8a1.86,1.86,0,0,0,2.73,1.1,1.52,1.52,0,0,0,.3-2.36,9.28,9.28,0,0,1-1.64-10.08,1.54,1.54,0,0,0-.54-2,1.51,1.51,0,0,0-2.05.54Z"/>
<path class="cls-1" d="M69.25,54.13a9.69,9.69,0,0,0-.94,6.23,9.55,9.55,0,0,0,1.06,2.87,11.28,11.28,0,0,1,1.23,2.49,1.51,1.51,0,0,0,2.9-.8c-.48-1.76-1.78-3.2-2.19-4.85a6.54,6.54,0,0,1,.53-4.43,1.5,1.5,0,0,0-2.59-1.51Z"/>
<path class="cls-1" d="M70,71.19a9,9,0,0,0-1.15,7.36A14.74,14.74,0,0,0,72.82,85a1.49,1.49,0,0,0,1.46.38,1.65,1.65,0,0,0,1.18-1.82,1.62,1.62,0,0,0-1.65-1.42,1.54,1.54,0,0,0-1.5,1.5,1.51,1.51,0,0,0,1.5,1.5h.08l-1.06-.44-.14-.18-.21-.75v.08l.2-.76,0,.07.9-.69-.08,0,1.46.39c-2.62-2.68-4.73-6.77-2.32-10.17A1.5,1.5,0,1,0,70,71.19Z"/>
<path class="cls-1" d="M71.67,72a13.72,13.72,0,0,0,3,13.92c1.33,1.41,3.45-.72,2.12-2.12a10.71,10.71,0,0,1-2.18-11,1.5,1.5,0,1,0-2.89-.8Z"/>
<path class="cls-1" d="M73.14,72c-1.55,2.75-1.18,6,0,8.83a31.13,31.13,0,0,0,2,4.08c.28.47.74,1.36,1.27,1.59.26.12,0-.1-.06-.29s.43-.6.71-.64c.89-.14.54,1.51,0,1.29a1.5,1.5,0,0,0,1.84-1,1.53,1.53,0,0,0-1-1.85,2.46,2.46,0,0,0-2.88,1.14,2.36,2.36,0,0,0,4,2.45,2.46,2.46,0,0,0-.27-3,14.29,14.29,0,0,1-2.87-5.21c-.66-1.86-1-4,0-5.79A1.5,1.5,0,0,0,73.14,72Z"/>
<path class="cls-1" d="M75.08,73a11.1,11.1,0,0,0-.47,6,10.61,10.61,0,0,0,1,2.83c.21.41.46.8.69,1.2a4.7,4.7,0,0,1,.28.5s.07.17.08.21.08.35.06.18a1.55,1.55,0,0,0,1.5,1.5,1.5,1.5,0,0,0,1.5-1.5,7,7,0,0,0-1.14-2.92,7.52,7.52,0,0,1-1-2.28,8.1,8.1,0,0,1,.35-5,1.5,1.5,0,0,0-1-1.84,1.54,1.54,0,0,0-1.85,1Z"/>
<path class="cls-1" d="M75.54,90.68a8.28,8.28,0,0,0-1.62,6.73,18.77,18.77,0,0,0,3,6.73c.86,1.42,3.26.52,2.74-1.15l-.24-.76a1.5,1.5,0,0,0-2.89.79l.24.76,2.74-1.15a18,18,0,0,1-2.59-5.49,5.33,5.33,0,0,1,.75-4.34,1.55,1.55,0,0,0,0-2.12,1.51,1.51,0,0,0-2.12,0Z"/>
<path class="cls-1" d="M76.53,90.53a10.62,10.62,0,0,0-.84,8.32,37.2,37.2,0,0,0,3.5,8.25c.93,1.7,3.52.18,2.59-1.51a36.64,36.64,0,0,1-3-7c-.64-2.17-.84-4.54.39-6.54,1-1.65-1.57-3.15-2.59-1.51Z"/>
<path class="cls-1" d="M78.05,91.48c-2.57,5.35-.41,10.91,1.82,16,.68,1.56,3.26.45,2.74-1.15l-.3-.94c-.6-1.83-3.5-1-2.9.79l.31.94,2.74-1.15C80.73,102,78.62,97.19,80.64,93a1.54,1.54,0,0,0-.54-2,1.5,1.5,0,0,0-2,.54Z"/>
<path class="cls-1" d="M80.58,91.37c-1.88,2.29-2.09,5.35-1.79,8.2a20.84,20.84,0,0,0,.87,4.28c.25.76.54,1.49.86,2.22s.69,1.21,1,1.82v-.8l0,.16,1.45-1.1h-.09l1.29.74-.06-.08-.23,1.82,0-.06a1.54,1.54,0,0,0,0-2.12,1.52,1.52,0,0,0-2.12,0l0,.05a1.53,1.53,0,0,0-.23,1.82,1.64,1.64,0,0,0,1.45.82,1.53,1.53,0,0,0,1.45-1.1c.29-1.31-.85-2.57-1.33-3.75a18.69,18.69,0,0,1-1.1-4c-.35-2-.62-5.12.81-6.86a1.55,1.55,0,0,0,0-2.12,1.52,1.52,0,0,0-2.13,0Z"/>
<path class="cls-1" d="M79.56,96.83a29.68,29.68,0,0,0,2.3,9.45,1.5,1.5,0,0,0,2,.53,1.54,1.54,0,0,0,.54-2c.07.16-.13-.33-.15-.38s-.12-.3-.17-.45c-.13-.35-.25-.71-.37-1.06-.21-.66-.4-1.33-.56-2a23.25,23.25,0,0,1-.64-4,1.5,1.5,0,1,0-3,0Z"/>
<path class="cls-1" d="M67.34,102.63A56.42,56.42,0,0,0,52,109.7c-1.68,1.09-3.69,2.37-4.37,4.37a5.29,5.29,0,0,0,1.3,5.07c2.86,3.49,7.79,5.42,11.92,6.88,5.74,2,11.55,2.22,17.57,2.21,13.93,0,27.89.48,41.83.74,6.86.13,13.84.59,20.67-.31a43.18,43.18,0,0,0,7.68-1.26,11.81,11.81,0,0,0,5.7-4.25,9.57,9.57,0,0,0,2.08-7.63,12.08,12.08,0,0,0-2.94-5.47c-3.79-4.29-9.57-6.55-15.1-7.42-1.89-.3-2.7,2.6-.8,2.9,4.56.71,9.21,2.31,12.66,5.5,2.5,2.32,4.35,5.53,2.63,8.87a9.4,9.4,0,0,1-4.76,4.52,29.42,29.42,0,0,1-6.39,1.13c-6.21.84-12.46.59-18.71.48l-37.89-.72c-5.6-.1-11.39.34-16.93-.51a38.39,38.39,0,0,1-13.25-4.73c-1.55-.9-3.63-2.12-4.35-3.87-.64-1.55,1.09-2.64,2.19-3.39a52.36,52.36,0,0,1,15.43-7.28,1.51,1.51,0,0,0-.8-2.9Z"/>
<path class="cls-1" d="M67.05,126.55c-4,4.46-8,9.09-10.1,14.75a20.53,20.53,0,0,0-1.09,4.28c-.24,1.62-.2,3.27-.51,4.88-.61,3.06-3.38,5.09-5,7.6a24.37,24.37,0,0,0-3.48,8.43,26.51,26.51,0,0,0-.5,4.54c0,1.53-.08,2.86-1.18,4S43,176.93,42.08,178a21,21,0,0,0-5.26,11.76,41.61,41.61,0,0,1-.5,4.74A12.52,12.52,0,0,1,34,198.87,28.84,28.84,0,0,0,29.92,207a27.4,27.4,0,0,0-1.22,9c.1,3,.53,6.27,2.13,8.83,3.2,5.13,10.31,5.64,15.69,6.53,7,1.16,14,2,21.08,2.59a371.17,371.17,0,0,0,42.19.83c14-.45,28.09-1.26,41.87-3.92,3.44-.67,6.86-1.45,10.23-2.38,3-.83,6.06-1.56,7.47-4.69,1.94-4.33,1.55-10.05.09-14.49a19,19,0,0,0-3-5.53,13.62,13.62,0,0,1-2.62-7c-.16-2.32.18-4.58-.23-6.89a15.26,15.26,0,0,0-3.15-7,16.76,16.76,0,0,1-3.5-5.81,13.71,13.71,0,0,1-.09-6.37,18.65,18.65,0,0,0-.25-7.55,21.54,21.54,0,0,0-2.67-5.73,21.61,21.61,0,0,1-2.63-8c-.3-2.19-.23-4.4-.58-6.57a20.58,20.58,0,0,0-5.49-10.52,39.48,39.48,0,0,0-7.13-5.89c-1.61-1.07-3.12,1.52-1.52,2.59,4.11,2.74,8.11,6.18,10.14,10.78,1.64,3.71,1.13,7.79,1.9,11.68a24,24,0,0,0,2.78,7.56,17.72,17.72,0,0,1,2.45,5.55,17.08,17.08,0,0,1-.1,6.53,15,15,0,0,0,.25,6.56,16.54,16.54,0,0,0,3.4,6.24,13.7,13.7,0,0,1,3.15,6c.5,2.17.15,4.32.25,6.52A16.92,16.92,0,0,0,163,204c.95,1.67,2.3,3,3.08,4.8a19,19,0,0,1,1.26,4.51,18.09,18.09,0,0,1-.43,8.62,4,4,0,0,1-2.67,2.77c-1.61.57-3.31,1-5,1.4-13,3.36-26.44,4.64-39.83,5.31-13.55.67-27.14.89-40.69.27-6.78-.31-13.55-.83-20.29-1.62q-5.1-.6-10.16-1.41c-3-.5-6.13-.94-9.11-1.74-2.53-.69-5-1.84-6.16-4.31a18.34,18.34,0,0,1-1.29-8.65,24.56,24.56,0,0,1,2-8.48c1.19-2.75,3.17-4.93,4.56-7.54,1.49-2.83,1.18-5.87,1.71-8.91a18.53,18.53,0,0,1,3.25-7.62c1.57-2.15,4.21-3.58,5.4-6a9.41,9.41,0,0,0,.73-3.93,24.86,24.86,0,0,1,.49-4.56,21.87,21.87,0,0,1,3.57-8c1.71-2.38,4-4.22,4.77-7.19a27.21,27.21,0,0,0,.51-4.41,19.1,19.1,0,0,1,.92-4.42,28.5,28.5,0,0,1,4-7.48,82.65,82.65,0,0,1,5.55-6.71c1.28-1.44-.83-3.56-2.12-2.12Z"/>
<path class="cls-1" d="M151.51,147.42a4,4,0,0,1,3-1.23c1.49-.12,3-.1,4.49-.15,3.09-.08,6.18-.24,9.26-.21,5.43,0,11.5,1.45,13.24,7.31a21.39,21.39,0,0,1,.55,7.48c-.19,2.89-.55,5.78-1,8.65a97,97,0,0,1-4.5,17.33q-.86,2.39-1.86,4.7a18.24,18.24,0,0,1-1.91,4c-.41.53-1,.49-1.64.54l-2.71.22-5.68.46c-1.91.15-1.93,3.15,0,3l5.43-.44c1.65-.13,3.64,0,5.21-.59a4.78,4.78,0,0,0,2.57-2.82c.71-1.48,1.37-3,2-4.5a95.53,95.53,0,0,0,5.72-19.58c.61-3.38,1.07-6.81,1.34-10.24a26.1,26.1,0,0,0-.44-8.5c-1.61-6.34-7.25-9.37-13.4-9.94A102.65,102.65,0,0,0,159,143c-3.1.09-7.34-.41-9.58,2.26-1.23,1.47.88,3.6,2.12,2.12Z"/>
<path class="cls-1" d="M150.67,148.67l15.45,1.79c3.94.45,8.83.79,10,5.37a13.77,13.77,0,0,1-.36,6.65c-.57,2.37-1.18,4.72-1.6,7.13-.84,4.84-1.25,9.75-2.19,14.58a36.7,36.7,0,0,1-2.09,7.56c-.47,1.05-1.05,1.8-2.27,1.53s-2.34-.9-3.6-1.11c-1.89-.32-2.7,2.57-.79,2.9,2.38.4,4.67,2.14,7.08.76,2.06-1.18,2.75-3.85,3.38-6,1.62-5.45,2.12-11.14,2.94-16.74.43-2.88,1-5.72,1.7-8.55a22.3,22.3,0,0,0,1-7.65,9.57,9.57,0,0,0-2.85-6.27,12.24,12.24,0,0,0-6.28-2.69c-6.45-1.09-13.05-1.56-19.55-2.31-1.91-.22-1.9,2.78,0,3Z"/>
<path class="cls-1" d="M162.74,194.62a4.73,4.73,0,0,0,.22,2,1.52,1.52,0,0,0,2.21.89,2.16,2.16,0,0,0-.53-4,1.52,1.52,0,0,0-1.9,1.44,2.49,2.49,0,0,0,.85,2.05,1.54,1.54,0,0,0,2.12,0,2.12,2.12,0,0,0-.52-3.35,2,2,0,0,0-2.78,2.45c.46,1.61,2.89,2,3.47.25a1.72,1.72,0,0,0-2.5-2,1.51,1.51,0,0,0-.31,2.36,4,4,0,0,0,5.48-.13c1.21-1.14-.43-3.38-1.82-2.35a1.08,1.08,0,0,1-1.26.19l-.4,2.95a11.48,11.48,0,0,0,8.37-2.68c2.73-2.25,3.6-5.48,4.41-8.78l5.87-24.1a1.5,1.5,0,0,0-2.74-1.15,80.79,80.79,0,0,0-8.58,21.44c-.38,1.58,2,2.75,2.75,1.15q2.59-5.43,4.79-11l-2.89-.8a137.88,137.88,0,0,1-4.45,16.37l2.89.8a61.61,61.61,0,0,1,2.61-8.17l-2.9-.8a106.81,106.81,0,0,1-3.5,11.43l2.89.79,1.69-5.57-2.89-.8L172,192.21a6.27,6.27,0,0,1-.3,1.43c-.25.48.07.29-.65.33a3.76,3.76,0,0,0-2.15.6,1.5,1.5,0,0,0,1.51,2.6,6,6,0,0,0,3.51-5.27c.11-2-2.84-1.91-3,0a3.07,3.07,0,0,1-2.78,2.72,1.5,1.5,0,0,0,0,3,6.85,6.85,0,0,0,4.31-1.14l-1.82-.24v.13l1.5-1.5a11.53,11.53,0,0,1-3.26-.3,23.06,23.06,0,0,0-2.94-.87,3.69,3.69,0,0,0-3.86,2.52c-.72,1.8,2.18,2.58,2.89.8.36-.88,2.51.29,3.12.44a14.53,14.53,0,0,0,4,.41,1.53,1.53,0,0,0,1.5-1.5,3.46,3.46,0,0,0-.87-2.25,1.5,1.5,0,0,0-1.82-.23,4.18,4.18,0,0,1-2.79.73v3a6.14,6.14,0,0,0,5.78-5.72h-3a3.06,3.06,0,0,1-2,2.67l1.51,2.6c.62-.47,1.68-.17,2.42-.46a3,3,0,0,0,1.76-2.28c.67-2.66,1.16-5.39,1.74-8.08a1.5,1.5,0,0,0-2.89-.8l-1.69,5.58c-.57,1.87,2.23,2.58,2.89.79a108.3,108.3,0,0,0,3.51-11.42,1.51,1.51,0,0,0-2.9-.8,63.56,63.56,0,0,0-2.6,8.17,1.5,1.5,0,0,0,2.89.8,136.51,136.51,0,0,0,4.45-16.37,1.5,1.5,0,0,0-2.89-.8q-2.07,5.24-4.5,10.32L175.3,183a77.89,77.89,0,0,1,8.27-20.72l-2.74-1.16-5.29,21.69c-.71,2.94-1.08,6.56-3.19,8.89a8.61,8.61,0,0,1-7.28,2.78c-1.79-.18-1.87,2.39-.4,2.94a3.76,3.76,0,0,0,3.58-.49l-1.82-2.36a1,1,0,0,1-1.24.12l-.3,2.36L165,197H163.5l-.31-.3-.15-1.16,0,.15,1-1-.21.06,1.15.15.38,1-.9.69-.86-1.55h2.12l0,.07-1.9,1.45-.19-1.53,2.2.9a2.61,2.61,0,0,1-.11-1.24c.2-1.92-2.8-1.91-3,0Z"/>
<path class="cls-1" d="M178.72,154.88a50.33,50.33,0,0,1-2.27,13.45l2.94.4a65.89,65.89,0,0,1,1.93-11.83l-2.9-.8-2.63,15.43c-.32,1.87,2.46,2.71,2.9.8L181,162.2l-3-.4-1.63,13.46c-.2,1.7,2.54,2,2.95.4l2.86-11.1-2.89-.8-2.91,14.77a1.5,1.5,0,0,0,2.89.8l3-10.31-2.95-.4a52.07,52.07,0,0,1-4,16.93l2.89.8a94.38,94.38,0,0,0,5.18-21.93,1.5,1.5,0,0,0-2.25-1.29c-3.89,2.66-5.63,7-7.15,11.29-.66,1.85,2.18,2.54,2.89.8a76,76,0,0,0,4.69-16.85H178.7a26.7,26.7,0,0,1,.29,6.44c-.11,1.66,2.67,2.08,2.95.4a32.92,32.92,0,0,0-1.15-15.7,1.5,1.5,0,0,0-2.89.8l2.13,9.84c.42,1.93,3.16,1.06,2.89-.8l-1.27-9-2.75,1.16a14.31,14.31,0,0,1,1,9.4l2.95.4a19,19,0,0,0-8.32-15.77c-1.47-1-2.92,1.15-1.82,2.36,2.84,3.14,3.67,7.47,4.47,11.49a1.51,1.51,0,0,0,2.89,0,13.84,13.84,0,0,0-1.17-8.59c-.84-1.76-3.36-.22-2.59,1.51a17.62,17.62,0,0,1,1.37,4.94c.17,1.35,2,2.2,2.8.76,1.94-3.56.7-7.91-2.1-10.64-3.26-3.17-8.07-3.82-12.4-4.07-1.82-.11-1.85,2.36-.4,2.94a28.26,28.26,0,0,1,6.91,4l1.82-2.36-4.13-2.57L169.06,148a29,29,0,0,1,7.21,4.19,1.51,1.51,0,0,0,2.36-1.82l-2-3.72L175,148.9a10.53,10.53,0,0,1,6.64,6.07c.75,1.77,3.34.25,2.59-1.51a13.41,13.41,0,0,0-8.43-7.46,1.52,1.52,0,0,0-1.7,2.21l2,3.71,2.35-1.82a33.82,33.82,0,0,0-8.53-4.95c-1.63-.65-2.54,1.88-1.16,2.74l4.14,2.57c1.41.88,3.18-1.3,1.82-2.36a34.1,34.1,0,0,0-8.24-4.73l-.4,2.95c3.34.2,7.07.58,9.78,2.75,2.12,1.7,3.53,4.89,2.13,7.44l2.79.76a22.25,22.25,0,0,0-1.78-6.45l-2.59,1.51a10.39,10.39,0,0,1,.87,6.28h2.89c-.91-4.59-2-9.24-5.24-12.81l-1.82,2.35a15.82,15.82,0,0,1,6.84,13.18c0,1.66,2.57,2.07,3,.4A17.7,17.7,0,0,0,181.49,150c-.8-1.67-3-.37-2.74,1.16l1.28,9,2.89-.8-2.13-9.84-2.89.8a29.71,29.71,0,0,1,1.15,14.1l2.94.4a29.78,29.78,0,0,0-.4-7.24c-.25-1.42-2.67-1.45-2.89,0A75.85,75.85,0,0,1,174,174.42l2.89.8c1.23-3.47,2.6-7.33,5.77-9.5l-2.26-1.3a91.46,91.46,0,0,1-5.07,21.13c-.68,1.85,2.16,2.53,2.89.8a54.42,54.42,0,0,0,4.14-17.73c.11-1.72-2.49-2-2.94-.39l-3,10.3,2.89.8,2.91-14.77c.37-1.87-2.4-2.69-2.89-.8l-2.86,11.1,2.94.4,1.63-13.46c.21-1.68-2.57-2-2.94-.39l-2.34,10.12,2.9.8,2.63-15.43c.31-1.87-2.41-2.7-2.9-.8a71,71,0,0,0-2,12.63c-.12,1.74,2.46,2,3,.4a53.41,53.41,0,0,0,2.38-14.25c.06-1.93-2.94-1.93-3,0Z"/>
<path class="cls-1" d="M154,144.36l-.55.09a1.51,1.51,0,0,0,0,2.89l12.15,2.13.4-2.94a13.18,13.18,0,0,1-4.9-1.13l-.75,2.79c3.88-.38,7.47,1.84,11.3,2.13a1.51,1.51,0,0,0,.76-2.79,68.31,68.31,0,0,0-9.43-3.75l-.4,2.95,7.32.93-.4-2.94a31.2,31.2,0,0,1-9.74-.22l.35,2.74a5.32,5.32,0,0,1,3.56-1,27.52,27.52,0,0,1,3.56.76,15.51,15.51,0,0,1,6.41,2.8c1,.89,3,.09,2.5-1.46-.67-2.05-2.58-2.84-4.6-2.92a28.77,28.77,0,0,1-3.6-.25c-1.23-.21-2.44-.51-3.66-.81-4.17-1-8.81-1.81-12.65.65a1.5,1.5,0,0,0,1.15,2.74c2.94-.72,6,.28,8.91.91q4.62,1,9.24,2.1c1.88.44,2.68-2.46.8-2.89q-5-1.18-10.11-2.29c-3.17-.7-6.4-1.51-9.63-.72l1.15,2.74c3-1.92,6.68-1.22,9.94-.44a46.17,46.17,0,0,0,5.69,1.13c.93.11,1.84.08,2.77.13.55,0,1.5.07,1.71.72l2.51-1.46a19.21,19.21,0,0,0-8.09-3.66,21.34,21.34,0,0,0-4.6-.81,8.13,8.13,0,0,0-4.47,1.41c-1,.63-1,2.5.36,2.74a36,36,0,0,0,11.34.22,1.48,1.48,0,0,0,1.07-1.65,1.52,1.52,0,0,0-1.47-1.3l-7.32-.93c-1.73-.22-1.94,2.46-.4,3a61.58,61.58,0,0,1,8.71,3.44l.76-2.8c-3.87-.29-7.33-2.52-11.3-2.13-1.3.13-2.28,2.13-.76,2.8a17.13,17.13,0,0,0,6.41,1.54c1.65,0,2.09-2.65.4-2.95l-12.16-2.13v2.89l.56-.09c1.9-.31,1.1-3.21-.8-2.89Z"/>
<path class="cls-1" d="M62.17,150.83A96.27,96.27,0,0,0,126,156.31a84.27,84.27,0,0,0,8.61-2.72c2.55-1,5.07-2.22,6.46-4.7.94-1.68-1.65-3.2-2.59-1.51-1.13,2-3.37,2.85-5.43,3.6-2.37.86-4.78,1.61-7.22,2.27A90.42,90.42,0,0,1,110.65,156a93.77,93.77,0,0,1-30.56-2.13,90.43,90.43,0,0,1-16.4-5.61c-1.75-.79-3.27,1.79-1.52,2.59Z"/>
<path class="cls-1" d="M54.83,177.06c4.91,3.41,10.9,4.28,16.69,4.95q10,1.17,20.12,1.85a340.23,340.23,0,0,0,40,.77c6.25-.31,12.72-1.33,17.92-5,1.56-1.11.06-3.71-1.51-2.59-4.45,3.18-9.83,4.22-15.19,4.57-6.17.41-12.4.31-18.59.22Q94.59,181.51,75,179.4c-6.35-.69-13.19-1.17-18.61-4.93-1.59-1.1-3.09,1.5-1.51,2.59Z"/>
<path class="cls-1" d="M50.19,199.35c27.43,3.61,55.37,6.41,82.91,2.31A146.19,146.19,0,0,0,156,196.37c1.83-.58,1-3.48-.8-2.89-26.42,8.44-54.52,8.22-81.85,5.58-7.74-.75-15.46-1.69-23.18-2.71-.81-.11-1.49.77-1.5,1.5a1.53,1.53,0,0,0,1.5,1.5Z"/>
</g></g></svg>
