<svg xmlns="http://www.w3.org/2000/svg" viewBox="0 0 213.31 391.43"><defs><style>.cls-1{fill:#fff;}</style></defs><g id="Layer_2" data-name="Layer 2"><g id="Layer_1-2" data-name="Layer 1">
<path class="cls-1" d="M40.7,16.46A240.2,240.2,0,0,0,19.61,34.1C14,39.52,8.74,45.48,5.14,52.45a47,47,0,0,0-3,35.13A32.76,32.76,0,0,0,13.88,104c5,3.68,10.89,6,16.8,7.7,13.06,3.79,26.74,4.91,39.77,8.81a59.25,59.25,0,0,1,16.3,7.44,40.33,40.33,0,0,1,14.88,18.34,44.52,44.52,0,0,1,1.56,4.65,1.52,1.52,0,0,0,2.74.36c2-3.54,4.22-7,6-10.69,1.39-2.86,2.55-5.87,3.65-8.86a105.79,105.79,0,0,0,4.93-18.54c.84-4.88,1.41-9.82,2.57-14.65a67.25,67.25,0,0,1,7-17.42c2.43-4.27,5.26-8.64,9-11.9a11.45,11.45,0,0,1,1.6-1.16,1.49,1.49,0,0,1,.51-.23l.32-.07c-.48.15.18,0-.11,0a.39.39,0,0,1-.24-.11s0-.13,0,0,.16.4.06.07a6.9,6.9,0,0,1,.34,1.86c.28,4.91-.94,10-2.09,14.73a123.73,123.73,0,0,1-6.13,18.78,111.86,111.86,0,0,1-22.57,33.94c-1.34,1.39.78,3.51,2.12,2.12a115.48,115.48,0,0,0,21.26-30.55,122.8,122.8,0,0,0,7.43-20.45,73.8,73.8,0,0,0,3-16.93c.06-2.51-.29-7.29-4-6.36a9.81,9.81,0,0,0-4,2.57,38.21,38.21,0,0,0-4.65,5.35,70.81,70.81,0,0,0-9.2,16.92,79.87,79.87,0,0,0-4.12,16.69A140.9,140.9,0,0,1,115,123.7a112.56,112.56,0,0,1-3.81,11,81.69,81.69,0,0,1-4.71,9.46l-3.18,5.66,2.74.36a43.75,43.75,0,0,0-12.15-20.29,50.34,50.34,0,0,0-15-9.5c-12.39-5.22-26-6.62-39-9.44-11.72-2.54-24.78-6.34-31.64-17C2.05,84.08,1.66,70.67,5.22,59.91c2.44-7.36,7-13.75,12.27-19.37a162.61,162.61,0,0,1,19-17.06c1.9-1.49,3.82-3,5.74-4.43,1.51-1.16,0-3.76-1.52-2.59Z"/>
<path class="cls-1" d="M44.36,17.38c12.92,4,26,8,37.9,14.54A79.69,79.69,0,0,1,98.6,43.5c2.6,2.43,5,5.08,7.81,7.26a49.7,49.7,0,0,0,9.72,5.54c8.23,3.8,16.5,7.5,24.75,11.25,1.74.8,3.27-1.79,1.51-2.59L119.74,54.67a72.33,72.33,0,0,1-9.67-5c-3.15-2.06-5.71-4.81-8.4-7.42-9.73-9.41-21.88-15.63-34.42-20.42C60,19.09,52.58,16.78,45.16,14.49c-1.85-.57-2.64,2.32-.8,2.89Z"/>
<path class="cls-1" d="M60.12,19.25l9-8.48,4.68-4.42,2.16-2c.57-.54,1.32-1.48,2.19-1.29A7.34,7.34,0,0,1,80.4,4.53L83,6.46l5,3.72,10.17,7.58a174.57,174.57,0,0,1,18.08,14.91c5.07,4.95,9.91,10.15,15.53,14.49a53.71,53.71,0,0,0,4.81,3.36c1.49.92,3.44,1.71,4.17,3.43s.24,3.64-.12,5.32a32.94,32.94,0,0,0-.91,5.75c-.05,1.93,2.95,1.93,3,0,.1-3.54,1.79-6.94,1.26-10.5-.59-3.9-4-5.34-6.95-7.27-6.38-4.15-11.64-9.73-17-15.06a170.79,170.79,0,0,0-18.75-15.83l-10.77-8-5.39-4A42.43,42.43,0,0,0,79.86.49c-2-1-3.81-.3-5.38,1.09-1.83,1.62-3.56,3.35-5.33,5L58,17.13c-1.41,1.33.72,3.45,2.12,2.12Z"/>
<path class="cls-1" d="M140.51,63.73q.23-6,.54-11.95c.09-1.67-2.62-2.07-3-.4l-1.71,8.87,2.89.8a29.22,29.22,0,0,1,1.77-5.92l-2.75-.36a7.78,7.78,0,0,1-.51,4.69l2.74,1.15.85-5.84a1.56,1.56,0,0,0-1-1.85,1.51,1.51,0,0,0-1.84,1l-1.44,8.28a1.55,1.55,0,0,0,1,1.84A1.53,1.53,0,0,0,140,63a51,51,0,0,1,2.13-7.86l-3-.4a21.05,21.05,0,0,1-.52,5.81l2.95.39a16.34,16.34,0,0,1,1-5.39l-2.95-.4a16.36,16.36,0,0,1-1.05,5.49l3,.4-.59-7.15a1.52,1.52,0,0,0-1.3-1.47A1.5,1.5,0,0,0,138,53.53l-1.72,7.08,3,.4a45,45,0,0,1,1.32-7.55,1.5,1.5,0,0,0-2.89-.8c-.76,2.78-1.38,5.6-1.86,8.44l2.95.39A14.33,14.33,0,0,1,139.89,56l-2.79-.76-.82,6.66a1.47,1.47,0,0,0,1.3,1.48,1.51,1.51,0,0,0,1.64-1.08L141.31,56l-2.94-.4-.43,6.32a1.5,1.5,0,0,0,2.94.4,46.53,46.53,0,0,0,1-8.31h-3v7.85a1.5,1.5,0,0,0,3,0,20.08,20.08,0,0,0-.92-8.32,1.51,1.51,0,0,0-2.95.4l0,5.5L141,59a25,25,0,0,1-.84-5.77,1.5,1.5,0,0,0-3,0v4.87a1.5,1.5,0,0,0,3,0V53.27h-3a28.55,28.55,0,0,0,.95,6.57,1.51,1.51,0,0,0,2.95-.4l0-5.5-2.94.39a18,18,0,0,1,.81,7.53h3V54a1.5,1.5,0,0,0-3,0,43.09,43.09,0,0,1-.86,7.51l2.95.4.43-6.32a1.5,1.5,0,0,0-1.3-1.48,1.52,1.52,0,0,0-1.65,1.08l-2.09,6.27,2.95.4.82-6.66c.18-1.45-2.21-2.09-2.8-.76a18.19,18.19,0,0,0-1.57,7,1.5,1.5,0,0,0,2.94.4q.72-4.26,1.86-8.43l-2.89-.8A50.27,50.27,0,0,0,136.21,61c-.15,1.69,2.55,2,2.94.4l1.72-7.08-2.94-.4.59,7.15a1.51,1.51,0,0,0,2.95.4,19,19,0,0,0,1.15-6.29,1.49,1.49,0,0,0-1.3-1.47,1.52,1.52,0,0,0-1.65,1.07A19.27,19.27,0,0,0,138.56,61a1.5,1.5,0,0,0,2.94.4,24,24,0,0,0,.63-6.6,1.5,1.5,0,0,0-2.94-.4,52,52,0,0,0-2.14,7.87L140,63l1.43-8.27-2.89-.8-.86,5.85a1.53,1.53,0,0,0,.87,1.77,1.5,1.5,0,0,0,1.88-.62,11.31,11.31,0,0,0,.82-7c-.24-1.18-2.24-1.54-2.75-.35a32.66,32.66,0,0,0-2.06,6.63,1.54,1.54,0,0,0,1.05,1.85,1.51,1.51,0,0,0,1.84-1.05L141,52.18l-2.95-.4q-.31,6-.54,11.95a1.5,1.5,0,0,0,3,0Z"/>
<path class="cls-1" d="M75.4,5.5C82.06,12.72,90.68,17.59,99,22.66a167.52,167.52,0,0,1,24.82,18.81c2.21,2,4.38,4,6.55,6.05l3.31,3.14c.5.47,1,.94,1.49,1.42a3.52,3.52,0,0,1,.52.57l.16.27c.07.34.17.28.33-.17-1.63,1-.13,3.63,1.51,2.59,2.07-1.31,1.17-3.77-.23-5.23-2-2.08-4.2-4-6.31-6-4.11-3.85-8.28-7.64-12.62-11.23a143.36,143.36,0,0,0-13.74-10.17c-4.41-2.85-9-5.46-13.42-8.3A68.71,68.71,0,0,1,77.52,3.38C76.21,2,74.09,4.08,75.4,5.5Z"/>
<path class="cls-1" d="M77.67,5l10.13,9.5c1.41,1.32,3.49-.75,2.12-2.12a82.9,82.9,0,0,1-7.34-8.45L80.22,5.71l8.59,10c1.09,1.28,3.36-.44,2.35-1.82L86.68,7.79,84.63,9.84A34.86,34.86,0,0,1,97,20.07l2.36-1.82L92.06,11l-1.82,2.35a22.18,22.18,0,0,1,8.09,6.21l1.46-2.51a32.77,32.77,0,0,1-6.88-4L91.39,15.7a60.33,60.33,0,0,1,13.49,12.22L107,25.8a75.29,75.29,0,0,1-9.68-10.74l-2,2a87.16,87.16,0,0,1,15.5,14L112.89,29A129.88,129.88,0,0,1,102,17.32l-2.12,2.12a91.5,91.5,0,0,1,12.39,11.71l1.82-2.36A207.32,207.32,0,0,1,78,1.46L75.92,3.58c7.47,7,14.86,14.16,22.44,21.07s15.85,12.41,24,18.29l14.46,10.42c1.57,1.13,3.06-1.47,1.51-2.59L113.27,32.7a144,144,0,0,1-11.54-9.05c-3.74-3.34-7.35-6.82-11-10.25L78,1.46c-1.4-1.32-3.52.79-2.12,2.12a211.23,211.23,0,0,0,36.64,27.8c1.51.91,2.91-1.11,1.81-2.35A91.5,91.5,0,0,0,102,17.32a1.5,1.5,0,0,0-2.12,2.12,128.45,128.45,0,0,0,10.91,11.7A1.5,1.5,0,0,0,112.89,29a90.53,90.53,0,0,0-16.1-14.5c-1.2-.84-2.94.86-2.06,2.05a79.85,79.85,0,0,0,10.15,11.35A1.5,1.5,0,0,0,107,25.8,62.81,62.81,0,0,0,92.91,13.11c-1.64-1.09-3,1.46-1.52,2.59A35.32,35.32,0,0,0,99,20c1.55.65,2.29-1.5,1.46-2.5a24,24,0,0,0-8.7-6.68c-1.47-.66-3.11,1.08-1.82,2.36l7.29,7.21c1.16,1.15,3.41-.42,2.35-1.82A38.11,38.11,0,0,0,86.14,7.25c-1.21-.6-3,.74-2,2.05l4.48,6.12,2.36-1.82-8.59-10C81.25,2.31,79,4,80,5.4a88.67,88.67,0,0,0,7.82,9.06l2.12-2.12L79.79,2.84c-1.41-1.32-3.53.8-2.12,2.12Z"/>
<path class="cls-1" d="M106.43,28.82c1.85.92,2.94,2.75,4.15,4.35,1.35,1.78,2.9,3.47,5.18,3.95,1.35.29,2.67-1.46,1.46-2.51l-8.13-7c-1.45-1.26-3.58.84-2.12,2.12a135.44,135.44,0,0,0,17.38,13c1.65,1,3.15-1.57,1.52-2.59a130.13,130.13,0,0,1-16.78-12.48L107,29.69l8.12,7,1.46-2.5c-1.86-.4-3-2-4-3.46-1.27-1.74-2.59-3.56-4.57-4.54-1.72-.86-3.25,1.73-1.51,2.59Z"/>
<path class="cls-1" d="M136.74,57.74l-.61,1.88,2.89.79a11.9,11.9,0,0,0-4.68-12.88l-1.52,2.59c2.19,1.31,5.65,3.3,5.13,6.37l2.89.8c.48-3.07.63-7.11-2.77-8.61-1.26-.55-2.92.66-2,2.06a15.18,15.18,0,0,1,1.44,13.07h2.9l-1.81-8.18c-.51-2.3-1-4.67-2.68-6.42s-3.85-2.66-5.74-3.94a63.39,63.39,0,0,1-6.26-4.81c-1.44-1.26-3.58.85-2.12,2.12A71.21,71.21,0,0,0,127.42,47c1.88,1.33,4,2.36,5.82,3.82s2,3.71,2.46,5.79l1.76,8c.35,1.54,2.45,1.3,2.9,0a18.14,18.14,0,0,0-1.75-15.39l-2.05,2.05c2,.9,1.67,3.41,1.39,5.22s2.56,2.71,2.89.8c.8-4.69-2.91-7.61-6.5-9.76-1.69-1-3.08,1.5-1.52,2.59a8.83,8.83,0,0,1,3.31,9.5,1.5,1.5,0,0,0,2.89.79l.61-1.87c.6-1.84-2.3-2.63-2.89-.8Z"/>
<path class="cls-1" d="M66.46,22.18c3.24-5.85,9.8-9.71,11.12-16.62.26-1.35-1.43-2.67-2.5-1.46l-9.75,11,2.35,1.82a85.76,85.76,0,0,1,6-7.89L71.37,7.21a65.57,65.57,0,0,1-7.47,8.41l2.35,1.82a57.53,57.53,0,0,1,6-7.32A1.5,1.5,0,0,0,70.11,8l-8.45,8.11,2.56,1.06a2.47,2.47,0,0,1,.8-1.49c1-1,0-3.08-1.46-2.51a28.34,28.34,0,0,0-3.4,1.58c-1,.55-2.15,1.18-2.23,2.45-.18,2.57,3.65,3.67,5.63,3.77,1.8.09,1.88-2.38.4-2.95l-3.05-1.15c-1.57-.6-2.7,2-1.15,2.74A7.51,7.51,0,0,0,68.6,17.8c1.19-1.44,1.64-3.19,2.35-4.87A15,15,0,0,1,74,8.34L71.67,6.52,66,15.16l2.59,1.51a80.24,80.24,0,0,1,6.27-9.56L72.22,5.6a36.85,36.85,0,0,1-5,7.72c-1,1.13-2.47,1.26-3.86,1.61l-5,1.3a1.51,1.51,0,0,0,0,2.89l5.24,1.39c1.9.51,2.58-2.23.8-2.89a9.84,9.84,0,0,0-4.93-.44c-1.41.21-1.27,2.09-.35,2.75a20,20,0,0,0,4.09,2.23c1.58.66,2.64-1.95,1.16-2.74a23.1,23.1,0,0,0-4.88-1.94,1.5,1.5,0,0,0-.8,2.89l3.27,1.14.8-2.9-5.33-1.32L57,20.24a23.49,23.49,0,0,1,3.31.61l.49.16c.33.11-.25-.14,0,0a3.32,3.32,0,0,0,1.42.5c1.53.08,2.53-1.4,3.44-2.42,3.5-3.93,7-7.89,10.49-11.81C77.43,5.83,75.31,3.7,74,5.14,70.62,9,67.24,12.78,63.85,16.59L62.65,18a1.52,1.52,0,0,0-.32.35s-.14.11-.14.14.45.34.24,0-1.23-.5-1.63-.61A34.43,34.43,0,0,0,57,17.24c-1.69-.22-2,2.55-.4,3,1.78.43,3.55.87,5.33,1.32a1.51,1.51,0,0,0,.8-2.9l-3.27-1.13-.8,2.89A19.36,19.36,0,0,1,62.83,22L64,19.27a17.38,17.38,0,0,1-3.38-1.93l-.36,2.74a6.75,6.75,0,0,1,3.33.43l.8-2.89-5.24-1.39v2.89l5.41-1.39c1.69-.43,3.39-.75,4.63-2.08a35.81,35.81,0,0,0,5.63-8.54A1.5,1.5,0,0,0,72.22,5.6,80.24,80.24,0,0,0,66,15.16a1.5,1.5,0,0,0,2.59,1.51L74.26,8c.95-1.43-1.18-3-2.36-1.82A18.23,18.23,0,0,0,69,10.06c-.78,1.4-1.21,2.91-1.85,4.36A4.53,4.53,0,0,1,61.27,17l-1.15,2.74,3,1.16.4-3A4.77,4.77,0,0,1,62,17.64c-.22-.09-1.11-.44-1.16-.64v.8c-.14.1-.15.12-.05.05l.58-.35c.29-.16.59-.33.89-.48a19.74,19.74,0,0,1,2.09-1L62.9,13.55a5.78,5.78,0,0,0-1.68,3.62c-.15,1.36,1.7,1.89,2.56,1.06l8.45-8.11L70.11,8a61.37,61.37,0,0,0-6.45,7.93c-1,1.44,1.16,3,2.36,1.81a70.22,70.22,0,0,0,7.94-9c1-1.36-1.25-3.1-2.36-1.82a95.6,95.6,0,0,0-6.51,8.5c-1,1.41,1.23,3.1,2.36,1.82l9.75-11L74.69,4.76c-.61,3.16-2.55,5.68-4.63,8.05s-4.56,4.92-6.19,7.86c-.94,1.69,1.65,3.21,2.59,1.51Z"/>
<path class="cls-1" d="M42.62,18.61a4,4,0,0,1,.49-.43l-.3.23A6.1,6.1,0,0,1,44,17.7l-.36.16A5.33,5.33,0,0,1,45,17.48a1.56,1.56,0,0,0,.9-.69,1.52,1.52,0,0,0,.15-1.16,1.55,1.55,0,0,0-.69-.9L45,14.58a1.55,1.55,0,0,0-.8,0,7,7,0,0,0-2,.67,7,7,0,0,0-1.71,1.23,1.51,1.51,0,0,0,0,2.13,1.49,1.49,0,0,0,1.06.43,1.55,1.55,0,0,0,1.06-.43Z"/>
<path class="cls-1" d="M82.06,181.9a121.49,121.49,0,0,0,58.73,17.43,142.44,142.44,0,0,0,51.33-8.22,166.86,166.86,0,0,0,17.65-7.32c1.74-.84.22-3.43-1.51-2.59a156.59,156.59,0,0,1-36.34,12.39c-19,3.93-38.91,3.86-57.75-1.18a118.86,118.86,0,0,1-30.6-13.1,1.5,1.5,0,0,0-1.51,2.59Z"/>
<path class="cls-1" d="M83.23,180.17a236.73,236.73,0,0,1,102.24-2.09q11.72,2.35,23.15,5.86c1.85.56,2.64-2.33.8-2.9a242,242,0,0,0-46.07-9.31,240.93,240.93,0,0,0-80.92,5.55c-1.87.45-1.08,3.35.8,2.89Z"/>
<path class="cls-1" d="M80.64,180.7q-1.1,14-2.2,27.91-.57,7-1.12,14.08c-.32,4.07-1.23,8.63.05,12.61,2,6.24,8.47,9.26,14.33,10.9,3.9,1.09,7.93,1.75,11.91,2.45,4.44.79,8.89,1.46,13.36,2a297.23,297.23,0,0,0,54.74,2.09c12.7-.69,29.5-1.71,36.72-14.07a29.23,29.23,0,0,0,3.37-11.21c.54-4.26.8-8.58,1.08-12.86.59-8.76.75-17.6-.75-26.27a62.91,62.91,0,0,0-1.45-6.36,1.5,1.5,0,0,0-2.89.8c2.3,8.15,2.72,16.61,2.44,25-.14,4.23-.45,8.45-.78,12.66a64.35,64.35,0,0,1-1.55,11.65c-3.7,13.79-19.07,16.47-31.34,17.34a298.29,298.29,0,0,1-52.36-.93q-13-1.38-25.76-3.91c-5.73-1.14-12.83-2.45-16.66-7.34-2.28-2.9-2.1-6.44-1.83-9.93Q80.47,220.71,81,214l2.1-26.67.53-6.67c.15-1.93-2.85-1.92-3,0Z"/>
<path class="cls-1" d="M77.09,235.08q5.66,28.35,11.29,56.71l11.34,56.94q3.19,16,6.38,32c.38,1.89,3.27,1.09,2.89-.79q-5.64-28.36-11.29-56.71L86.36,266.3q-3.18-16-6.37-32c-.38-1.89-3.27-1.09-2.9.8Z"/>
<path class="cls-1" d="M207.57,233q-4.4,28.16-8.81,56.3t-8.8,56.3l-5,31.6c-.29,1.89,2.6,2.7,2.9.8q4.4-28.16,8.8-56.3t8.81-56.3q2.47-15.8,4.94-31.6c.3-1.89-2.59-2.71-2.89-.8Z"/>
<path class="cls-1" d="M106.18,381.23a41.16,41.16,0,0,0,11.7,6.53,63.65,63.65,0,0,0,14.61,2.8c6.72.65,13.59,1.22,20.33.63a69,69,0,0,0,13.94-2.71,76.3,76.3,0,0,0,20.18-9.63c1.6-1.06.1-3.66-1.51-2.59a71.13,71.13,0,0,1-30.33,11.68c-6.27.79-12.56.4-18.84-.07a76.49,76.49,0,0,1-16-2.49,36.5,36.5,0,0,1-12-6.27c-1.5-1.18-3.64.93-2.12,2.12Z"/>
<path class="cls-1" d="M99.22,246.43q1.27,26.07,2.54,52.14l2.55,52.15q.72,14.73,1.43,29.45c.1,1.92,3.1,1.93,3,0q-1.26-26.09-2.54-52.15t-2.54-52.15l-1.44-29.44c-.09-1.93-3.09-1.94-3,0Z"/>
<path class="cls-1" d="M128.58,251.64,127.82,305l-.77,53.56-.43,30.14c0,1.93,3,1.93,3,0l.76-53.31.77-53.55.43-30.15c0-1.93-3-1.93-3,0Z"/>
<path class="cls-1" d="M157.94,251.64l-2.55,53.93q-1.27,27-2.54,53.92L151.41,390c-.09,1.93,2.91,1.93,3,0L157,336q1.26-27,2.54-53.93l1.44-30.46c.09-1.93-2.91-1.92-3,0Z"/>
<path class="cls-1" d="M184.68,251l-2,98.43-.57,27.48c0,1.94,3,1.93,3,0l2-98.43.57-27.48c0-1.93-3-1.93-3,0Z"/>
<path class="cls-1" d="M112.29,177.94a8,8,0,0,0-5-.54,4.14,4.14,0,0,0-2.94,3.07c-.59,3.13,2.77,4.52,4.6,6.32a13.82,13.82,0,0,0,3.4,2.84,15.55,15.55,0,0,0,5.15,1,37.08,37.08,0,0,1,10.78,3.07c1.74.8,3.27-1.79,1.51-2.59a41.9,41.9,0,0,0-8.08-2.77,42.51,42.51,0,0,0-4.21-.71c-1.36-.16-2.89-.11-4.1-.84a16.6,16.6,0,0,1-2.59-2.37c-.8-.76-1.74-1.33-2.57-2-.61-.5-1.43-1.26-.52-1.9,1.06-.75,2.66,0,3.72.36,1.82.64,2.61-2.26.8-2.9Z"/>
<path class="cls-1" d="M134,174c-3.18-.79-6.67-1-9.65.61a8.17,8.17,0,0,0-4.42,6.89,4.4,4.4,0,0,0,.42,2.09,2.54,2.54,0,0,0,2.19,1.16,7.66,7.66,0,0,1,2.76.82,42.82,42.82,0,0,1,5.55,4c2.11,1.59,4.5,2.91,7.23,2.84,1.92-.06,1.93-3.06,0-3-2.85.07-5.18-2-7.31-3.69a26.61,26.61,0,0,0-3.87-2.71,12,12,0,0,0-2.18-.92,7.7,7.7,0,0,0-1.06-.23c-.31-.05-.89,0-1.14-.18l.54.54c-.45-.64,0-2,.39-2.67a5.67,5.67,0,0,1,2.1-2.19c2.29-1.36,5.17-1.1,7.65-.48,1.88.46,2.67-2.43.8-2.9Z"/>
<path class="cls-1" d="M161.17,179.87l7.29,5.19.79.57.48.34c.13.14.16.14.07,0,0-.31-.25.25-.27.3-.14.22-.29.44-.45.65a6.06,6.06,0,0,1-2.56,1.85c-2.36.87-5,.22-7.44.4a12.2,12.2,0,0,0-3.58.83c-.74.29-2,.92-2.71.24-1.38-1.35-3.5.77-2.12,2.13a4.44,4.44,0,0,0,4.12,1c1.47-.31,2.75-1.1,4.29-1.22,3.31-.27,6.59.54,9.67-1.14,2.14-1.18,5.69-4.78,3.12-7.16a43.63,43.63,0,0,0-4.43-3.19l-4.76-3.39c-1.57-1.12-3.07,1.48-1.51,2.59Z"/>
<path class="cls-1" d="M148.18,180.88c.25.15.49.3.73.47l.27.19-.05,0,.17.14a10.75,10.75,0,0,1,1.15,1.09,6.1,6.1,0,0,1,.52.62c-.23-.31,0,0,0,.05l.25.36a10.93,10.93,0,0,1,.79,1.42l.23-1.81-.21.18-.14.11.12-.1c-.06.13-.35.25-.47.33a9.07,9.07,0,0,1-1,.59c-.08,0-.18.09-.26.11.18,0,.15-.06,0,0l-.54.19a9.44,9.44,0,0,1-1.17.27,1.5,1.5,0,0,0-1.05,1.84,1.54,1.54,0,0,0,1.84,1.05,10.37,10.37,0,0,0,5.08-2.45,1.54,1.54,0,0,0,.23-1.82,12.35,12.35,0,0,0-4.94-5.38,1.5,1.5,0,1,0-1.51,2.59Z"/>
<path class="cls-1" d="M141.08,185.26l1-.09a1.63,1.63,0,0,0,.91-.33,1.44,1.44,0,0,0,.54-.78,4,4,0,0,0,.07-2.45,2.56,2.56,0,0,0-2.25-1.67,2.16,2.16,0,0,0-1.21.32,2.13,2.13,0,0,0-1,1.68,2.41,2.41,0,0,0,1.23,2.21,3.92,3.92,0,0,0,2.59.29,3.36,3.36,0,0,0,1.84-.87,2.48,2.48,0,0,0,.66-2.51,3.55,3.55,0,0,0-1.63-2,3.82,3.82,0,0,0-4.42.28,3,3,0,0,0-.51,3.68A2.55,2.55,0,0,0,141,184.3a2.52,2.52,0,0,0,1.92-.84,2.84,2.84,0,0,0,.77-2.05,2.48,2.48,0,0,0-1.29-2,2.75,2.75,0,0,0-3.29,4.35,3.13,3.13,0,0,0,1.22.77,2.93,2.93,0,0,0,1.47.08,1.5,1.5,0,0,0,.36-2.74l-.36-.15a1.55,1.55,0,0,0-.8,0H141l.39-.06h-.28l.4.06a1.66,1.66,0,0,1-.38-.11l.36.15a2.14,2.14,0,0,1-.3-.17l.3.23a1.62,1.62,0,0,1-.32-.32l.23.3a1.69,1.69,0,0,1-.17-.29l.15.35a1.2,1.2,0,0,1-.1-.37l.05.4a1.31,1.31,0,0,1,0-.28l-.05.4a1,1,0,0,1,.08-.3l-.15.35a1.76,1.76,0,0,1,.14-.23l-.23.3.19-.19-.3.24a1.29,1.29,0,0,1,.32-.19l-.36.15a2.12,2.12,0,0,1,.36-.1l-.4.06a1.88,1.88,0,0,1,.41,0l-.4-.05a1.58,1.58,0,0,1,.31.09l-.36-.16.23.14-.3-.23a.81.81,0,0,1,.16.16l-.23-.31a1.43,1.43,0,0,1,.12.21l-.15-.36a.9.9,0,0,1,.07.27l-.05-.4a.94.94,0,0,1,0,.29l.06-.4a2,2,0,0,1-.09.33l.15-.36a2.75,2.75,0,0,1-.17.29l.23-.3a1.72,1.72,0,0,1-.27.27l.3-.23a1.38,1.38,0,0,1-.24.14l.36-.16a1,1,0,0,1-.23.06l.4-.05a.89.89,0,0,1-.23,0l.4.05a.86.86,0,0,1-.23-.06l.36.15a.76.76,0,0,1-.23-.13l.3.24-.18-.19.24.31a2.4,2.4,0,0,1-.16-.27l.15.36a1.86,1.86,0,0,1-.1-.39l.05.4a2.94,2.94,0,0,1,0-.42l-.05.4a1.46,1.46,0,0,1,.11-.41l-.15.36a1.65,1.65,0,0,1,.18-.32l-.23.3a1.34,1.34,0,0,1,.21-.2l-.31.23a1.76,1.76,0,0,1,.42-.24l-.36.15a1.83,1.83,0,0,1,.46-.12l-.4,0a3.21,3.21,0,0,1,.62,0l-.4,0a2.94,2.94,0,0,1,.72.19l-.36-.15a2.8,2.8,0,0,1,.61.34l-.3-.23a2.44,2.44,0,0,1,.43.42l-.24-.3a1.38,1.38,0,0,1,.2.33l-.15-.36a1.71,1.71,0,0,1,.09.3l-.06-.39a.81.81,0,0,1,0,.31l.06-.4a1.42,1.42,0,0,1-.07.22l.15-.35a1,1,0,0,1-.14.22l.24-.3a1.07,1.07,0,0,1-.19.18l.3-.23a1.57,1.57,0,0,1-.38.22l.36-.15a3.49,3.49,0,0,1-.77.2l.4-.06a3.62,3.62,0,0,1-.87,0l.4,0a1.8,1.8,0,0,1-.4-.1l.36.15a1.82,1.82,0,0,1-.27-.15l.31.23a1.21,1.21,0,0,1-.16-.16l.24.3a1.22,1.22,0,0,1-.12-.19l.16.36a.79.79,0,0,1-.08-.26l0,.4a1.48,1.48,0,0,1,0-.21l-.06.4a.66.66,0,0,1,0-.15l-.15.36a1,1,0,0,1,.08-.14l-.24.3.11-.1-.3.24.12-.07-.36.15.14,0-.4.06h.24l-.4,0a.67.67,0,0,1,.24.07l-.35-.15a1.27,1.27,0,0,1,.22.13l-.31-.24.19.19-.24-.31a1.74,1.74,0,0,1,.11.18l-.15-.36c0,.12.07.23.1.35l-.06-.4a2.25,2.25,0,0,1,0,.58l.05-.4c0,.25-.1.49-.16.73l1.44-1.1-1,.09a1.58,1.58,0,0,0-1.06.44,1.5,1.5,0,0,0-.44,1.06,1.56,1.56,0,0,0,.44,1.06,1.52,1.52,0,0,0,1.06.44Z"/>
<path class="cls-1" d="M88.71,229.91a62.31,62.31,0,0,1,31-5.18c1.92.17,1.91-2.83,0-3a65.37,65.37,0,0,0-32.46,5.58c-1.76.8-.24,3.38,1.51,2.6Z"/>
<path class="cls-1" d="M145.31,225.53c3.26-1.47,7-.18,10.26.66,3.65,1,7.28,1.61,11,.48a56.55,56.55,0,0,1,5.7-1.85c2.14-.41,4.19.22,6.22.85a114,114,0,0,0,13.14,3.25c4.58.83,9.82,2.1,14.24.09,1.76-.79.24-3.38-1.51-2.59a11.55,11.55,0,0,1-6.06.5c-2.28-.26-4.56-.64-6.81-1.07-4.44-.85-8.75-2.06-13.07-3.34a14.43,14.43,0,0,0-6.11-.72,31.66,31.66,0,0,0-5.72,1.72,13,13,0,0,1-5.69.74,35.26,35.26,0,0,1-5.26-1.15c-4-1-7.94-1.91-11.83-.16-1.75.79-.23,3.38,1.52,2.59Z"/>
<path class="cls-1" d="M122.69,232.72a87.28,87.28,0,0,1,46.67,6.63c1.75.77,3.28-1.81,1.52-2.59a91.2,91.2,0,0,0-49-6.94,1.52,1.52,0,0,0-1,1.85,1.55,1.55,0,0,0,1.85,1.05Z"/>
<path class="cls-1" d="M97.79,198.54c6.18,2.09,12.37,4.19,18.72,5.71A102.86,102.86,0,0,0,136,206.83c6.48.29,13,.24,19.46.24,6.71,0,13.42,0,20.12-.36a194.28,194.28,0,0,0,22.33-2.22c1.9-.3,1.1-3.19-.8-2.89-13,2.1-26.1,2.44-39.2,2.47-12.88,0-26,.49-38.71-2.29a192.32,192.32,0,0,1-20.59-6.14c-1.83-.62-2.62,2.28-.79,2.9Z"/></g></g></svg>
