<svg width="1440" height="673" viewBox="0 0 1440 673" fill="none" xmlns="http://www.w3.org/2000/svg">
<path d="M1440 222.045H1268.52C1240.9 222.045 1218.52 244.431 1218.52 272.045V331.504C1218.52 359.118 1196.13 381.504 1168.52 381.504H1020.84H844.67C817.056 381.504 794.67 403.889 794.67 431.504V502.954C794.67 530.569 772.284 552.954 744.67 552.954H537.587H456.61C428.996 552.954 406.61 575.34 406.61 602.954V619.691C406.61 647.305 384.225 669.691 356.61 669.691H256.678C229.064 669.691 206.678 647.305 206.678 619.691V455.331V352.992C206.678 325.378 184.292 302.992 156.678 302.992H120.829C93.2146 302.992 70.8289 280.606 70.8289 252.992V224.451C70.8289 196.837 93.2147 174.451 120.829 174.451H206.678H249.43C277.044 174.451 299.43 152.065 299.43 124.451V53.0001C299.43 25.3858 277.044 3 249.43 3H106.618H0" stroke="#6DC1CD" stroke-width="5"/>
</svg>
