<svg xmlns="http://www.w3.org/2000/svg" viewBox="0 0 408.07 392.58"><defs><style>.cls-1{fill:#fcfcfc;}.cls-2{fill:#fff;}</style></defs><title>machine</title><g id="Layer_2" data-name="Layer 2"><g id="Layer_1-2" data-name="Layer 1">
<path class="cls-1" d="M8.93,82.54l1-11H7C5.6,92.41,4.49,113.33,3.5,134.26s-1.88,42-2.54,63c-.46,14.48-.81,29-.92,43.44-.08,9.66,0,19.31.21,29q.26,9.51.87,19c.3,4.58.69,9.15,1,13.73.34,4.43.6,8.86.73,13.3.4,14.18-.16,28.42,1.1,42.57.4,4.57,1,9.25,2.7,13.54a29.75,29.75,0,0,0,6,9.18,34.56,34.56,0,0,0,19.26,10.18c10.19,1.93,20.8,1.42,31.11,1,16.76-.65,33.51-1.62,50.29-2,24.55-.58,49.09.18,73.63-.79,26.24-1,52.44-3,78.69-3.3,9.87-.11,19.71.36,29.57.35,7.88,0,15.92-.74,23.41-3.31,8.48-2.91,15.85-8.37,20-16.48,4.46-8.8,5.09-19,5.61-28.65.56-10.42.64-20.86.7-31.29.07-15.17,0-30.33-.11-45.49q-.19-29.12-.37-58.22-.15-34.63-.05-69.26.08-18.7.25-37.42a1.5,1.5,0,0,0-3,0q-.35,36.84-.3,73.67,0,31.74.28,63.5c.11,17.15.25,34.31.3,51.47,0,12.85.06,25.7-.2,38.55-.1,4.62-.23,9.25-.47,13.87-.48,9.31-.94,19.28-5.23,27.75-8,15.89-27.16,18.53-43.16,18.29-10.41-.16-20.79-.45-31.2-.27-13.07.24-26.13.84-39.18,1.51s-25.89,1.38-38.85,1.86-25.78.51-38.69.41c-20.41-.17-40.81.38-61.2,1.32-12.87.6-25.8,1.56-38.69,1.19-7.82-.22-16.13-1-23-4.83-5.88-3.28-11-8.86-13-15.29-1.55-4.74-2-9.8-2.26-14.74-.55-8.92-.58-17.88-.67-26.81-.06-6.67-.1-13.32-.51-20-.26-4.3-.62-8.6-.95-12.89-.41-5.31-.75-10.63-1-15.95-.35-7.87-.51-15.76-.56-23.64-.08-12,.08-24.05.34-36.07.39-17.6,1-35.19,1.72-52.78Q6.52,131,8.49,95.54q.69-12,1.48-24c.12-1.94-2.83-1.9-3,0l-1,11c-.18,1.92,2.82,1.91,3,0Z"/>
<path class="cls-1" d="M8.51,122.21q31.62.21,63.23.35,27.87.12,55.74.17,24,0,48,0,20.48-.06,41-.2,16.92-.12,33.83-.36,13.67-.2,27.32-.52c6.93-.17,13.86-.37,20.79-.67,4.93-.2,9.86-.44,14.77-.81,3.08-.23,6.17-.49,9.22-1a58.06,58.06,0,0,1,5.71-1.09c9.1-.56,12.16,8.22,13.06,15.73a75.42,75.42,0,0,1,.36,11.93c-.07,1.93,2.93,1.93,3,0,.28-7.67.19-16.33-3.49-23.29a13.5,13.5,0,0,0-7.71-6.77c-3.26-1-6.59-.59-9.83.21-.91.23-1.84.39-2.77.53l-.42.06-.16,0-1,.12c-.76.09-1.53.17-2.3.24-4.27.41-8.56.65-12.84.87-6.35.32-12.71.54-19.07.73q-12.75.38-25.52.57-16.14.28-32.28.42-19.67.18-39.32.24-23.19.09-46.4.07-27.11,0-54.22-.11Q56,119.51,25,119.32l-16.47-.11a1.5,1.5,0,0,0,0,3Z"/>
<path class="cls-1" d="M10,71.5q.6-7.4,1.22-14.77l-1.5,1.5,127.07-1.12L263.16,56l71.56-.63-1.45-1.1Q337.65,75.6,342,96.9c.39,1.89,3.28,1.09,2.89-.8q-4.38-21.3-8.75-42.61a1.52,1.52,0,0,0-1.44-1.11L207.65,53.49,81.25,54.6l-71.56.63a1.53,1.53,0,0,0-1.5,1.5Q7.58,64.11,7,71.5c-.16,1.92,2.84,1.91,3,0Z"/>
<path class="cls-1" d="M4.47,322l130.84.69,130.18.68,73.43.38a1.5,1.5,0,0,0,0-3l-130.84-.68L77.9,319.38,4.47,319a1.5,1.5,0,0,0,0,3Z"/>
<path class="cls-1" d="M264.68,56.1a74.39,74.39,0,0,1,1.94,18.27c-.22,7-1.88,14.59-7,19.78s-12.19,6.32-19.18,6.35c-4.89,0-9.78-.43-14.66-.77q-8.31-.6-16.62-1-33.66-1.65-67.36-.32c-11,.44-22,1.46-33.06,1.87-7.89.29-16.26.07-23.57-3.25A30.92,30.92,0,0,1,69.8,82.45c-3.68-7.68-3.24-16.64-.25-24.47.3-.78.59-1.43,1-2.2.84-1.73-1.75-3.26-2.59-1.52a36.54,36.54,0,0,0-3.44,20.67A31.65,31.65,0,0,0,78.12,96.49c5.84,4,12.46,5.91,19.47,6.57a105.18,105.18,0,0,0,16.65-.07c5.71-.37,11.43-.78,17.14-1.09q35.13-1.87,70.33-.5,8.82.34,17.63.9c5.48.34,11,.85,16.44,1.1,7.57.33,15.9.18,22.42-4.2,12.88-8.66,12.57-26.58,10.12-40.18-.22-1.24-.47-2.49-.74-3.72-.42-1.89-3.31-1.09-2.9.8Z"/>
<path class="cls-1" d="M12,55.5l1.56-43.43-1.1,1.45q28.8-4,57.8-6.54,29.42-2.53,58.93-3.45,30.41-.94,60.83-.21,31.71.77,63.33,3.32,32.82,2.63,65.44,7.13c2.77.38,5.54.78,8.31,1.18L326,13.5a161.73,161.73,0,0,0,7,40.4c.57,1.84,3.46,1.05,2.89-.8A158.65,158.65,0,0,1,329,13.5a1.54,1.54,0,0,0-1.11-1.45Q295,7.31,262,4.36,230.08,1.56,198.05.54q-30.84-1-61.7-.21-29.76.73-59.47,3.1Q48.11,5.71,19.48,9.55c-2.62.35-5.23.71-7.85,1.08a1.5,1.5,0,0,0-1.1,1.44L9,55.5c-.07,1.93,2.93,1.93,3,0Z"/>
<path class="cls-1" d="M239,84.36c3.73-.25,6.11-3.53,6.41-7.07.31-3.8-2.38-7-5.72-8.45a13.27,13.27,0,0,0-11.43.27c-3.82,2.13-4.69,6.71-2.61,10.41,2.44,4.32,7.72,5.46,12.32,5.17,1.91-.13,1.93-3.13,0-3-3.06.19-6.63-.12-8.86-2.48-1.8-1.91-2.36-5.1-.18-6.94s5.49-1.88,8-1.21,5.1,2.34,5.43,5c.27,2.17-1,5.09-3.4,5.25-1.92.13-1.93,3.14,0,3Z"/>
<path class="cls-1" d="M238.41,81.42l-4.95-8L230.87,75l4.88,7.64a1.5,1.5,0,0,0,1.88.61,1.49,1.49,0,0,0,.86-1.77,34.74,34.74,0,0,0-4.91-10,1.54,1.54,0,0,0-2.05-.54A1.53,1.53,0,0,0,231,73a32.22,32.22,0,0,1,4.61,9.28l2.74-1.15-4.88-7.65A1.5,1.5,0,1,0,230.87,75l4.95,8a1.5,1.5,0,0,0,2.59-1.51Z"/>
<path class="cls-1" d="M89.14,80.1c3.43,1.71,7.39.27,9.68-2.63a8.17,8.17,0,0,0,.23-10.11,11.3,11.3,0,0,0-9.55-4.42,8.7,8.7,0,0,0-5.67,2.24,6.25,6.25,0,0,0-1.57,5.55c.83,5.14,6,7.15,10.4,8.48,1.86.56,2.65-2.34.8-2.9-2.86-.86-6.46-1.86-7.85-4.81a4.18,4.18,0,0,1-.19-3.45c.6-1.29,2.14-1.82,3.45-2a8.44,8.44,0,0,1,6.9,2.14,5.32,5.32,0,0,1,1.4,6.4,6.53,6.53,0,0,1-3,2.9,4,4,0,0,1-3.5,0A1.54,1.54,0,0,0,88.6,78a1.52,1.52,0,0,0,.54,2.06Z"/>
<path class="cls-1" d="M93.15,77.17A17.79,17.79,0,0,1,95,67l-2.8-.76a12.37,12.37,0,0,1-1.7,6A1.5,1.5,0,1,0,93.1,73.7a15.75,15.75,0,0,0,2.11-7.48,1.51,1.51,0,0,0-2.79-.76,20.69,20.69,0,0,0-2.27,11.71,1.54,1.54,0,0,0,1.5,1.5,1.5,1.5,0,0,0,1.5-1.5Z"/>
<path class="cls-1" d="M129.78,96.21c3.43,1.72,7.39.28,9.68-2.62a8.19,8.19,0,0,0,.23-10.12,11.29,11.29,0,0,0-9.55-4.41,8.74,8.74,0,0,0-5.67,2.23,6.31,6.31,0,0,0-1.57,5.56c.83,5.14,6,7.15,10.4,8.47,1.86.56,2.65-2.33.8-2.89-2.86-.87-6.46-1.86-7.85-4.81a4.18,4.18,0,0,1-.19-3.45c.6-1.29,2.14-1.83,3.45-2a8.48,8.48,0,0,1,6.91,2.15,5.31,5.31,0,0,1,1.39,6.4,6.46,6.46,0,0,1-3,2.89,4,4,0,0,1-3.49.06,1.55,1.55,0,0,0-2.06.54,1.51,1.51,0,0,0,.54,2Z"/>
<path class="cls-1" d="M133.8,93.29a17.75,17.75,0,0,1,1.85-10.2l-2.8-.75a12.43,12.43,0,0,1-1.7,6,1.5,1.5,0,0,0,2.59,1.52,15.64,15.64,0,0,0,2.11-7.48,1.51,1.51,0,0,0-2.79-.76,20.6,20.6,0,0,0-2.26,11.71,1.54,1.54,0,0,0,1.5,1.5,1.52,1.52,0,0,0,1.5-1.5Z"/>
<path class="cls-1" d="M189.34,96.21c3.43,1.72,7.39.28,9.68-2.62a8.19,8.19,0,0,0,.23-10.12,11.29,11.29,0,0,0-9.55-4.41A8.74,8.74,0,0,0,184,81.29a6.31,6.31,0,0,0-1.57,5.56c.83,5.14,6,7.15,10.41,8.47,1.85.56,2.64-2.33.79-2.89-2.86-.87-6.46-1.86-7.85-4.81a4.18,4.18,0,0,1-.19-3.45c.6-1.29,2.14-1.83,3.45-2A8.48,8.48,0,0,1,196,84.27a5.31,5.31,0,0,1,1.39,6.4,6.46,6.46,0,0,1-3,2.89,4,4,0,0,1-3.49.06,1.55,1.55,0,0,0-2.06.54,1.51,1.51,0,0,0,.54,2Z"/>
<path class="cls-1" d="M193.36,93.29a17.75,17.75,0,0,1,1.85-10.2l-2.8-.75a12.43,12.43,0,0,1-1.7,6,1.5,1.5,0,0,0,2.59,1.52,15.64,15.64,0,0,0,2.11-7.48,1.51,1.51,0,0,0-2.79-.76,20.6,20.6,0,0,0-2.26,11.71,1.54,1.54,0,0,0,1.5,1.5,1.52,1.52,0,0,0,1.5-1.5Z"/>
<path class="cls-1" d="M208.79,68.51a2.07,2.07,0,0,0,.67-.71,1.9,1.9,0,0,0,.24-1,2.25,2.25,0,0,0-.26-1,2.73,2.73,0,0,0-.37-.52,2.1,2.1,0,0,0-1.06-.63,2,2,0,0,0-1,0l-.22.09-.23.1a2,2,0,0,0-.4.32,1.11,1.11,0,0,0-.31.48,1.27,1.27,0,0,0-.13.58l.06.4a1.57,1.57,0,0,0,.38.66,1.92,1.92,0,0,0,.29.28,2.4,2.4,0,0,0,.94.55,2,2,0,0,0,.73.13,2.3,2.3,0,0,0,1.06-.28,1.08,1.08,0,0,0,.43-.39,1,1,0,0,0,.26-.51,1.59,1.59,0,0,0-.15-1.15.41.41,0,0,0-.07-.11,2.38,2.38,0,0,0-.31-.4,2.69,2.69,0,0,0-.5-.39l-.11-.06a4.78,4.78,0,0,0-.48-.19,2.77,2.77,0,0,0-.64-.11,1.31,1.31,0,0,0-.28,0,3.41,3.41,0,0,0-.64.1,3.71,3.71,0,0,0-.46.19l-.12.06-.1.07a3.12,3.12,0,0,0-.4.32,3.86,3.86,0,0,0-.3.38.75.75,0,0,0-.07.12,2.67,2.67,0,0,0-.2.46A3.47,3.47,0,0,0,205,67a2,2,0,0,0,.06.65l0,.13a3.76,3.76,0,0,0,.2.46,2.36,2.36,0,0,0,.87.94,2,2,0,0,0,.41.22,1.33,1.33,0,0,0,.3.11,3,3,0,0,0,.32.06,3.16,3.16,0,0,0,.32,0,3,3,0,0,0,.51-.07l.13,0a2.67,2.67,0,0,0,.46-.2,2.3,2.3,0,0,0,.7-.69l.06-.11a2.23,2.23,0,0,0,.18-.45,2.74,2.74,0,0,0,.07-.5.49.49,0,0,0,0-.12c0-.17,0-.33-.06-.5l0-.13a2.36,2.36,0,0,0-.12-.28c0-.1-.08-.2-.13-.3l-.06-.1c-.1-.13-.2-.27-.31-.39a2.17,2.17,0,0,0-.48-.38l-.09-.06a2.58,2.58,0,0,0-.46-.18,2.76,2.76,0,0,0-.49-.07,1.09,1.09,0,0,0-.31,0,1.45,1.45,0,0,0-.3,0,1.57,1.57,0,0,0-.23.09l-.21.09a.61.61,0,0,0-.16.12.87.87,0,0,0-.27.27,1.4,1.4,0,0,0-.24.43,1.63,1.63,0,0,0-.11.31,2.2,2.2,0,0,0,0,1,.27.27,0,0,0,0,.12,2.76,2.76,0,0,0,.2.47.75.75,0,0,0,.07.12,3.79,3.79,0,0,0,.31.39.47.47,0,0,0,.1.1,3.79,3.79,0,0,0,.4.3,1.55,1.55,0,0,0,.29.14,1.82,1.82,0,0,0,.3.11,2.17,2.17,0,0,0,.51.08h.13a2.17,2.17,0,0,0,.51-.08,1.78,1.78,0,0,0,.4-.17h0l.31-.24.23-.3s.14-.32.16-.37v0a2.44,2.44,0,0,0,.07-.46v-.07a3.47,3.47,0,0,0-.06-.45,2.53,2.53,0,0,0-.19-.48l-.08-.12a2.55,2.55,0,0,0-.32-.4l-.34-.26-.07,0-.06,0-.42-.17-.06,0a3.62,3.62,0,0,0-.46-.06,2.09,2.09,0,0,0-1,.25l2.06,2.06a.2.2,0,0,1,0-.08l-.23.3.05,0-.31.24.08,0-.36.16a.17.17,0,0,1,.1,0l-.4.05h.14l-.4-.05.14,0-.35-.15.09.05-.3-.23.07.07-.23-.31s0,.05,0,.08l-.15-.36a.64.64,0,0,1,0,.07l-.06-.4a.14.14,0,0,1,0,.09l.06-.4a.64.64,0,0,0,0,.07l.15-.36a.25.25,0,0,1,0,.07l.23-.3a.17.17,0,0,1-.06.06l.31-.24-.09.06.36-.16-.14,0,.4,0h-.14l.4,0a.24.24,0,0,1-.12,0l.36.15a.26.26,0,0,1-.09-.05l.3.24-.05,0,.24.3-.05-.07.16.36a.17.17,0,0,1,0,0,1.14,1.14,0,0,0-.27-.51,1,1,0,0,0-.42-.39,1.12,1.12,0,0,0-.56-.18,1.22,1.22,0,0,0-.6,0,1.5,1.5,0,0,0-.89.69,1.59,1.59,0,0,0-.15,1.15,2.34,2.34,0,0,0,.09.24,2.14,2.14,0,0,0,.1.22v0a3.65,3.65,0,0,0,.24.31l.05,0a2.18,2.18,0,0,0,.34.26l0,0a2,2,0,0,0,.46.18,2.16,2.16,0,0,0,1,0l.06,0,.4-.17,0,0,0,0a1.91,1.91,0,0,0,.32-.24s0,0,0,0l.24-.31,0,0a1.79,1.79,0,0,0,0-1.8l0-.05a2.78,2.78,0,0,0-.26-.34l0,0a1.82,1.82,0,0,0-.35-.27l-.05,0-.4-.17a2.85,2.85,0,0,0-.51-.08h-.14a2,2,0,0,0-.86.23l-.06,0-.16.12a1.53,1.53,0,0,0-.17.14,2.12,2.12,0,0,0-.27.34.25.25,0,0,0,0,.07l-.15.36a1,1,0,0,0,0,.6.75.75,0,0,0,.1.38,1.14,1.14,0,0,0,.31.48,1.78,1.78,0,0,0,.66.39,1.73,1.73,0,0,0,1.16-.16h0l-.36.16.11,0-.4.06h.14l-.4,0,.15,0-.36-.15a.67.67,0,0,1,.14.09l-.3-.24a1.14,1.14,0,0,1,.11.11l-.23-.3a.64.64,0,0,1,.08.14l-.15-.36a.5.5,0,0,1,0,.13l-.06-.4a.28.28,0,0,1,0,.13l.06-.39s0,0,0,.06l.69-.89,0,0,.36-.16-.15,0,.4-.06a.43.43,0,0,1-.16,0l.4.06a.66.66,0,0,1-.2-.06l.36.15a.72.72,0,0,1-.19-.11l.31.24a1.7,1.7,0,0,1-.19-.19l.24.31a.88.88,0,0,1-.12-.21l.15.36a.66.66,0,0,1-.06-.2l.06.4a.49.49,0,0,1,0-.17l-.06.4a1.42,1.42,0,0,1,.05-.16l-.15.36a.41.41,0,0,1,.05-.09l-.54.53h0l-.36.15a.37.37,0,0,1,.14,0l-.39,0a.33.33,0,0,1,.14,0l-.4,0,.15,0-.35-.15.15.09-.3-.23a1.21,1.21,0,0,1,.16.16l-.23-.3a1.28,1.28,0,0,1,.15.25l-.15-.35a1.05,1.05,0,0,1,.06.24l0-.4a.89.89,0,0,1,0,.23l.06-.4a.75.75,0,0,1,0,.16l.15-.36a.54.54,0,0,1-.07.13l.23-.3a.38.38,0,0,1-.11.11l.31-.24a.6.6,0,0,1-.15.09l.36-.15-.18,0,.4-.06h-.18l.39.06-.24-.07.36.15-.24-.14.31.23a1.34,1.34,0,0,1-.21-.2l.24.3a.72.72,0,0,1-.14-.24L208,67a.9.9,0,0,1-.06-.22l.05.39a.74.74,0,0,1,0-.21l-.05.4a.47.47,0,0,1,0-.16l-.15.35a1.18,1.18,0,0,1,.11-.19l-.23.3a.93.93,0,0,1,.14-.14l-.3.23a1.71,1.71,0,0,1,.23-.13l-.36.15a1.28,1.28,0,0,1,.28-.07l-.4,0a1.09,1.09,0,0,1,.36,0l-.4,0a1,1,0,0,1,.3.08l-.35-.15a1.23,1.23,0,0,1,.25.14l-.31-.23a1.29,1.29,0,0,1,.17.16l-.24-.3a.83.83,0,0,1,.08.12l.54-2.05,0,0,.36-.15a.42.42,0,0,1-.16,0l.4-.05a.74.74,0,0,1-.21,0l.4.05a.62.62,0,0,1-.23-.07l.35.16-.27-.16.31.23a1.92,1.92,0,0,1-.29-.28v2.12l.06-.05-.31.23.09,0-.36.15.11,0-.4.06a.2.2,0,0,1,.11,0l-.39-.06.14,0-.36-.16.15.09-.3-.23a1.21,1.21,0,0,1,.16.16l-.23-.3a1.18,1.18,0,0,1,.11.19l-.15-.36a.75.75,0,0,1,0,.16l-.05-.4v.11l.05-.4a.2.2,0,0,1,0,.11l.15-.36a.41.41,0,0,1-.05.09l.24-.3-.08.07.31-.23h0a1.18,1.18,0,0,0-.42.38,1.26,1.26,0,0,0-.27.51,1.82,1.82,0,0,0,.15,1.16,1.55,1.55,0,0,0,.9.69l.4,0a1.57,1.57,0,0,0,.76-.2Z"/>
<path class="cls-1" d="M187.63,73.93a1.75,1.75,0,0,0,.72-.68,2.09,2.09,0,0,0,.28-1,2.15,2.15,0,0,0-.35-1.26,2.34,2.34,0,0,0-.71-.69,2.42,2.42,0,0,0-1.11-.32,3.13,3.13,0,0,0-.81.06,3.59,3.59,0,0,0-.47.12,1.49,1.49,0,0,0-.76.43,2.45,2.45,0,0,0-.31.41,2.15,2.15,0,0,0-.29,1,2.39,2.39,0,0,0,.06.65,2.18,2.18,0,0,0,.25.64,2.49,2.49,0,0,0,2.28,1.31,3,3,0,0,0,1.52-.49A4.24,4.24,0,0,0,189.1,73l.15-.36a1.08,1.08,0,0,0,0-.59.7.7,0,0,0-.1-.38,1.11,1.11,0,0,0-.31-.49,6.51,6.51,0,0,0-.64-.51,3.2,3.2,0,0,0-.74-.37l-.21,0a2.25,2.25,0,0,0-.58-.07,2.13,2.13,0,0,0-.56.1,1.73,1.73,0,0,0-.63.33,1.48,1.48,0,0,0-.45.48l0,0a2,2,0,0,0-.17.4.64.64,0,0,0,0,.07,3.15,3.15,0,0,0-.05.43,2.15,2.15,0,0,0,.05.51l0,.12a3.9,3.9,0,0,0,.2.47,2.72,2.72,0,0,0,.29.38.6.6,0,0,0,.08.08,2.18,2.18,0,0,0,.34.26,2,2,0,0,0,.4.17,1.61,1.61,0,0,0,.44.06,1.15,1.15,0,0,0,.24,0,1.56,1.56,0,0,0,.64-.21,2.21,2.21,0,0,0,.61-.61,1.12,1.12,0,0,0,.18-.56,1.22,1.22,0,0,0,0-.6,1.57,1.57,0,0,0-.69-.89A1.47,1.47,0,0,0,186.4,71l-.35.15a1.45,1.45,0,0,0-.54.53l0,0,.24-.3,0,0,.3-.23-.05,0,.35-.15h0l.4,0h0l.39.06-.05,0,.35.15-.05,0,.3.23-.09-.09.24.31a1,1,0,0,1-.08-.14l.15.36a1.24,1.24,0,0,1,0-.16l.05.39a.33.33,0,0,1,0-.14l-.06.4,0-.11-.15.36,0-.06-.23.3.05-.06-.3.24.09,0-.36.15.17,0-.4.06a.67.67,0,0,1,.2,0l-.4,0a1.34,1.34,0,0,1,.27.07l-.36-.15a2.26,2.26,0,0,1,.42.26l-.31-.23a2.75,2.75,0,0,1,.26.22l-.23-1.82a1.71,1.71,0,0,1-.11.14l.24-.3a2.24,2.24,0,0,1-.44.43l.31-.23a2.3,2.3,0,0,1-.43.25l.36-.15a2,2,0,0,1-.33.09l.4-.06a1.37,1.37,0,0,1-.35,0l.4,0a.83.83,0,0,1-.21-.06l.36.15a1.13,1.13,0,0,1-.21-.12l.31.24-.22-.21.24.3a1.35,1.35,0,0,1-.15-.26l.15.36a.86.86,0,0,1-.06-.23l0,.4a.81.81,0,0,1,0-.22l0,.4a.85.85,0,0,1,0-.17l-.15.36a.57.57,0,0,1,.08-.13l-.23.3.05-.06-.66.39a3.8,3.8,0,0,1,.58-.15l-.39.06a1.28,1.28,0,0,1,.39,0l-.4-.05a.84.84,0,0,1,.26.07l-.36-.15.12.07-.3-.24.12.13-.23-.3a1.09,1.09,0,0,1,.08.15l-.15-.36a.76.76,0,0,1,.06.2l-.06-.4a.49.49,0,0,1,0,.17l.06-.4a.5.5,0,0,1,0,.13l.15-.35,0,.07.23-.3a.3.3,0,0,1-.08.08l.3-.24-.08,0a1.05,1.05,0,0,0-.42.39,1.14,1.14,0,0,0-.27.51,1.22,1.22,0,0,0,0,.6,1.12,1.12,0,0,0,.18.55,1.51,1.51,0,0,0,.9.69l.4.06a1.51,1.51,0,0,0,.75-.21Z"/>
<path class="cls-1" d="M176.34,69.27a.83.83,0,0,0,.07-.13,2.86,2.86,0,0,0,.2-.48.35.35,0,0,0,0-.14,4.34,4.34,0,0,0,.07-.52,3.05,3.05,0,0,0-.07-.67,1,1,0,0,0-.08-.29,3.71,3.71,0,0,0-.28-.61,3.2,3.2,0,0,0-.4-.51l-.1-.09a4,4,0,0,0-.41-.31l-.12-.07c-.15-.07-.31-.14-.48-.2l-.12,0a3.19,3.19,0,0,0-.53-.06H174a2.85,2.85,0,0,0-.51.08,2.62,2.62,0,0,0-.46.19.34.34,0,0,0-.12.06,3.47,3.47,0,0,0-.38.29.39.39,0,0,0-.1.08l-.08.1a3.9,3.9,0,0,0-.31.4,3.4,3.4,0,0,0-.26.58,1.68,1.68,0,0,0-.07.24,2.79,2.79,0,0,0-.07.64.62.62,0,0,0,0,.13,4.79,4.79,0,0,0,.07.51.42.42,0,0,0,0,.1,2.34,2.34,0,0,0,.19.46.36.36,0,0,0,.07.1,2.31,2.31,0,0,0,.31.39,2.79,2.79,0,0,0,.38.3l.12.08a3.71,3.71,0,0,0,.46.19,2.85,2.85,0,0,0,.51.08h.12a2.84,2.84,0,0,0,.51-.06l.13,0a4.47,4.47,0,0,0,.46-.19,2.66,2.66,0,0,0,.51-.37,1.19,1.19,0,0,0,.2-.19,3.25,3.25,0,0,0,.37-.52c.07-.14.13-.3.19-.45a.56.56,0,0,0,0-.12,3,3,0,0,0,.07-.51.56.56,0,0,0,0-.13,2.4,2.4,0,0,0-.25-1,.41.41,0,0,0-.07-.11c-.07-.12-.17-.23-.25-.34a1.23,1.23,0,0,0-.52-.35l-.18-.07-.4-.06h-.12a3.45,3.45,0,0,0-.55.07l-.17.06a4.31,4.31,0,0,0-.49.22,2.75,2.75,0,0,0-.56.46,4.4,4.4,0,0,0-.31.41,3.78,3.78,0,0,0-.22.5,1,1,0,0,0,0,.16l-.06.46v0l0,.4.15.36.12.15a.87.87,0,0,0,.27.27c.06,0,.11.09.18.13l.09.06a1.81,1.81,0,0,0,.37.18,2,2,0,0,0,.34.13,1.84,1.84,0,0,0,.77,0,1.26,1.26,0,0,0,.28-.05,1.92,1.92,0,0,0,.39-.17,1.23,1.23,0,0,0,.38-.3,1.66,1.66,0,0,0,.36-.57,1.32,1.32,0,0,0,.13-.48,1.48,1.48,0,0,0,0-.69l0,0a.79.79,0,0,0-.08-.19.91.91,0,0,0-.08-.2l-.13-.17a1.11,1.11,0,0,0-.13-.17l0,0-.31-.24a15.81,15.81,0,0,0-.45-.18,1.08,1.08,0,0,0-.59,0,1.12,1.12,0,0,0-.56.18,1,1,0,0,0-.42.38,1.15,1.15,0,0,0-.27.51,1.51,1.51,0,0,0,.15,1.16l.23.3a1.47,1.47,0,0,0,.67.39h.05l-.36-.15,0,0-.3-.24,0,0-.24-.3,0,0-.15-.36s0,0,0,.07l0-.4V68l0-.4a.23.23,0,0,1,0,.11l.16-.36-.05.08.23-.3,0,0,.31-.24-.07,0,.36-.15-.08,0,.4-.05h-.15l.4.05a.48.48,0,0,1-.18-.06l.35.16a2,2,0,0,1-.31-.19l.75,1.3v0l-.05.39a.79.79,0,0,1,.06-.22l-.15.35a1,1,0,0,1,.13-.22l-.23.3a.91.91,0,0,1,.17-.17l-.31.24a1.09,1.09,0,0,1,.23-.14l-.36.15a1.11,1.11,0,0,1,.26-.07l-.4,0h.18l-1.06-.44,0,0-.23-.3.08.13-.16-.36a.55.55,0,0,1,.05.17l-.05-.4a.67.67,0,0,1,0,.2l.05-.4a1,1,0,0,1-.07.25l.15-.36a1.49,1.49,0,0,1-.14.24l.23-.3a1.25,1.25,0,0,1-.23.23l.31-.24a1.23,1.23,0,0,1-.25.14l.36-.15a.79.79,0,0,1-.22.06l.4,0h-.19l.39,0a.64.64,0,0,1-.17,0l.36.15a.59.59,0,0,1-.17-.1l.3.24a.86.86,0,0,1-.13-.14l.23.31a1.62,1.62,0,0,1-.1-.18l.15.36a2.33,2.33,0,0,1-.07-.25l.06.4a1.07,1.07,0,0,1,0-.31l0,.4a1,1,0,0,1,.09-.34l-.15.35a1.28,1.28,0,0,1,.16-.27l-.24.31a1.14,1.14,0,0,1,.19-.19l-.3.23a1.18,1.18,0,0,1,.19-.11l-.36.15a.83.83,0,0,1,.21-.06l-.4,0h.24l-.4,0a.78.78,0,0,1,.25.07L173.7,68l.24.14-.31-.23a1.25,1.25,0,0,1,.23.23l-.23-.3a1.57,1.57,0,0,1,.18.31l-.15-.36a1.48,1.48,0,0,1,.1.36l-.06-.4a.81.81,0,0,1,0,.31l.06-.4a1.07,1.07,0,0,1-.07.27l.15-.35a1.19,1.19,0,0,1-.09.15,1,1,0,0,0-.17.56,1.11,1.11,0,0,0,0,.6,1.26,1.26,0,0,0,.27.51,1.31,1.31,0,0,0,.42.39,1.56,1.56,0,0,0,1.16.15,1.62,1.62,0,0,0,.89-.69Z"/>
<path class="cls-1" d="M153.53,73.44a1.57,1.57,0,0,0,.23-.09l.23-.1a2,2,0,0,0,.34-.26l0,0a2,2,0,0,0,.25-.33l0,0a2.38,2.38,0,0,0,.16-.4.14.14,0,0,0,0-.06,2.16,2.16,0,0,0,0-1,.56.56,0,0,0,0-.12,2.58,2.58,0,0,0-.21-.48,2.78,2.78,0,0,0-.3-.4l-.09-.1-.34-.27-.06,0-.05,0a3.56,3.56,0,0,0-.41-.17l-.08,0-.44-.06a3,3,0,0,0-.6.06l-.19,0a4.93,4.93,0,0,0-.53.22,4,4,0,0,0-.67.5,3,3,0,0,0-.37.35l-.24.3a1.11,1.11,0,0,0-.17.56.68.68,0,0,0,0,.4,1.08,1.08,0,0,0,.17.55,2.64,2.64,0,0,0,.93.89,3,3,0,0,0,1.26.35,2.49,2.49,0,0,0,.47,0,1.71,1.71,0,0,0,.45-.09,2.52,2.52,0,0,0,1.1-.68,1.14,1.14,0,0,0,.31-.48,1.08,1.08,0,0,0,.13-.58,1.5,1.5,0,0,0-.44-1.06,3.17,3.17,0,0,0-.46-.36,1,1,0,0,0-.22-.13,3.19,3.19,0,0,0-.8-.29,3.8,3.8,0,0,0-.59-.06,3.11,3.11,0,0,0-.62.06,1.19,1.19,0,0,0-.45.17,1.49,1.49,0,0,0-.57.6,2.89,2.89,0,0,0-.22.58,4.21,4.21,0,0,0-.09.62,3.38,3.38,0,0,0,.07.63,1.22,1.22,0,0,0,.06.26s0,0,0,0a1.65,1.65,0,0,0,.28.53l.11.15a1.11,1.11,0,0,0,.49.31,1.45,1.45,0,0,0,.22.09,2.11,2.11,0,0,0,.56.09h.2a2.62,2.62,0,0,0,.56-.09l.43-.17.1,0a3.27,3.27,0,0,0,.46-.35,2.54,2.54,0,0,0,.37-.44,2.57,2.57,0,0,0,.25-.53,3,3,0,0,0,.11-.6,1.48,1.48,0,0,0-.21-.76,1.45,1.45,0,0,0-.54-.53l-.53-.3a1.54,1.54,0,0,0-1.15-.15,1,1,0,0,0-.51.27,1.13,1.13,0,0,0-.39.42,1.54,1.54,0,0,0-.15,1.15,1.56,1.56,0,0,0,.69.9l.53.3-.74-1.3v0l.06-.4a.78.78,0,0,1-.05.18l.15-.36a.78.78,0,0,1-.11.18l.24-.3a1.29,1.29,0,0,1-.17.16l.3-.23a1.16,1.16,0,0,1-.22.13l.36-.16a.86.86,0,0,1-.23.06l.4,0h-.23l.4,0a.61.61,0,0,1-.18,0l1.05,1a1.78,1.78,0,0,1-.09-.33l0,.4a1.28,1.28,0,0,1,0-.34l-.06.4a1.89,1.89,0,0,1,.09-.34l-.15.36,0,0-.9.69.11,0-.39,0a1.34,1.34,0,0,1,.4,0l-.4,0a1.64,1.64,0,0,1,.38.1l-.35-.15a1.5,1.5,0,0,1,.32.19l-.31-.23a.48.48,0,0,1,.11.09V70.71a1.85,1.85,0,0,1-.14.14l.3-.24a1.28,1.28,0,0,1-.25.15l.36-.16a1.11,1.11,0,0,1-.3.08l.4-.05a1.45,1.45,0,0,1-.36,0l.4.05a1,1,0,0,1-.33-.09l.36.15a1.23,1.23,0,0,1-.25-.14l.31.23a1,1,0,0,1-.18-.17l.24.3-.06-.07-.23,1.82a4.68,4.68,0,0,1,.46-.43l-.3.24a1.54,1.54,0,0,1,.37-.23l-.36.15a1.34,1.34,0,0,1,.27-.07l-.4,0a1,1,0,0,1,.24,0l-.39,0,.12,0-.36-.15a.57.57,0,0,1,.13.08l-.31-.24.12.12-.23-.3a.52.52,0,0,1,.1.18l-.15-.36a.6.6,0,0,1,.06.19l-.06-.4a.86.86,0,0,1,0,.16l0-.4a.53.53,0,0,1,0,.12l.15-.35a.21.21,0,0,1,0,.06l.23-.3-.06.07.3-.24-.07,0,.36-.15,0,0a1.6,1.6,0,0,0-.9.69,1.66,1.66,0,0,0-.15,1.16,1.47,1.47,0,0,0,.69.89,1.45,1.45,0,0,0,1.15.15Z"/>
<path class="cls-1" d="M137.58,72.39a2.55,2.55,0,0,0,.13-.29,1.82,1.82,0,0,0,.11-.3,2.3,2.3,0,0,0,0-1l0-.13a2.72,2.72,0,0,0-.21-.46,1.7,1.7,0,0,0-.18-.26,1.73,1.73,0,0,0-.21-.25,2.79,2.79,0,0,0-.39-.31l-.12-.08a4.43,4.43,0,0,0-.45-.2l-.14,0a2.39,2.39,0,0,0-1,0l-.13,0a3.23,3.23,0,0,0-.47.21,3.47,3.47,0,0,0-.38.29.47.47,0,0,0-.1.1,4,4,0,0,0-.3.39,2.55,2.55,0,0,0-.13.29,1.8,1.8,0,0,0-.14.43,2.35,2.35,0,0,0-.06.65,2.56,2.56,0,0,0,.37,1.23c.09.14.19.26.29.39l.1.1a4.17,4.17,0,0,0,.4.3,2.91,2.91,0,0,0,.48.21,2.63,2.63,0,0,0,.67.12,2.54,2.54,0,0,0,.67-.06,2,2,0,0,0,.47-.15,2.38,2.38,0,0,0,.45-.23,3.35,3.35,0,0,0,.51-.42c.11-.13.21-.27.31-.4l.09-.14,0-.08c0-.09.13-.27.16-.37s0-.34,0-.41a2.18,2.18,0,0,0,0-.22.89.89,0,0,0,0-.22.3.3,0,0,0,0-.1,4.19,4.19,0,0,0-.2-.49,1,1,0,0,0-.08-.14c-.1-.14-.21-.28-.32-.41l-.28-.22a1.71,1.71,0,0,0-.27-.2,4.46,4.46,0,0,0-.5-.22l-.16,0a4.51,4.51,0,0,0-.53-.07,3.33,3.33,0,0,0-.54.07.47.47,0,0,0-.16,0,2.91,2.91,0,0,0-.48.21,2.61,2.61,0,0,0-.43.31l-.11.11a4.35,4.35,0,0,0-.33.42.83.83,0,0,0-.07.13,3.11,3.11,0,0,0-.21.5.4.4,0,0,0,0,.15,2.57,2.57,0,0,0-.06.55,2.41,2.41,0,0,0,.07.53,2.87,2.87,0,0,0,.15.37,3.65,3.65,0,0,0,.24.31l.21.16a2.15,2.15,0,0,0,.24.18,3.9,3.9,0,0,0,.47.2.53.53,0,0,0,.12,0,3,3,0,0,0,.51.07h.13a4.63,4.63,0,0,0,.52-.07,2.67,2.67,0,0,0,.59-.23,2.55,2.55,0,0,0,.52-.36,2.73,2.73,0,0,0,.41-.48,2.2,2.2,0,0,0,.26-.56,2,2,0,0,0,.11-.64l-.06-.4a1.06,1.06,0,0,0-.27-.51.7.7,0,0,0-.27-.27,1.14,1.14,0,0,0-.51-.27,3.06,3.06,0,0,0-1.38,0A3.41,3.41,0,0,0,135,70a2.84,2.84,0,0,0-.56.4,1.14,1.14,0,0,0-.31.48,1.36,1.36,0,0,0,0,1.16,1.14,1.14,0,0,0,.31.48,1.5,1.5,0,0,0,1.06.44l.39,0a1.47,1.47,0,0,0,.67-.39l0,0-.3.24a1.49,1.49,0,0,1,.3-.18l-.36.16a1,1,0,0,1,.33-.09l-.4.05a2,2,0,0,1,.35,0l-.4-.05.12,0-1.1-1.45a.25.25,0,0,0,0,.08l0-.4a.59.59,0,0,1,0,.19l.15-.36a.72.72,0,0,1-.11.19l.24-.31a.91.91,0,0,1-.17.17l.3-.23-.24.14.35-.16a1.07,1.07,0,0,1-.27.08l.4-.06a1,1,0,0,1-.25,0l.39.06a.66.66,0,0,1-.2-.06l.36.15a.51.51,0,0,1-.16-.09l.31.24-.06-.06.38.66s0,0,0-.07l.05.4a.81.81,0,0,1,0-.22l-.05.4a1.05,1.05,0,0,1,.06-.24l-.15.36a1.09,1.09,0,0,1,.14-.23l-.24.3a1.14,1.14,0,0,1,.19-.19l-.3.23a1.18,1.18,0,0,1,.19-.11l-.36.15.21,0-.39,0h.22l-.4,0a1.05,1.05,0,0,1,.24.06l-.36-.15.22.13-.31-.23a.9.9,0,0,1,.2.19l-.24-.3a.72.72,0,0,1,.11.19l-.15-.36a.79.79,0,0,1,.06.22l-.05-.4v0l.06-.4v0l.15-.36a1.35,1.35,0,0,1-.15.26l.23-.3a2.08,2.08,0,0,1-.21.21l.3-.24a1.59,1.59,0,0,1-.3.18l.35-.15a1.09,1.09,0,0,1-.31.08l.4,0h-.27l.4,0a.77.77,0,0,1-.26-.07l.35.15a.67.67,0,0,1-.18-.11l.3.24a.67.67,0,0,1-.14-.15l.23.31a1.13,1.13,0,0,1-.12-.21l.15.36a1.43,1.43,0,0,1-.07-.28l.05.4a1.41,1.41,0,0,1,0-.29l-.05.4a.72.72,0,0,1,.07-.25l-.15.36a.72.72,0,0,1,.11-.19l-.24.31a.8.8,0,0,1,.13-.13l-.31.23.16-.09-.36.15.16,0-.4,0h.16l-.4,0,.2,0-.36-.15a.74.74,0,0,1,.21.13l-.3-.24a.77.77,0,0,1,.18.18l-.24-.3a.76.76,0,0,1,.12.19l-.16-.36a.7.7,0,0,1,.06.19l-.06-.4a.43.43,0,0,1,0,.16l.06-.4a.5.5,0,0,1,0,.13l.15-.36a.24.24,0,0,1-.06.11,1.22,1.22,0,0,0-.17.56,1.11,1.11,0,0,0,0,.6,1.26,1.26,0,0,0,.27.51,1.18,1.18,0,0,0,.42.38,1.52,1.52,0,0,0,1.16.16l.36-.16a1.61,1.61,0,0,0,.54-.53Z"/>
<path class="cls-1" d="M4.05,160.06c-1.58,6.76,4.6,11.68,10.62,12.75a65.54,65.54,0,0,0,10.76.53l12.64.11c16.63.14,33.27.21,49.9-.2,16.25-.41,32.46-1.36,48.63-3,3.61-.37,7.23-.55,10.86-.68,12.46-.46,24.95-.38,37.43-.29,20.26.15,40.53.52,60.79.91q43.23.82,86.45,1.81l9.35.21c1.93,0,1.93-3,0-3q-42.63-1-85.28-1.81c-21.07-.42-42.15-.83-63.22-1-13.48-.14-27-.25-40.45.07-15.15.36-30.17,2.33-45.3,3.11-16.27.84-32.57,1-48.87,1q-12.13,0-24.28-.14l-12.26-.11c-3.63,0-7.59,0-10.84-1.88C8.35,167,6.22,164,7,160.86c.44-1.88-2.46-2.68-2.9-.8Z"/>
<path class="cls-1" d="M33.17,147.38a14.24,14.24,0,0,0,3.13-2.77,1.57,1.57,0,0,0,0-2.12,4.56,4.56,0,0,0-3.86-1.7c-1.89.13-2.46,1.26-2.56,3A8,8,0,0,0,33.77,151a1.52,1.52,0,0,0,2.25-1.3,9.3,9.3,0,0,0-2.14-7c-.76-1-2.17-.29-2.5.66-1.13,3.16,1.89,6.12,5,5.62a1.51,1.51,0,0,0,1.1-1.45,3.18,3.18,0,0,0-4.8-2.73,1.54,1.54,0,0,0-.69,1.7,5.16,5.16,0,0,0,3.38,3.64,1.51,1.51,0,0,0,1.84-1.05,5.11,5.11,0,0,0-3.78-6.34,1.52,1.52,0,0,0-1.7,2.2A119,119,0,0,0,43.49,163l2.12-2.12L31.07,145.24a1.53,1.53,0,0,0-1.82-.23,23.46,23.46,0,0,0-11.06,13.54c-.58,1.84,2.32,2.63,2.9.8a20.39,20.39,0,0,1,9.67-11.75L29,147.36,43.49,163c1.34,1.45,3.28-.65,2.12-2.12a116.37,116.37,0,0,1-11.3-17.5l-1.69,2.2a2.1,2.1,0,0,1,1.69,2.66l1.84-1.05a2.07,2.07,0,0,1-1.28-1.55l-.69,1.69c.18-.11.3,0,.29.14l1.1-1.45c-1,.17-1.58-1.14-1.3-1.92l-2.51.66A6.39,6.39,0,0,1,33,149.68l2.26-1.29a4.87,4.87,0,0,1-2.21-5.5l-1,1.05a1.74,1.74,0,0,1,2.16.67v-2.12a11.54,11.54,0,0,1-2.53,2.3c-1.6,1.07-.1,3.66,1.52,2.59Z"/>
<path d="M287.36,193.57c29.89,6.91,72.78,4.66,87.58,4.68a44.05,44.05,0,0,0,6.51,1.61A29.87,29.87,0,0,0,387,200c9.38-.39,16.17,5.64,19.18,3,1.15-1,1.72-3.63.41-8.44s-2.67-9.84-4-14.75a4.51,4.51,0,0,0-1.16-2.61c-1.85-1.56-4.41.56-9.48,1.15-5.72.66-7.11-1.5-12-.07-2.3.67-1.31.94-5.25,2.55-7.09,2.88-11.65,2.55-13.61,2.29l-.34,0c-9-1.32-22-2.52-41.23-2.67-20.75-.16-22-3.92-28.58-2-7.91,2.35-11.17,4.23-16.48,5.25-6.59,1.27-11.27-.24-11.36.64C262.87,185.79,274.88,190.69,287.36,193.57Z"/>
<path class="cls-1" d="M287.16,194.29c12.31,2.83,25,4,37.58,4.56,11.71.56,23.44.56,35.15.37,4.22-.06,8.43-.16,12.64-.21.74,0,1.51-.07,2.24,0a16.23,16.23,0,0,1,2.53.75,28.68,28.68,0,0,0,9.12,1.06,27.39,27.39,0,0,1,9,1.21c2.28.68,4.49,1.66,6.82,2.19,1.53.35,3.31.46,4.52-.74,1.46-1.47,1.38-4,1.14-5.86-.48-3.82-1.85-7.6-2.85-11.3-.52-1.9-1-3.81-1.55-5.71-.39-1.4-.56-3.08-1.79-4-1.68-1.29-3.95-.32-5.74.19a21.36,21.36,0,0,1-9.53.7,14.54,14.54,0,0,0-7.06.21c-1.77.56-3.27,1.77-5,2.47a27.68,27.68,0,0,1-14.74,2.07,292.82,292.82,0,0,0-34-2.43c-6.68-.14-13.37-.06-20-.91-3.15-.41-6.23-1.19-9.38-1.58-3.34-.41-6.33.63-9.48,1.69-5.42,1.82-10.66,4.18-16.45,4.49a37.31,37.31,0,0,1-4.23,0,14,14,0,0,0-2.67-.09c-1.29.19-1.46,1.31-.58,2.15a16.49,16.49,0,0,0,4.85,2.61c2.87,1.23,5.81,2.28,8.78,3.23q5.26,1.69,10.66,2.95c.94.22,1.34-1.22.4-1.44a114.51,114.51,0,0,1-19.37-6.16c-.9-.39-1.79-.8-2.66-1.26-.35-.19-.7-.38-1-.6-.18-.11-.48-.45-.68-.51s-.51.32-.26.53a3.47,3.47,0,0,0,.85,0c1.1,0,2.2.14,3.3.17,5.66.13,10.75-1.45,16-3.35,2.62-.95,5.27-1.94,8-2.63a11.65,11.65,0,0,1,3.17-.36,56.93,56.93,0,0,1,7.45,1.2A106.18,106.18,0,0,0,318,181.18c12.11.2,24.21.49,36.26,1.85,3.75.43,7.54,1.3,11.33.94a32.15,32.15,0,0,0,8.31-2,24.34,24.34,0,0,0,3.75-1.7,16.2,16.2,0,0,1,1.55-.92c2.34-1,4.73-.77,7.16-.38a21.14,21.14,0,0,0,8.27-.28c1.29-.29,2.54-.73,3.82-1,1-.24,2.11-.44,2.77.54a8.34,8.34,0,0,1,.73,2.35c.23.88.47,1.75.71,2.62l1.62,6c.91,3.35,2.32,6.91,2.27,10.42,0,1.65-.46,3.42-2.38,3.45s-4.19-1-6.08-1.66a35.13,35.13,0,0,0-8.28-1.94c-2.63-.24-5.27.1-7.9-.19a26.39,26.39,0,0,1-4.82-1,10.87,10.87,0,0,0-2.16-.62c-1.55-.13-3.2,0-4.76,0l-5.72.1c-22.88.41-46.09.65-68.72-3.17q-4.11-.69-8.18-1.62C286.62,192.63,286.22,194.08,287.16,194.29Z"/>
<path d="M213.2,182.19a44.54,44.54,0,0,0,.31,16c.73,3.59,1.13,5.41,2.53,6.84,3.83,3.93,10.06.79,21.25.45,14.13-.44,18.11,4.14,22.61.92,3-2.11,5.91-7.42,3.38-22.63"/>
<path class="cls-2" d="M212.47,182a46.68,46.68,0,0,0-.36,12,55.72,55.72,0,0,0,1.18,6.79,11.13,11.13,0,0,0,1.62,4.08,7.69,7.69,0,0,0,6.33,2.89c3.43.06,6.87-.71,10.26-1.09a62,62,0,0,1,13.48-.15c2.91.31,5.73,1,8.59,1.51a9.32,9.32,0,0,0,5.51-.28,8.4,8.4,0,0,0,3.54-3.14,16.2,16.2,0,0,0,2.2-7.22,52,52,0,0,0-.81-13.8c-.16-.95-1.6-.55-1.45.4,1,6.23,3.39,24.4-8,22.69-2.38-.35-4.72-1-7.1-1.34a57.11,57.11,0,0,0-11.54-.54c-3.74.2-7.42.8-11.13,1.23-2.29.27-5,.61-7.09-.62a5.76,5.76,0,0,1-2.49-3.31,38.4,38.4,0,0,1-1.38-6.47,44.32,44.32,0,0,1,.1-13.21c.15-.94-1.3-1.35-1.45-.4Z"/>
<path d="M231.09,206c4.33-1.37,8.24-.07,10.57.71,2,.65,6,1.84,8.77,5.67s3.21,9.12,3.34,14a3.85,3.85,0,0,1-.28,1.94,4.15,4.15,0,0,1-1.09,1.16l-4.09,3.29a64.12,64.12,0,0,1-.63-11.41,6,6,0,0,0-.66-3.73c-.88-1.4-2.56-2-5.89-3.15a16.94,16.94,0,0,0-4.81-1.25c-1.28-.07-3.73-.21-5.62,1.09s-2.08,3.18-3.36,7.82c-.61,2.16-1.52,5.21-2.86,8.87a8.44,8.44,0,0,0-2.25-4.49,6.91,6.91,0,0,1-1.95-2.41,14.4,14.4,0,0,1-.08-1.92C220.32,216.15,224.06,208.24,231.09,206Z"/>
<path class="cls-2" d="M231.29,206.73c3.56-1.06,6.93-.38,10.35.76a16.68,16.68,0,0,1,7.23,4.18c2.68,2.86,3.61,6.79,3.94,10.6.07.82.12,1.64.16,2.46a8.68,8.68,0,0,1-.06,3c-.35,1-1.77,1.77-2.53,2.39l-2.6,2.09,1.28.53a67,67,0,0,1-.63-11.41c.07-1.72-.06-3.46-1.29-4.79a9,9,0,0,0-3.61-2c-3.25-1.23-6.54-2.48-10.07-2-3.12.43-4.81,2.27-5.69,5.15-1.34,4.38-2.44,8.79-4,13.11h1.44a9.3,9.3,0,0,0-1.57-3.77c-.69-1-1.83-1.67-2.41-2.69s-.29-2.83-.13-4a19.31,19.31,0,0,1,.74-3.18c1.48-4.63,4.73-8.86,9.46-10.43.92-.31.52-1.76-.39-1.45-5.05,1.68-8.57,6-10.31,10.88a18.21,18.21,0,0,0-1.1,7.46,4.73,4.73,0,0,0,1.84,3,8.3,8.3,0,0,1,2.43,4.53c.15.79,1.22.62,1.44,0q1.83-5,3.22-10.18c.68-2.55,1.05-5.69,3.89-6.68s6-.05,8.84.93a16.33,16.33,0,0,1,4.38,1.86c1.43,1,1.46,2.73,1.4,4.34a66.59,66.59,0,0,0,.63,11.29.76.76,0,0,0,1.28.53l3-2.39a8.32,8.32,0,0,0,2.33-2.21,5.36,5.36,0,0,0,.37-2.72c0-1.1-.08-2.19-.16-3.28-.32-4.09-1.21-8.24-3.9-11.48a17.37,17.37,0,0,0-8.22-5.09c-3.74-1.25-7.46-2-11.33-.83A.75.75,0,0,0,231.29,206.73Z"/>
<path d="M220.41,224.12a40.55,40.55,0,0,0,2.81,6.32,1.57,1.57,0,0,0,.43.58.61.61,0,0,0,.69.07"/>
<path class="cls-2" d="M219.68,224.32a43.42,43.42,0,0,0,1.87,4.52c.34.7.68,1.4,1.07,2.07a1.56,1.56,0,0,0,2.1.83.77.77,0,0,0,.27-1,.78.78,0,0,0-1-.27c.18-.09.16.09.07-.09a2.19,2.19,0,0,0-.17-.29c-.15-.26-.29-.53-.43-.8-.3-.58-.59-1.17-.86-1.76-.54-1.17-1-2.37-1.44-3.58a.75.75,0,0,0-1.45.4Z"/>
<path d="M248.4,232.68a2.5,2.5,0,0,0,1.72-.13,5.52,5.52,0,0,0,3.41-4.48"/>
<path class="cls-2" d="M248.2,233.41c1.5.49,3.21-.48,4.25-1.51a6.37,6.37,0,0,0,1.83-3.83.75.75,0,0,0-.75-.75.78.78,0,0,0-.75.75c0,.24,0-.14,0,.1,0,.07,0,.14,0,.22s-.06.26-.1.4-.09.26-.13.39-.09.21,0,.09a2,2,0,0,1-.1.21,4.42,4.42,0,0,1-.92,1.3,2.76,2.76,0,0,1-.3.29l-.17.14s0,0,0,0l-.06,0a5.12,5.12,0,0,1-.77.47l-.17.08s0,0,0,0l-.11,0a3.68,3.68,0,0,1-.47.15,1.4,1.4,0,0,1-.81,0,.76.76,0,0,0-.92.52.78.78,0,0,0,.52.93Z"/>
<path class="cls-1" d="M30.84,150a87,87,0,0,1,20.42-31.15c4-3.93,9.63-9,15.32-5,2.5,1.74,4.26,4.44,6,6.91,2,2.83,3.82,5.72,5.63,8.64,7.42,12,13.83,24.56,20.4,37,3.37,6.4,7,12.73,10,19.29a51.05,51.05,0,0,1,3.42,9.5,27.8,27.8,0,0,1,.74,4.88c.1,1.75-.16,3.42-.23,5.15-.13,2.93,3.86,3.3,5.81,2.44,2.83-1.25,3.79-4.14,3.09-7a15.69,15.69,0,0,0-2.35-4.83c-1.13-1.72-2.29-3.42-3.43-5.12l-7.06-10.54c-1.07-1.6-3.67-.1-2.59,1.51,3.41,5.1,6.85,10.19,10.25,15.3,1.13,1.71,3.27,4.6,2.21,6.78-.44.93-2.44,2.19-3.17.94l.16,1.16c1.77-11.55-4.32-22.08-9.51-31.92-5.61-10.62-11.12-21.31-16.92-31.84-2.79-5.07-5.67-10.08-8.73-15-2.84-4.54-5.67-9.4-9.33-13.33-3.38-3.64-8-5.52-12.83-3.63s-8.5,5.92-11.89,9.57A90.71,90.71,0,0,0,28,149.22c-.69,1.81,2.21,2.59,2.89.8Z"/>
<path class="cls-1" d="M190.71,169.79a95.06,95.06,0,0,0,29.66,14.11c13,3.74,27.65,6.09,40.9,2.29a33.61,33.61,0,0,0,20.43-16c.94-1.69-1.65-3.2-2.59-1.51A30.35,30.35,0,0,1,262,182.82c-6.59,2.19-13.64,2.53-20.52,2a106.84,106.84,0,0,1-31.22-7.52l-.81-.33c-.25-.1-.7-.3-.26-.1q-2.59-1.12-5.11-2.41a89.88,89.88,0,0,1-11.89-7.28c-1.57-1.13-3.06,1.47-1.51,2.59Z"/>
<path class="cls-1" d="M222.82,321.33l.86-7.41-1.1,1.44A107.06,107.06,0,0,1,244,313.22q5.33,0,10.62.53a22.55,22.55,0,0,0,2.59.29l.35.08c-.17-.23-.2-.19-.11.12a9,9,0,0,1,0,1l-.06,5.38a1.5,1.5,0,0,0,3,0c0-2,.09-4.05.07-6.08,0-1.6-.6-3-2.27-3.39a33.29,33.29,0,0,0-5.73-.64c-2.09-.16-4.18-.27-6.27-.31a111.11,111.11,0,0,0-24.41,2.23,1.53,1.53,0,0,0-1.1,1.45l-.86,7.41c-.22,1.91,2.78,1.89,3,0Z"/>
<path class="cls-1" d="M214.88,273.73a108.49,108.49,0,0,0,6.63,23.35,24.44,24.44,0,0,0,6,8.91,23.35,23.35,0,0,0,8.21,4.59c6.08,2,13.1,2,18.67-1.44,5.4-3.35,8.48-9.21,10.49-15.05,2.51-7.28,3.6-15,5-22.51.36-1.89-2.53-2.7-2.89-.8-1.18,6.25-2.15,12.55-3.85,18.69-1.48,5.36-3.54,11-7.6,15-4.48,4.4-10.87,5.28-16.8,3.88a22,22,0,0,1-7.94-3.49,19.48,19.48,0,0,1-6-7.64,75.41,75.41,0,0,1-4.15-11.71,127.79,127.79,0,0,1-2.9-12.53c-.34-1.9-3.23-1.1-2.89.79Z"/>
<path class="cls-1" d="M217,274.64c3.26-2.77,6.6-5.64,10.77-6.9s8.79-1.33,13.13-1.21a70.11,70.11,0,0,1,26.24,6l-.54-2c-4.07,5.68-12.14,5.6-18.39,6.41-3.85.49-7.69,1.06-11.55,1.45a32.91,32.91,0,0,1-9.35-.08,15.63,15.63,0,0,1-9.18-5.16c-1.27-1.46-3.39.67-2.12,2.12,4.87,5.57,12,6.8,19,6.27,4.15-.32,8.29-1,12.42-1.51,3.93-.51,8-.8,11.84-1.7a16.15,16.15,0,0,0,9.87-6.29,1.49,1.49,0,0,0-.54-2.05,74,74,0,0,0-28.2-6.42c-4.59-.09-9.5,0-13.9,1.47s-8.12,4.52-11.67,7.54c-1.48,1.25.65,3.36,2.12,2.12Z"/>
<path class="cls-1" d="M265.93,275.1a13.73,13.73,0,0,0,4.23.44,12.82,12.82,0,0,0,2.14-.3,7.47,7.47,0,0,1,1.61-.41l-.75-.21c-.3-.5-.4-.5-.32,0v1.74c0,.77,0,1.55,0,2.32q0,2.42-.18,4.83c-.18,3.2-.48,6.4-.88,9.59l2.56-1.06-6.17-5.86c-1.4-1.33-3.52.79-2.12,2.12l6.17,5.86a1.52,1.52,0,0,0,2.56-1.06,137.59,137.59,0,0,0,1.08-15.58c0-1.88.66-6-2.33-5.7-1.08.09-2.08.6-3.17.69a10.71,10.71,0,0,1-3.61-.33,1.51,1.51,0,0,0-.8,2.9Z"/></g></g></svg>
