<svg xmlns="http://www.w3.org/2000/svg" viewBox="0 0 291.04 407.32"><defs><style>.cls-1{fill:#fcfcfc;}</style></defs><title>pot</title><g id="Layer_2" data-name="Layer 2"><g id="Layer_1-2" data-name="Layer 1"><path class="cls-1" d="M51,206.32q-9.74,29-19.63,57.89T11.41,322Q5.75,338.17.06,354.34a1.47,1.47,0,0,0,.39,1.46l38.3,31.64,9.58,7.92,4.59,3.79,2.3,1.9a9.78,9.78,0,0,0,2.58,2,11.72,11.72,0,0,0,2.72.24l2.8.23,6.1.46q5.92.44,11.85.81,24.14,1.55,48.34,2.17,6.15.15,12.31.25l2.93.05a20.33,20.33,0,0,0,2.92,0,5.56,5.56,0,0,0,2.36-1.4l2.8-2.08,20-14.89,44.8-33.34a1.56,1.56,0,0,0,.69-1.69q-7.51-30.51-16.15-60.74-8.7-30.5-18.55-60.67Q178.43,216.2,172.79,200c-.63-1.81-3.53-1-2.9.8q10.11,29,19.16,58.32,9.45,30.63,17.75,61.58,4.55,16.92,8.73,33.94l.69-1.7L160.41,394.5l-7,5.21-3.2,2.38c-1,.73-2.19,2.08-3.41,2.16-2.82.19-5.74-.08-8.56-.13l-8.63-.19q-17.1-.45-34.17-1.35-18.64-1-37.24-2.5l1.06.43-44-36.39L2.57,353.67,3,355.13q10.17-28.81,20.15-57.7T42.91,239.6q5.52-16.23,11-32.49c.62-1.83-2.28-2.62-2.89-.79Z"/><path class="cls-1" d="M60.58,177.63q10.23,6.47,19.84,13.82,2.27,1.76,4.51,3.55a10,10,0,0,0,2,1.56,8.86,8.86,0,0,0,3.13.09q6.06-.09,12.1-.05,12.21.09,24.39.68c2,.1,4,.21,6,.33a8.6,8.6,0,0,0,2.68,0c1-.24,1.89-.61,2.82-.92q5.69-1.89,11.32-3.91,12.78-4.6,25.29-9.91a1.53,1.53,0,0,0,.54-2.06,1.55,1.55,0,0,0-2.06-.53Q157.36,187,141,192.54c-1.24.43-2.48.84-3.73,1.26l-1.95.64a6.3,6.3,0,0,1-2.52.19c-2.8-.17-5.59-.32-8.39-.45q-8.7-.39-17.41-.52-9.75-.15-19.51,0l1.06.44A269.83,269.83,0,0,0,62.1,175c-1.64-1-3.15,1.56-1.52,2.59Z"/><path class="cls-1" d="M55.87,196.49a161,161,0,0,1,20.36,12.8c3,2.23,5.89,4.61,8.78,7a3.07,3.07,0,0,0,2.38.55l3.29,0c2.07,0,4.13,0,6.2,0q12.84,0,25.66.54c2.06.09,4.13.18,6.19.29a49.42,49.42,0,0,0,6.07.35,11.68,11.68,0,0,0,2.56-.74l3.07-1c1.94-.64,3.88-1.3,5.8-2q13.4-4.69,26.39-10.39c1.77-.77.24-3.36-1.51-2.59q-15.66,6.84-31.91,12.22-1.86.62-3.72,1.2a12.31,12.31,0,0,1-4.41.07c-2.76-.16-5.52-.29-8.29-.41q-8.69-.37-17.39-.49-9.58-.13-19.16,0l1.06.44a163.24,163.24,0,0,0-29.91-20.4c-1.7-.91-3.22,1.68-1.51,2.59Z"/><path class="cls-1" d="M53.75,207.47a117.77,117.77,0,0,0,8.61-30.9,1.56,1.56,0,0,0-1-1.85,1.51,1.51,0,0,0-1.84,1.05A115.48,115.48,0,0,1,51.16,206c-.76,1.75,1.83,3.28,2.59,1.51Z"/><path class="cls-1" d="M172.84,200.49a105.27,105.27,0,0,0,2.83-17.73c.15-1.92-2.85-1.92-3,0A100.89,100.89,0,0,1,170,199.69c-.46,1.88,2.43,2.68,2.89.8Z"/><path class="cls-1" d="M50.09,59.08c-3.82.67-7.33,2.31-10.94,3.68A43.82,43.82,0,0,1,27.52,65.4a76.31,76.31,0,0,1-12,0c-2.18-.15-4.8-.25-6.63-1.62s-2.72-4-3.52-6.11l-.69,1.7c5.05-2.22,10.44-3.5,15.57-5.47s10.19-4.25,15.13-6.68c1.73-.86.21-3.44-1.51-2.59A161.23,161.23,0,0,1,18.62,51.3c-5.13,1.89-10.44,3.25-15.45,5.46a1.5,1.5,0,0,0-.69,1.69c.92,2.39,1.85,5,3.66,6.87a10.35,10.35,0,0,0,6.22,2.74,68,68,0,0,0,11.93.53,49.42,49.42,0,0,0,12.9-2c4.62-1.41,8.91-3.78,13.7-4.63,1.89-.33,1.09-3.22-.8-2.89Z"/><path class="cls-1" d="M33.87,48.24A343.28,343.28,0,0,0,64,68.86c2.55,1.56,5.13,3.07,7.72,4.56a16.58,16.58,0,0,0,1.74,1,5.72,5.72,0,0,0,2.26.22l5,0,19,.11,38.4.24,19.45.12,4.49,0a8.12,8.12,0,0,0,2.36-.21c.8-.22,1.58-.52,2.36-.79l9-3,41-13.75c1.82-.61,1-3.51-.8-2.89l-35.85,12-9,3L166.62,71A14.16,14.16,0,0,1,162,72.16L143,72l-37.9-.23-19-.12-9.48-.06a8.35,8.35,0,0,1-2.12,0,8.65,8.65,0,0,1-1.75-1c-1.25-.72-2.49-1.45-3.73-2.18A344.17,344.17,0,0,1,35.38,45.65c-1.53-1.17-3,1.44-1.51,2.59Z"/><path class="cls-1" d="M36,46.38l.48.82L36.6,47a3,3,0,0,0,.45-.27c-.06,0-.24.1-.08,0l.34-.11,1.16-.34c1.34-.37,2.68-.72,4-1.07C47,44.13,51.41,43,55.87,41.92q17.9-4.44,35.83-8.75L108.88,29c1.88-.45,1.08-3.34-.8-2.89q-17.81,4.29-35.6,8.63C61.76,37.37,51,40,40.35,42.74c-1.27.34-2.56.65-3.81,1A5.25,5.25,0,0,0,34.43,45c-1.5,1.45-.94,4.62,1.53,4.41,1.91-.17,1.92-3.17,0-3Z"/><path class="cls-1" d="M175.45,182.56c5.13-11.88,10-23.89,14.4-36.05.56-1.53,1.09-3.07,1.62-4.62,1.64-4.78,3.22-9.59,4.78-14.4q4.19-13,8.16-26,6-19.62,11.72-39.32l1.71-5.88a1.53,1.53,0,0,0-1.05-1.84L155.22,34l-17.53-5.8c-1.84-.61-2.62,2.29-.8,2.89L198.47,51.5,216,57.3l-1.05-1.84Q209,76,202.82,96.37q-4.2,13.8-8.58,27.55-2.53,7.94-5.21,15.85c-.66,1.95-1.32,3.89-2,5.83-3.92,10.79-8.18,21.46-12.67,32l-1.47,3.43c-.76,1.75,1.83,3.28,2.59,1.51Z"/><path class="cls-1" d="M110.48,29.38A85.32,85.32,0,0,1,99.18,1.1L97.74,3c8.54.1,17.08.4,25.62.79q6.35.3,12.68.65l6.46.37,3,.17a18.52,18.52,0,0,0,3.06.16l-1.29-2.26,0,.11a1.54,1.54,0,0,0,.23,1.81,4.27,4.27,0,0,0,2.31.84l2.87.64L152,3.77a53.25,53.25,0,0,0-15.22,23.07c-.61,1.83,2.29,2.62,2.89.8A50.23,50.23,0,0,1,154.08,5.9a1.51,1.51,0,0,0-.66-2.51l-2.21-.5-.89-.19c-.11,0-1.13-.41-.76,0l.24,1.82,0-.1c.44-.89-.07-2.42-1.3-2.26A18.47,18.47,0,0,1,145.49,2l-3-.17L136,1.44Q129.7,1.1,123.36.79C114.82.4,106.28.1,97.74,0a1.52,1.52,0,0,0-1.45,1.9,87.64,87.64,0,0,0,11.6,29c1,1.64,3.62.13,2.59-1.51Z"/><path class="cls-1" d="M3.19,60.06,16,85.59C20.2,93.85,24.49,102,27.43,110.8a48.18,48.18,0,0,0,2.3,5.91,33.37,33.37,0,0,0,3.56,5.4,47.07,47.07,0,0,1,6.22,10.64c3.05,7.38,4.9,15.26,9.09,22.14s10.9,13.5,11.83,22c.2,1.9,3.21,1.92,3,0-.85-7.77-5.72-13.84-10-20.07a54.49,54.49,0,0,1-5.66-10.25c-1.56-3.84-2.79-7.8-4.23-11.68a53,53,0,0,0-5.3-11c-2.42-3.64-5.32-6.76-6.89-10.91s-2.94-8.51-4.78-12.65-4.05-8.48-6.16-12.67l-14.63-29c-.87-1.73-3.46-.21-2.59,1.51Z"/><path class="cls-1" d="M49,60.78q3.16,39.82,4.83,79.76.47,11.16.81,22.32c.07,1.93,3.07,1.94,3,0q-1.24-39.93-4-79.81Q52.93,71.91,52,60.78c-.15-1.92-3.15-1.93-3,0Z"/><path class="cls-1" d="M164.74,90.25q-12.13,24.48-23.61,49.28-3.25,7-6.44,14c-.79,1.74,1.8,3.27,2.6,1.51q11.28-24.89,23.23-49.46,3.38-6.95,6.81-13.86c.85-1.72-1.73-3.25-2.59-1.51Z"/><path class="cls-1" d="M77.25,92.41a216.15,216.15,0,0,0,12.09,49.22q2.5,6.68,5.45,13.17c.79,1.76,3.38.23,2.59-1.52a212.43,212.43,0,0,1-14.89-46.89q-1.35-6.94-2.24-14c-.23-1.89-3.23-1.91-3,0Z"/><path class="cls-1" d="M47.58,356.9a395.76,395.76,0,0,0,17.69-43.85Q68.93,302.12,72,291c1.94-7.12,3.74-14.28,6-21.3a98.77,98.77,0,0,1,10-22.45c1-1.64-1.56-3.15-2.59-1.52C77.49,258.22,73.76,272.65,70,286.77A411.36,411.36,0,0,1,55.57,331Q50.71,343.35,45,355.39c-.82,1.73,1.77,3.26,2.59,1.51Z"/><path class="cls-1" d="M136.23,247.27l15.27,77L155.82,346c.37,1.9,3.27,1.1,2.89-.79l-15.27-77-4.32-21.76c-.37-1.89-3.27-1.09-2.89.8Z"/><path class="cls-1" d="M215.63,57.15Q240.89,75,266.19,92.87,273.42,98,280.7,103c1.32.91,2.64,1.81,4,2.7s3.25,1.8,3.36,3.84a11.82,11.82,0,0,1-.62,3.63c-.41,1.53-.83,3-1.26,4.57-.83,2.88-1.69,5.75-2.6,8.61-1.81,5.71-3.79,11.37-5.88,17-4.18,11.21-8.83,22.23-13.68,33.16-10.05,22.66-20.56,45.12-30.88,67.65l-7.91,17.26-1.88,4.09c-.5,1.1-.79,2.56-2.24,2-.62-.22-1.23-.53-1.84-.79q-10.75-4.62-21.52-9.2L189.5,254c-1.76-.75-3.29,1.83-1.52,2.59q13.46,5.78,26.93,11.52c1.88.8,4,2,6,2.47,3.21.69,4.36-2.09,5.46-4.49l3.95-8.63C241,234,251.87,210.59,262.51,187.09c10.15-22.4,19.87-45.11,26.6-68.8.77-2.69,1.87-5.56,1.93-8.37a6.67,6.67,0,0,0-3.28-5.84c-.87-.56-1.74-1.1-2.59-1.68C281.07,99.65,277,96.81,273,94q-24.18-16.92-48.24-34l-7.59-5.38c-1.58-1.12-3.08,1.48-1.52,2.59Z"/><path class="cls-1" d="M210.92,73.39Q230.41,87.72,250,102c3.52,2.55,7,5.1,10.6,7.59.84.58,1.67,1.18,2.54,1.72a4.13,4.13,0,0,1,1.56,1.37c1,1.75-.36,4.66-.85,6.42-5.19,18.62-12.63,36.52-20.53,54.13-8.13,18.13-16.51,36.15-24.79,54.21l-6.31,13.78c-.49,1-.95,2.12-1.45,3.16-.36.73-.5,1.1-1.34.79-.57-.21-1.12-.49-1.68-.73l-17.95-7.67-6.54-2.8c-1.76-.76-3.29,1.83-1.52,2.59L203.77,246c1.59.68,3.17,1.47,4.8,2.06a3.57,3.57,0,0,0,4.68-2c1.15-2.36,2.19-4.77,3.29-7.16q13-28.29,25.91-56.57c8.28-18.17,16.34-36.51,22.26-55.6q1.08-3.51,2.07-7.05c.6-2.17,1.49-4.54,1.09-6.82s-2-3.31-3.72-4.44c-2.83-1.87-5.57-3.89-8.33-5.87-12.5-9-24.9-18.12-37.31-27.23l-6.08-4.47c-1.55-1.15-3.05,1.46-1.51,2.59Z"/></g></g></svg>