<svg xmlns="http://www.w3.org/2000/svg" viewBox="0 0 1100 800">
  <path stroke="#ffffff" stroke-width="3" fill="none"  d="M18.75,84.76c.1-3.58,4.43-6.16,7.27-7.49a33.47,33.47,0,0,1,7.75-2.46c7.87-1.55,16.08-1.29,24-1.09a196.47,196.47,0,0,0,25.9-1.14,233.56,233.56,0,0,1,27.59-1.73c3.29,0,6.77.26,9.8,1.64a7.55,7.55,0,0,1,4.23,9.43c-1,3.4-3.78,6.12-6.5,8.28a28.16,28.16,0,0,1-6.34,3.86c-6.86,3-14.68,3.68-22,4.4-5.61.54-11.24,1-16.86,1.43s-11.13,1.16-16.7,1a27.58,27.58,0,0,1-7.51-1c-2.16-.67-4.28-1.48-6.44-2.16-4.4-1.38-8.92-2.4-13.25-4a28.43,28.43,0,0,1-5.43-2.65A15,15,0,0,1,19.5,87a4.18,4.18,0,0,1-.75-2.21.75.75,0,0,0-1.5,0c0,2.7,2.27,4.79,4.26,6.29,3.7,2.8,7.91,4.34,12.32,5.59C38,97.82,42.1,99,46.17,100.39A34.64,34.64,0,0,0,51,101.84a54.19,54.19,0,0,0,14.11.26c6.13-.47,12.26-1,18.39-1.53,8.86-.74,18.12-1.24,26.63-4a29.54,29.54,0,0,0,14.45-10c2.31-3.1,3.59-7.12,2-10.85-1.46-3.47-5.12-5.1-8.61-5.8a54.14,54.14,0,0,0-11.52-.57c-5.11.09-10.2.43-15.28.92-9.19.89-18.32,2.07-27.57,2-9.79,0-19.51-.64-29.25.87C29.07,74,23,76,19.42,80.1a7.46,7.46,0,0,0-2.17,4.66A.75.75,0,0,0,18.75,84.76Z"/>
  <path class="cls-1" d="M17.36,85.39c6,20.2,10.75,40.86,13,61.84A207,207,0,0,1,30.52,193a151,151,0,0,1-3.1,17.66c-1.22,5.09-2.85,10-4.44,15a96.07,96.07,0,0,0-4.69,25c-.45,10.15.86,20.84,5.24,30.1,7.91,16.72,24.79,28,42.87,30.7a72.28,72.28,0,0,0,30.8-2.33c9.57-2.8,19.34-7.27,26.59-14.26,7.41-7.15,10.58-16.88,12-26.86a246.13,246.13,0,0,0,1.85-33.46c0-22.21-2.87-44.4-9.71-65.58-1.45-4.48-3.43-8.81-4.74-13.33-1.41-4.87-1.23-10.15-.81-15.15.65-7.66,2.59-15.13,4-22.67a120.88,120.88,0,0,0,2-28.42,129.68,129.68,0,0,0-1.39-13.34c-.14-1-1.59-.54-1.44.4a121.24,121.24,0,0,1,1.05,29.48c-.73,8-2.56,15.77-4.08,23.63a79.25,79.25,0,0,0-1.75,20.48,37.19,37.19,0,0,0,2.7,10.78,194.36,194.36,0,0,1,12,54,276.16,276.16,0,0,1,.39,34.88c-.51,10.43-.88,21.4-4.62,31.27a34.71,34.71,0,0,1-8.23,12.67,50.37,50.37,0,0,1-12.26,8.53,76.19,76.19,0,0,1-30.24,8.38,61.51,61.51,0,0,1-29.5-5.26A55.43,55.43,0,0,1,30,288.57c-11.9-15.84-12.19-37.35-7.48-55.88,1.4-5.5,3.42-10.8,4.95-16.26A144.37,144.37,0,0,0,31,200.13,190.8,190.8,0,0,0,32.77,158a307.11,307.11,0,0,0-9.45-56.71Q21.22,93.07,18.8,85a.75.75,0,0,0-1.44.4Z"/>
  <path class="cls-1" d="M120.93,138.92c-1.09-7.4,3.4-14.42,9.16-18.68a32.14,32.14,0,0,1,21.64-5.78A32.65,32.65,0,0,1,181,142.83c1.94,16.26-8.36,30.84-17.5,43.23-5.34,7.24-10.78,14.41-16,21.73-4.59,6.42-8.91,13.18-11.48,20.69-4,11.75-2.73,27,7.74,35.09a21,21,0,0,0,3.81,2.35c.86.42,1.63-.87.76-1.29-6-2.9-10-8.56-11.77-14.88a34.77,34.77,0,0,1,.91-20.87c2.69-7.86,7.37-14.87,12.21-21.56,5.4-7.45,11-14.78,16.39-22.22,9.16-12.55,18.85-27.45,16.24-43.77a34,34,0,0,0-51.06-23.65c-5.85,3.6-10.8,9.6-11.78,16.56a17.94,17.94,0,0,0,0,5.07c.14,1,1.58.55,1.45-.39Z"/>
  <path class="cls-1" d="M118.75,137.91c-.22,4.48.37,11.73,5.63,13.21,3,.83,5.82-.81,7.62-3.1,2.4-3,2.84-7,4.61-10.35,2.77-5.23,8.86-8,14.65-7.69,6.5.39,11.34,5.16,13.23,11.2,2.16,6.91.73,14.14-2.2,20.59-3.38,7.44-8.24,14.16-12.31,21.23a196.53,196.53,0,0,0-11.47,22.55c-3,7.2-5.08,15-4.44,22.81a31.32,31.32,0,0,0,2.55,10.26,29.81,29.81,0,0,0,5.57,8c4.05,4.36,9.61,8.42,11.56,14.27a12,12,0,0,1,.59,4.33l.56-.73a7.94,7.94,0,0,1-7.5-.66c-.81-.53-1.56.77-.75,1.3a9.36,9.36,0,0,0,8.64.81.77.77,0,0,0,.55-.72c.24-6.07-3.8-10.76-7.81-14.82-2.2-2.22-4.48-4.36-6.48-6.77a25.83,25.83,0,0,1-5-9.66c-2.12-7.75-.95-15.88,1.61-23.37,2.73-8,6.8-15.58,10.88-23,4-7.2,8.67-14,12.58-21.25,3.39-6.27,6-13.2,5.31-20.43-.53-6-3.21-12.14-8.54-15.38-4.73-2.87-10.8-2.76-15.74-.49a16.11,16.11,0,0,0-6.27,5.06c-2.24,3.06-2.73,6.91-4.47,10.22-1.49,2.81-4.9,5.77-8.18,3.81-2.35-1.41-3.1-4.62-3.38-7.14a25.39,25.39,0,0,1-.11-4.18c0-1-1.45-1-1.5,0Z"/>
  <path class="cls-1" d="M121.31,136.59l3.24,8.68a.77.77,0,0,0,.93.52.76.76,0,0,0,.52-.92l-3.25-8.68a.75.75,0,1,0-1.44.4Z"/>
  <path class="cls-1" d="M126.42,132.44l.86,7.46a.78.78,0,0,0,.75.75.75.75,0,0,0,.75-.75l-.09-2.82c0-1-1.53-1-1.5,0l.09,2.82h1.5l-.86-7.46a.77.77,0,0,0-.75-.75.75.75,0,0,0-.75.75Z"/>
  <path class="cls-1" d="M128,126.43a98.76,98.76,0,0,0,1.89,14.73c.18.88,1.41.59,1.47-.2a85.92,85.92,0,0,1,3-16.23l-1.47-.2.47,9.71c0,.67,1.07,1.11,1.4.38l1.71-3.86c.39-.87-.91-1.64-1.3-.75l-1.71,3.85,1.4.38-.47-9.71a.75.75,0,0,0-1.47-.2A87,87,0,0,0,129.88,141l1.48-.2a94.74,94.74,0,0,1-1.84-14.33c-.05-1-1.55-1-1.5,0Z"/>
  <path class="cls-1" d="M139.35,122.46l-.83,7.4a.76.76,0,0,0,.37.65c1.16.8,2.5-1,1.56-1.94-.67-.7-1.73.36-1.06,1.06l-.08-.16c0-.22,0-.28,0-.18s0,0,0-.06-.06,0,0,0,.46.06.33,0l.37.65.83-7.4a.75.75,0,0,0-1.5,0Z"/>
  <path class="cls-1" d="M146.55,120.25a17.33,17.33,0,0,1-2.61,6.29l1.37.57a1.82,1.82,0,0,1,1-1.35c.85-.44.1-1.74-.76-1.29a3.19,3.19,0,0,0-1.67,2.24.75.75,0,0,0,1.37.58,18.61,18.61,0,0,0,2.77-6.64.77.77,0,0,0-.53-.92.76.76,0,0,0-.92.52Z"/>
  <path class="cls-1" d="M146.72,121a5.61,5.61,0,0,1,1.86,5.05.76.76,0,0,0,1.1.85l2.56-1.17a.75.75,0,0,0,.27-1,.76.76,0,0,0-1-.27l-2.57,1.16,1.1.85a7.09,7.09,0,0,0-2.24-6.51.75.75,0,0,0-1.06,1.06Z"/>
  <path class="cls-1" d="M156.63,122.3l-2.08,5.29a.75.75,0,0,0,.52.92A.78.78,0,0,0,156,128l2.08-5.3a.77.77,0,0,0-.53-.92.78.78,0,0,0-.92.53Z"/>
  <path class="cls-1" d="M154.91,127.75a22.09,22.09,0,0,1,10.22,4.58l.73-1.25-3.21-1.25c-.79-.3-1.14.75-.73,1.26a82,82,0,0,1,8.32,12.85l1.3-.75-1.73-3.14c-.47-.85-1.76-.09-1.29.76l1.72,3.13c.47.85,1.74.1,1.3-.75A82.7,82.7,0,0,0,163,130l-.73,1.25,3.21,1.25a.76.76,0,0,0,.73-1.26,23.66,23.66,0,0,0-10.88-5c-.94-.16-1.35,1.29-.4,1.45Z"/>
  <path class="cls-1" d="M167.78,138.41l0,16.32,1.48-.2a14.67,14.67,0,0,1-.74-5.81l-1.47.2a36.53,36.53,0,0,1,.88,16.4l1.47.2-.15-2.49c-.05-1-1.56-1-1.5,0l.15,2.49c0,.8,1.32,1.08,1.47.2a38.18,38.18,0,0,0-.87-17.2.76.76,0,0,0-1.48.2,15.76,15.76,0,0,0,.79,6.21.75.75,0,0,0,1.47-.2l0-16.32a.75.75,0,0,0-1.5,0Z"/>
  <path class="cls-1" d="M167.92,162.2q-2.67,9-6.19,17.67h1.44a11.7,11.7,0,0,1,.3-8.38c.32-.78-1-1.36-1.37-.58l-5.57,12.85,1.39.38.15-3c.05-.89-1.2-1-1.47-.2l-5.44,15.23,1.47.2.2-3.22c0-.87-1.23-1-1.47-.2a80.85,80.85,0,0,1-5.44,13.16l1.4.38a16.21,16.21,0,0,1,1.19-6.35l-1.44-.4-1.78,5.58-.89,2.79-.37,1.16-.22.7a.47.47,0,0,0,.09.78c.2-.8-1-1.37-1.38-.58a49.33,49.33,0,0,0-4.25,13.13c-.16.94,1.28,1.35,1.44.4A47.78,47.78,0,0,1,143.82,211l-1.37-.58a1.25,1.25,0,0,0,1.17,1.59c1,0,1.44-1,1.71-1.81,1.09-3.32,2.12-6.66,3.18-10,.3-.94-1.09-1.28-1.44-.4a17.32,17.32,0,0,0-1.25,6.75.75.75,0,0,0,1.39.38,82.61,82.61,0,0,0,5.59-13.52l-1.47-.2-.2,3.22c-.06.89,1.2,1,1.47.2l5.45-15.23-1.48-.2-.15,3c0,.71,1.1,1.07,1.4.38l5.57-12.85-1.37-.58a12.91,12.91,0,0,0-.29,9.18.75.75,0,0,0,1.44,0q3.53-8.69,6.2-17.67a.75.75,0,0,0-1.45-.4Z"/>
  <path class="cls-1" d="M140.43,247.75a43.8,43.8,0,0,0,2.93,10c.33.77,1.69.21,1.37-.58l-2.55-6.42c-.28-.71-1.56-.72-1.47.2a30.22,30.22,0,0,0,1.53,7.09c.32.9,1.73.54,1.45-.4a37.76,37.76,0,0,0-4.37-9.48.75.75,0,0,0-1.3.76l1.74,4.06c.29.67,1.5.35,1.4-.38a59.77,59.77,0,0,0-2.49-11,.75.75,0,0,0-1.47.2,10.2,10.2,0,0,0,.39,4.36l1.25-.73a12.35,12.35,0,0,1-3.37-5.23l-1.45.4a129.45,129.45,0,0,0,6,12.86.76.76,0,0,0,1.37-.18,9.64,9.64,0,0,1,1.32-3.56l-1.37-.18a38.24,38.24,0,0,0,4.39,9.41.75.75,0,0,0,1.39-.38l.15-3.64-1.39.38,1.87,4.34c.36.83,1.52.2,1.37-.57,0-.18.52-.2.56-.2.27.05.5.44.62.64.28.45.44,1,.68,1.43A3.05,3.05,0,0,0,153,262.8c.94.19,1.34-1.25.4-1.45s-1.25-1.36-1.64-2.15a3,3,0,0,0-1.61-1.66,1.85,1.85,0,0,0-2.51,2l1.37-.57-1.88-4.35c-.31-.73-1.37-.29-1.4.38l-.15,3.64,1.4-.38a36.45,36.45,0,0,1-4.23-9.05.76.76,0,0,0-1.37-.18,10.86,10.86,0,0,0-1.48,3.92l1.37-.18a125.58,125.58,0,0,1-5.84-12.5c-.35-.87-1.76-.54-1.45.4a13.87,13.87,0,0,0,3.76,5.89.76.76,0,0,0,1.26-.73,9.15,9.15,0,0,1-.34-4l-1.47.2a58,58,0,0,1,2.43,10.56l1.4-.37-1.74-4.07-1.3.76a35.82,35.82,0,0,1,4.22,9.12l1.45-.4a28.39,28.39,0,0,1-1.48-6.69l-1.47.2,2.55,6.42,1.37-.58a42.23,42.23,0,0,1-2.79-9.66c-.15-.95-1.6-.55-1.44.4Z"/>
  <path class="cls-1" d="M175.86,144.4a44.09,44.09,0,0,1-6.69,22.22c-.51.82.78,1.57,1.3.75a45.56,45.56,0,0,0,6.89-23,.75.75,0,0,0-1.5,0Z"/>
  <path class="cls-1" d="M171.78,144.4a47.58,47.58,0,0,1-8.94,32.1l1.29.75c5.54-12.45,11.21-27.93,3.08-40.59A25.88,25.88,0,0,0,153.69,126a22.33,22.33,0,0,0-28.44,15.89l1.37-.18c-2.46-5.58,2.58-11.5,6.44-15a26.51,26.51,0,0,1,15.42-7,19.81,19.81,0,0,1,15,5c4.48,4.24,6.66,10.81,8.4,16.57a79,79,0,0,1,3.33,21.81.75.75,0,0,0,1.5,0,80.6,80.6,0,0,0-3.19-21.54c-1.81-6.21-4.16-13.34-9-17.9a21.32,21.32,0,0,0-16.06-5.41,28,28,0,0,0-16.18,7.21c-4.6,4-9.81,10.63-7,17.07a.76.76,0,0,0,1.37-.18c2.34-11,14.31-18,25.06-15.29a24.05,24.05,0,0,1,13.35,9.19,26.37,26.37,0,0,1,4.59,17.55c-.57,7.94-3.66,15.52-6.86,22.72a.75.75,0,0,0,1.29.75,48.8,48.8,0,0,0,9.15-32.85c-.08-1-1.58-1-1.5,0Z"/>
  <path class="cls-1" d="M167.5,170a109.66,109.66,0,0,0-22.08,42.72l1.25-.33a2.2,2.2,0,0,1-.61-2.47c.32-.91-1.13-1.31-1.44-.4a3.63,3.63,0,0,0,1,3.93.76.76,0,0,0,1.25-.33A108.12,108.12,0,0,1,168.56,171c.62-.73-.43-1.8-1.06-1.06Z"/>
  <path class="cls-1" d="M145.93,205.9l-3.21,5.27,1.4.38c.68-13.35,7.84-25.11,14.49-36.31l11.2-18.88c3.12-5.27,7-11,6.68-17.42s-4.87-11.21-9.92-14.51c-.61-.4-1.46.41-1,1a45.32,45.32,0,0,1-5.86,59.33c-.71.66.36,1.72,1.06,1.06a46.79,46.79,0,0,0,6.09-61.15l-1,1c4.71,3.07,9.11,7.68,9.19,13.64.08,6.57-4.31,12.53-7.52,17.95l-10.69,18a172,172,0,0,0-9,16.45,54.91,54.91,0,0,0-5.23,19.76.75.75,0,0,0,1.39.38l3.21-5.27a.75.75,0,0,0-1.29-.76Z"/>
  <path class="cls-1" d="M127.25,145.17a68.6,68.6,0,0,1,14.37-17c2.85-2.43,6.31-5.49,10.21-5.82,3.22-.27,5.48,1.88,7.5,4.09s4,4.56,7,5.35c.79.22,1.37-1,.57-1.37l-12.31-5.72c-3.62-1.68-7.33-3.38-11.3-4A20.44,20.44,0,0,0,125.54,127a19.71,19.71,0,0,0-5.08,9.43.76.76,0,0,0,1.26.73c7.58-7.17,13.07-18.59,24.64-19.68a24,24,0,0,1,15,3.85,28.32,28.32,0,0,1,10.58,12.88,45.1,45.1,0,0,1,3.3,19.36.76.76,0,0,0,1.48.19A27,27,0,0,0,175.46,139l-1.37.58a29.86,29.86,0,0,1,.49,22.15l1.44.4c2.11-7.17.33-14.84-3.27-21.22-3.78-6.69-9.41-12.07-14.92-17.33l-.9,1.18,10,7.28c3,2.17,6.54,4.2,9,7s2.43,6.59,2,10.1A40.91,40.91,0,0,1,175,160c-2.81,6.84-6.83,13.24-10.9,19.39a184.41,184.41,0,0,1-13.61,18C145.74,203,139.61,208.34,138,215.8l1.44.4c2.69-17,15.19-30,23.16-44.6a64.32,64.32,0,0,0,5.46-13,.75.75,0,0,0-1.45-.4c-4.72,16.5-17.41,28.94-24.46,44.31A50.3,50.3,0,0,0,138,215.8c-.15.93,1.24,1.36,1.44.4,1.53-7.12,7.4-12.24,11.95-17.54a188.37,188.37,0,0,0,13.86-18.31c4.2-6.32,8.29-12.89,11.17-19.93a42.64,42.64,0,0,0,2.95-10.66c.43-3.3.56-6.94-1.13-9.93-1.94-3.44-5.82-5.63-8.93-7.88l-11.65-8.44c-.69-.51-1.51.6-.91,1.18,9.89,9.44,22.23,22,17.81,37.08-.28.94,1.11,1.29,1.44.4a31.37,31.37,0,0,0-.64-23.31c-.33-.77-1.67-.22-1.37.58a25.46,25.46,0,0,1,1.22,13.93l1.47.2c.37-11.8-3-24.85-12.81-32.28a26.25,26.25,0,0,0-15.22-5.4,21.73,21.73,0,0,0-14.74,5.71c-5,4.33-8.5,10-13.27,14.5l1.25.73a19.25,19.25,0,0,1,11.51-13.46,17.84,17.84,0,0,1,9.36-1.2,40,40,0,0,1,10.86,3.76q6.27,2.89,12.52,5.82l.57-1.37c-5.84-1.55-7.62-9.53-14.29-9.52-3.79,0-7.09,2.43-9.93,4.67a69.2,69.2,0,0,0-8.72,8.22A70.41,70.41,0,0,0,126,144.41a.75.75,0,0,0,1.29.76Z"/>
  <path class="cls-1" d="M142.93,247.89l6.86,8.17c.62.75,1.67-.32,1.06-1.06l-7.1-8.57c-.5-.61-1.42,0-1.25.73a20.94,20.94,0,0,0,8.26,12.06c.59.42,1.47-.43,1-1l-7.29-9.66a.76.76,0,0,0-1.38.58,32.69,32.69,0,0,0,3.6,10.54l1-1a33.16,33.16,0,0,1-9.15-9.36.75.75,0,0,0-1.37.58,15.21,15.21,0,0,0,5.26,9.37c.5.42,1.57,0,1.26-.73a32.91,32.91,0,0,0-5.81-9.3c-.61-.69-1.48.19-1.18.91a39.11,39.11,0,0,0,7.81,11.74c.36.36,1.18.24,1.26-.33a3.65,3.65,0,0,0-2.65-4.13.76.76,0,0,0-.73,1.26,24.66,24.66,0,0,0,7.85,5.92.76.76,0,0,0,.91-1.18l-5.31-6.31c-.56-.67-1.55.19-1.17.91a13.07,13.07,0,0,0,4.91,5.2.76.76,0,0,0,1.1-.85,13.54,13.54,0,0,0-3.45-5.74.75.75,0,0,0-1.18.9,15.89,15.89,0,0,0,5,5.71.75.75,0,0,0,1.1-.44,13.11,13.11,0,0,0-.27-5.22l-1.26.73a6.28,6.28,0,0,1,1.69,2.64.75.75,0,0,0,1.47-.2l.39-3.85-1.28.53c1.31,1.43-.73,3.52-2.22,3.66-2.31.22-4.32-1.83-5.82-3.3l-1.06,1.07c1.52,1.31,3.91,2.67,5.82,1.27a2.77,2.77,0,0,0,.58-4.16L149.17,257a3.25,3.25,0,1,1-3.9,5.2l-.58,1.37,5.5,1.08c1.21.23,2.61.53,3.62-.41,2.2-2,.19-4.86-1.55-6.3a60.1,60.1,0,0,1-12.89-14.69.75.75,0,0,0-1.37.58,30,30,0,0,0,7.47,13.7,20.33,20.33,0,0,0,6.22,4.85,2.86,2.86,0,0,0,3-.21,2.11,2.11,0,0,0,.65-2.62c-.29-.65-1.17-.36-1.37.18-1.08,2.9-4.9,3.51-7.51,2.56-3.49-1.26-5.63-4.84-7.48-7.83l-1,1,8.75,6.11c1.43,1,2.84,2,4.29,3,1,.68,2.34,1.33,3.51.56,1.82-1.19.57-3.75-.48-5-2.21-2.65-4.7-5.11-7-7.65-.49-.53-1.53,0-1.26.73l1.77,4.56.88,2.28.37.95a12.08,12.08,0,0,0,.69,1.34c-.44-.86-1.74-.1-1.29.76a1.28,1.28,0,0,0,1.78.48c.91-.51.78-1.58.49-2.41-1-2.82-2.16-5.58-3.24-8.36l-1.25.73,5.49,6a12,12,0,0,1,2.15,2.62,2.42,2.42,0,0,1,.35,1.28c-.12.83-1.07.53-1.57.25a78.59,78.59,0,0,1-6.61-4.58l-7-4.91c-.63-.44-1.41.41-1,1,2.17,3.52,4.81,7.72,9.12,8.75,3.35.81,7.33-.4,8.61-3.84l-1.37.18c.31.69-.77.91-1.18.86a3.89,3.89,0,0,1-1.62-.76,24.16,24.16,0,0,1-2.44-1.82,27.94,27.94,0,0,1-4.19-4.37,28.41,28.41,0,0,1-5.13-10.78l-1.37.58a59.07,59.07,0,0,0,10.18,12.44c1,.88,1.94,1.72,2.94,2.55s2.14,1.77,2,3.12c-.15,1.86-2.23,1.16-3.44.93l-4.71-.93a.75.75,0,0,0-.58,1.37,4.74,4.74,0,0,0,5.72-7.55c-.74-.58-1.77.37-1.06,1.06s0,1.78-.72,2.08c-1.25.49-2.68-.55-3.56-1.32-.72-.62-1.76.38-1.06,1.07,2,2,5.13,4.75,8.24,3.41,2.22-1,3.75-3.89,1.92-5.9a.76.76,0,0,0-1.28.53l-.39,3.85,1.48-.2a8,8,0,0,0-2.08-3.3.75.75,0,0,0-1.25.73,11.16,11.16,0,0,1,.27,4.42l1.1-.45a14.41,14.41,0,0,1-4.45-5.17l-1.18.91a12,12,0,0,1,3.06,5.08l1.11-.85a11.67,11.67,0,0,1-4.38-4.65l-1.18.91,5.31,6.3.91-1.18a23.27,23.27,0,0,1-7.55-5.69l-.73,1.26a2.12,2.12,0,0,1,1.6,2.28l1.25-.33A37.76,37.76,0,0,1,138,249.33l-1.18.91a30.79,30.79,0,0,1,5.42,8.63l1.25-.73a13.87,13.87,0,0,1-4.87-8.7l-1.38.58a35.27,35.27,0,0,0,9.69,9.9c.66.44,1.37-.41,1-1a31.36,31.36,0,0,1-3.44-10.18l-1.37.58,7.3,9.66,1-1A19.35,19.35,0,0,1,144,246.76l-1.26.73,7.1,8.57,1.06-1.06L144,246.83c-.62-.74-1.68.32-1.06,1.06Z"/>
  <path class="cls-1" d="M140.09,245.17a34.08,34.08,0,0,0,8.74,10.51c.6.48,1.73-.17,1.17-.91a18.84,18.84,0,0,0-6.41-5.49.75.75,0,0,0-.76,1.3l11.51,8.55c.54.4,1.27-.26,1.1-.85a9.14,9.14,0,0,0-4.22-5.41c-.52-.3-1.35.21-1.1.85.77,1.95,2.34,3.3,3.3,5.13.52,1,1,2.52.12,3.45-.58.58-1.75.8-2.21,0l-.64,1.13c3.63.42,4.79-4.34,3.31-6.89a14,14,0,0,0-4.49-4.12,43.38,43.38,0,0,1-5.27-4.3c-6.47-6.27-10.74-15-9.58-24.14a21.47,21.47,0,0,1,6.51-13.07l-1.25-.73L136.16,226c-.23.94,1.22,1.34,1.44.4l3.76-15.79a.75.75,0,0,0-1.25-.73c-6,5.56-8.15,14.22-6.69,22.13,1.51,8.24,6.92,15.37,13.46,20.37,1.93,1.48,4.41,2.68,5.73,4.79,1,1.64.64,5.08-1.92,4.79A.76.76,0,0,0,150,263c1.16,2.08,4.28,1.38,5.17-.59,1.61-3.55-2.51-6.24-3.64-9.13l-1.1.85a7.59,7.59,0,0,1,3.53,4.51l1.1-.84-11.51-8.56-.76,1.3a17.23,17.23,0,0,1,5.88,4.95l1.18-.91a33.12,33.12,0,0,1-8.51-10.21c-.45-.85-1.75-.09-1.29.76Z"/>
  <path class="cls-1" d="M1.26,16A49.9,49.9,0,0,1,19.13,3.46a34.5,34.5,0,0,1,5.21-1.8,2.53,2.53,0,0,1,2.84.85,14.68,14.68,0,0,1,1.51,2.6,49.27,49.27,0,0,1,3.67,11.36c3.72,16.83,7.23,33.68,11.36,50.42q3.53,14.33,7.4,28.56a.75.75,0,0,0,1.44-.4Q45.32,68.37,39.24,41.37c-2-8.77-3.65-17.62-5.68-26.38a46.21,46.21,0,0,0-4-11.42C28.84,2.19,28,.6,26.36.14s-3.6.39-5.15.93A51.52,51.52,0,0,0,.2,15c-.65.72.41,1.78,1.06,1.06Z"/>
  <path class="cls-1" d="M.54,16.53c8,8.13,13.15,18.62,18.78,28.37L37.56,76.47l10.5,18.16a.75.75,0,0,0,1.29-.75L30.74,61.66c-6.07-10.5-12-21.1-18.24-31.48A79.29,79.29,0,0,0,1.6,15.47c-.68-.69-1.74.37-1.06,1.06Z"/>
  <path class="cls-1" d="M51.4,95.53q12,32.63,22.23,65.85,2.88,9.36,5.62,18.76a.75.75,0,0,0,1.45-.4Q71,146.37,59.46,113.56q-3.24-9.24-6.62-18.43c-.33-.9-1.78-.51-1.44.4Z"/>
  <path class="cls-1" d="M78,177.92a74.63,74.63,0,0,0-5.1,41.58c.3,1.75.62,3.52,1.08,5.23.37,1.4,1,2.4,2.56,2.56a23.35,23.35,0,0,0,4.87-.21c1.26-.14,3.12-.1,4-1.21s.34-2.21,0-3.27q-1-2.91-1.88-5.86c-1.07-3.62-2-7.3-2.74-11a131.51,131.51,0,0,1-2.59-26.11.75.75,0,0,0-1.5,0,132.94,132.94,0,0,0,6.07,39.79c.26.82.53,1.65.81,2.47a9.38,9.38,0,0,1,.75,2.28c.05,1.12-.85,1.16-1.71,1.28s-2,.23-3,.3c-.76,0-1.54.1-2.29.08a1.7,1.7,0,0,1-1.88-1.48c-.43-1.57-.72-3.2-1-4.8a72.57,72.57,0,0,1,4.87-40.86c.38-.88-.91-1.64-1.3-.76Z"/>
  <path class="cls-1" d="M79.37,177.7c-.65,4.94.3,9.86,1.58,14.62s2.77,9.63,4.25,14.41,3,9.6,4.66,14.37c.47,1.41.84,4.13,2.77,4.23a6.93,6.93,0,0,0,2.87-1l3.42-1.48a.77.77,0,0,0,.27-1,170.56,170.56,0,0,1-18.1-44.93c-.23-.94-1.68-.54-1.45.4a172.34,172.34,0,0,0,18.25,45.29l.27-1-3,1.3a7.26,7.26,0,0,1-1.92.82c-.89,0-1.07-.46-1.32-1.16-.76-2.14-1.46-4.31-2.17-6.47q-2.06-6.26-4-12.54c-1.27-4.16-2.55-8.33-3.64-12.54a35,35,0,0,1-1.28-13.3c.13-.95-1.37-.94-1.5,0Z"/>
  <path class="cls-1" d="M80.11,179.62c6.9,3.4,14,6.92,19.31,12.7a71,71,0,0,1,7.16,10.11L113.87,214v-.76c-1,1.44-3.06,1.34-4.43.56-1.67-1-2.66-2.79-3.61-4.38-2.15-3.56-4.43-7-6.87-10.39a143.21,143.21,0,0,0-16.14-18.64.75.75,0,0,0-1.06,1.06c7.43,8,13,17.34,18.13,26.9q1.9,3.6,3.76,7.23a11.91,11.91,0,0,1,.75,1.52,3,3,0,0,1,.15.66c0,.48.13.56-.33.53s-1.11-1.2-1.43-1.67l-1.41-2.06-10.26-15L79.46,182.41c-.54-.8-1.84,0-1.29.75l23.6,34.6c.55.81,1.13,1.94,2.17,2.2a1.66,1.66,0,0,0,1.92-.91c.92-2-1.07-4.57-1.92-6.21-2.83-5.48-5.72-10.94-9-16.2a101.66,101.66,0,0,0-12.17-16.28l-1.06,1.06A141.88,141.88,0,0,1,100,203q2,2.94,3.87,6a26.51,26.51,0,0,0,3.23,4.75c2.13,2.22,6.11,3.13,8.09.21a.72.72,0,0,0,0-.76l-7.42-11.74a71.24,71.24,0,0,0-7.26-10.21c-5.35-5.87-12.6-9.48-19.61-12.94-.87-.43-1.63.87-.76,1.3Z"/>
  <path class="cls-1" d="M77.58,179.07l-5.83,13.54a100.43,100.43,0,0,0-4.93,12.7c-2.47,8.92-1.94,18.3-1.15,27.41a.76.76,0,0,0,1.28.53l6.75-6.68a.75.75,0,0,0-1.06-1.06l-6.75,6.68,1.28.53c-.78-9-1.33-18.23,1.09-27a100.76,100.76,0,0,1,5-12.79l5.63-13.09c.38-.88-.91-1.64-1.29-.76Z"/>
  <path class="cls-1" d="M82,178.24c9.34-.42,17.43,5,24,11.09,3.35,3.13,6.5,6.48,9.69,9.77l2.53,2.61c.76.78,2.09,1.72,2.39,2.78s-.81,2.72-1.27,3.78l-1.6,3.61c-.39.88.9,1.64,1.29.76.9-2,1.81-4.06,2.7-6.1.62-1.41.76-2.49-.31-3.69-2.88-3.18-6-6.18-9-9.25-5.35-5.51-11-11.09-18.07-14.3A27.1,27.1,0,0,0,82,176.74c-1,0-1,1.54,0,1.5Z"/>
  <path class="cls-1" d="M117.27,211.61l-9.46-8.14c-.73-.63-1.79.43-1.06,1.06l9.46,8.14c.73.63,1.8-.43,1.06-1.06Z"/>
  <path class="cls-1" d="M48.23,95.06c3.93,3.58,6.32,8.37,8.26,13.24,2.16,5.4,4.1,10.91,6,16.42,3.88,11.42,7.33,23,10.62,34.58,1.86,6.55,3.66,13.11,5.47,19.66l1.45-.4-2.51-7.13-1.44.4a30.26,30.26,0,0,1,2.08,8.53l1.47-.2q-1.8-6.56-4.21-12.93l-1.44.4a92.18,92.18,0,0,1,4,11.79l1.37-.58a75.37,75.37,0,0,1-2.89-8c-.39-1.28-.74-2.56-1-3.86a16.18,16.18,0,0,0-.42-1.83,1.59,1.59,0,0,0-.26-.5,1.19,1.19,0,0,0-.15-.18c-.25-.35-.58-.22-1,.38l.15-1.18-.09.07c-.77.56,0,1.86.76,1.29l.09-.06a.77.77,0,0,0,.15-1.18,1,1,0,0,0-1.72.44c-.1.54.28.77.5,1.19a15.56,15.56,0,0,1,.82,3.1A78.58,78.58,0,0,0,78,179.6c.34.8,1.58.22,1.37-.58a89.16,89.16,0,0,0-4-11.79c-.36-.87-1.79-.52-1.44.4q2.4,6.38,4.21,12.93c.21.79,1.55.67,1.47-.2a31.32,31.32,0,0,0-2.14-8.93c-.35-.87-1.77-.52-1.44.4l2.5,7.13a.75.75,0,0,0,1.45-.4C73.51,155,67.13,131.25,58.17,108.47c-2.09-5.3-4.6-10.57-8.88-14.47-.71-.65-1.78.41-1.06,1.06Z"/>
  <path class="cls-1" d="M78.09,175.27C74,164.12,69.79,153,65.86,141.78c-1.91-5.47-3.71-11-5.3-16.56-1.5-5.25-2.89-10.54-4.57-15.74A87.08,87.08,0,0,0,49,92.9c-.48-.85-1.74-.1-1.3.75,7.76,15,13.36,31,18.42,47.1q2.17,6.92,4.26,13.84l1.45-.4Q65.6,139,58.72,124.12l-1.3.76,6.83,14.35c.38.8,1.55.22,1.37-.58a67.64,67.64,0,0,0-5.45-15.35c-.37-.74-1.68-.21-1.37.58l8.44,21.5c.35.88,1.77.52,1.45-.4l-4.88-14.11-1.45.4q4.92,12.1,9.17,24.45l1.37-.58a92.08,92.08,0,0,1-5.4-11.62c-.34-.89-1.78-.51-1.44.4q3.14,8.6,5.83,17.35l1.37-.58a98.76,98.76,0,0,1-5.09-14.55l-1.45.39a158.47,158.47,0,0,1,6.79,20.11l1.37-.58A117.32,117.32,0,0,1,69.5,152l-1.37.58a120.67,120.67,0,0,1,6.21,14.12l1.44-.4q-3.21-8.64-6.92-17.07c-.34-.78-1.64-.23-1.37.58l1.41,4.26a19.91,19.91,0,0,1,.7,2.36,1.74,1.74,0,0,0,.41,1c.95.94,2.32-.53,1.44-1.43a.77.77,0,0,0-.91-.12l-.1.06a.75.75,0,0,0,.75,1.3l.11-.06-.91-.12a1.05,1.05,0,0,0,.65-1.18,3.28,3.28,0,0,0-.22-.8c-.19-.63-.42-1.26-.63-1.89l-1.26-3.79-1.37.58q3.63,8.25,6.78,16.71c.33.89,1.78.51,1.44-.4a123.42,123.42,0,0,0-6.36-14.48.75.75,0,0,0-1.37.58,121.76,121.76,0,0,0,5.54,14.44c.36.79,1.58.22,1.37-.58a159.93,159.93,0,0,0-6.79-20.1c-.36-.87-1.7-.57-1.45.39A102.35,102.35,0,0,0,72,161.45c.34.78,1.61.22,1.37-.58q-2.7-8.75-5.84-17.35l-1.44.4a94.17,94.17,0,0,0,5.54,12c.4.73,1.65.24,1.37-.58Q68.72,143,63.81,130.87c-.35-.87-1.77-.53-1.45.4l4.88,14.11,1.45-.4-8.44-21.5-1.37.58a66.52,66.52,0,0,1,5.3,15l1.37-.57-6.83-14.36c-.42-.87-1.7-.11-1.3.76q6.8,14.7,12.92,29.71c.36.87,1.74.55,1.45-.4-5-16.27-9.94-32.58-16.68-48.23Q52.26,99.32,49,92.9l-1.3.75c5.39,9.46,8.09,20.06,11,30.46,3.12,11.07,7,21.87,11,32.66l7,18.9c.33.9,1.78.51,1.44-.4Z"/>
  <path class="cls-1" d="M59.18,124.74q-3.87-13.45-6.54-27.2c-.19-1-1.57-.53-1.45.4.68,5,4.62,8.51,6,13.24a92.84,92.84,0,0,0,5.25,14.31c.42.87,1.71.11,1.3-.76L59.15,115c-.37-.78-1.61-.22-1.37.58q1.84,6.34,4.21,12.52l1.37-.57-4.63-11c-.36-.84-1.5-.19-1.37.57a29.55,29.55,0,0,0,3.59,10,.75.75,0,0,0,1.3-.76,28.37,28.37,0,0,1-3.45-9.59l-1.37.57,4.64,11c.33.78,1.67.22,1.37-.57q-2.37-6.18-4.22-12.53l-1.37.58,4.57,9.77,1.3-.76a99.35,99.35,0,0,1-5.23-14.39c-1.37-4.56-5.2-8-5.85-12.8l-1.45.4q2.67,13.74,6.54,27.2a.75.75,0,0,0,1.45-.4Z"/>
  <path class="cls-1" d="M78,180l1.41,3.71a.77.77,0,0,0,.93.52.75.75,0,0,0,.52-.92,29.78,29.78,0,0,0-2-5.16.75.75,0,0,0-1.37.57,46,46,0,0,0,1.07,4.5.76.76,0,0,0,.83.53.74.74,0,0,0,.65-.73,19.74,19.74,0,0,0-.85-4.38.76.76,0,0,0-.82-.54.74.74,0,0,0-.65.74,12.67,12.67,0,0,0,.57,3.67.76.76,0,0,0,.92.53.78.78,0,0,0,.53-.93,11,11,0,0,1-.52-3.27l-1.48.2a17.79,17.79,0,0,1,.8,4l1.47-.2c-.43-1.48-.79-3-1.08-4.49l-1.37.57a27.81,27.81,0,0,1,1.81,4.81l1.45-.4-1.41-3.71a.77.77,0,0,0-.93-.52A.76.76,0,0,0,78,180Z"/>
  <path class="cls-1" d="M66.73,225.15a5.16,5.16,0,0,0,2.06,2,.78.78,0,0,0,.58.07.75.75,0,0,0,.18-1.37,4.18,4.18,0,0,1-.63-.4l.15.12a4.92,4.92,0,0,1-.79-.79l.12.15a4.35,4.35,0,0,1-.38-.57.79.79,0,0,0-.45-.35.75.75,0,0,0-.84,1.11Z"/>
  <path class="cls-1" d="M66,219.82l1,1.54a.81.81,0,0,0,.45.34.78.78,0,0,0,.58-.07.76.76,0,0,0,.34-.45.78.78,0,0,0-.07-.58l-1-1.53a.82.82,0,0,0-.45-.35.78.78,0,0,0-.58.08.74.74,0,0,0-.34.45.71.71,0,0,0,.08.57Z"/>
  <path class="cls-1" d="M66.15,215.56a3.62,3.62,0,0,0,.47,1,6.12,6.12,0,0,0,.39.5,4.15,4.15,0,0,0,.51.43.76.76,0,0,0,.57.08.72.72,0,0,0,.45-.35.73.73,0,0,0,.08-.58l-.08-.17a.59.59,0,0,0-.27-.27l0,0,.16.12a2.79,2.79,0,0,1-.52-.51L68,216a2.84,2.84,0,0,1-.36-.63l.07.18a2.29,2.29,0,0,1-.12-.37.81.81,0,0,0-.34-.45.79.79,0,0,0-.58-.07.77.77,0,0,0-.45.34.78.78,0,0,0-.08.58Z"/>
  <path class="cls-1" d="M66,210.92l1.52,2a.87.87,0,0,0,.45.35.78.78,0,0,0,.58-.08.74.74,0,0,0,.34-.45.7.7,0,0,0-.07-.58l-1.53-2a.75.75,0,0,0-1-.27.82.82,0,0,0-.35.45.73.73,0,0,0,.08.58Z"/>
  <path class="cls-1" d="M67.5,207.1l.51.76a.85.85,0,0,0,.45.35.61.61,0,0,0,.3,0,.49.49,0,0,0,.28-.09.72.72,0,0,0,.34-.44l0-.2a.7.7,0,0,0-.11-.38l-.5-.76a.6.6,0,0,0-.2-.22.55.55,0,0,0-.25-.13.51.51,0,0,0-.3,0,.49.49,0,0,0-.28.09.72.72,0,0,0-.34.44l0,.2a.7.7,0,0,0,.1.38Z"/>
  <path class="cls-1" d="M68.38,201.16l2,2a.75.75,0,0,0,1.06-1.06l-2-2a.75.75,0,0,0-1.06,0,.76.76,0,0,0,0,1.06Z"/>
  <path class="cls-1" d="M72.32,197.2l1.54,2.53a.76.76,0,0,0,1,.27.77.77,0,0,0,.26-1l-1.53-2.53a.77.77,0,0,0-1-.27.76.76,0,0,0-.27,1Z"/>
  <path class="cls-1" d="M72.43,201.42c.22.22.42.44.61.67l.15.19c.06.07,0,0,0,0l.06.08a3.28,3.28,0,0,1,.27.38,9.47,9.47,0,0,1,.88,1.59.74.74,0,0,0,.45.34.78.78,0,0,0,.58-.07.76.76,0,0,0,.34-.45.9.9,0,0,0-.07-.58,10.69,10.69,0,0,0-2.19-3.18.76.76,0,0,0-1.06,0,.77.77,0,0,0,0,1.06Z"/>
  <path class="cls-1" d="M72.88,205.3l2.3,4a.75.75,0,0,0,1.3-.75l-2.31-4.06a.75.75,0,1,0-1.29.76Z"/>
  <path class="cls-1" d="M75.49,212.59l.26.25A.54.54,0,0,0,76,213a.56.56,0,0,0,.29.06.58.58,0,0,0,.29-.06.54.54,0,0,0,.24-.16l.12-.15a.83.83,0,0,0,.1-.38l0-.2a.79.79,0,0,0-.19-.33l-.26-.25a.51.51,0,0,0-.24-.16.56.56,0,0,0-.29-.06.52.52,0,0,0-.28.06.6.6,0,0,0-.25.16l-.11.15a.73.73,0,0,0-.11.38l0,.2a.84.84,0,0,0,.19.33Z"/>
  <path class="cls-1" d="M73.34,214.73l1.76,2.55a.83.83,0,0,0,.45.35.75.75,0,0,0,.84-1.11L74.64,214a.87.87,0,0,0-.45-.35.78.78,0,0,0-.58.08.76.76,0,0,0-.27,1Z"/>
  <path class="cls-1" d="M73.83,218.8l2.08,3a.75.75,0,0,0,1.3-.76l-2.09-3a.75.75,0,1,0-1.29.75Z"/>
  <path class="cls-1" d="M73.21,210.56,76,213.35a.75.75,0,0,0,1.06-1.06l-2.79-2.79a.75.75,0,0,0-1.06,1.06Z"/>
  <path class="cls-1" d="M85.62,178.09l1.63,2.63a.74.74,0,0,0,1,.27.75.75,0,0,0,.27-1l-1.63-2.64a.75.75,0,0,0-1.29.76Z"/>
  <path class="cls-1" d="M88.28,178.94l1.3,2a.81.81,0,0,0,.45.34.78.78,0,0,0,.58-.07.76.76,0,0,0,.27-1l-1.31-2a.74.74,0,0,0-.45-.34.74.74,0,0,0-.84,1.1Z"/>
  <path class="cls-1" d="M91.89,180.17l1.55,2.27a.74.74,0,0,0,1,.27.76.76,0,0,0,.27-1l-1.55-2.28a.75.75,0,1,0-1.3.76Z"/>
  <path class="cls-1" d="M95.57,182.85a6.31,6.31,0,0,1,.55.61l-.12-.15a5.62,5.62,0,0,1,.74,1.28l-.07-.18c.06.14.11.29.16.43a.76.76,0,0,0,.92.53.77.77,0,0,0,.53-.93,6.65,6.65,0,0,0-1.64-2.65.78.78,0,0,0-1.07,0,.76.76,0,0,0,0,1.06Z"/>
  <path class="cls-1" d="M98.91,185.63l.12.15-.12-.15a6.8,6.8,0,0,1,.85,1.45l-.08-.18a6.84,6.84,0,0,1,.25.72.75.75,0,0,0,1.45-.4,7.37,7.37,0,0,0-1.41-2.65.77.77,0,0,0-.53-.22.73.73,0,0,0-.53.22.71.71,0,0,0-.22.53.81.81,0,0,0,.22.53Z"/>
  <path class="cls-1" d="M102.23,187.36l.51,1.78a.81.81,0,0,0,.34.45.78.78,0,0,0,.58.07.75.75,0,0,0,.52-.92l-.51-1.78a.75.75,0,0,0-.34-.44.74.74,0,0,0-.58-.08.76.76,0,0,0-.52.92Z"/>
  <path class="cls-1" d="M104.81,189.38l1,2.53a.81.81,0,0,0,.35.44.74.74,0,0,0,.58.08.81.81,0,0,0,.45-.34.74.74,0,0,0,.07-.58l-1-2.53a.85.85,0,0,0-.34-.45.84.84,0,0,0-.58-.08.75.75,0,0,0-.45.35.73.73,0,0,0-.08.58Z"/>
  <path class="cls-1" d="M108,193.28l.25.26a.58.58,0,0,0,.25.15.53.53,0,0,0,.28.07.57.57,0,0,0,.29-.07.49.49,0,0,0,.24-.15l.12-.16a.69.69,0,0,0,.1-.37l0-.2a.7.7,0,0,0-.2-.33l-.25-.26a.61.61,0,0,0-.24-.15.64.64,0,0,0-.58,0,.61.61,0,0,0-.24.15l-.12.15a.75.75,0,0,0-.1.38l0,.2a.69.69,0,0,0,.19.33Z"/>
  <path class="cls-1" d="M110.43,194.91l1.27,2.29a.75.75,0,0,0,1.3-.76l-1.27-2.29a.75.75,0,1,0-1.3.76Z"/>
  <path class="cls-1" d="M115.69,200.57l.51,1.27a.58.58,0,0,0,.13.26.76.76,0,0,0,.21.19.84.84,0,0,0,.58.08.75.75,0,0,0,.45-.35.74.74,0,0,0,.08-.58l-.51-1.27a.52.52,0,0,0-.14-.25.48.48,0,0,0-.21-.19.72.72,0,0,0-.57-.08.75.75,0,0,0-.53.92Z"/>
  <path class="cls-1" d="M117.94,202.91a5,5,0,0,0,.29,1.27,4.93,4.93,0,0,0,.59,1.14.83.83,0,0,0,.45.35.78.78,0,0,0,.58-.08.74.74,0,0,0,.34-.45.78.78,0,0,0-.07-.58,3.67,3.67,0,0,1-.46-.82l.07.18a4.37,4.37,0,0,1-.31-1.14l0,.2v-.07a.89.89,0,0,0-.22-.53.75.75,0,0,0-1.06,0,.73.73,0,0,0-.22.53Z"/>
  <path class="cls-1" d="M90.15,185l1.44,2.09a.82.82,0,0,0,.45.35.78.78,0,0,0,.58-.08.75.75,0,0,0,.27-1l-1.44-2.1a.75.75,0,1,0-1.3.76Z"/>
  <path class="cls-1" d="M93.13,186.79l1.26,2.55a.75.75,0,0,0,1,.27.76.76,0,0,0,.27-1L94.43,186a.75.75,0,0,0-1-.27.77.77,0,0,0-.27,1Z"/>
  <path class="cls-1" d="M97.25,190.32l1,2.06a.74.74,0,0,0,1,.27.74.74,0,0,0,.34-.45.84.84,0,0,0-.07-.58l-1-2.05a.77.77,0,0,0-.44-.35.78.78,0,0,0-.58.08.76.76,0,0,0-.35.45.87.87,0,0,0,.08.57Z"/>
  <path class="cls-1" d="M100.31,193.88l1.21,2.56a.74.74,0,0,0,1,.27.77.77,0,0,0,.27-1l-1.22-2.57a.74.74,0,0,0-1-.27.77.77,0,0,0-.27,1Z"/>
  <path class="cls-1" d="M103.27,198l.53,1.52a.86.86,0,0,0,.35.45.75.75,0,0,0,.57.07.75.75,0,0,0,.53-.92l-.54-1.51a.77.77,0,0,0-.34-.45.74.74,0,0,0-.58-.08.75.75,0,0,0-.45.35.72.72,0,0,0-.07.57Z"/>
  <path class="cls-1" d="M105.53,203.37l.25,1.78a.72.72,0,0,0,.34.44.74.74,0,0,0,.58.08.75.75,0,0,0,.45-.35l.08-.17a.9.9,0,0,0,0-.4L107,203a.74.74,0,0,0-.34-.45.83.83,0,0,0-.58-.08.79.79,0,0,0-.45.35l-.07.18a.68.68,0,0,0,0,.4Z"/>
  <path class="cls-1" d="M91.58,220.14a2.65,2.65,0,0,0,1,0,1.39,1.39,0,0,0,.33-.1,2.27,2.27,0,0,0,.47-.23.77.77,0,0,0,.27-1,.74.74,0,0,0-.45-.34.78.78,0,0,0-.58.07,1.17,1.17,0,0,1-.27.15l.18-.07a2.17,2.17,0,0,1-.42.11l.2,0a1.48,1.48,0,0,1-.42,0l.2,0-.16,0a.75.75,0,0,0-.85,1.1.79.79,0,0,0,.45.35Z"/>
  <path class="cls-1" d="M90.76,217.38h.51a.58.58,0,0,0,.29-.06.63.63,0,0,0,.24-.16.61.61,0,0,0,.15-.24.59.59,0,0,0,.07-.29l0-.2a.78.78,0,0,0-.19-.33l-.16-.12a.79.79,0,0,0-.37-.1h-.51a.57.57,0,0,0-.29.07.61.61,0,0,0-.24.15.54.54,0,0,0-.16.24.58.58,0,0,0-.06.29l0,.2a.7.7,0,0,0,.2.33l.15.12a.72.72,0,0,0,.38.1Z"/>
  <path class="cls-1" d="M87.69,209.29l.51.5a.45.45,0,0,0,.24.16.48.48,0,0,0,.29.06A.45.45,0,0,0,89,210a.51.51,0,0,0,.25-.16l.11-.15a.7.7,0,0,0,.11-.38l0-.2a.92.92,0,0,0-.19-.33l-.51-.5a.54.54,0,0,0-.24-.16.49.49,0,0,0-.29-.06.48.48,0,0,0-.29.06.54.54,0,0,0-.24.16l-.12.15a.7.7,0,0,0-.1.38l0,.2a.82.82,0,0,0,.2.33Z"/>
  <path class="cls-1" d="M87,206a.75.75,0,0,0,0-1.5.75.75,0,0,0,0,1.5Z"/>
  <path class="cls-1" d="M84.78,189.83l.76,1.52a.79.79,0,0,0,.45.35.76.76,0,0,0,.57-.08.75.75,0,0,0,.35-.45.76.76,0,0,0-.08-.57l-.76-1.53a.74.74,0,0,0-.45-.34.78.78,0,0,0-.58.07.76.76,0,0,0-.34.45.79.79,0,0,0,.08.58Z"/>
  <path class="cls-1" d="M86.78,192.17l.52,1.52a.77.77,0,0,0,.34.45.74.74,0,0,0,.58.08.75.75,0,0,0,.45-.35.71.71,0,0,0,.07-.57l-.51-1.53a.85.85,0,0,0-.35-.44.74.74,0,0,0-.58-.08.78.78,0,0,0-.45.35.71.71,0,0,0-.07.57Z"/>
  <path class="cls-1" d="M90.36,197.7l.51,1a.51.51,0,0,0,.2.21.47.47,0,0,0,.25.13.51.51,0,0,0,.3,0,.71.71,0,0,0,.28-.09.74.74,0,0,0,.34-.45l0-.2a.75.75,0,0,0-.1-.38l-.51-1a.85.85,0,0,0-.45-.35.61.61,0,0,0-.3,0,.49.49,0,0,0-.28.09.71.71,0,0,0-.34.45l0,.19a.8.8,0,0,0,.1.38Z"/>
  <path class="cls-1" d="M93.41,202.53l.26.51a.48.48,0,0,0,.19.21.58.58,0,0,0,.26.13.57.57,0,0,0,.29,0,.66.66,0,0,0,.28-.09l.15-.12a.7.7,0,0,0,.2-.33l0-.2a.72.72,0,0,0-.1-.38l-.25-.51a.66.66,0,0,0-.2-.21.55.55,0,0,0-.25-.13.61.61,0,0,0-.3,0,.71.71,0,0,0-.28.09l-.15.12a.69.69,0,0,0-.19.33l0,.2a.72.72,0,0,0,.1.38Z"/>
  <path class="cls-1" d="M94.8,205.73l.25.25a.51.51,0,0,0,.25.16.46.46,0,0,0,.28.06.48.48,0,0,0,.29-.06.45.45,0,0,0,.24-.16l.12-.15a.7.7,0,0,0,.1-.38l0-.2a.82.82,0,0,0-.2-.33l-.25-.25a.63.63,0,0,0-.24-.16.73.73,0,0,0-.58,0,.63.63,0,0,0-.24.16l-.12.15a.83.83,0,0,0-.1.38l0,.2a.69.69,0,0,0,.19.33Z"/>
  <path class="cls-1" d="M101.15,202.18l0,0,.17.13h0l.19.08h0a1.23,1.23,0,0,0,.54,0l0,0,.21-.08.14-.1.13-.11.12-.16v0s0,0,0,0a1.54,1.54,0,0,0,.08-.19v0h0a1.36,1.36,0,0,0,0-.2v0a1,1,0,0,0,0-.24.64.64,0,0,0-.13-.26.76.76,0,0,0-.21-.19.71.71,0,0,0-.28-.09.61.61,0,0,0-.3,0l-.18.08a.87.87,0,0,0-.27.27l-.08.18a.9.9,0,0,0,0,.4v0l0-.2v.06l0-.2a.14.14,0,0,1,0,.06l.08-.18,0,.06.12-.16a.17.17,0,0,1-.06.06l.16-.12-.08.05.18-.08-.09,0,.2,0h-.07l.2,0-.06,0,.18.08,0,0,.15.12,0,0A.54.54,0,0,0,102,201a.73.73,0,0,0-.58,0,.54.54,0,0,0-.24.16l-.12.15a.7.7,0,0,0-.1.38l0,.19a.77.77,0,0,0,.19.34Z"/>
  <path class="cls-1" d="M100.91,199.1v-.76a.59.59,0,0,0-.07-.29.63.63,0,0,0-.39-.39.59.59,0,0,0-.29-.07l-.2,0a.69.69,0,0,0-.33.19.77.77,0,0,0-.22.53v.76a.48.48,0,0,0,.06.29.74.74,0,0,0,.4.4.48.48,0,0,0,.29.06l.2,0a.82.82,0,0,0,.33-.2.77.77,0,0,0,.22-.53Z"/>
  <path class="cls-1" d="M98.59,196.11l-.25-1.27a.77.77,0,0,0-.34-.45.79.79,0,0,0-.58-.07.74.74,0,0,0-.45.34l-.08.18a.9.9,0,0,0,0,.4l.26,1.27a.76.76,0,0,0,.34.45.77.77,0,0,0,1-.27l.07-.18a.68.68,0,0,0,0-.4Z"/>
  <path class="cls-1" d="M94.06,193.76a.75.75,0,0,0,0-1.5.75.75,0,0,0,0,1.5Z"/>
  <path class="cls-1" d="M92.28,190.2a.75.75,0,0,0,0-1.5.75.75,0,0,0,0,1.5Z"/>
  <path class="cls-1" d="M76.82,196.51l1,2.8a.75.75,0,0,0,1.45-.4l-1-2.8a.77.77,0,0,0-.93-.52.75.75,0,0,0-.52.92Z"/>
  <path class="cls-1" d="M77.79,205.67l1,3a.75.75,0,1,0,1.44-.4l-1-3a.75.75,0,0,0-1.45.4Z"/>
  <path class="cls-1" d="M79.84,211.3a3.37,3.37,0,0,0,1,2.55.75.75,0,0,0,1.06-1.06,2.85,2.85,0,0,1-.23-.26l.11.15a3.12,3.12,0,0,1-.34-.59l.08.18a2.48,2.48,0,0,1-.18-.66l0,.2a2.18,2.18,0,0,1,0-.51.73.73,0,0,0-.22-.53.75.75,0,0,0-.53-.22.77.77,0,0,0-.75.75Z"/>
  <path class="cls-1" d="M80.11,215.82a4.78,4.78,0,0,0,1.49,2.35.79.79,0,0,0,.53.22.77.77,0,0,0,.53-.22.79.79,0,0,0,.22-.53.75.75,0,0,0-.22-.53,4.26,4.26,0,0,1-.59-.61l.12.15a4,4,0,0,1-.54-.92l.08.18a2.84,2.84,0,0,1-.17-.49.75.75,0,0,0-1.45.4Z"/>
  <path class="cls-1" d="M81.91,220.13a5.82,5.82,0,0,0,1.2,2.11.76.76,0,0,0,1.07,0,.79.79,0,0,0,.22-.53.89.89,0,0,0-.22-.53,3.22,3.22,0,0,1-.24-.28l.12.15a5.47,5.47,0,0,1-.63-1.07l.08.18c-.06-.14-.11-.28-.16-.43a.78.78,0,0,0-.34-.44.74.74,0,0,0-.58-.08.75.75,0,0,0-.45.35.71.71,0,0,0-.07.57Z"/>
  <path class="cls-1" d="M85.68,224.49a.75.75,0,0,0,0-1.5.75.75,0,0,0,0,1.5Z"/>
  <path class="cls-1" d="M77.55,175.7a2.52,2.52,0,0,0-1.09,3.38,1.82,1.82,0,0,0,2,.95A2.73,2.73,0,0,0,80,178.72l.59-.87a1.39,1.39,0,0,0,.22-1.23,1.57,1.57,0,0,0-2.11-.86,2.92,2.92,0,0,0-1.6,1.58,2.06,2.06,0,0,0,.35,2.1,1.76,1.76,0,0,0,2.12.44,4.34,4.34,0,0,0,1.55-1.55,6,6,0,0,0,.51-.89,2,2,0,0,0,.27-1.27c-.18-.93-1.26-1.1-2-1a3.77,3.77,0,0,0-2.61,2.7,2.68,2.68,0,0,0,.09,1.91,1.73,1.73,0,0,0,1.91.87A3.62,3.62,0,0,0,81,179.59a3.12,3.12,0,0,0,1-1.89,2,2,0,0,0-.87-1.86,2.2,2.2,0,0,0-2.19,0,4.88,4.88,0,0,0-1.49,1.51,1.88,1.88,0,0,0-.42,1.11,1.48,1.48,0,0,0,.46,1.06,1.78,1.78,0,0,0,2.23.11,2.59,2.59,0,0,0,1.08-1.84,2.54,2.54,0,0,0-.52-1.86,1.54,1.54,0,0,0-2.13-.41,3.69,3.69,0,0,0-1.2,1.84,2.3,2.3,0,0,0,.36,2.23,1.67,1.67,0,0,0,2.11.33,3.49,3.49,0,0,0,1.36-1.67,1.9,1.9,0,0,0-2.28-2.69c-1.4.45-2.32,2.5-1.14,3.65a2.3,2.3,0,0,0,2,.54,3.41,3.41,0,0,0,1.79-1.06,1.94,1.94,0,0,0,.63-1.05,1.63,1.63,0,0,0-.54-1.28q-.34-.39-.72-.75a2.13,2.13,0,0,0-1-.62c-.91-.2-1.48.57-1.7,1.35a2.64,2.64,0,0,0,.09,2.25,1.56,1.56,0,0,0,2,.58.74.74,0,0,0,.27-1,.75.75,0,0,0-1-.27c-.16.08.15,0,0,0,.16,0,.11,0,0,0,.25,0,0,0,0,0s.13.07,0,0-.13-.13,0,0l-.08-.07c.12.11,0,0,0,0s0,.15,0,0c0,0,0-.24,0-.08v-.15s0-.25,0-.09l0-.14a4.49,4.49,0,0,1,.19-.72c.06-.17-.06.09,0,0a.75.75,0,0,0,.07-.12c.08-.15-.08.08,0,0s-.16.07,0,0l-.08,0h0s-.18,0-.18,0a1.48,1.48,0,0,0,.13.08s0,0,0,0l.09.08.53.53c.08.09.17.18.25.28l.1.11.09.11c0-.06,0-.05,0,0s0-.07,0-.13v-.07c0-.08,0-.08,0,0h0l-.14.15-.23.23-.1.09-.1.09c.05,0,.06-.05,0,0a1.67,1.67,0,0,1-.28.18l-.14.08c-.18.09.08,0,0,0l-.16.05s-.19.07-.07,0,0,0-.06,0a.85.85,0,0,1-.16,0c-.18,0,.15.05,0,0l-.1,0a.76.76,0,0,1-.16-.06c.12.1.08,0,0,0s-.13-.05-.14-.08.1.1,0,0-.09-.07-.1-.11l0,0,0-.07,0-.05c0,.11,0,.11,0,0s0-.19,0,0v-.22s0,.12,0,0l.06-.18s0-.13,0,0a1.87,1.87,0,0,1,.17-.31c.09-.15-.07.06,0,0l.1-.11s.15-.12.05-.05.07,0,.07,0,.17-.1.06,0,.06,0,.08,0,.18-.07.06,0,.08,0,.12,0h.11c-.18-.07,0,0,0,0l.11,0-.08,0,.09.05.09.06c-.12-.14,0,0,0,0s0,0,0,0a.41.41,0,0,1,0,.09c0-.08,0-.09,0,0s0,.16,0,0v.19c0,.05,0,.12,0,0,0,.06,0,.13,0,.19l0,.13c0-.15,0,.05,0,.07a3.37,3.37,0,0,1-.19.32l-.09.14c-.12.17.06-.06,0,0s-.14.16-.22.23l-.12.11c.12-.09,0,0,0,0s-.16.07,0,0a.37.37,0,0,1-.17,0h0c.12.05.08,0,0,0H78.4q.15.06,0,0c-.06-.09,0,0,0,0l-.12-.13,0,0s-.08-.21,0,0a1.09,1.09,0,0,1,0-.17c-.06-.17,0,.15,0,0v-.15c0-.21,0,.12,0-.09a.74.74,0,0,1,0-.14c0-.12.07-.24.11-.36,0,.14,0-.09,0-.09a1.24,1.24,0,0,1,.1-.2,2.15,2.15,0,0,1,.14-.26l.09-.12c0-.1-.12.11,0,0l.1-.1s.13-.08,0,0,.16-.1,0,0,0,0,0,0,.07,0,0,0c.12,0,0,0,0,0,.19,0-.12-.07,0,0s0,0,0,0l.13.14c-.08-.08,0-.05,0,0a1.09,1.09,0,0,1,.08.15l.06.1c-.09-.18,0,0,0,.09s0,.07,0,.11,0-.17,0,0a2.81,2.81,0,0,1,0,.29v0a.5.5,0,0,1,0,.12l0,.11s-.09.22,0,.12,0,.06,0,.06a.54.54,0,0,1-.07.13h0l-.1.11s-.14.12,0,0l-.14.09s-.17.07,0,0l-.18,0c.18,0,0,0-.06,0s.09,0,0,0,.13.09,0,0l-.09-.06c.15.11,0,0,0,0,.07.15,0,0,0,0l0,.08c0-.08,0-.06,0,0,0-.18,0,.17,0,0s-.07.08,0-.06a.41.41,0,0,1,.07-.11,1.65,1.65,0,0,1,.19-.27l.12-.16s.09-.11,0,0c.09-.1.17-.21.26-.3a2.61,2.61,0,0,1,.23-.24s.17-.13.08-.06l.09-.06.11-.06s.2-.08,0,0l.12,0s.3,0,.11,0h.12s.23,0,0,0l.12,0c.17,0-.11-.08,0,0l.1.06c-.14-.08,0,0,0,0s0,.09,0,0,.11.21.06.1.08.27,0,.14,0,0,0,.07v.14c0,.08,0,.12,0,0,0,0,0,.1,0,.14s0,.09,0,.14c0-.15,0,0,0,.06s-.11.18-.17.27.1-.1,0,.06l-.09.1a4.79,4.79,0,0,1-.52.49c-.16.14.12-.07-.05,0l-.11.08-.28.16c-.18.09.13,0-.06,0l-.12,0h-.06c-.08,0-.08,0,0,0s-.15,0-.17,0c.17,0,.05,0,0,0s.17.07,0,0,.08.07,0,0,0,0,0,0,0-.09-.06-.1,0,0,0,0,0-.11,0-.12,0-.05,0-.08,0-.07,0,.05a1.22,1.22,0,0,1,0-.27.41.41,0,0,1,0-.11c0-.19,0,.16,0,0a3.86,3.86,0,0,1,.17-.58s-.06.13,0,0l.08-.17a2.26,2.26,0,0,1,.16-.26,2.33,2.33,0,0,1,.17-.26s-.09.11,0,0l.14-.16a1.45,1.45,0,0,1,.22-.21s.14-.11,0,0l.12-.08.25-.14c.1-.06-.17.05,0,0l.16,0a.47.47,0,0,1,.16,0c-.17,0-.06,0,0,0h.17c.14,0,0,0,0,0a1,1,0,0,1,.17,0c-.13,0-.06,0,0,0a.4.4,0,0,1-.13-.18c0-.08,0-.1,0,0s0,0,0,0,0,.13-.07.19.06-.13,0,0l-.16.32a6.55,6.55,0,0,1-.41.66l-.1.14c-.07.11.11-.13,0,0l-.23.27-.24.25-.13.11a.27.27,0,0,1-.08.07c.07-.05.06-.05,0,0l-.11.07c.13-.08,0,0-.07,0s0,0,0,0h-.05c-.09,0-.08,0,0,0s-.1,0-.1,0l.08,0a.31.31,0,0,1-.1-.05c-.11,0,0,0,0,0a1.21,1.21,0,0,1-.16-.16s.08.13,0,0l-.09-.15c.12.22-.1-.26,0,0a.49.49,0,0,1,0-.12s0-.23,0,0l0-.12s.08-.23,0-.15,0-.07,0-.07a1,1,0,0,1,.08-.14l0,0,.1-.12.12-.11c.13-.14-.08,0,0,0l.31-.19c-.15.08.28,0,.08,0h.07c.09,0,.09,0,0,0s.09,0,0,0l0,0c.07,0,.07,0,0,0l0,0,0-.06,0,0c0-.1,0-.11,0,0a.15.15,0,0,1,0-.13c0-.07,0-.06,0,0l0-.06a.75.75,0,0,1-.07.12.76.76,0,0,1-.08.11l-.21.32-.43.65c-.11.16.06-.08,0,0l-.09.12c-.07.08-.15.14-.22.22s.09-.05,0,0l-.12.07c-.14.09.1,0,0,0l-.08,0c-.08,0-.07,0,0,0s-.1,0-.12,0h.09l-.11,0c.13,0,.07,0,0,0s-.15-.13,0,0l-.09-.08c-.13-.12.07.12,0,0l-.06-.1c0-.07,0-.07,0,0a.42.42,0,0,1,0-.1l0-.1v-.06c0-.08,0-.07,0,0,0,0,0-.21,0-.27s0-.09,0,0a.5.5,0,0,1,0-.16l0-.1a.3.3,0,0,1,0-.1c0,.08,0,.1,0,.05a1.83,1.83,0,0,0,.13-.24s.07-.15,0,0c0,0,.06-.07.09-.1l.09-.09c.12-.12-.09,0,0,0s.16-.11.25-.15a.75.75,0,0,0,.27-1,.78.78,0,0,0-1-.27Z"/>
  <path class="cls-1" d="M55.3,309.09c5.94,4.17,10.93,10.87,11.83,18.23.92,7.54-2.69,16-9.4,19.84-3.6,2-7.62,3.17-11.33,5-2.31,1.14-7.06,3.41-5.59,6.73,1.12,2.52,4.53,4,6.95,4.93a41.76,41.76,0,0,0,10.43,2.3c9.35,1.09,18.85.81,28.25.89a61.62,61.62,0,0,0,8.24-.7q6-.78,12-1.75c2.5-.41,7.15-.95,7.83-4,.62-2.79-2.48-5.8-4.54-7.17-3.24-2.16-7.13-3.08-10.39-5.25a25.41,25.41,0,0,1-11.19-19.47,25.91,25.91,0,0,1,5.42-17.51,23.61,23.61,0,0,1,1.65-1.93c.67-.7-.39-1.77-1.06-1.06a27.6,27.6,0,0,0-3.34,33.49,27.13,27.13,0,0,0,7.76,7.78c3.18,2.11,6.92,3.05,10.12,5.07,2.1,1.32,6.24,5.35,2.64,7.24a18,18,0,0,1-5.47,1.43q-3.4.54-6.82,1a102.39,102.39,0,0,1-11.45,1.33c-3.14.09-6.31,0-9.45-.05-4.7,0-9.41-.07-14.11-.34-6.75-.37-14.59-.88-20.3-4.95a5.32,5.32,0,0,1-1.76-1.8c-.46-1,.1-1.74.82-2.37a22,22,0,0,1,5.16-3c3.66-1.66,7.61-2.8,11-4.94,6.11-3.81,9.47-11.31,9.52-18.37,0-7.43-4.28-14.72-9.73-19.52a34.85,34.85,0,0,0-3-2.32c-.79-.56-1.54.74-.76,1.29Z"/>
  <path class="cls-1" d="M28.57,178.69c3.26,3,4.46,7.35,5.7,11.45l4.56,15q2.25,7.36,4.49,14.73a75,75,0,0,0,4,11.43c1.71,3.46,4.23,6.51,8,7.72a.76.76,0,0,0,.95-.72l-2.32-34.57-1.48.2a138.93,138.93,0,0,0,18.14,49,44.15,44.15,0,0,0,4.55,6.81c1.47,1.63,3.59,2.67,5.7,1.58s3.36-3.7,4.25-5.84a59.89,59.89,0,0,0,2.46-8.09c1.35-5.21,3.12-10.72,7.9-13.8a8.43,8.43,0,0,1,7.18-1.11c2.47.77,4.66,2.36,7.25,2.76,4.5.68,6.9-3.12,8.41-6.75a119.8,119.8,0,0,1,5.62-12.7,84.85,84.85,0,0,1,11.25-15.39c.65-.71-.41-1.77-1.06-1.06a79.9,79.9,0,0,0-15.37,23.83c-.77,1.93-1.39,3.92-2.28,5.8s-1.95,3.85-3.88,4.59c-2.43.93-5-.6-7.17-1.58a11.63,11.63,0,0,0-6.48-1.3c-4.5.63-8,4.38-10,8.22-2.42,4.62-3,9.95-4.71,14.81-.77,2.15-2.28,6.4-5,6.56s-4.54-3.77-5.74-5.67a137,137,0,0,1-19.49-51.11c-.14-.83-1.53-.64-1.47.2l2.32,34.57.94-.73c-3.51-1.12-5.73-4.13-7.25-7.34-1.81-3.79-2.83-7.95-4.05-11.95Q40,203.87,35.65,189.5c-1.3-4.27-2.63-8.75-6-11.87-.71-.65-1.77.41-1.06,1.06Z"/>
  <path class="cls-1" d="M52.1,78.26c6.5-2.49,13.45-1.22,20.06.09a80.36,80.36,0,0,0,10,1.54c3.53.25,7.13.07,10.58,1,2.79.73,5.7,2.27,7.06,4.93,1.76,3.47-2.72,4.54-5.13,5.18-6.41,1.7-13.36,3.23-19.9,1.3-1.8-.53-3.47-1.43-5.26-2a13.79,13.79,0,0,0-5.07-.5c-1.75.13-3.47.48-5.2.74-1.53.23-4.31.93-5.46-.47-.62-.75-1.67.32-1.07,1.06,1.92,2.33,6.27,1,8.75.56a19.7,19.7,0,0,1,6-.32,26.83,26.83,0,0,1,5.41,1.86c6.94,2.63,14.57,1.18,21.51-.63,2.41-.63,5.8-1.23,7-3.76,1.26-2.71-1.2-5.62-3.26-7.13a18,18,0,0,0-9.17-3c-4.09-.36-8.14-.33-12.21-1-8.22-1.44-16.87-4-25-.89-.9.35-.51,1.8.4,1.45Z"/>
  <path class="cls-1" d="M42.61,91.29c-3.09.59-7.59,1-9.3-2.38A3.5,3.5,0,0,1,34,84.76a15.88,15.88,0,0,1,4.37-3.17c.86-.44.1-1.73-.76-1.3a17.9,17.9,0,0,0-4.13,2.88A5.62,5.62,0,0,0,31.41,87c-.14,3.21,2.69,5.47,5.61,6a16.49,16.49,0,0,0,6-.29c1-.18.55-1.62-.39-1.45Z"/>
  <path class="cls-1" d="M54.14,80.17c2.47-.85,4.94-.24,7.35.5a52.28,52.28,0,0,0,6.86,1.76c4.87.8,9.81,1.23,14.71,1.82l3.38.4a5.46,5.46,0,0,1,2.93.89c1.06.93,0,2.17-1.06,2.45-1.32.34-2.84-.26-4.12-.57a84.62,84.62,0,0,0-14.6-2.17c-5.39-.33-11.13.47-16.28-1.49-.9-.34-1.29,1.11-.4,1.45,5.22,2,11,1.21,16.45,1.52a83.54,83.54,0,0,1,9,1c2.77.48,5.52,1.42,8.3,1.75,1.87.22,4.12-.47,4.58-2.55.4-1.83-1.21-3-2.76-3.46-2.5-.72-5.32-.74-7.89-1l-8.66-1a54.15,54.15,0,0,1-9.66-2.07c-2.8-.87-5.71-1.62-8.58-.64-.91.31-.52,1.76.4,1.45Z"/>
  <path class="cls-1" d="M40.8,88.1a2.6,2.6,0,0,0-1.17-.93c-.25-.11-.5-.2-.76-.3l-.14-.05s-.2-.07-.09,0,0,0-.06,0l-.17-.08-.11-.07-.06,0c-.08,0,0,0,0,0s-.08-.07-.1-.09-.14-.15-.06-.06,0,0,0-.08,0,.12,0,0a.47.47,0,0,1,0-.16s0,.15,0,0v-.11c0-.13,0,.12,0,0l.06-.18c0-.09,0,0,0,0l0-.08.12-.19c0-.07,0,0,0,0l0-.07.12-.12,0,0c-.06.06,0,0,0,0l.17-.11.09,0c.19-.09-.06,0,.05,0l.23-.07.26-.06.11,0c.11,0-.12,0,0,0a9.83,9.83,0,0,1,1.09,0,.75.75,0,1,0,0-1.5,5.81,5.81,0,0,0-2.19.3,2.66,2.66,0,0,0-1.56,1.54,2,2,0,0,0,.37,2,3.4,3.4,0,0,0,1.42.83l.4.14.06,0c.16.06-.1,0,0,0l.2.09.16.09s.12.11.16.11-.11-.1,0,0l.08.08a.12.12,0,0,1,0,.05c.11.11-.09-.14,0,0a.75.75,0,1,0,1.29-.76Z"/>
  <path class="cls-1" d="M89.08,76.13a34.84,34.84,0,0,1,11.48-.29c3.31.48,7.06,1.35,9.38,4a6,6,0,0,1-.33,8.77,12.59,12.59,0,0,1-4.42,2.36c-1.61.54-3.72,1.5-5.39.84-.9-.36-1.28,1.09-.4,1.44,1.88.75,4-.12,5.8-.71a15.39,15.39,0,0,0,5.2-2.63,7.31,7.31,0,0,0,1.78-9.51c-2-3.54-6.1-5-9.91-5.74a37,37,0,0,0-13.59.07c-.94.18-.54,1.63.4,1.45Z"/>
  <path class="cls-1" d="M78.94,111.43a41.52,41.52,0,0,1,34.11,4.62c.82.52,1.57-.78.76-1.29A43,43,0,0,0,78.54,110c-.92.28-.53,1.73.4,1.45Z"/>
  <path class="cls-1" d="M112.26,123.51a25.61,25.61,0,0,1-14,12.72,36.65,36.65,0,0,1-10.9,2.41,48.44,48.44,0,0,1-5.39.08c-1.91-.07-4.14,0-5.81-1-.82-.51-1.58.78-.76,1.29a10.82,10.82,0,0,0,5.23,1.17,50.77,50.77,0,0,0,6.29,0,38.42,38.42,0,0,0,11.74-2.49c6.36-2.52,12-7.14,14.86-13.42.4-.87-.89-1.63-1.3-.75Z"/>
  <path class="cls-1" d="M55.93,141.12a17.6,17.6,0,0,1-13.55-8.3A8,8,0,0,1,41,128.34a6.87,6.87,0,0,1,2.32-4.16,15.69,15.69,0,0,1,7.62-4.26c.94-.23.54-1.68-.4-1.45A17.24,17.24,0,0,0,42,123.38a7.11,7.11,0,0,0-1.43,9.23,19,19,0,0,0,15.38,10c1,.08,1-1.42,0-1.5Z"/>
  <path class="cls-1" d="M74.31,119.39a.75.75,0,0,0,0-1.5.75.75,0,0,0,0,1.5Z"/>
  <path class="cls-1" d="M76.09,118.41a32,32,0,0,1,23.19.41c.87.36,2.48.84,2.76,1.85a2.94,2.94,0,0,1-.8,2.46c-1.21,1.45-3.18,2.14-4.93,2.66-4.2,1.27-8.48,2.32-12.71,3.48a.75.75,0,0,0,.4,1.44c4-1.08,8-2.13,12-3.25,2.76-.78,6.2-1.94,7.34-4.87,1.33-3.44-2.18-4.73-4.79-5.68a33.29,33.29,0,0,0-22.81.06c-.89.33-.51,1.78.4,1.44Z"/>
  <path class="cls-1" d="M75.13,122.24a.75.75,0,0,0,0-1.5.75.75,0,0,0,0,1.5Z"/>
  <path class="cls-1" d="M77.39,121.88a28.72,28.72,0,0,1,11.92-1.44l-.37-1.4a55.24,55.24,0,0,1-19.21,9.44.75.75,0,0,0,.4,1.45,56.32,56.32,0,0,0,19.56-9.59.76.76,0,0,0-.38-1.4A30,30,0,0,0,77,120.43c-.91.31-.52,1.76.4,1.45Z"/>
  <path class="cls-1" d="M50,132.81a6.39,6.39,0,0,0-2.31-1.13,3.75,3.75,0,0,1-.84-.37l-.11-.07c.06,0,.06,0,0,0s-.21-.21-.09-.08c0,0-.09-.19,0,0,0,0,0-.28,0-.12,0-.47.39-.94.65-1.29a8.37,8.37,0,0,1,1-1.07A7.91,7.91,0,0,1,50.85,127a.76.76,0,0,0,.52-.92.75.75,0,0,0-.92-.52,9.56,9.56,0,0,0-4.69,3.52,2.54,2.54,0,0,0-.51,2.68A2.9,2.9,0,0,0,47,133c.37.14.74.25,1.1.39l.16.06.24.12.27.16,0,0,.1.08c.71.65,1.78-.41,1.06-1.06Z"/>
  <path class="cls-1" d="M34.84,218.57c-.06,4.36,0,8.77-.36,13.11a30,30,0,0,1-3.88,11.75A48.72,48.72,0,0,0,26,253.64a30.54,30.54,0,0,0-1,9.8c.76,14.23,10,26.21,22.43,32.65a62.24,62.24,0,0,0,23.29,6.51c1,.09,1-1.42,0-1.5-13.88-1.24-28.44-6.76-37-18.25a36.21,36.21,0,0,1-7.16-18.67,29.54,29.54,0,0,1,.83-9.78,45.25,45.25,0,0,1,4.49-10,31.88,31.88,0,0,0,4.07-11.57,135.24,135.24,0,0,0,.48-14.24.75.75,0,0,0-1.5,0Z"/>
  <path class="cls-1" d="M61.16,241.64a18.35,18.35,0,0,1,3.59,16.45c-1.46,5.25-5,9.6-7.1,14.57-1.8,4.24-2.25,8.91.07,13.07,2,3.65,5.63,6.14,9.07,8.34,4.22,2.7,8.77,5.16,12,9.08.62.74,1.67-.32,1.06-1.06-2.84-3.44-6.7-5.8-10.44-8.14-3.58-2.23-7.53-4.54-9.9-8.14-6.44-9.79,5-19.19,6.95-28.46a20,20,0,0,0-4.25-16.77c-.62-.74-1.68.33-1.06,1.06Z"/>
  <path class="cls-1" d="M50.55,251.45,50,265.09c-.16,3.93-.89,8.39.44,12.19,2.1,6.05,8.62,8.82,14.15,10.93.9.34,1.29-1.11.39-1.45-5.34-2-12.08-4.85-13.44-11.09a22.73,22.73,0,0,1-.24-5.71q.14-3.16.26-6.33l.5-12.18c0-1-1.46-1-1.5,0Z"/>
  <path class="cls-1" d="M107.27,244.73c-8.92-1.28-14.38,8.23-15.55,15.82-.82,5.26-.23,10.64-.67,15.93-.39,4.63-1.78,11.88-7,13.48-2.8.86-4-1.59-5.06-3.68-.85-1.71-1.84-3.3-3.9-3.51a.76.76,0,0,0-.73.55,16.21,16.21,0,0,0,2.79,12.39c.56.77,1.86,0,1.29-.76a14.71,14.71,0,0,1-2.63-11.23l-.72.55c1.82.18,2.52,2.67,3.24,4,.83,1.54,2,3,3.79,3.28,4.77.84,7.94-4.65,9.16-8.4,3.17-9.71-.61-20.47,4.35-29.75,2.22-4.16,6.15-8,11.22-7.26.95.14,1.35-1.31.4-1.44Z"/>
  <path class="cls-1" d="M121.81,240c3.47,15.43-3,32.09-15.11,42.05a38.91,38.91,0,0,1-11.51,6.59c-.9.32-.51,1.77.4,1.44C111,284.49,122,269.57,124,253.42a40.64,40.64,0,0,0-.69-13.82c-.21-.95-1.66-.55-1.45.39Z"/>
  <path class="cls-1" d="M109.69,254.31a34.54,34.54,0,0,1-16,25.88c-.81.51-.06,1.81.76,1.3a36.15,36.15,0,0,0,16.74-27.18c.09-1-1.42-.95-1.5,0Z"/>
  <path class="cls-1" d="M122.08,271.72c-.7,6.14-5.66,10.73-10.86,13.46-6.22,3.28-13.29,4.5-19.7,7.33-.89.38-.12,1.68.75,1.29,6.86-3,14.51-4.2,21-8.05,5.18-3.07,9.59-7.85,10.3-14,.11-1-1.39-1-1.5,0Z"/>
  <path class="cls-1" d="M40.16,253c-5,3.94-6.24,10.65-5.06,16.63,1.39,7.05,6.32,12.46,12,16.56A99.67,99.67,0,0,0,58.55,293c.85.46,1.61-.84.76-1.29-6.23-3.35-12.65-6.81-17.42-12.14-4.17-4.66-6.57-10.94-5.47-17.23a13.39,13.39,0,0,1,4.8-8.32c.76-.6-.31-1.65-1.06-1.06Z"/>
  <path class="cls-1" d="M125.29,225A77.83,77.83,0,0,1,118,268.45c-.42.86.87,1.62,1.29.75a79.15,79.15,0,0,0,7.5-44.2c-.11-.95-1.62-1-1.5,0Z"/></g></g></svg>
