<svg xmlns="http://www.w3.org/2000/svg" viewBox="0 0 1100 800"><path stroke="#ffffff" stroke-width="3" fill="none"  d="M29.82,7.1c-4.13.48-9.08.7-12.37,3.57-2.94,2.57-3.11,6.72-2.17,10.24a28,28,0,0,0,6,10.7,31,31,0,0,0,7,5.7A80.62,80.62,0,0,0,38,43a79.52,79.52,0,0,0,10.87,4.1,125.64,125.64,0,0,0,14.22,3.26A89.48,89.48,0,0,0,77,51.85a76.67,76.67,0,0,0,15.11-1.36,59.73,59.73,0,0,0,11.41-3.08,37.75,37.75,0,0,0,11.84-7.24c3.05-2.81,6-6.26,7.31-10.25,2.62-8-3-16.13-10.58-18.54-4.29-1.37-9-1.28-13.41-1.21-5.49.08-11,.18-16.45.22a217.31,217.31,0,0,1-24.48-.74C51.09,9,44.62,7,37.88,6.78a54.29,54.29,0,0,0-8.06.32c-1.9.21-1.92,3.21,0,3a52.57,52.57,0,0,1,13.84.21c2.67.41,5.29,1.07,8,1.52a133.91,133.91,0,0,0,20.2,1.55c9.64.14,19.27-.19,28.91-.23,4,0,8.3,0,12,1.66A13.4,13.4,0,0,1,119.17,21c4.15,8.09-3.77,16.23-10.1,20.3-6.54,4.2-14.35,6-22,7C78,49.5,69,48.49,60,46.73c-7.6-1.5-15.32-3.57-22.22-7.17a103.08,103.08,0,0,1-9.64-5.9,23.14,23.14,0,0,1-6.06-5.78C20,25,18,21.38,17.76,17.7a6,6,0,0,1,1.15-4.24,8.12,8.12,0,0,1,4.43-2.34,48.8,48.8,0,0,1,6.48-1C31.71,9.88,31.73,6.87,29.82,7.1Z"/><path class="cls-1" d="M13,4.79c-3.55,3.71-4.3,9.09-3.78,14a28.64,28.64,0,0,0,4.94,13.84c6.36,8.82,17.26,12.61,27.09,16.14a123.67,123.67,0,0,0,24,6.38,85.59,85.59,0,0,0,38.11-2.61c8-2.51,17.21-6.4,21.77-13.87,4.91-8,5.94-20.54-1-27.78-2.55-2.68-6.09-4-9.61-4.9A130,130,0,0,0,95.9,3.25,176.64,176.64,0,0,0,67.73,3c-6.64.41-13.27.81-19.85-.44-3.27-.62-6.44-1.59-9.74-2a51.26,51.26,0,0,0-18.31.81A14.13,14.13,0,0,0,13,4.79c-1.38,1.35.74,3.47,2.12,2.12,1.88-1.83,4.32-2.54,6.85-3A50.56,50.56,0,0,1,31.36,3,47,47,0,0,1,42.93,4.46,63.71,63.71,0,0,0,62,6.29c7.48-.35,14.91-1,22.41-.75,5.77.15,11.53.64,17.25,1.35,5.11.63,10.46,1.21,15.32,3,8.88,3.25,10.3,13.71,7.85,21.83a20.54,20.54,0,0,1-3.94,7.58,30.17,30.17,0,0,1-9.38,6.78C91.92,55.88,68.33,54.7,48,48c-3.8-1.26-7.58-2.63-11.32-4.06a61.92,61.92,0,0,1-13.77-6.86A24.23,24.23,0,0,1,14,26.11,25.49,25.49,0,0,1,12.29,12.8a11.2,11.2,0,0,1,2.79-5.89C16.42,5.52,14.3,3.4,13,4.79Z"/><path class="cls-1" d="M9.83,22.05q8.76,35.67,20.09,70.66,3.06,9.42,6.28,18.76c.63,1.81,3.53,1,2.9-.8Q27.3,76.53,17.94,41.6q-2.72-10.16-5.22-20.35c-.46-1.87-3.35-1.08-2.89.8Z"/><path class="cls-1" d="M125.28,31.55C122.41,42.7,117.81,53.27,113.62,64c-2.09,5.35-4.08,10.74-5.69,16.25s-2.63,11.07-3.75,16.66c-1.26,6.28-2.69,12.59-5.51,18.37-.84,1.73,1.75,3.25,2.59,1.51,5.08-10.41,5.9-22.07,8.84-33.13S117.78,61.82,122,51a167.71,167.71,0,0,0,6.21-18.69c.48-1.87-2.41-2.67-2.89-.8Z"/><path class="cls-1" d="M37.43,113.55a93.17,93.17,0,0,0,22.84,7.35,79.83,79.83,0,0,0,29.87-.59,101.45,101.45,0,0,0,10.44-2.61c1.85-.56,1.06-3.46-.79-2.89a96.2,96.2,0,0,1-21.45,4.08A77.49,77.49,0,0,1,51,115.59a82.4,82.4,0,0,1-12-4.63c-1.73-.82-3.26,1.77-1.51,2.59Z"/><path class="cls-1" d="M123.47,46a65.3,65.3,0,0,1,15.36-5.07c4.69-.93,9.88-1.67,14.65-.86a12.33,12.33,0,0,1,5.85,2.39,13.43,13.43,0,0,1,3.68,6,67.6,67.6,0,0,1,3.78,15.93,69.61,69.61,0,0,1-.06,15.87,44.2,44.2,0,0,1-3.47,13.63c-1.71,3.61-4.32,7.14-8.23,8.52-4.9,1.73-10.15-.12-14.49-2.5-5.29-2.9-10.1-6.4-15.85-8.4a44.31,44.31,0,0,0-17.28-2.32c-1.92.13-1.93,3.13,0,3a41.92,41.92,0,0,1,16.48,2.21c5.56,1.94,10.21,5.43,15.34,8.21,4.71,2.56,10.28,4.4,15.65,3,4.45-1.18,7.84-4.53,10.06-8.44a40.49,40.49,0,0,0,4.36-13.79,71.5,71.5,0,0,0-2.79-34A24.35,24.35,0,0,0,163,42a12.72,12.72,0,0,0-5.6-4c-5.29-2-11.5-1.27-16.94-.41A68.24,68.24,0,0,0,122,43.4c-1.74.83-.22,3.41,1.52,2.59Z"/><path class="cls-1" d="M124.53,46.87c4.84-1.42,9.67-3,14.58-4.15,4.31-1,9.1-2,13.54-1.17a9.45,9.45,0,0,1,4.86,2.25c1.69,1.63,2.32,4,3.08,6.17,1.72,4.87,3.41,9.76,4.77,14.74a1.5,1.5,0,0,0,2.89-.79c-1.14-4.21-2.52-8.35-4-12.47-1.23-3.52-2.18-7.75-5.18-10.24-5.73-4.74-14.73-2.89-21.26-1.27-4.75,1.18-9.43,2.66-14.12,4-1.85.54-1.06,3.44.8,2.89Z"/><path class="cls-1" d="M109.09,90.57a55.49,55.49,0,0,1,10.39-.14,19.14,19.14,0,0,1,8.87,3.3c2.93,1.87,5.94,3.67,8.77,5.69,2.38,1.7,4.53,3.81,7.47,4.5a23.42,23.42,0,0,0,8.87,0,12.78,12.78,0,0,0,7.71-4.13c3.82-4.4,6.09-10.55,7.27-16.18a44.77,44.77,0,0,0-.41-20.4c-.48-1.87-3.37-1.08-2.89.8a41.26,41.26,0,0,1,.77,16.92,38,38,0,0,1-6.2,15.91,10.23,10.23,0,0,1-6.84,4.15c-2.63.46-6,.7-8.52-.27s-4.64-3.2-6.91-4.71c-2.74-1.83-5.53-3.6-8.32-5.34a21.3,21.3,0,0,0-9.18-3.2,53.89,53.89,0,0,0-10.85.1c-1.91.18-1.93,3.19,0,3Z"/><path class="cls-1" d="M22,29c2.2-.9,4.94-2,7.35-1.34,2.82.76,2.8,4,3.51,6.32s2.65,5,5.43,4.93a5.38,5.38,0,0,0,3.15-1.36c1-.8,1.88-1.85,3.29-1.52,2.72.65,3.84,3.94,5.21,6s3.3,3.87,6,3.88c2.14,0,4.43-1.16,4.88-3.4.1-.54-.17-1.4,0-1.87.11-.3-.08-.32.43-.21,1.48.31,2.66,1.44,3.83,2.31l3.84,2.84c1.26.93,2.56,2.13,4.15,2.41,3.1.54,4-2.53,6.27-3.77,3-1.65,5.4.73,8,2,2.14,1.05,4.89,1.29,6.84-.32a3.88,3.88,0,0,0,1.41-2.65c0-.32,0-1.64,0-1.66a16.1,16.1,0,0,1,2.29.47c2.76.57,5.78.92,8.21-.83a5.62,5.62,0,0,0,2.17-3.31c.31-1.26.2-2.88,1.47-3.61a9.88,9.88,0,0,1,3.65-.79,8.84,8.84,0,0,0,3.66-1.2c2.55-1.64,3.1-4.54.94-6.77a9.47,9.47,0,0,1-1.36-1.4,3.9,3.9,0,0,1-.31-2.19,9.77,9.77,0,0,0-.43-4.56c-1.19-2.59-4.11-3.17-6.7-3.17-1.85,0-5.88.67-6.41-1.87a1.51,1.51,0,0,0-2.51-.66A9.48,9.48,0,0,1,87.3,13a1.52,1.52,0,0,0-2.51.66,4.38,4.38,0,0,1-4.35,3.13c-2.68.07-5.15-1.43-7.4-2.72a1.51,1.51,0,0,0-2.2.89C70.2,19.27,64.78,18.16,62,17c-3.13-1.3-6.67-2.86-8.42-5.93a1.51,1.51,0,0,0-2.59,0,23.11,23.11,0,0,1-2.28,4c-.41.58-.83,1.44-1.6,1.31a11.82,11.82,0,0,1-2.41-1.09l-9.67-4.45c-1.2-.55-3,.71-2,2.06a2.25,2.25,0,0,1,.09,2.68c-.86,1.29-2.6.83-3.85.49C25.6,15.13,22,14.05,18.38,13a1.52,1.52,0,0,0-1.85,1.84,11.43,11.43,0,0,0,7.11,8.77c.55.22,1.13.34,1.68.55.19.07.46.17.64.26s-.56-.05.2-.16c-1.9.27-1.09,3.16.8,2.89a2.66,2.66,0,0,0,1.95-3.28c-.38-1.71-2-2.34-3.47-2.81a8.63,8.63,0,0,1-6-7l-1.84,1.84,7.58,2.16c2.25.63,4.77,1.71,7.15,1.3a5.17,5.17,0,0,0,3.28-8l-2.05,2.05c4.07,1.88,8.11,3.9,12.25,5.63,2,.84,3.51.16,4.8-1.49a24.25,24.25,0,0,0,3-5H51c2.33,4.08,7.25,6.35,11.52,7.8a10.1,10.1,0,0,0,7.22.1,6.35,6.35,0,0,0,4-4.74l-2.2.9c3,1.73,6.35,3.55,10,3a7.2,7.2,0,0,0,6.21-5.22l-2.51.66a12.5,12.5,0,0,0,17-1.29l-2.51-.66c.49,2.34,2.67,3.58,4.88,4s4.72-.3,6.94.4c2.61.83,1.4,4,1.66,6.07a5.43,5.43,0,0,0,1.53,3.15c.62.65,2,1.43,1.28,2.43-1.34,1.9-4.74,1.36-6.68,2a5.55,5.55,0,0,0-2.92,2.06c-.86,1.25-.86,2.68-1.25,4.09-.89,3.14-5,2.18-7.33,1.71-1.23-.25-2.65-.67-3.85-.07s-1.52,2-1.51,3.26c0,1-.13,1.5-1.17,1.76A4.39,4.39,0,0,1,88,43.26c-2.5-1.4-4.72-3-7.74-2.48a7.62,7.62,0,0,0-3.63,1.64c-.83.69-1.57,2.12-2.58,2.54S71.2,43.64,70.35,43l-4.23-3.13c-1.81-1.34-4.29-3.27-6.68-2.16a3,3,0,0,0-1.7,2.55c-.07,1,.42,2-.74,2.47-2.24.94-3.9-1.18-4.92-2.85-1.43-2.34-2.66-4.88-5.23-6.2a5.66,5.66,0,0,0-4.11-.56c-1.4.39-2.3,1.44-3.43,2.27-3,2.15-3.84-3.37-4.31-5.14-.75-2.81-2.53-5.12-5.53-5.63-2.84-.48-5.72.41-8.32,1.48-1.76.72-1,3.63.8,2.89Z"/><path class="cls-1" d="M23.68,41.33,39.3,97.88c1.43,5.19,2.66,10.5,4.66,15.52.7,1.77,3.61,1,2.89-.8A130.76,130.76,0,0,1,42.72,99L38.8,84.81,31,56.65,26.57,40.53a1.5,1.5,0,0,0-2.89.8Z"/><path class="cls-1" d="M37.16,48.87c4.08,18.05,7.76,36.27,13,54.06,1.47,5,3.08,10,4.89,15,.66,1.79,3.56,1,2.89-.8C51.58,99.84,47.69,81.85,43.65,64L40.06,48.07c-.43-1.88-3.32-1.09-2.9.8Z"/><path class="cls-1" d="M54,54.78q3.29,25.13,7.65,50.08,1.28,7.19,2.62,14.37c.36,1.89,3.25,1.09,2.89-.8Q62.55,93.86,59,69.1q-1-7.15-2-14.32a1.56,1.56,0,0,0-1.5-1.5,1.5,1.5,0,0,0-1.5,1.5Z"/><path class="cls-1" d="M71.76,55.93Q73,87.61,75.11,119.24c.12,1.92,3.12,1.93,3,0Q76,87.61,74.76,55.93c-.07-1.93-3.07-1.94-3,0Z"/><path class="cls-1" d="M54.12,53,55,58a1.49,1.49,0,0,0,.69.9,1.52,1.52,0,0,0,1.16.15,1.5,1.5,0,0,0,.89-.69,1.67,1.67,0,0,0,.15-1.16l-.88-5a1.47,1.47,0,0,0-.69-.89,1.49,1.49,0,0,0-2,.53A1.67,1.67,0,0,0,54.12,53Z"/><path class="cls-1" d="M89.76,56.22a543.74,543.74,0,0,0-3.55,59.83,1.5,1.5,0,0,0,3,0,543.74,543.74,0,0,1,3.55-59.83c.22-1.92-2.78-1.9-3,0Z"/><path class="cls-1" d="M106.38,50.77q-6.63,25.07-11,50.65-1.24,7.32-2.31,14.67c-.27,1.89,2.62,2.71,2.89.8Q99.66,91.23,105.65,66q1.72-7.23,3.63-14.41a1.5,1.5,0,0,0-2.9-.79Z"/><path class="cls-1" d="M85.92,116.8l-.18,1.62a1.15,1.15,0,0,0,.13.58,1,1,0,0,0,.31.48,1.14,1.14,0,0,0,.48.31,1.06,1.06,0,0,0,.58.13l.4,0a1.49,1.49,0,0,0,.66-.39l.24-.3a1.54,1.54,0,0,0,.2-.76l.18-1.62a1.15,1.15,0,0,0-.13-.58,1.36,1.36,0,0,0-.79-.79,1.15,1.15,0,0,0-.58-.13l-.4,0a1.59,1.59,0,0,0-.66.39l-.24.3a1.57,1.57,0,0,0-.2.76Z"/><path class="cls-1" d="M35.9,111.29c-6,2.66-11.59,6.39-17.25,9.7L1.17,131.22a1.5,1.5,0,0,0,1.51,2.59l17.48-10.22c5.66-3.32,11.25-7,17.25-9.71,1.76-.78.24-3.37-1.51-2.59Z"/><path class="cls-1" d="M101.54,117.59c6.76.37,12.95,3.62,19,6.38l19.54,8.91c1.75.79,3.27-1.79,1.52-2.59L121.14,121c-6.27-2.86-12.6-6-19.6-6.38-1.93-.11-1.93,2.89,0,3Z"/><path class="cls-1" d="M.1,133.85c1.42,3.82,5.05,5.64,8.76,6.69,5,1.41,10.23,2.29,15.34,3.24q16.13,3,32.47,4.41t32.83,1.33c9.27-.07,18.62-.37,27.73-2.22,9.43-1.91,18.58-5.71,25.45-12.62a1.5,1.5,0,0,0-2.12-2.12c-12.07,12.13-30.51,13.57-46.68,13.9A342.17,342.17,0,0,1,31.24,142q-8.77-1.44-17.46-3.35c-3.59-.79-9.29-1.55-10.79-5.57-.66-1.79-3.56-1-2.89.8Z"/><path class="cls-1" d="M40.71,146.5a514.11,514.11,0,0,0-14,52.79c-.88,4.2-1.84,8.42-2.43,12.67-.47,3.38-.64,7,.68,10.22a11.1,11.1,0,0,0,7.69,6.4c4.08,1.12,8.52,1.34,12.72,1.78a239,239,0,0,0,55.17-.17c8-1,16.89-2.06,23.2-7.66a16.14,16.14,0,0,0,5.38-9.31c.7-4.31-.42-8.58-1.68-12.67a188.74,188.74,0,0,0-21.15-45.88q-1.69-2.64-3.47-5.24c-1.08-1.58-3.68-.09-2.59,1.51a186.85,186.85,0,0,1,21.86,42.94,115.6,115.6,0,0,1,3.58,11.44c.91,3.82,1.1,7.82-.92,11.33-3.92,6.77-12.17,8.72-19.33,9.85a224.85,224.85,0,0,1-52.49,1.55q-6.6-.51-13.16-1.33c-3.38-.42-7.63-.57-10.26-3.05C27.12,221.45,26.79,218,27,215a80.57,80.57,0,0,1,1.9-11.32,511.71,511.71,0,0,1,12.78-50.12c.65-2.08,1.3-4.16,2-6.23.6-1.84-2.3-2.63-2.89-.79Z"/><path class="cls-1" d="M111.59,162.36a19.53,19.53,0,0,1,15-6.8c6,0,11.16,2.94,14.94,7.47,4.08,4.87,6.51,11.18,8,17.29,1.56,6.42,1.6,14.1-3.26,19.2s-13.15,4.88-19.11,8.38a1.5,1.5,0,0,0,1.52,2.59c5.91-3.47,13.37-3.31,18.73-7.91,5.77-5,6.8-13.2,5.58-20.3-2.2-12.91-9.95-28.24-24.48-29.62a22.46,22.46,0,0,0-19,7.58c-1.23,1.47.88,3.6,2.12,2.12Z"/><path class="cls-1" d="M112.25,164.29c1.38-2,3.86-2.82,6.11-3.44a47.57,47.57,0,0,1,8.34-1.75,14,14,0,0,1,8.26,1.35,18.23,18.23,0,0,1,5.92,5.93,38.92,38.92,0,0,1,5.66,15.39c.9,5.43,1.49,12-2.15,16.59-1.84,2.33-4.36,3.17-7.18,3.68-1.38.25-2.78.44-4.13.82a13.9,13.9,0,0,0-2.1.78c-.23.11-.45.22-.66.34s-1.3.65-.73.75l.9.69-.1-.15.15,1.16-.75.68-1.46-.39.09.11c1.28,1.45,3.4-.68,2.12-2.12l-.09-.11a1.48,1.48,0,0,0-1.46-.39,1.84,1.84,0,0,0-.86,3c1.43,1.38,3.06-.43,4.36-1,2.79-1.24,6-1.09,8.85-2.12,6.65-2.42,9-9.58,8.84-16.1a47,47,0,0,0-5-20.25,27.21,27.21,0,0,0-6-8,15.22,15.22,0,0,0-9.46-3.77c-3.85-.19-7.72.77-11.42,1.74-3.32.88-6.6,2.07-8.61,5-1.09,1.6,1.51,3.1,2.59,1.52Z"/><path class="cls-1" d="M148.3,181.5a22.73,22.73,0,0,1-1.74,9.64,1.54,1.54,0,0,0,.53,2.05,1.52,1.52,0,0,0,2.06-.54,26.34,26.34,0,0,0,2.15-11.15,1.5,1.5,0,0,0-3,0Z"/><path class="cls-1" d="M118.47,159.26a43,43,0,0,1,14.27-1.74c1.93.09,1.93-2.91,0-3a45.64,45.64,0,0,0-15.06,1.85c-1.85.55-1.06,3.45.79,2.89Z"/></g></g></svg>
