<svg width="540" height="1024" viewBox="0 0 540 1024" fill="none" xmlns="http://www.w3.org/2000/svg">
<path d="M178.449 -1.202e-06L178.449 127.8C178.449 155.414 200.834 177.8 228.449 177.8L256.17 177.8C283.785 177.8 306.17 200.186 306.17 227.8L306.17 336.496L306.17 468.056C306.17 495.671 328.556 518.056 356.17 518.056L393.497 518.056C421.112 518.056 443.497 540.442 443.497 568.056L443.497 724.437L443.497 782.831C443.497 808.651 464.429 829.582 490.249 829.582V829.582C516.069 829.582 537 850.514 537 876.334L537 940.084C537 967.698 514.614 990.084 487 990.084L365.304 990.084L293.285 990.084C265.671 990.084 243.285 1012.47 243.285 1040.08L243.285 1049.14C243.285 1076.75 220.899 1099.14 193.285 1099.14L190.327 1099.14C162.713 1099.14 140.327 1076.75 140.327 1049.14L140.327 990.084L140.327 965.624C140.327 938.01 117.941 915.624 90.3271 915.624L53 915.624C25.3858 915.624 2.99999 938.01 2.99999 965.624L3 1070.41L3 1156" stroke="#6DC1CD" stroke-width="5"/>
</svg>
