<svg width="274" height="1024" viewBox="0 0 274 1024" fill="none" xmlns="http://www.w3.org/2000/svg">
<path d="M2.99993 -4.09484e-05L2.99994 127.398C2.99994 155.012 25.3857 177.398 52.9999 177.398L82.1438 177.398C109.758 177.398 132.144 199.784 132.144 227.398L132.144 335.735L132.144 466.885C132.144 494.5 154.53 516.885 182.144 516.885L221 516.885C248.614 516.885 271 539.271 271 566.885L271 722.799L271 777.707C271 805.321 248.614 827.707 221 827.707L158.526 827.707C129.726 827.707 106.88 851.974 108.617 880.722L113.105 955.019C114.699 981.414 136.571 1002 163.014 1002L221 1002C248.614 1002 271 1024.39 271 1052L271 1159.39L271 1497" stroke="#E8EC17" stroke-width="5"/>
</svg>
