<svg width="73" height="389" viewBox="0 0 73 389" fill="none" xmlns="http://www.w3.org/2000/svg">
<path d="M71 1.31726e-05L71 29.4726C71 38.6542 63.5568 46.0974 54.3751 46.0974V46.0974C45.1935 46.0974 37.7503 53.5406 37.7503 62.7223L37.7503 87.2419L37.7503 116.439C37.7503 126.311 29.7473 134.314 19.8751 134.314V134.314C10.003 134.314 2 142.317 2 152.189L2.00001 187.822L2.00001 194.403C2.00001 205.824 11.2582 215.082 22.6787 215.082V215.082C34.5851 215.082 44.0318 225.111 43.3205 236.996L43.0782 241.045C42.4284 251.902 33.434 260.374 22.5575 260.374V260.374C11.2039 260.374 2.00001 269.578 2.00001 280.931L2.00002 301.272L2.00002 389" stroke="#A96DCD" stroke-width="3"/>
</svg>
