<svg width="138" height="290" viewBox="0 0 138 290" fill="none" xmlns="http://www.w3.org/2000/svg">
<path d="M46.0264 -6.24579e-06L46.0264 28.5787C46.0264 37.4291 53.2011 44.6038 62.0514 44.6038V44.6038C70.9018 44.6038 78.0764 51.7784 78.0764 60.6288L78.0764 84.4151L78.0764 112.732C78.0764 122.248 85.7907 129.962 95.3066 129.962V129.962C104.823 129.962 112.537 137.676 112.537 147.192L112.537 181.736L112.537 196.382C112.537 202.861 117.789 208.113 124.268 208.113V208.113C130.748 208.113 136 213.366 136 219.845L136 228.245C136 239.364 126.987 248.377 115.868 248.377L92.9151 248.377L75.9755 248.377C68.4206 248.377 62.2962 254.502 62.2962 262.057L62.2962 262.818C62.2962 269.952 56.5127 275.736 49.3783 275.736V275.736C42.2439 275.736 36.4604 269.952 36.4604 262.818L36.4604 248.377L36.4604 246.928C36.4604 237.412 28.7462 229.698 19.2302 229.698V229.698C9.71421 229.698 2 237.412 2 246.928L2 268.528L2 290" stroke="#6DC1CD" stroke-width="3"/>
</svg>
