<svg width="1455" height="277" viewBox="0 0 1455 277" fill="none" xmlns="http://www.w3.org/2000/svg">
<path d="M0.5 2.5H191.5C219.114 2.5 241.5 24.8858 241.5 52.5V212.5C241.5 240.114 263.886 262.5 291.5 262.5H425.5C453.114 262.5 475.5 240.114 475.5 212.5V198C475.5 170.386 497.886 148 525.5 148H776.5C804.114 148 826.5 170.386 826.5 198V212.5C826.5 240.114 848.886 262.5 876.5 262.5H1037C1064.61 262.5 1087 240.114 1087 212.5V126.5C1087 98.8858 1064.61 76.5 1037 76.5H889C875.745 76.5 865 65.7548 865 52.5V52.5C865 39.2452 875.745 28.5 889 28.5H1204C1231.61 28.5 1254 50.8858 1254 78.5V207.5V224.5C1254 252.114 1276.39 274.5 1304 274.5H1454.5" stroke="#3AB062" stroke-width="5"/>
</svg>
