<svg width="71" height="375" viewBox="0 0 71 375" fill="none" xmlns="http://www.w3.org/2000/svg">
<path d="M1.99998 9.83477e-06L1.99998 28.2954C1.99999 37.2109 9.22745 44.4384 18.143 44.4384V44.4384C27.0585 44.4384 34.2859 51.6658 34.286 60.5814L34.286 84.1021L34.286 112.123C34.286 121.709 42.057 129.48 51.643 129.48V129.48C61.229 129.48 69 137.251 69 146.837L69 181.062L69 187.267C69 198.354 60.0122 207.341 48.9252 207.341V207.341C37.3631 207.341 28.1909 217.083 28.8867 228.624L29.1046 232.239C29.74 242.78 38.474 251.003 49.0342 251.003V251.003C60.061 251.003 69 259.942 69 270.969L69 290.429L69 375" stroke="#E8EC17" stroke-width="3"/>
</svg>
