<svg width="279" height="1024" viewBox="0 0 279 1024" fill="none" xmlns="http://www.w3.org/2000/svg">
<path d="M276 -28L276 106.034C276 133.648 253.614 156.034 226 156.034L194.447 156.034C166.833 156.034 144.447 178.42 144.447 206.034L144.447 320.295L144.447 458.221C144.447 485.835 122.061 508.221 94.4468 508.221L53 508.221C25.3858 508.221 3.00001 530.607 3.00001 558.221L3.00002 721.838L3.00002 780.67C3.00003 808.284 25.3858 830.67 53 830.67L118.621 830.67C147.399 830.67 170.237 854.902 168.533 883.63L163.74 964.448C162.173 990.866 140.292 1011.49 113.828 1011.49L53 1011.49C25.3858 1011.49 3.00004 1033.87 3.00004 1061.49L3.00007 1174.76L3.00008 1525" stroke="#A96DCD" stroke-width="5"/>
</svg>
