<svg width="1444" height="318" viewBox="0 0 1444 318" fill="none" xmlns="http://www.w3.org/2000/svg">
<path d="M1 110.5C127.898 112.624 191.63 81.5347 220.145 49.7127C238.573 29.147 262.386 5 290 5H514.5C542.114 5 564.5 27.3858 564.5 55V85C564.5 112.614 586.886 135 614.5 135H745C770.681 135 791.5 155.819 791.5 181.5V193.5C791.5 212.554 776.054 228 757 228V228C737.946 228 722.5 243.446 722.5 262.5V270.5C722.5 293.972 741.528 313 765 313H864.5H968C995.614 313 1018 290.614 1018 263V213.5C1018 185.886 1040.39 163.5 1068 163.5H1190.5C1205.14 163.5 1217 151.636 1217 137V137C1217 122.364 1228.86 110.5 1243.5 110.5H1271.5C1286.14 110.5 1298 122.364 1298 137V137C1298 151.636 1309.86 163.5 1324.5 163.5H1443.5" stroke="white" stroke-width="10"/>
</svg>
