<svg width="1452" height="337" viewBox="0 0 1452 337" fill="none" xmlns="http://www.w3.org/2000/svg">
<path d="M1451.5 332H1296C1268.39 332 1246 309.614 1246 282V264.5C1246 236.886 1223.61 214.5 1196 214.5H962.5C942.894 214.5 927 198.606 927 179V179C927 159.394 942.894 143.5 962.5 143.5H973C989.292 143.5 1002.5 130.292 1002.5 114V114C1002.5 97.7076 989.292 84.5 973 84.5H740.25C713.602 84.5 692 106.102 692 132.75V132.75C692 159.398 670.398 181 643.75 181H341.75C315.102 181 293.5 159.398 293.5 132.75V132.75C293.5 106.102 315.102 84.5 341.75 84.5H350.25C372.203 84.5 390 66.7033 390 44.75V44.75C390 22.7967 372.203 5 350.25 5H167.5C139.886 5 117.5 27.3858 117.5 55V164.5C117.5 192.114 95.1142 214.5 67.5 214.5H0" stroke="#3F2BBE" stroke-width="10"/>
</svg>
