<svg xmlns="http://www.w3.org/2000/svg" viewBox="0 0 300.94 316.91"><defs><style>.cls-1{fill:#fff;}</style></defs><g id="Layer_2" data-name="Layer 2"><g id="Layer_1-2" data-name="Layer 1">
<path class="cls-1" d="M22.66,246.66c4.54,6.92,13.56,7.32,21,7.89a41.68,41.68,0,0,0,13-.6,31.63,31.63,0,0,0,10.58-4.73c3-2.15,5.52-5.06,5.79-8.91.09-1.28-1.91-1.28-2,0-.28,4-3.75,6.75-7,8.56a30.12,30.12,0,0,1-13.72,3.89,76.75,76.75,0,0,1-14.75-1c-4.27-.7-8.69-2.29-11.17-6.07-.7-1.07-2.43-.07-1.73,1Z"/>
<path class="cls-1" d="M25.88,239.4a17.44,17.44,0,0,0,8.49,6.72c4,1.5,8.06,1,12.17.12,7.63-1.65,15.64-3.59,21.45-9.16l-1,.26a8.58,8.58,0,0,1,3.89,3c.74,1,2.47,0,1.72-1a10.87,10.87,0,0,0-5.08-3.94,1,1,0,0,0-1,.26c-5.24,5-12.49,6.86-19.38,8.38-3.75.83-7.45,1.6-11.22.5a15.19,15.19,0,0,1-8.37-6.16c-.71-1.07-2.44-.07-1.73,1Z"/>
<path class="cls-1" d="M24,245.62a9.6,9.6,0,0,1,3.52-7,1,1,0,0,0,0-1.41,1,1,0,0,0-1.42,0,11.53,11.53,0,0,0-4.1,8.4,1,1,0,0,0,2,0Z"/>
<path class="cls-1" d="M30.31,239.69a20.94,20.94,0,0,0,2.6-11.28c-.12-2-.88-4.1-.74-6.14.09-1.31,1.38-3.53,3-2.54,1.1.69,2.1-1,1-1.72a3.69,3.69,0,0,0-4.54.76c-1.62,1.59-1.57,3.89-1.23,6a25.25,25.25,0,0,1,.43,7.1,18.94,18.94,0,0,1-2.23,6.83c-.62,1.13,1.11,2.14,1.73,1Z"/>
<path class="cls-1" d="M66.71,234.24c-1.77-.84-3.79-1.18-5.45-2.22-1.85-1.16-2.16-3.27-2.25-5.28-.14-3.4-.22-7.94-4.14-9.21-1.22-.4-1.75,1.53-.53,1.93,1.6.52,2.21,2.3,2.47,3.81.35,1.92.1,3.89.43,5.82a6.68,6.68,0,0,0,3,4.66c1.68,1.05,3.68,1.37,5.45,2.22,1.16.55,2.17-1.18,1-1.73Z"/>
<path class="cls-1" d="M35.39,219.88a12.26,12.26,0,0,0,8.13,2.63,1,1,0,0,0,1-1,1,1,0,0,0-1-1,10.15,10.15,0,0,1-6.71-2,1,1,0,0,0-1.42,0,1,1,0,0,0,0,1.41Z"/>
<path class="cls-1" d="M37.5,217.44q-.44-23.66-1.15-47.29-.75-24.36-1.16-48.71c-.15-9.2-.34-18.4-.68-27.59C34.22,86,34,78.05,33.12,70.21a98.52,98.52,0,0,1-.54-20.31,89.25,89.25,0,0,1,4.15-19.59A41,41,0,0,1,48.31,12.18,40.21,40.21,0,0,1,65.07,3.8c10.49-2.63,21.53-2,32.15-.51a94.7,94.7,0,0,1,23.07,6.23,85.32,85.32,0,0,1,18.29,10.36A71.29,71.29,0,0,1,153.1,34a41,41,0,0,1,6,10.94,96.86,96.86,0,0,1,3.31,13.77c1.32,7.11,2.37,14.27,3.25,21.45q.39,3.13.72,6.29c.12,1.1.12,2.28.34,3.36.14.69.66,1.06,1.09,1.6A10.33,10.33,0,0,1,170,97.16c.08,1.52-.22,3-.16,4.49q.27,6.59.55,13.16c.05,1.28,2.05,1.29,2,0l-.33-7.8c-.1-2.34-.53-5-.19-7.28a12.58,12.58,0,0,0-3.43-10.6l.29.7q-1.08-11-2.75-21.89c-.95-6.23-2-12.48-3.52-18.6a44.47,44.47,0,0,0-2.66-8A51.33,51.33,0,0,0,149.62,27a87.83,87.83,0,0,0-33-21A100.22,100.22,0,0,0,95.5,1.06C85-.33,74.07-.69,63.74,2.07A42.6,42.6,0,0,0,47.84,10,41,41,0,0,0,36,26.5a85.65,85.65,0,0,0-4.58,17.26,81.89,81.89,0,0,0-.78,22c.6,6.55,1.18,13.07,1.5,19.65.43,8.85.68,17.72.87,26.58.35,17,.54,33.9,1.09,50.84q.69,20.91,1.14,41.83.14,6.39.25,12.78a1,1,0,0,0,2,0Z"/>
<path class="cls-1" d="M55.94,217.68q-4-41.12-6.84-82.32-1.43-20.6-2.56-41.22c-.75-13.54-2-27.24-1.14-40.79.35-5.81,1.06-11.75,3.31-17.17A24.24,24.24,0,0,1,59.87,23.91c11.21-6,24.86-4.12,36.95-2.69,11.93,1.41,24.13,4.08,33.94,11.39a35.28,35.28,0,0,1,10.63,12.55c2.74,5.55,4,11.7,5.31,17.71,1.37,6.29,2.67,12.73,2.07,19.2a42.83,42.83,0,0,1-2.46,9.58,35.66,35.66,0,0,0-1.7,9.49c-.26,4.66-.81,10.45,2.37,14.32,3.63,4.41,9.94,3.17,14.83,2.28,3.17-.57,6.32-1.27,9.45-2a1,1,0,0,0-.53-1.93c-3.28.83-6.6,1.55-9.93,2.14-2.79.5-5.81,1.12-8.62.46-5.84-1.36-5.85-8-5.67-12.84a39.22,39.22,0,0,1,1.3-10c.94-3.12,2.2-6.1,2.69-9.34,1-6.38,0-12.82-1.28-19.08C148,59,146.74,52.77,144.39,47A36.77,36.77,0,0,0,135,33.5c-8.75-7.89-20.23-11.56-31.67-13.39A193.18,193.18,0,0,0,83.79,18c-6.24-.36-12.63-.18-18.66,1.62A29.08,29.08,0,0,0,51.44,28c-3.73,4.26-5.76,9.68-6.83,15.17-2.54,12.95-1.35,26.51-.68,39.58q1.07,20.88,2.43,41.73Q49.08,165.9,53,207.28l1,10.4c.13,1.27,2.13,1.28,2,0Z"/>
<path class="cls-1" d="M148.65,96.23l-1.44-.66-.77,1.83c4.06,1.29,8.16,2.44,12.47,2a22.52,22.52,0,0,0,10.89-4.09c1-.75,0-2.48-1-1.73a20.42,20.42,0,0,1-10.26,3.85c-4,.33-7.78-.76-11.56-2-1.06-.34-1.81,1.34-.77,1.83l1.44.66c1.16.54,2.18-1.19,1-1.73Z"/>
<path class="cls-1" d="M153.73,121.76q2.37,20.43,5.55,40.75c.2,1.27,2.13.73,1.93-.53q-3.15-20.05-5.48-40.22c-.15-1.26-2.15-1.28-2,0Z"/>
<path class="cls-1" d="M157.34,122.91c.92,3-.13,6.25.4,9.36.27,1.56.78,3.07,1.14,4.61a22.61,22.61,0,0,1,.49,5.19,144.8,144.8,0,0,0,1,20c.17,1.27,2.1.73,1.92-.53-.46-3.41-.75-6.83-.89-10.27s.05-6.76,0-10.14c-.06-3.2-1.08-6-1.65-9.14s.51-6.43-.44-9.59a1,1,0,0,0-1.93.54Z"/>
<path class="cls-1" d="M160.58,120.5c2.79,7.29,0,15.12.86,22.64a38.07,38.07,0,0,0,1.23,5.48,13.34,13.34,0,0,1,.36,6.12c-.6,3.34-1.64,7,.54,10,.75,1,2.49,0,1.73-1-2.31-3.19-.25-7.24,0-10.74.23-3.82-1.68-7.39-1.94-11.18-.5-7.29,1.9-14.81-.81-21.88-.45-1.19-2.39-.67-1.93.53Z"/>
<path class="cls-1" d="M166.62,118.91a350,350,0,0,0,.87,47.15c.11,1.28,2.11,1.29,2,0a350,350,0,0,1-.87-47.15c.07-1.28-1.93-1.28-2,0Z"/>
<path class="cls-1" d="M165.48,119.28a66.35,66.35,0,0,0-1.7,11.39c-.12,3.7.77,7.18,1.33,10.81,1.14,7.5-.37,15.12.85,22.62.21,1.27,2.14.73,1.93-.53-1.17-7.21.23-14.55-.73-21.79-.48-3.57-1.45-7-1.39-10.62a60.44,60.44,0,0,1,1.64-11.35c.26-1.25-1.66-1.79-1.93-.53Z"/>
<path class="cls-1" d="M152,121.75q1.92,23.67,5.46,47.16c.19,1.27,2.12.73,1.93-.53q-3.5-23.22-5.39-46.63c-.11-1.28-2.11-1.29-2,0Z"/>
<path class="cls-1" d="M160.17,121.13c1.13,8.18,2.25,16.48,1.44,24.74-.68,6.9-4.2,15,.47,21.31.76,1,2.5,0,1.73-1-2.19-2.94-2.36-6.63-1.88-10.14.54-3.89,1.52-7.66,1.8-11.59.57-8-.55-15.95-1.63-23.84-.18-1.27-2.11-.73-1.93.53Z"/>
<path class="cls-1" d="M163.93,123.37c-.63,7.91.51,15.79.52,23.69,0,6.71-2,14.14,1.24,20.4.59,1.14,2.32.13,1.72-1-1.56-3-1.66-6.38-1.48-9.69.19-3.56.56-7.09.51-10.67-.1-7.58-1.11-15.14-.51-22.72.1-1.29-1.9-1.28-2,0Z"/>
<path class="cls-1" d="M156.08,142.15a90.72,90.72,0,0,0,2,13,41.46,41.46,0,0,0,2,5.84c1,2.29,1.56,4.41.95,6.89a1,1,0,0,0,1.93.53,10.78,10.78,0,0,0-.25-6.16c-.72-2.13-1.71-4.13-2.34-6.3a79.67,79.67,0,0,1-2.32-13.81c-.14-1.27-2.14-1.28-2,0Z"/>
<path class="cls-1" d="M155.83,120.81a91.35,91.35,0,0,0,1.28,20.36c.22,1.26,2.15.72,1.93-.54a88.92,88.92,0,0,1-1.21-19.82c.07-1.29-1.93-1.28-2,0Z"/>
<path class="cls-1" d="M159,119.23l.93,20.7c.06,1.28,2.06,1.29,2,0l-.93-20.7c-.05-1.29-2.05-1.29-2,0Z"/>
<path class="cls-1" d="M162.71,118.77c1.85,3.58,2,7.64,1.74,11.58-.26,4.1-.84,8.18-1.12,12.28-.56,8.14-.34,16.46,2.46,24.21.44,1.2,2.37.68,1.93-.53-2.91-8-2.95-16.63-2.29-25.05.61-7.68,2.74-16.28-1-23.5-.59-1.14-2.32-.13-1.73,1Z"/>
<path class="cls-1" d="M153.55,147.26q.64,6.26,1.54,12.47.45,3.15,1,6.28c.2,1.19.79,3.48,2.51,2.48a1,1,0,0,0-1-1.73l-.16.1.77-.1s-.32-2.13-.34-2.26c-.12-.78-.25-1.57-.37-2.35-.25-1.64-.48-3.27-.71-4.91q-.68-5-1.19-10c-.14-1.27-2.14-1.28-2,0Z"/>
<path class="cls-1" d="M217.56,152.05c-5.37-3.21-11.79-3.26-17.87-3.24q-10.55,0-21.07,1c-7,.64-14,1.6-20.93,2.86-6.14,1.11-12.37,2.39-18,5.18A30.31,30.31,0,0,0,136,160c-1,.71-2.11,1.51-2.27,2.86-.3,2.67,2.87,4.11,4.87,4.93,5.93,2.42,12.54,2.15,18.82,2a263.12,263.12,0,0,0,41.17-3.93c3.89-.73,7.79-1.54,11.6-2.62,3.17-.9,6.64-2.06,9.18-4.25,2.08-1.79,3.33-4.75,1.46-7.16-2.16-2.78-5.85-2.39-8.91-1.85-1.27.22-.73,2.15.53,1.93,2.23-.39,6.65-1,7.28,2.16.55,2.74-3.2,4.6-5.17,5.5a46.42,46.42,0,0,1-8.7,2.71q-4.47,1.07-9,1.87a258.19,258.19,0,0,1-37,3.57c-5.64.19-11.51.61-17.05-.68a22,22,0,0,1-3.81-1.22c-.94-.4-3.08-1.2-3.24-2.42s1.88-2.07,2.71-2.57a33.81,33.81,0,0,1,3.79-1.94c5.14-2.25,10.74-3.32,16.23-4.31q9.28-1.68,18.68-2.6,10.51-1,21.07-1.12c6.15-.05,12.86-.29,18.33,3a1,1,0,0,0,1-1.73Z"/>
<path class="cls-1" d="M136.15,165c-1.6-1.08-5-3.88-2.56-5.81a10.47,10.47,0,0,1,3.48-1.35c1.5-.46,3-.89,4.51-1.3q8.59-2.35,17.4-3.88a184.83,184.83,0,0,1,35.24-2.61q4.92.12,9.84.48c1.71.13,3.42.29,5.14.47.64.06,5,.2,5.06.86l.11-.77-.11.25c-.51,1.17,1.21,2.19,1.72,1,1.36-3.12-4.16-3.07-5.85-3.25q-5.13-.57-10.29-.84a185.76,185.76,0,0,0-61.5,7.12c-2.64.76-6.89,1.39-7.53,4.66-.57,2.88,2.22,5.27,4.33,6.69,1.07.72,2.07-1,1-1.73Z"/>
<path class="cls-1" d="M226,157.34a9.63,9.63,0,0,1,1.81-3.72,10,10,0,0,1,1.49-1.49,5,5,0,0,0,1.39-1.43c.73-1.36-.24-2.55-1.4-3.2a20.21,20.21,0,0,0-4.39-1.87,9.87,9.87,0,0,0-8,.89,6.65,6.65,0,0,0-2.53,2.85c-.64,1.42.22,2.42,1.46,3a20.92,20.92,0,0,1,7.43,6.23c.75,1,2.49,0,1.73-1a23.64,23.64,0,0,0-5.15-5.13,24.41,24.41,0,0,0-3.11-1.87c-.42-.22-.7-.2-.5-.55a5.33,5.33,0,0,1,1-1.29,7.08,7.08,0,0,1,6.2-1.48,15.71,15.71,0,0,1,3.75,1.29,11.25,11.25,0,0,1,1.53.82c.5.34.19.52-.21.87a14,14,0,0,0-2.74,2.86,11.5,11.5,0,0,0-1.61,3.65,1,1,0,0,0,1.93.53Z"/>
<path class="cls-1" d="M221.09,146.15A33,33,0,0,1,227,135.56a23.8,23.8,0,0,1,20.12-8.68c8.55.56,16,5.41,22.74,10.33a125.21,125.21,0,0,1,21.24,19.31,29.82,29.82,0,0,1,4.49,6.43,39.78,39.78,0,0,1,3.31,14c.09,1.28,2.09,1.29,2,0-.49-7-2.19-13.93-6.49-19.52-5.87-7.62-13.38-14.2-21-20-7-5.39-14.86-11-23.83-12.25a25.83,25.83,0,0,0-22.32,7.16,34.64,34.64,0,0,0-8.14,13.3c-.41,1.23,1.52,1.75,1.93.54Z"/>
<path class="cls-1" d="M229,150.86c.81,2,1.8,4.19,3.81,5.21a5,5,0,0,0,5.6-1c1.89-1.69,2.55-4.09,3.32-6.42.93-2.83,2.45-4.81,5.39-5.72,5.81-1.8,11.83.74,16.55,4.07,5,3.52,9.5,7.93,13.86,12.2,4,3.93,8.13,8,10.61,13.13a15.88,15.88,0,0,1,1.73,7.55,18.46,18.46,0,0,1-2.51,7.7c-2,3.85-5.09,8.77-3.21,13.24.7,1.68,2.34,3.09,4.27,2.68s3.47-2.32,4.64-3.86c5-6.58,6.88-15.26,7.91-23.29.16-1.27-1.84-1.26-2,0-.94,7.28-2.63,15-6.83,21.17a15.69,15.69,0,0,1-2.74,3.23c-.8.67-1.72,1.15-2.64.41a3.9,3.9,0,0,1-1.16-2.75c-.18-2.35.91-4.77,1.93-6.82s2.28-4.22,3.17-6.45c4.06-10.18-3.62-19.24-10.39-26a166.79,166.79,0,0,0-12.79-11.71c-4.08-3.3-8.67-6.17-14-6.89a15.57,15.57,0,0,0-8.35,1,9.25,9.25,0,0,0-5,5.5c-.94,2.46-1.35,5.66-3.84,7.12-2.8,1.65-4.55-1.65-5.42-3.8-.49-1.17-2.42-.66-1.93.54Z"/>
<path class="cls-1" d="M130.32,158.78c-3.83,7-7.19,14.52-8.07,22.51-.43,3.86-.79,7.53-2.35,11.17s-4.35,6.3-5.91,9.81c-2.48,5.61-.54,11.9-.88,17.8a51.27,51.27,0,0,1-2.86,13.52,47.6,47.6,0,0,0-2.3,11.56c-.38,4.6-.48,9.21-.86,13.8a38.37,38.37,0,0,1-3,11.28c-3,7.48-2.06,16.55,1,23.83a32.29,32.29,0,0,0,16.44,16.7,33.47,33.47,0,0,0,9.61,2.69c4.86.65,9.75,1,14.62,1.56,6.36.69,12.68,1.86,19.08,1.9,15.64.1,31.3-2.89,46.55-6C220.81,309,230.16,306.7,239,303c8.18-3.45,15.87-8.28,21.3-15.43A27.39,27.39,0,0,0,265.53,277c.68-3.26-.59-6-1.89-8.95a31.5,31.5,0,0,1-2.13-5c-.42-1.79-.27-3.68-.6-5.49a14,14,0,0,0-2.2-5.64,31.55,31.55,0,0,1-3-4.3,14.4,14.4,0,0,1-1.48-5.42c-.09-1.45,0-2.89-.12-4.34a37.49,37.49,0,0,0-3.36-12.22,33.26,33.26,0,0,0-3.87-6.28,18.26,18.26,0,0,1-3.06-5.1,12.91,12.91,0,0,1-.86-4,43.2,43.2,0,0,0-.29-6.53c-1.33-7.54-6.5-13.72-8.38-21.11-.78-3.06-1.5-6.15-2.23-9.22a61.62,61.62,0,0,0-1.94-7.32,30.18,30.18,0,0,0-7.06-10.55,1,1,0,0,0-1.42,1.41,27.3,27.3,0,0,1,6.95,10.82c.72,2.28,1.18,4.65,1.73,7,.71,3,1.41,6,2.19,9a40,40,0,0,0,2.8,7.21c2.12,4.41,4.76,8.78,5.5,13.7.31,2.05,0,4.12.17,6.18a15.57,15.57,0,0,0,.91,4c1.4,4.05,4.71,7,6.64,10.83a34.71,34.71,0,0,1,3.58,12.23c.12,1.45,0,2.89.12,4.34a16.2,16.2,0,0,0,1.17,5.08c1.34,3.39,4.26,5.75,5.21,9.31a50,50,0,0,1,.75,6,16.41,16.41,0,0,0,1.7,4.76,48.24,48.24,0,0,1,2.43,6,5.67,5.67,0,0,1,.12,2.92c-.73,3.87-2.94,7.54-5.34,10.6a40.85,40.85,0,0,1-9.77,8.87c-7.49,4.94-16.09,7.93-24.7,10.24-9.37,2.52-19,4.32-28.5,6a204,204,0,0,1-24.14,2.85,97.42,97.42,0,0,1-10.11,0c-2.35-.13-4-.44-6.39-.74-7.45-1-15-1.57-22.42-2.48a30.77,30.77,0,0,1-27.91-32.32,30.15,30.15,0,0,1,2.4-10.25,37.49,37.49,0,0,0,2.41-11.36c.29-4.59.44-9.19.88-13.77a52.06,52.06,0,0,1,2.61-11.23,49.54,49.54,0,0,0,2.47-13.26c.13-3.17-.25-6.29-.4-9.44a14.46,14.46,0,0,1,1.5-7.74,43.57,43.57,0,0,1,2.85-4.28,26.85,26.85,0,0,0,3.07-5.77,41.33,41.33,0,0,0,2.07-10.66,42.42,42.42,0,0,1,2.08-9A79.81,79.81,0,0,1,132,159.79c.62-1.13-1.1-2.14-1.72-1Z"/>
<path class="cls-1" d="M121.87,192.38c1.36,2.8,5.28,3.92,8.08,4.52a100.8,100.8,0,0,0,10.69,1.39q12.08,1.26,24.21,2c8.05.48,16.13.82,24.2.88a46.52,46.52,0,0,0,11-1.06A79,79,0,0,0,211,196.41c7.78-3.1,15.62-6.2,22.74-10.67,1.09-.68.08-2.41-1-1.72-6.19,3.88-12.93,6.72-19.7,9.43s-13.31,5.39-20.59,5.66c-7.67.28-15.44-.21-23.1-.6s-15.17-.93-22.74-1.64c-4.2-.39-8.41-.8-12.6-1.33a31.93,31.93,0,0,1-5.71-1.15c-1.66-.54-3.84-1.34-4.65-3-.57-1.15-2.29-.14-1.73,1Z"/>
<path class="cls-1" d="M113.73,226.25c3.13,2.68,7.71,3.26,11.57,4.27,4.6,1.2,9.19,2.47,13.82,3.55,9.18,2.12,18.57,2.43,27.95,2.85a186.21,186.21,0,0,0,28.44-.4,129.61,129.61,0,0,0,27.19-6.42c4.48-1.51,9.06-3,13.4-4.88,3.58-1.58,7-3.85,8.75-7.51.54-1.16-1.18-2.17-1.73-1-1.49,3.2-4.41,5.13-7.53,6.56-3.66,1.69-7.58,2.9-11.39,4.22A137.61,137.61,0,0,1,198,234.21a160.7,160.7,0,0,1-27.31.86c-9-.33-18.25-.43-27.13-2.1-4.94-.93-9.79-2.3-14.65-3.57l-7.65-2c-2.15-.56-4.41-1.08-6.14-2.56-1-.84-2.39.57-1.42,1.41Z"/>
<path class="cls-1" d="M107.39,265.32c20,6.62,41.09,8.66,62,9.08,10.58.22,21.17,0,31.75-.16a114.5,114.5,0,0,0,15.6-1,55.37,55.37,0,0,0,14.48-4.52,106.75,106.75,0,0,0,14.46-8.11c4.2-2.79,8.13-6.09,10.69-10.5a1,1,0,0,0-1.73-1,29.72,29.72,0,0,1-9.46,9.44,111.76,111.76,0,0,1-12.34,7.19,57.86,57.86,0,0,1-14.07,5.12,85.5,85.5,0,0,1-15.73,1.38c-20.5.43-41.12.82-61.52-1.57a168.64,168.64,0,0,1-33.62-7.24c-1.23-.41-1.75,1.53-.54,1.93Z"/>
<path class="cls-1" d="M132.63,161.27a3.35,3.35,0,0,0,.51,3.14,1,1,0,0,0,1.09.2,1,1,0,0,0,.61-.91,17.51,17.51,0,0,0-.69-4.07,1,1,0,0,0-1.1-.72,1,1,0,0,0-.86,1l.22,2.28a1.08,1.08,0,0,0,.29.71,1,1,0,0,0,.71.29,1,1,0,0,0,1-1,3.64,3.64,0,0,0-.17-1.35,1,1,0,1,0-1.93.53,2.76,2.76,0,0,1,.08.27.59.59,0,0,1,0,.13c0,.09,0,.09,0,0h0s0,.09,0,.14a2.44,2.44,0,0,1,0,.27h2l-.22-2.28-2,.26a16.59,16.59,0,0,1,.44,1.85c0,.14,0,.29.07.43a.59.59,0,0,0,0,.14c0-.13,0-.16,0-.08s0,.17,0,.25c0,.32.06.63.07.95l1.71-.71s-.14-.15,0,0,0,0,0,0a.27.27,0,0,1-.06-.12s.08.23,0,.09a.88.88,0,0,1-.06-.26s0,.26,0,.11a.71.71,0,0,1,0-.14v-.26a.41.41,0,0,0,0-.11s0-.22,0,0,0,0,0,0,0-.1,0-.14l.06-.28a1,1,0,1,0-1.93-.53Z"/>
<path class="cls-1" d="M132.14,159.89a2.89,2.89,0,0,0,.72,3.05,1,1,0,0,0,1.67-.44,10.77,10.77,0,0,0,.43-3.43,1,1,0,0,0-2,0,6.48,6.48,0,0,0,.4,2.54,1,1,0,0,0,1.93,0,4.14,4.14,0,0,0,.05-2.78,1,1,0,0,0-2,.27,2.6,2.6,0,0,0,.54,1.94c.4.53,1.38.77,1.73,0a10.07,10.07,0,0,0,.74-2.23,1,1,0,0,0-1.93-.53,3,3,0,0,0,.21,2.22,1,1,0,0,0,1.72,0,3.72,3.72,0,0,0,.46-2.26,1,1,0,0,0-2-.27c-.37.93-.07,2.19,1.11,2.26s1.56-1.21,1.54-2.13a1,1,0,0,0-2-.27,2.37,2.37,0,0,0,.22,1.91,1,1,0,0,0,1.57.21,3.13,3.13,0,0,0,.79-2.19,1,1,0,0,0-2,0,2.79,2.79,0,0,0,.19,1.37,1,1,0,0,0,1.67.44,2.67,2.67,0,0,0,1-1.63l-2-.26a2.21,2.21,0,0,0,.25,1.18c.35.74,1.33.54,1.73,0a6,6,0,0,0,.74-1.4l-1.92-.53a2.66,2.66,0,0,0,0,1.53,1,1,0,0,0,1.67.44,3.49,3.49,0,0,0,.77-1.52l-1.83.24.32.55a1,1,0,0,0,1.73,0A4.37,4.37,0,0,0,141,157h-1.93a2.27,2.27,0,0,0,.61,1.19,1,1,0,0,0,1.67-.44l.41-1h-1.93a2.36,2.36,0,0,0,.38.76,1,1,0,0,0,1.57.2,2.45,2.45,0,0,0,.62-1h-1.92c.29,1.5,2.2,1,2.42-.26l-1.83.23a1.24,1.24,0,0,0,.95.68c.54.08.79-.24,1.23-.41a13.47,13.47,0,0,1,2-.39l2.14-.53,4.45-1.13c1-.26,2.53-.33,3.11-1.33a1,1,0,0,0-1.72-1q.32-.27-.3,0l-.81.2-1.62.41-3.24.83c-1,.26-2.07.54-3.12.76a14.32,14.32,0,0,0-1.43.26l-.48.19c-.29.16-.28.2,0,.14l.6.46-.07-.14a1,1,0,0,0-1.83.24l-.07.21.6-.46-.16,0,.77.1-.14-.07.46.6,0-.14c-.2-1-1.64-.87-1.92,0l-.11.17,1.57.2-.18-.28a1,1,0,0,0-1.93,0l-.41,1,1.67-.44-.09-.31c-.17-1-1.66-.87-1.93,0a1.65,1.65,0,0,1-.35.7h1.73l-.32-.55a1,1,0,0,0-1.83.24,1.1,1.1,0,0,1-.25.63l1.67.44,0-.46a1,1,0,0,0-1.92-.53,4.31,4.31,0,0,1-.55.92H139l0-.17a1,1,0,0,0-2-.27,1.06,1.06,0,0,1-.45.74l1.67.44a1.39,1.39,0,0,1-.12-.83h-2a.9.9,0,0,1-.21.77l1.57.2v-.37l-2-.26a.53.53,0,0,1,0,.41l.71-.3.6.29-2-.26a1.92,1.92,0,0,1-.18,1.25h1.72a.81.81,0,0,1,0-.68l-1.93-.53a7.79,7.79,0,0,1-.54,1.76h1.73a1.13,1.13,0,0,1-.27-.94l-2,.27a2.4,2.4,0,0,1,0,1.71h1.93a5,5,0,0,1-.33-2h-2a9.1,9.1,0,0,1-.36,2.89l1.67-.44a.92.92,0,0,1-.2-1.1c.43-1.22-1.5-1.74-1.93-.53Z"/>
<path class="cls-1" d="M111.93,280.06a18.3,18.3,0,0,1,3.28,7.24,8,8,0,0,1-2.14,6.74,1,1,0,0,0,1.22,1.57,6.59,6.59,0,0,0,3.32-5.21,15.88,15.88,0,0,0-.76-7.52,6.49,6.49,0,0,0-4.23-4.15,4.49,4.49,0,0,0-5,2c-.63,1.13,1.1,2.14,1.72,1a2.55,2.55,0,0,1,3.23-1,5.23,5.23,0,0,1,2.69,3.63,15.66,15.66,0,0,1,.4,5.54,4.7,4.7,0,0,1-2.38,3.9l1.21,1.57a10,10,0,0,0,2.76-7.9c-.33-3.13-1.89-5.92-3.59-8.5-.71-1.07-2.44-.07-1.73,1Z"/>
<path class="cls-1" d="M114.28,293.16l-.25.16-.11.05c.29-.15.14-.05,0,0l-.26.06c-.2,0,.26,0,.08,0h-.41c-.17,0,.27,0,.1,0l-.14,0-.27-.07-.14-.05c-.07,0,.27.12.07,0l-.26-.14-.11-.07c-.16-.11.07,0,.07.06s-.19-.17-.22-.2-.26-.35-.06,0l-.13-.21-.08-.14c-.08-.15.09.24,0,.08a2.76,2.76,0,0,1-.08-.27c0-.09,0-.22,0,.1,0-.06,0-.11,0-.17a1,1,0,0,0-1-1,1,1,0,0,0-1,1A3.2,3.2,0,0,0,112,295a3.25,3.25,0,0,0,3.3-.12,1.06,1.06,0,0,0,.46-.6,1,1,0,0,0-.1-.77,1,1,0,0,0-1.37-.36Z"/>
<path class="cls-1" d="M2.16,188.77a1.41,1.41,0,0,1,0-1.43,4.17,4.17,0,0,1,1.61-1.45,20,20,0,0,1,4.89-2.17c.62-.17.77,0,.81.58a4.32,4.32,0,0,1-.38,1.94,5.53,5.53,0,0,1-2.8,2.89,5.54,5.54,0,0,1-4.8-.25c-1.13-.63-2.14,1.1-1,1.73a7.52,7.52,0,0,0,6.3.46A7.49,7.49,0,0,0,11,186.84c.69-1.73.9-4.93-1.65-5.18a7.44,7.44,0,0,0-3.33.9,26.81,26.81,0,0,0-3.18,1.57,5.7,5.7,0,0,0-2.61,2.68,3.27,3.27,0,0,0,.49,3.37,1,1,0,1,0,1.41-1.41Z"/>
<path class="cls-1" d="M.21,189.67c.22,2.4,2.37,3.69,4.64,3.69a44.19,44.19,0,0,0,4.43-.65,20.33,20.33,0,0,1,4.2,0c5.91.59,11.28,3.65,15.58,7.61a52.23,52.23,0,0,1,10.75,13.92c2.75,5.27,3.83,11.2,4.59,17s1.24,11.57,2.73,17.2a125.2,125.2,0,0,0,6.47,17.21c4.17,9.73,9.24,19.63,19,24.72a46.36,46.36,0,0,0,18.56,4.75,32.77,32.77,0,0,0,10.11-.92c3.31-.87,6.71-2.4,10.17-1.41a1,1,0,0,0,.53-1.93c-2.77-.79-5.53-.23-8.23.54A37.54,37.54,0,0,1,95,293.18a45.44,45.44,0,0,1-17.54-2.82,30.17,30.17,0,0,1-13.09-9.31,59.78,59.78,0,0,1-7.92-13.79,155.56,155.56,0,0,1-6.54-16.4c-1.78-5.6-2.5-11.37-3.21-17.19-.67-5.53-1.39-11.13-3.36-16.38A49.08,49.08,0,0,0,34.43,203c-4-4.64-8.76-8.65-14.52-10.82a24,24,0,0,0-8.95-1.6,26.4,26.4,0,0,0-4.33.53c-1.33.25-4.23.59-4.42-1.47-.11-1.27-2.11-1.28-2,0Z"/>
<path class="cls-1" d="M11.42,183.71A53.54,53.54,0,0,1,37.47,196.1C45.37,203,50.66,212.15,54.11,222c3.63,10.33,5.14,21.11,7.55,31.75,2.2,9.75,5.87,19.78,13.75,26.41a24.43,24.43,0,0,0,24,4.71c3-1,5.85-2.29,8.93-2.95,1.26-.27.73-2.2-.53-1.93-5.48,1.18-10.33,4.14-16.07,4.21a22.75,22.75,0,0,1-14.37-5c-8.22-6.51-11.79-16.8-14-26.69C61.12,242,59.57,231.43,56,221.26c-3.37-9.51-8.36-18.45-15.78-25.39A55.42,55.42,0,0,0,12,181.78c-1.26-.21-1.8,1.71-.53,1.93Z"/>
<path class="cls-1" d="M15.89,191.16a64.58,64.58,0,0,1,19.52,11c.82.68,2.2-.18,1.57-1.21a17,17,0,0,0-10.9-7.68c-1-.22-1.84,1.29-.77,1.83a25.88,25.88,0,0,1,11,10.57c.63,1.14,2.31.14,1.73-1A27.89,27.89,0,0,0,26.62,193l-.77,1.83c5.24.72,8.49,5.43,11.17,9.54l1.57-1.21a75.66,75.66,0,0,0-10.36-10.66l-1,1.67c6.13,1,9.76,6.77,12.73,11.7l1.57-1.22a67.82,67.82,0,0,0-11.37-11.41L29,194.79A38.18,38.18,0,0,1,40.6,207.25l1.73-1a78,78,0,0,0-10.69-13.13l-1,1.67c5.14,1.75,8.05,6.82,10.56,11.29l1.57-1.21L33.85,195l-1.21,1.57c4.48,2.32,7,6.88,9.24,11.18l1.72-1a33.23,33.23,0,0,0-32.54-16.13l.51,1.87a12.75,12.75,0,0,1,10,0l.53-1.92a21.29,21.29,0,0,0-9-.75l.27,2a12.63,12.63,0,0,1,6.38-.74l-.26-2a9.33,9.33,0,0,1-5.14-.65c-1.17-.5-2.19,1.21-1,1.73A66.07,66.07,0,0,1,24,196.09c.95.64,2-.8,1.22-1.57a34.31,34.31,0,0,0-8.85-6.05l-.77,1.83a27.22,27.22,0,0,1,9.08,3.49l.77-1.83a51.88,51.88,0,0,1-10.69-6L14,187.75a30.65,30.65,0,0,1,9.34,3.18l1-1.73L14.55,184l-1,1.72,4.11,2.16,1-1.73a32.62,32.62,0,0,0-7.1-2.26,1,1,0,0,0-1.13,1.47,3.12,3.12,0,0,1-1.12,3.75,1,1,0,0,0,.77,1.83,3.9,3.9,0,0,0,3-4.74l-1.93.53c.18.52.36,1,.53,1.56l.46-1.13a2.69,2.69,0,0,0-1.31,2.94,1,1,0,0,0,1.67.44A5.54,5.54,0,0,0,13.82,186l-1.93.53c.08.52.17,1,.26,1.56.17,1,1.65.86,1.92,0a2.11,2.11,0,0,0-.62-2.31A1,1,0,0,0,11.88,187c.43.84.85,1.69,1.27,2.53.5,1,2.27.28,1.83-.77l-2.22-5.29-1.47,1.13q5.43,3,10.8,6.09l1-1.72a18.11,18.11,0,0,0-8.29-1.68,1,1,0,0,0-.51,1.86,115.74,115.74,0,0,1,11.82,7c1,.67,1.93-.76,1.22-1.57a41.09,41.09,0,0,0-8.51-7.33L18.06,189a27.8,27.8,0,0,1,10,4.52c.91.65,2.09-.85,1.21-1.57a73.51,73.51,0,0,0-9.9-6.79,1,1,0,0,0-1,1.73l7.52,4.55c1.11.67,2.08-1,1-1.73a54.66,54.66,0,0,0-11.08-5.61l-.27,2c7.81,1,13.79,6.91,19.09,12.22l1.41-1.42a57,57,0,0,0-11.34-8.22c-1-.53-2.13.82-1.22,1.57q3.42,2.78,6.83,5.56l1.22-1.57-7.66-5-1,1.73a61,61,0,0,1,9.67,6.73A1,1,0,0,0,34,196.29l-4.7-5.8-1.42,1.41A61.84,61.84,0,0,1,42.53,209l1.72-1-4.94-7-1.73,1a77,77,0,0,1,11.16,22.5l1.93-.53-4.56-10.88c-.49-1.16-2.41-.67-1.93.53a96.56,96.56,0,0,1,6.54,27.19l2-.27-1.47-6.13c-.25-1.07-2.11-.87-2,.26q1.05,7.92,2.09,15.84l2-.27q-3-15.18-6-30.38c-.22-1.09-2.1-.86-2,.27a135.12,135.12,0,0,0,2.77,15.6,1,1,0,0,0,2-.27,48.78,48.78,0,0,0-14.94-33.29l-1.42,1.41A63.29,63.29,0,0,1,47,219.94c.54,1,2.26.31,1.83-.77a49.51,49.51,0,0,0-10.73-16.38l-1.41,1.41a56.3,56.3,0,0,1,9.43,11.6c.56.93,2.23.33,1.82-.77a49.16,49.16,0,0,0-7.62-13.66l-1.42,1.42a49.07,49.07,0,0,1,8.44,11.05c.63,1.13,2.33.13,1.72-1A76.27,76.27,0,0,0,36.2,195.46L35,197a53.78,53.78,0,0,1,19.84,31.36l1.93-.53C53.13,212.41,41.21,200.93,30,190.47l-1.22,1.58c8.77,6.66,16.67,14.81,21.68,24.71a59.4,59.4,0,0,1,3.83,10c1.75,5.94,3.29,11.95,4.79,18S62,256.55,63.2,262.5l1.83-.77q-7.81-15.36-14.34-31.34a1,1,0,0,0-1.93.53,96.85,96.85,0,0,0,9.12,24.76,1,1,0,0,0,1.82-.77,275.59,275.59,0,0,1-8-27.74c-.29-1.27-2.16-.72-1.93.53a152.69,152.69,0,0,0,8.2,28.19,1,1,0,0,0,1.93-.54q-3-13.86-5.9-27.73l-1.93.53q3.73,13.88,7.49,27.73a1,1,0,0,0,1.93-.53q-2.84-11.41-5.66-22.84c-.31-1.26-2.17-.71-1.93.54q2.22,11.46,5.3,22.74a1,1,0,0,0,1.93-.53q-1.77-9-3.53-18l-1.93.53q2.68,9,5.38,17.95a1,1,0,0,0,1.93-.53,137.38,137.38,0,0,0-6.77-22.35,1,1,0,0,0-2,.27,32.52,32.52,0,0,0,.65,8.58l1.93-.53-7.78-23a1,1,0,0,0-1.93.54,98.92,98.92,0,0,0,6.43,16.43c.54,1.09,2,.27,1.82-.77a56.33,56.33,0,0,0-6.8-18.93c-.66-1.14-2.26-.14-1.73,1q2.93,6.28,5.86,12.57c.47,1,2.23.29,1.82-.77A147.3,147.3,0,0,0,47,212.07l-1.73,1A82.41,82.41,0,0,1,55,234.74l1.93-.53a113.09,113.09,0,0,0-8.52-20.62l-1.72,1c4.73,7.38,6.8,15.94,8.83,24.36a140.4,140.4,0,0,0,8.6,26l1.73-1q-4.35-8.28-8.71-16.57c-.51-1-2.23-.3-1.82.77A120.05,120.05,0,0,0,64.41,267l1.73-1a94.8,94.8,0,0,1-10.57-20.66,1,1,0,0,0-1.93.54A58.9,58.9,0,0,0,60,263.76l1.73-1a87.6,87.6,0,0,1-9.07-20.5,1,1,0,0,0-2,.27c-.49,6.3,2.38,12.1,5.2,17.54l1.72-1a60,60,0,0,1-8.2-20.21c-.27-1.26-2.18-.72-1.93.53,1.25,6.5,3.53,12.71,5.82,18.89l1.83-.77a131.71,131.71,0,0,1-9.28-29.9l-1.93.53C46.52,237,48.86,246,52,254.66c2.92,8,6.71,15.73,12.35,22.19.75.86,2.16-.25,1.57-1.21a117,117,0,0,1-10.5-22c-.43-1.2-2.34-.7-1.93.53a62.24,62.24,0,0,0,10.7,19.61c.75.94,2-.25,1.57-1.21q-4.31-8.82-8.62-17.64c-.49-1-2.22-.3-1.83.77a95.51,95.51,0,0,0,11.76,22.41c.73,1,2.41.1,1.73-1a119.76,119.76,0,0,1-9.7-19.63c-.46-1.19-2.39-.68-1.93.53a82.26,82.26,0,0,0,13,22.54l1.41-1.41a106.75,106.75,0,0,1-10.05-14.65,1,1,0,0,0-1.82.77,44.19,44.19,0,0,0,10,17.22L71.1,281c-6.15-4.75-9.42-12-12.49-18.87L57,263.35l25.19,27.21c.88.95,2.29-.47,1.42-1.41l-25.2-27.22c-.82-.89-2,.24-1.57,1.22,3.14,7.06,6.53,14.43,12.8,19.27,1,.77,2.32-.44,1.42-1.41a42.08,42.08,0,0,1-9.46-16.35l-1.82.77a107.84,107.84,0,0,0,10.36,15.06c.81,1,2.21-.42,1.41-1.41a79.42,79.42,0,0,1-12.47-21.66l-1.93.53a123.44,123.44,0,0,0,9.9,20.11l1.73-1a93.5,93.5,0,0,1-11.56-21.93l-1.82.77,8.61,17.64,1.57-1.21a59.56,59.56,0,0,1-10.18-18.73l-1.93.53a119.46,119.46,0,0,0,10.71,22.52l1.57-1.21c-5.6-6.39-9.29-14.14-12.13-22.09-3-8.44-5.29-17.15-7.77-25.75a1,1,0,0,0-1.93.53,133.73,133.73,0,0,0,9.48,30.38c.46,1,2.22.29,1.83-.77a119.49,119.49,0,0,1-5.82-18.89l-1.93.53a61.46,61.46,0,0,0,8.41,20.69,1,1,0,0,0,1.72-1c-2.66-5.14-5.38-10.58-4.92-16.53l-2,.27a89.71,89.71,0,0,0,9.26,21,1,1,0,0,0,1.73-1,57.19,57.19,0,0,1-6.19-17.39l-1.93.54A98.08,98.08,0,0,0,64.41,267c.72,1.06,2.39.11,1.73-1a117.23,117.23,0,0,1-8.87-18.41l-1.82.77L64.15,265c.61,1.16,2.26.14,1.73-1-3.9-8.48-6.42-17.3-8.6-26.34-2-8.31-4.17-16.73-8.84-24a1,1,0,0,0-1.72,1A110.21,110.21,0,0,1,55,234.74a1,1,0,0,0,1.93-.53A84.74,84.74,0,0,0,47,212.07a1,1,0,0,0-1.73,1,145.22,145.22,0,0,1,7.25,15.79l1.82-.77-5.85-12.57-1.73,1A54.68,54.68,0,0,1,53.4,235l1.83-.77a97,97,0,0,1-6.22-16l-1.93.54,7.78,22.95a1,1,0,0,0,1.93-.53,30.22,30.22,0,0,1-.58-8.05l-2,.26A136.4,136.4,0,0,1,61,255.78l1.93-.53q-2.7-9-5.38-17.95a1,1,0,0,0-1.93.53q1.77,9,3.53,18l1.93-.53Q58,244,55.79,232.51l-1.93.54q2.84,11.41,5.66,22.83l1.93-.53Q57.7,241.49,54,227.62a1,1,0,0,0-1.93.53q3,13.88,5.9,27.74l1.93-.54a152.59,152.59,0,0,1-8.2-28.18l-1.93.53a278.24,278.24,0,0,0,8,27.74l1.83-.77a95.17,95.17,0,0,1-8.91-24.28l-1.93.53q6.6,16.2,14.54,31.82c.54,1.06,2,.29,1.83-.77-2.46-11.71-5.31-23.36-8.61-34.86a62.26,62.26,0,0,0-11.25-22.05,86.58,86.58,0,0,0-15.44-14.74c-.9-.69-2,.8-1.21,1.57,10.93,10.22,22.67,21.39,26.21,36.5.3,1.26,2.2.73,1.93-.53A55.84,55.84,0,0,0,36,195.3c-.92-.7-2,.79-1.21,1.57a74.78,74.78,0,0,1,12.5,17l1.72-1a51.32,51.32,0,0,0-8.74-11.46c-.94-.93-2.19.43-1.42,1.42A46.43,46.43,0,0,1,46,215.56l1.82-.77a58,58,0,0,0-9.74-12,1,1,0,0,0-1.41,1.41,47.35,47.35,0,0,1,10.21,15.5l1.83-.77a65,65,0,0,0-13.55-16.74c-1-.85-2.35.51-1.42,1.41a46.7,46.7,0,0,1,14.36,31.88l2-.26a130.68,130.68,0,0,1-2.7-15.07l-2,.26q3,15.19,6,30.39c.21,1.09,2.11.85,2-.27q-1-7.92-2.09-15.84l-2,.27,1.47,6.13c.26,1.08,2.07.88,2-.26a98,98,0,0,0-6.61-27.72l-1.93.53,4.56,10.88c.48,1.14,2.32.74,1.93-.53a78.64,78.64,0,0,0-11.36-23c-.75-1-2.48,0-1.73,1l5,7a1,1,0,0,0,1.72-1,63,63,0,0,0-15-17.51,1,1,0,0,0-1.42,1.41l4.7,5.8L34,196.29a63.49,63.49,0,0,0-10.08-7,1,1,0,0,0-1,1.73l7.66,5c.93.61,2.1-.84,1.21-1.57q-3.42-2.77-6.83-5.56l-1.21,1.57a55.27,55.27,0,0,1,10.94,7.92,1,1,0,0,0,1.41-1.42c-5.75-5.76-12.07-11.74-20.5-12.8-1.19-.15-1.24,1.6-.26,2a51.91,51.91,0,0,1,10.6,5.41l1-1.73-7.52-4.55-1,1.73a70.37,70.37,0,0,1,9.5,6.47l1.21-1.57a29.21,29.21,0,0,0-10.52-4.71,1,1,0,0,0-.77,1.82,39.63,39.63,0,0,1,8.1,7l1.21-1.57a114.91,114.91,0,0,0-11.82-7l-.5,1.86a16.13,16.13,0,0,1,7.28,1.4c1.15.53,2.15-1.07,1-1.72q-5.37-3.09-10.8-6.09c-.68-.38-1.83.27-1.47,1.13l2.22,5.28,1.83-.77-1.27-2.53L12,187.15l.11.36h1.92c-.08-.52-.17-1-.25-1.56-.21-1.27-2.12-.73-1.93.53a3.28,3.28,0,0,1-.77,2.67l1.68.45a.59.59,0,0,1,.39-.68,1,1,0,0,0,.46-1.13l-.53-1.56a1,1,0,0,0-1.93.53A1.91,1.91,0,0,1,9.55,189l.77,1.83a5.2,5.2,0,0,0,1.84-6.49L11,185.85a30.08,30.08,0,0,1,6.62,2.06c1.15.51,2.17-1.12,1-1.73L14.55,184c-1.13-.6-2.15,1.12-1,1.72l9.79,5.18c1.13.6,2.14-1.12,1-1.73a32.13,32.13,0,0,0-9.82-3.37,1,1,0,0,0-.77,1.82,53.65,53.65,0,0,0,11.17,6.24c1.07.45,1.7-1.26.77-1.82a28.68,28.68,0,0,0-9.56-3.7c-1-.19-1.87,1.32-.77,1.83a32.35,32.35,0,0,1,8.44,5.73L25,194.36a66.07,66.07,0,0,0-10.66-5.92l-1,1.73A11.86,11.86,0,0,0,20,191c1.22-.19.73-1.83-.27-2a13.93,13.93,0,0,0-6.91.81c-1,.36-.95,2.12.26,2a20.09,20.09,0,0,1,8.48.67c1.27.39,1.68-1.44.53-1.92a14.67,14.67,0,0,0-11.55.15c-.89.38-.46,2,.5,1.86a31.32,31.32,0,0,1,30.82,15.14,1,1,0,0,0,1.72-1c-2.44-4.59-5.16-9.42-10-11.9a1,1,0,0,0-1.22,1.57l9,9.88c.78.86,2.12-.24,1.57-1.21-2.8-5-6.06-10.27-11.76-12.21a1,1,0,0,0-1,1.68A74.17,74.17,0,0,1,40.6,207.25a1,1,0,0,0,1.73-1A40.43,40.43,0,0,0,30,193.06c-.93-.62-2.11.87-1.21,1.58a67.39,67.39,0,0,1,11.36,11.41c.71.9,2.15-.26,1.57-1.21-3.22-5.36-7.27-11.48-13.92-12.61-.87-.15-1.81,1-1,1.67a75.12,75.12,0,0,1,10.37,10.65c.71.89,2.19-.26,1.57-1.21-3-4.52-6.61-9.66-12.37-10.46-1-.14-1.86,1.24-.77,1.83a25.93,25.93,0,0,1,10.69,11l1.73-1A27.84,27.84,0,0,0,26.32,193.4l-.78,1.83A14.89,14.89,0,0,1,35.25,202l1.57-1.21a67.13,67.13,0,0,0-20.4-11.55c-1.22-.43-1.74,1.51-.53,1.93Z"/>
<path class="cls-1" d="M108.87,283.2a1.49,1.49,0,0,0,.2-.74v-.06a1.88,1.88,0,0,0,0-.33,1.48,1.48,0,0,0-.13-.35l-.07-.11a2.09,2.09,0,0,0-.23-.29,1.6,1.6,0,0,0-.31-.22,1.17,1.17,0,0,0-.35-.14.78.78,0,0,0-.4,0,.81.81,0,0,0-.37.12,1.15,1.15,0,0,0-.46.6l0,.26a1,1,0,0,0,.14.51l.16.2a1,1,0,0,0,.44.26l.09,0-.24-.1.1.06-.2-.15.09.09-.15-.2s0,.09.08.14l-.1-.24a.58.58,0,0,1,0,.14l0-.26v.14l0-.27a.27.27,0,0,1,0,.12l.1-.24,0,.05a.71.71,0,0,0-.12.37.78.78,0,0,0,0,.4.75.75,0,0,0,.18.34.78.78,0,0,0,.28.26l.24.1a1.19,1.19,0,0,0,.53,0l.24-.1a.93.93,0,0,0,.35-.36Z"/>
<path class="cls-1" d="M47.12,244.42A26.73,26.73,0,0,0,50,253.75c1.53,3.22,3.17,6.4,4.83,9.56s3.4,6.39,5.16,9.56a38.11,38.11,0,0,0,5.52,8.23c.91.93,2.25-.45,1.42-1.42a75.6,75.6,0,0,1-13-21.34,110.87,110.87,0,0,1-4.31-12.1c-1.08-4-.19-8.27-1.53-12.21-.34-1-2.07-.92-2,.27.32,3.62,1.78,6.87,3.31,10.12,1.7,3.63,3.34,7.28,4.89,11q4.57,10.92,8.22,22.19l1.83-.77L57.72,266c-.47-.77-2-.54-1.86.5.4,3.19,2,5.85,3.83,8.44a71,71,0,0,0,5.56,7c3.94,4.33,8.78,8,14.59,9.25a1,1,0,0,0,.77-1.83L69.92,282c-.92-.64-2.06.82-1.21,1.57A44.15,44.15,0,0,0,76,288.8a1,1,0,0,0,1-1.73,42.93,42.93,0,0,1-14.55-16l-1.73,1a110.12,110.12,0,0,0,11.67,13c.8.75,2.24-.24,1.57-1.21A205.14,205.14,0,0,1,61.93,263.8c-.6-1.15-2.28-.14-1.73,1a75.26,75.26,0,0,0,9.65,15.11c.74.9,2.11-.25,1.57-1.22a238,238,0,0,1-12.21-25.09c-.48-1.15-2.27-.75-1.93.53a68,68,0,0,0,11.58,23.61,1,1,0,0,0,1.73-1q-3.6-8.37-7.73-16.48c-.51-1-2.22-.3-1.83.77a70.53,70.53,0,0,0,16.86,26.14,1,1,0,0,0,1.41-1.42l-10.91-12c-.75-.83-2.26.29-1.57,1.21A50.65,50.65,0,0,0,82,288.48a1,1,0,0,0,1-1.73,127.48,127.48,0,0,1-11.39-8.93l-1.41,1.41c5.68,4.62,12.31,7.68,18.94,10.66l.77-1.82-7.72-2L81.7,288l12.82,2c1.26.19,1.81-1.73.53-1.93l-6.07-1-.27,2c3.46.39,6.94.61,10.42.66v-2a9.25,9.25,0,0,1-4-.48l-.53,1.93a57.24,57.24,0,0,0,9.34.78c1.32,0,1.24-1.84,0-2a82.55,82.55,0,0,0-16.48-.48,1,1,0,0,0-.26,2A27.79,27.79,0,0,0,96.77,291a1,1,0,0,0,0-2l-14.68-1.28c-1-.09-1.33,1.4-.51,1.86a14.22,14.22,0,0,0,7.32,1.85,1,1,0,0,0,0-2,36.86,36.86,0,0,1-9.82-2.35c-1.15-.45-1.59,1.2-.77,1.82a15.06,15.06,0,0,0,7.54,3c1.11.13,1.37-1.76.27-2A40.83,40.83,0,0,1,79.23,288c-1.13-.42-1.64,1.22-.77,1.83A19.23,19.23,0,0,0,86,293c1.25.24,1.8-1.61.53-1.93a40.86,40.86,0,0,1-23.31-15.76,1,1,0,0,0-1.73,1,36.94,36.94,0,0,0,8,10.17l1.42-1.41a56.3,56.3,0,0,1-10.32-12L59,274.34A189.78,189.78,0,0,0,75,288.26c.81.62,2.27-.18,1.57-1.21q-3.92-5.78-8.36-11.14c-.83-1-2.21.42-1.42,1.42a54.53,54.53,0,0,0,12.3,11.28c.8.54,2-.56,1.37-1.37l-13.17-18a1,1,0,0,0-1.72,1A61.1,61.1,0,0,0,75,283.15c.9.94,2.23-.45,1.41-1.42-5-5.94-10.15-12.2-11.78-20l-1.93.53c2.83,12.32,13.05,21.47,24.26,26.4,1.15.5,2.17-1.1,1-1.73a56.45,56.45,0,0,0-5.56-2.63l-.53,1.93,12.38,2.82.26-2-8.83-.81c-1-.1-1.28,1.37-.51,1.86a17.5,17.5,0,0,0,8.47,2.7c1.11.06,1.38-1.76.26-2l-5.24-1c-1.25-.23-1.79,1.7-.53,1.93l5.24,1,.27-2a15.4,15.4,0,0,1-7.46-2.42l-.5,1.86,8.83.81c1.13.11,1.36-1.71.27-2l-12.38-2.82a1,1,0,0,0-.53,1.93A50.32,50.32,0,0,1,87,288.68L88,287c-10.77-4.73-20.62-13.35-23.34-25.2-.29-1.26-2.2-.73-1.93.53C64.41,270.4,69.8,277,75,283.15l1.41-1.42a59.35,59.35,0,0,1-9.12-12.47l-1.72,1,13.16,18,1.37-1.37a52.54,52.54,0,0,1-11.89-11l-1.42,1.42q4.28,5.16,8,10.73l1.57-1.22a189.53,189.53,0,0,1-16.05-13.91c-.8-.77-2.2.23-1.57,1.21a58,58,0,0,0,10.62,12.39c1,.85,2.38-.55,1.42-1.41a35.46,35.46,0,0,1-7.66-9.77l-1.73,1A42.94,42.94,0,0,0,86,293l.53-1.93a17.88,17.88,0,0,1-7-3L78.7,290a41,41,0,0,0,6.88,1.89l.27-2a13.27,13.27,0,0,1-6.53-2.7L78.55,289a38.35,38.35,0,0,0,10.35,2.43v-2a12.2,12.2,0,0,1-6.31-1.57l-.5,1.86L96.77,291v-2a26.25,26.25,0,0,1-9.08-1.49l-.27,2a82.55,82.55,0,0,1,16.48.48v-2a54.15,54.15,0,0,1-8.81-.71,1,1,0,0,0-.53,1.93,10.57,10.57,0,0,0,4.57.55,1,1,0,0,0,0-2c-3.48-.05-7-.27-10.42-.66-1.11-.13-1.38,1.79-.26,2l6.07,1,.53-1.93-12.81-2c-1.24-.19-1.81,1.6-.54,1.93l7.73,2c1,.27,1.84-1.34.77-1.82-6.45-2.91-13-5.86-18.54-10.35-1-.8-2.39.55-1.41,1.41A131.41,131.41,0,0,0,82,288.48l1-1.73A48.23,48.23,0,0,1,68.54,274L67,275.16l10.92,12,1.41-1.42A68.31,68.31,0,0,1,63,260.5l-1.83.77q4.14,8.12,7.73,16.48l1.73-1a66.67,66.67,0,0,1-11.38-23.13l-1.93.53a242,242,0,0,0,12.41,25.57l1.57-1.21a72.53,72.53,0,0,1-9.33-14.7l-1.73,1a202,202,0,0,0,12.09,20.13l1.57-1.21A106.24,106.24,0,0,1,62.5,271.11a1,1,0,0,0-1.73,1A45,45,0,0,0,76,288.8l1-1.73a40.68,40.68,0,0,1-6.92-4.94l-1.22,1.57,10.7,7.44.77-1.82c-5.38-1.16-9.77-4.48-13.45-8.44a65.06,65.06,0,0,1-5.06-6.29c-1.74-2.43-3.62-5-4-8.07L56,267l6.61,10.8c.57.94,2.19.34,1.83-.77q-3.59-11-8-21.75-2.14-5.15-4.49-10.21c-1.6-3.46-3.48-6.94-3.82-10.8l-2,.26a22.1,22.1,0,0,1,.77,6.63,24.08,24.08,0,0,0,.89,6,116.36,116.36,0,0,0,4.54,12.53A77.89,77.89,0,0,0,65.47,281.1l1.42-1.42a35.77,35.77,0,0,1-5.21-7.82q-2.52-4.55-4.94-9.13t-4.57-9a26.22,26.22,0,0,1-3.05-9.32c-.1-1.27-2.1-1.28-2,0Z"/>
<path class="cls-1" d="M88.09,290.53a9.83,9.83,0,0,0,6,1.25c1.25-.15,1.32-2,0-2a48.73,48.73,0,0,1-6.39-.2c-1.16-.11-1.3,1.65-.27,2a20.86,20.86,0,0,0,10.75.41c1.19-.26.78-1.85-.26-2l-11.6-1.31c-1.09-.13-1.2,1.35-.5,1.86a10.75,10.75,0,0,0,8.69,1.77c.92-.2,1-1.78,0-1.93a70.14,70.14,0,0,0-8.68-.77,1,1,0,0,0-.86,1.5c1.73,2.69,5.59,2,8.3,1.88,4-.21,8.06-.64,12.06-1.25,1.12-.17.85-2-.26-2a56.84,56.84,0,0,1-10.1-.47v1.93q4.49-.93,9-1.57c1.11-.16.85-2-.27-2a32.78,32.78,0,0,1-9.87-.92v1.93a63.48,63.48,0,0,0,8.61-2.07,1,1,0,0,0-.53-1.93,49.56,49.56,0,0,1-8.11,1.35c-1.27.1-1.3,2.05,0,2a38.83,38.83,0,0,0,10.36-1.85,1,1,0,0,0-.53-1.93l-5.83.9.53,1.93a50.65,50.65,0,0,0,7.53-3.26l-1-1.72L101,284.52l1,1.73a13.06,13.06,0,0,1,3.52-1.95l-.77-1.83-7.44,3.82c-1.06.55-.29,2,.77,1.83l7.44-1.51c1.28-.26.71-2.12-.53-1.93l-6.22,1c-1,.17-.83,1.64,0,1.93a13.72,13.72,0,0,0,8.29.23,1,1,0,0,0-.27-2,31.94,31.94,0,0,0-8,.81,1,1,0,0,0-.23,1.82,12.37,12.37,0,0,0,9,1.3,1,1,0,0,0,0-1.93,9.91,9.91,0,0,0-7.23.71,1,1,0,0,0,0,1.73,8.71,8.71,0,0,0,7.77-.21c.94-.49.41-1.79-.51-1.86a29.21,29.21,0,0,0-7,.33c-1,.17-.86,1.65,0,1.92a10.45,10.45,0,0,0,5.94.2c.9-.23,1-1.78,0-1.93l-11.93-1.82a1,1,0,0,0-.53,1.93,17.22,17.22,0,0,0,5.39.66c.9,0,1.47-1.44.5-1.86-6.49-2.87-13.94-3.48-19.89-7.53a1,1,0,0,0-1.47,1.13c1.73,5,7.5,4.77,11.77,5.83l.54-1.93a57,57,0,0,1-12.82-3.94,1,1,0,0,0-1.37,1.37c1.07,2,3,3.26,5,4.29,2.63,1.35,5.3,2.63,8,3.89l.78-1.83A46.69,46.69,0,0,1,80.13,286c-1.07-.43-1.73,1.28-.77,1.83,5.72,3.3,12.28,6.67,19.07,4.81,2.19-.6,6-2.32,5.43-5.22a2.72,2.72,0,0,0-2.37-2.12c-1.64-.27-3.24.92-4.81.43l-.27,2a10.16,10.16,0,0,0,4.14-1.17,1,1,0,0,0-.24-1.83,12.31,12.31,0,0,0-5.94.07c-1.26.32-.72,2.17.53,1.92a37.82,37.82,0,0,0,7.52-2.31c.55-.24,1.09-.49,1.63-.75a4.49,4.49,0,0,1,1-.51c.46,0-.06-.28.21.18a8.45,8.45,0,0,1,.5,2.11l.55,2.34c.26,1.07,2.07.87,2-.27a5.67,5.67,0,0,0-2.1-4.06,1,1,0,0,0-1.57.21c-1.64,2.47.56,4.73,2.49,6.09l1-1.73a1.68,1.68,0,0,0-1.87.07,1,1,0,0,0-.36,1.36,2,2,0,0,0,1.89,1.07,1,1,0,0,0,1-1.26,7.86,7.86,0,0,0-2.2-4.43,1,1,0,0,0-1.67,1,6.81,6.81,0,0,0,2.8,4c.69.48,1.44-.18,1.51-.87a4.27,4.27,0,0,0-1.26-3.48,1,1,0,0,0-1.67,1,7.21,7.21,0,0,0,1.33,3.1c.61.83,2.28.38,1.83-.77l-2.23-5.6-1.46,1.13a2.06,2.06,0,0,1,.94,1.7h2a26.08,26.08,0,0,0-.81-4.21,1,1,0,0,0-2,.26,12.87,12.87,0,0,0,.39,4.19,1,1,0,0,0,2-.27,8.71,8.71,0,0,1,1-4.37l-1.86-.51a61.46,61.46,0,0,0,.56,10.5l1.83-.77-1.92-3.4a1,1,0,0,0-1.83.24,5,5,0,0,0,.11,3.56l1.47-1.13a6.51,6.51,0,0,1-1.58-1.73c-.7-1.08-2.43-.08-1.73,1a9.57,9.57,0,0,0,2.3,2.45c.67.5,1.8-.35,1.47-1.13a3.28,3.28,0,0,1-.11-2.5l-1.83.24,1.92,3.4c.6,1.07,2,.28,1.83-.77a57.3,57.3,0,0,1-.49-10,1,1,0,0,0-1.86-.5,10.72,10.72,0,0,0-1.23,5.38l2-.26a11.29,11.29,0,0,1-.31-3.66l-2,.27a23.07,23.07,0,0,1,.74,3.68c.15,1.24,2.06,1.32,2,0a4.14,4.14,0,0,0-1.94-3.43c-.68-.45-1.79.32-1.46,1.13l2.22,5.61,1.82-.77a6.17,6.17,0,0,1-1.12-2.63l-1.68,1a2.37,2.37,0,0,1,.68,2.07l1.5-.86a4.68,4.68,0,0,1-1.88-2.78l-1.67,1a6.15,6.15,0,0,1,1.68,3.55l1-1.27-.16-.08-.36,1.37-.15-.06a1,1,0,0,0,1-1.73c-1-.72-2.71-1.94-1.78-3.36l-1.57.21a3.71,3.71,0,0,1,1.52,2.64l2-.26a31.85,31.85,0,0,0-1.25-5.14c-.54-1.24-1.65-1.32-2.75-.79a40.67,40.67,0,0,1-9.87,3.48l.53,1.92a10.2,10.2,0,0,1,4.88-.06l-.24-1.83a7.64,7.64,0,0,1-3.13.9,1,1,0,0,0-.27,2,5.52,5.52,0,0,0,3.17-.12c.85-.23,3.43-.65,2.3,1.06-1.26,1.91-4.53,2.47-6.63,2.55-5.33.2-10.14-2.47-14.61-5.05L79.6,288a46.76,46.76,0,0,0,10.31,2.89c1,.16,1.89-1.31.77-1.83q-3.63-1.71-7.22-3.51c-1.93-1-4-2-5-3.95l-1.37,1.37a59.56,59.56,0,0,0,13.29,4.14c1.25.23,1.8-1.61.54-1.93-3.31-.82-9-.44-10.38-4.43L79,281.84c6,4.07,13.39,4.65,19.89,7.52l.51-1.86a15.33,15.33,0,0,1-4.86-.59l-.53,1.93L106,290.66v-1.93a8.6,8.6,0,0,1-4.87-.19v1.92a26.87,26.87,0,0,1,6.46-.25l-.5-1.87a6.56,6.56,0,0,1-5.75.21v1.73a7.72,7.72,0,0,1,5.68-.51v-1.93a10.27,10.27,0,0,1-7.4-1.09l-.24,1.83a29.5,29.5,0,0,1,7.49-.74l-.26-2a11.72,11.72,0,0,1-7.22-.23v1.93l6.21-1-.53-1.93-7.44,1.51.77,1.83,7.44-3.82c1-.51.3-2.22-.77-1.83a14.86,14.86,0,0,0-4,2.15c-1,.75-.12,2.42,1,1.73l3.88-2.39a1,1,0,0,0-1-1.72,48.87,48.87,0,0,1-7,3.05,1,1,0,0,0,.53,1.93l5.83-.9-.53-1.93a36.63,36.63,0,0,1-9.83,1.78v2a52.78,52.78,0,0,0,8.64-1.42l-.53-1.93a63.84,63.84,0,0,1-8.61,2.07c-1,.17-.91,1.7,0,1.93a34.66,34.66,0,0,0,10.4,1l-.26-2c-3,.43-6,.95-9,1.57-.92.19-1,1.79,0,1.93a60,60,0,0,0,10.63.54l-.27-2c-3.34.51-6.7.87-10.08,1.1-1.58.1-3.17.2-4.75.21-1.12,0-2.6,0-3.27-1l-.87,1.51a63.56,63.56,0,0,1,8.15.7v-1.93a8.76,8.76,0,0,1-7.15-1.57l-.51,1.87L98,292l-.27-2a18.7,18.7,0,0,1-9.68-.41l-.27,2a48.73,48.73,0,0,0,6.39.2v-2a8,8,0,0,1-5-1,1,1,0,0,0-1,1.73Z"/>
<path class="cls-1" d="M111.56,290.24h-.33l1,.73a20.57,20.57,0,0,1-1.47-7.47,1,1,0,0,0-1-1c-1.71-.05-1.49,2.46-1.45,3.58a17.64,17.64,0,0,0,.75,4.44l1.83-.77a16.23,16.23,0,0,1-1.15-5.11,1,1,0,0,0-2,0,12.89,12.89,0,0,0,.79,5.57,1,1,0,0,0,1.1.72,1,1,0,0,0,.87-1c0-2.85-1.17-5.6-.83-8.45h-2a12.33,12.33,0,0,0,.44,3.37,1,1,0,0,0,1.92-.53,10.44,10.44,0,0,1-.36-2.84,1,1,0,0,0-1-1,1,1,0,0,0-1,1c-.34,2.86.83,5.6.83,8.45l2-.27a11.71,11.71,0,0,1-.72-5h-2a19.23,19.23,0,0,0,1.42,6.12c.49,1,2.16.3,1.83-.77a15,15,0,0,1-.63-3.1c0-.51-.06-1-.06-1.54q0-.41,0-.81a1.53,1.53,0,0,0,0-.37c0-.25.37-.05-.18.19l-.5.14h.09l-1-1a22.14,22.14,0,0,0,1.54,8,1,1,0,0,0,1,.74h.33a1,1,0,0,0,0-2Z"/>
<path class="cls-1" d="M109,281.75a21.9,21.9,0,0,0,.72,4.27l1.83-.77c-.6-1.39-.29-3-1.36-4.22-.72-.79-1.85.06-1.67,1a37.08,37.08,0,0,0,1.31,4.86c.25.74.58,1.47.76,2.23s.27,1.61.4,2.41l1.82-.77a11.6,11.6,0,0,1-.45-2.2,21.61,21.61,0,0,0-.65-2.39,19.18,19.18,0,0,1-.46-2.23,8,8,0,0,0-.31-1.06l-.21-.51-.13-.34c-.07-.26-.13-.17-.19.28l-.44.26s-.08-.12-.09,0,.21.41.27.51l.51,1.08a8,8,0,0,1,.82,2.12,8.4,8.4,0,0,1,0,2.24,10,10,0,0,1-.4,2.38,1,1,0,0,0,1.67,1,2.15,2.15,0,0,0,.44-2c-.11-.82-.24-1.65-.41-2.46a8.61,8.61,0,0,0-1.7-4l.15,1.22,0-.1-.36.35.09-.06a1,1,0,0,0,.46-1.13c-.12-.3-.24-.61-.34-.93a2.92,2.92,0,0,0-.13-.42c-.09-.19.09-.12,0,.07l-.36.36c-.4,0-.47,0-.23.13l.18.13a3.47,3.47,0,0,1,.36.31,4.37,4.37,0,0,1,.63.79,5.84,5.84,0,0,1,.72,2.37,6.05,6.05,0,0,1-1.11,4.61l1.58,1.22a9,9,0,0,0,1.08-2.53,1,1,0,0,0-1.93-.53,7.3,7.3,0,0,1-.88,2c-.59.94.85,2.11,1.57,1.21a8.62,8.62,0,0,0,1-8.85,5.93,5.93,0,0,0-1.13-1.64,4,4,0,0,0-1.7-1.18,1.38,1.38,0,0,0-1.73,1.25,4.93,4.93,0,0,0,.54,2.11l.46-1.13a1.47,1.47,0,0,0-.49.53,1.06,1.06,0,0,0,.15,1.21,6,6,0,0,1,1.11,2.71c.13.57.23,1.14.33,1.71l.12.79a1.66,1.66,0,0,0,0,.32c.06.2,0,.18.09,0l1.67,1a11.25,11.25,0,0,0,.43-2.44,13.88,13.88,0,0,0,.08-2.41,13.29,13.29,0,0,0-1.69-4.61,2.17,2.17,0,0,0-1.78-1.41,1.39,1.39,0,0,0-1.48,1.62c.11.73.54,1.4.71,2.12s.2,1.49.44,2.23a22.42,22.42,0,0,1,.73,2.67,11.46,11.46,0,0,0,.64,2.58,1,1,0,0,0,1.25.41,1,1,0,0,0,.57-1.18c-.12-.8-.2-1.63-.39-2.42s-.51-1.48-.76-2.22a37.08,37.08,0,0,1-1.31-4.86l-1.67,1a2.74,2.74,0,0,1,.37,1.42,8.66,8.66,0,0,0,.67,2.4,1,1,0,0,0,1.25.41,1,1,0,0,0,.58-1.18,19,19,0,0,1-.65-3.74,1,1,0,0,0-1-1,1,1,0,0,0-1,1Z"/></g></g></svg>
