<svg xmlns="http://www.w3.org/2000/svg" viewBox="0 0 210.77 371.46"><defs><style>.cls-1{fill:#f2f0ed;}.cls-2{fill:#fff;}</style></defs><title>water2</title><g id="Layer_2" data-name="Layer 2"><g id="Layer_1-2" data-name="Layer 1"><path class="cls-1" d="M44.94,38.64c-8.2-2.18-16.72-1.67-25-.3-4.18.69-8.38,1.51-12.5,2.51-3.23.79-6.08,2.35-7,5.76a18,18,0,0,0-.41,5c0,2.23.07,4.47.11,6.7L.34,71.94c.14,9,.17,17.94.51,26.91.18,4.48.48,9,1.06,13.4.49,3.64,1,7.44,2.49,10.83a10,10,0,0,0,6.55,6c2.56.61,5.56.1,7.26-2.06a8.09,8.09,0,0,0,1.43-4.73c.1-2.18.08-4.38.12-6.56q.1-6.84.22-13.68.22-13.56.44-27.11c.07-4.29-.19-8.73.35-13a9.42,9.42,0,0,1,5.09-7.58c4.73-2.4,10.8-1.74,15.82-.76.9.17,1.79.37,2.67.58,1.25.31,1.79-1.62.53-1.92-8.63-2.1-23.38-3.56-25.85,8-.8,3.78-.49,7.86-.56,11.7l-.21,12.94-.42,25.87-.11,6.71a39.68,39.68,0,0,1-.24,6.27c-.59,3.2-3.77,4.17-6.6,3.25-3.21-1.05-4.79-4.42-5.62-7.45a68.48,68.48,0,0,1-1.89-12.17c-.76-8.48-.74-17-.88-25.52L2.08,55.8c0-2-.13-4-.07-5.93A7.56,7.56,0,0,1,3.44,45a8.13,8.13,0,0,1,4.34-2.17c1.88-.47,3.78-.84,5.66-1.23,8.13-1.7,16.48-3.09,24.8-2.2a43.26,43.26,0,0,1,6.17,1.16,1,1,0,0,0,.53-1.92Z"/><path class="cls-1" d="M43.13,54.79l1.19,46.67.59,23c.19,7.46.15,15,.62,22.41.32,5.08,1.21,10.7,4.92,14.49A17.86,17.86,0,0,0,57,165.21c2.38.93,5.16,1.82,6.68,4s1.08,5,1.15,7.39a69.38,69.38,0,0,0,.64,8.15c.51,3.51,1.27,6.85,1.22,10.42a49.27,49.27,0,0,1-.91,8.74,21.14,21.14,0,0,0-.71,4.73c.14,4.41,4.73,5.62,8.34,6.15,2.3.34,4.45.61,6.15,2.36a12.53,12.53,0,0,1,3,6.28,13.47,13.47,0,0,1-4.36,13.3c-3.86,3.45-8.74,5.71-12,9.81-3.87,4.81-4.07,11.13-4.86,17-1.63,12.29-3.41,24.62-4,37a110.14,110.14,0,0,0,1.9,28.31,93.56,93.56,0,0,0,4.92,16.32,40.59,40.59,0,0,0,5.37,9.74,29.57,29.57,0,0,0,10.8,8.1c8.86,4.21,18.68,5.88,28.32,7.2,20.5,2.83,42.72,1.53,59.32-12.23a47.14,47.14,0,0,0,11.38-13,39.74,39.74,0,0,0,4.8-15.8c1.12-11.93-2-23.87-3-35.7-.28-3.29-.43-6.59-.4-9.9s.4-6.63.56-10c.14-2.93.08-5.87.05-8.8a97.71,97.71,0,0,0-.39-10.41c-.72-6.1-3.19-11.64-8.16-15.41-2.38-1.81-5-2.6-7.69-3.74a4.64,4.64,0,0,1-3-3.41,27.21,27.21,0,0,1-.32-5.1c0-1.76-.09-3.51-.14-5.27a14.77,14.77,0,0,0-.45-4.08,5.08,5.08,0,0,0-3.95-3.24c-2.76-.59-5.82-.17-8.62-.26-3.88-.12-7.76-.37-11.64-.67-7.55-.56-15.09-1.28-22.66-1.41-6-.1-12.07.35-18.11.6q-9.72.4-19.46.54a1,1,0,0,0,0,2q10-.15,19.92-.56c5.68-.24,11.35-.66,17-.59,7.57.1,15.11.8,22.66,1.38,3.67.28,7.34.53,11,.67,1.83.07,3.67.11,5.51.11a21.87,21.87,0,0,1,3.62.09c2.91.49,3,2.62,3.1,5.13a99.92,99.92,0,0,0,.38,10.24,6.67,6.67,0,0,0,4.25,5.61c2.72,1.17,5.38,1.92,7.74,3.82,5.41,4.35,7,10.8,7.29,17.47a152.55,152.55,0,0,1-.15,18.27,105.64,105.64,0,0,0,.31,19.72c.62,6,1.59,11.89,2.26,17.86a68.63,68.63,0,0,1,.23,16.64,37,37,0,0,1-6.4,16.43c-6.47,9.15-16.76,15.81-27.35,19.11-9.82,3.06-20.23,3.58-30.43,2.83a136,136,0,0,1-27.57-4.62c-6.12-1.78-12.66-4.31-17.29-8.87-5-4.92-7.53-12.14-9.51-18.69a99.31,99.31,0,0,1-4.26-28.13c-.09-10.85,1.19-21.68,2.54-32.43.85-6.68,1.56-13.41,2.65-20.06a18,18,0,0,1,3.36-8.51,28.21,28.21,0,0,1,6-5.24c3.82-2.72,8.13-5.41,10.1-9.87a17.23,17.23,0,0,0-.23-13.17,11.45,11.45,0,0,0-3.57-4.84c-1.76-1.32-3.81-1.6-5.93-1.92s-5.19-.59-6.43-2.68a4.94,4.94,0,0,1-.25-3.53,58.68,58.68,0,0,0,1.36-14.23c-.2-3.45-1.13-6.8-1.47-10.24-.3-3-.29-6.09-.41-9.14a8.74,8.74,0,0,0-1.85-5.52c-3.3-4-9.28-3.85-12.91-7.42-4-3.92-4.42-10.22-4.59-15.47-.25-7.44-.39-14.9-.58-22.35L45.7,76.88l-.57-22.09a1,1,0,0,0-2,0Z"/><path class="cls-1" d="M45.87,39.13a77.07,77.07,0,0,1-2.76-23.89c.12-2.84.67-6.18-2.1-8-1.8-1.15-5.13-1-6.15-3.07L34,5.7q33.59-2.55,67.27-3.35,35.25-.83,70.52.29,18.83.6,37.63,1.75l-.51-1.86-2.83,1.56a1,1,0,0,0,1,1.73l2.83-1.56a1,1,0,0,0-.5-1.87Q175.26.31,141,0,106-.23,71,1.42,52.47,2.29,34,3.7a1,1,0,0,0-.86,1.51c1.09,2.22,3.64,2.47,5.72,3.24a3.22,3.22,0,0,1,2.39,2.87,41.5,41.5,0,0,1-.18,5.34,79.14,79.14,0,0,0,2.88,23,1,1,0,0,0,1.93-.54Z"/><path class="cls-1" d="M88.12,233.1l8.54-1.57c.91-.16.89-1.39.24-1.82a16,16,0,0,0-6.17-2.49l-.26,2,8.52-.09a1,1,0,0,0,.26-2,7.87,7.87,0,0,0-3.37-.4c-1.27.12-1.29,2.1,0,2a54.11,54.11,0,0,0,11.77-2.22,1,1,0,0,0-.53-1.93l-5.28,1.5c-1.28.36-.71,2.11.53,1.93l15.39-2.25-.53-1.93-6.59,1.69a1,1,0,0,0,.27,2,68.83,68.83,0,0,0,15.35-1.35l-.53-1.93L121,225.58c-1,.3-.9,2.08.26,2l9.87-1-.27-2a15.8,15.8,0,0,0-4.69,1.51,1,1,0,0,0,.5,1.86,97.56,97.56,0,0,0,13.72-2l-.77-1.83L135.34,226a1,1,0,0,0,.51,1.86l16.65-1.68-.51-1.86-9.29,6.25c-.76.51-.55,1.93.51,1.86l9.06-.54c1.28-.08,1.29-2.08,0-2l-9.06.54.5,1.87,9.29-6.25c.75-.5.57-2-.5-1.87l-16.65,1.68.5,1.86,4.24-1.88c1.07-.48.28-2.06-.78-1.83A94.31,94.31,0,0,1,126.63,226l.51,1.87a13.84,13.84,0,0,1,4.21-1.31c1.11-.17.86-2.08-.26-2l-9.87,1,.27,2,4.77-1.39a1,1,0,0,0-.53-1.93,65.85,65.85,0,0,1-14.82,1.28l.26,2,6.59-1.68c1.28-.32.71-2.11-.53-1.93l-15.39,2.25.53,1.93,5.28-1.5-.53-1.93a51.21,51.21,0,0,1-11.24,2.15v2a6.38,6.38,0,0,1,2.84.33l.27-2-8.52.09c-1.09,0-1.41,1.76-.27,2a14.72,14.72,0,0,1,5.69,2.29l.24-1.83-8.54,1.57c-1.26.24-.73,2.16.53,1.93Z"/><path class="cls-1" d="M64.77,265.87c0-1.16,1.34-2,2.2-2.61a29.42,29.42,0,0,1,3.63-2,68.35,68.35,0,0,1,6.64-2.7,99.64,99.64,0,0,1,14.54-3.81,168.17,168.17,0,0,1,30.3-2.6,233.84,233.84,0,0,1,25.1,1.23A72.09,72.09,0,0,1,161,255.74c5.73,1.73,12,4.16,16.09,8.73,1.31,1.46,1.8,3.59.35,4.82a8.37,8.37,0,0,1-2.18,1.09,42.64,42.64,0,0,1-8.28,1.81c-3.59.51-7.21.82-10.82,1.06-13.19.91-26.4.74-39.61.75a210.12,210.12,0,0,1-32.1-2,89.19,89.19,0,0,1-14.81-3.18,18.16,18.16,0,0,1-3.31-1.4c-.28-.17-.75-.48-.84-.55l-.31-.28c-.06-.06-.35-.38-.16-.16-.12-.14-.34-.56-.21-.32a.76.76,0,0,1-.06-.2c-.07-.29,0,.22,0,0-.1-1.27-2.11-1.29-2,0a4,4,0,0,0,2.09,2.93c2.5,1.66,5.7,2.42,8.57,3.11a161.2,161.2,0,0,0,34.48,4c8.58.16,17.19.09,25.77.06,6.31,0,12.62-.18,18.91-.52,7.09-.39,14.46-.76,21.35-2.6,1.9-.5,4.41-1.17,5.59-2.89,3.51-5.14-4-9.94-7.72-12-6.15-3.43-12.79-5.09-19.68-6a225.55,225.55,0,0,0-23.94-1.75,190.58,190.58,0,0,0-30.95,1.64c-10.2,1.44-20.89,3.82-30,8.87-1.9,1.05-4.51,2.64-4.5,5.12A1,1,0,0,0,64.77,265.87Z"/><path class="cls-1" d="M209.77,3h-1.34a1,1,0,0,0-.7.3.75.75,0,0,0-.21.32.85.85,0,0,0-.09.38,1,1,0,0,0,.3.71,1,1,0,0,0,.7.29h1.34a1,1,0,0,0,.7-.29.75.75,0,0,0,.21-.32.86.86,0,0,0,.09-.39,1,1,0,0,0-.3-.7,1,1,0,0,0-.7-.3Z"/><path class="cls-1" d="M206.35,6.18Q203.8,32.52,202.8,59t-.4,52.67q.28,13.23,1,26.44c.2,3.8.6,7.65.43,11.46-.15,3.33-.9,6.82-3.42,9.17-2.21,2.06-5.31,2.78-8.18,3.37a41.06,41.06,0,0,0-8.47,2.2c-6.67,2.94-7.66,10.05-7.79,16.58a87,87,0,0,0,3.1,24.71c.53,1.92,1.51,4,1.61,6s-1.48,2.85-3.16,3.26a27.26,27.26,0,0,1-5.71.5c-2.1.06-4.21,0-6.31-.1s-4.5-.36-6.73-.7c-1.26-.19-1.8,1.74-.53,1.93a77.43,77.43,0,0,0,13.09.88c3.11-.06,7.27.14,9.79-2.06,3-2.62.81-6.87-.06-10a84.19,84.19,0,0,1-2.54-12.89,85.77,85.77,0,0,1-.51-12.92c.13-3.49.45-7.32,2.57-10.25,3.76-5.21,11.56-4.38,17-6.5a11.94,11.94,0,0,0,6.64-5.81,21.21,21.21,0,0,0,1.66-9.65c-.07-4.21-.43-8.42-.63-12.62q-.33-6.8-.55-13.59-.9-27.06-.12-54.15t3.19-54c.2-2.22.41-4.43.62-6.65.13-1.28-1.87-1.27-2,0Z"/><path class="cls-1" d="M46.14,40.81c20.31,3.31,40.86,1.24,61.27.34,10.29-.46,20.49-.25,30.77.17a298.36,298.36,0,0,0,31.08-.3,298.43,298.43,0,0,0,34.49-4.2c1.27-.23.73-2.15-.53-1.93a295.2,295.2,0,0,1-61.11,4.58c-10.29-.31-20.51-.84-30.81-.48-10.13.36-20.25,1.12-30.39,1.47-11.43.4-22.92.26-34.24-1.58-1.26-.21-1.8,1.72-.53,1.93Z"/><path class="cls-1" d="M46.12,55.2,111,56c10.74.12,21.45.11,32.18-.22l32.23-1c5.76-.18,11.53-.25,17.29-.55,4.12-.21,8.72-.9,11.45-4.35.79-1-.61-2.42-1.41-1.41-2.49,3.13-6.66,3.61-10.4,3.78-5.14.24-10.3.33-15.44.49l-31.49,1c-21.12.66-42.24.2-63.37-.05l-36-.42a1,1,0,0,0,0,2Z"/><path class="cls-1" d="M95.16,212A96.55,96.55,0,0,1,92.24,197c-.27-2.51-.45-5-.52-7.56a19.52,19.52,0,0,1,.7-6.85,4.27,4.27,0,0,1,.65-1.46c.91-.92,1,.59,1,1.16,0,1,0,1.92,0,2.88a13.83,13.83,0,0,0,1.08,5.24,7.36,7.36,0,0,0,1.44,2.09c.63.62,1.6.94,2.17,1.59.72.82.5,2.38.42,3.38a16.18,16.18,0,0,1-.78,3.78,1,1,0,0,0,1.23,1.23,101.49,101.49,0,0,1,24.28-2.2c4,0,8,.21,11.93.37,3.55.15,7.42.72,10.7-1a1,1,0,0,0,0-1.72,3.36,3.36,0,0,0-1.94-.59,1,1,0,0,0-1,.73,2.14,2.14,0,0,0,2,2.67c1.27.16,1.26-1.84,0-2l-.05-.14-1,.74a1.13,1.13,0,0,1,.93.31v-1.72a11.2,11.2,0,0,1-5.52.88c-1.87-.06-3.73-.16-5.6-.24-4-.16-7.95-.31-11.93-.32a100.87,100.87,0,0,0-23.38,2.29l1.23,1.23a17.56,17.56,0,0,0,.87-6.51,4.15,4.15,0,0,0-.73-2.25,7.34,7.34,0,0,0-1.89-1.47c-3.33-2.37-2.07-6.82-2.56-10.22-.22-1.52-1.56-3-3.23-2.46s-2.28,2.92-2.61,4.42c-1,4.39-.39,9.28.09,13.7a97.33,97.33,0,0,0,3,15.61,1,1,0,0,0,1.92-.53Z"/><path class="cls-1" d="M146.72,196.65a3,3,0,0,1,0-2.48c.42-.92,1.24-1.23,2-1.75A5.63,5.63,0,0,0,151.1,189c.68-2.7-.58-7.31,2.16-9.06l-1.5-.87c-.1,3.07-1.26,6-1.69,9a40.68,40.68,0,0,0-.12,9c.48,6.05,1.6,12.21.2,18.21-.3,1.26,1.63,1.79,1.92.54,1.42-6.06.43-12.2-.08-18.3a39.27,39.27,0,0,1,.07-9.32c.47-3,1.6-5.95,1.7-9.06a1,1,0,0,0-1.51-.86c-3.52,2.24-2.29,6.49-3,9.93a3.84,3.84,0,0,1-1.33,2.44,13.07,13.07,0,0,0-2.34,1.7,4.87,4.87,0,0,0-.78,4.93c.48,1.17,2.42.66,1.93-.53Z"/><path class="cls-1" d="M101.09,194.33l.14-.28a.85.85,0,0,0,.12-.37.77.77,0,0,0,0-.4.7.7,0,0,0-.18-.34.77.77,0,0,0-.28-.26l-.24-.1a1,1,0,0,0-.53,0l-.24.1a1,1,0,0,0-.36.36l-.14.28a.81.81,0,0,0-.12.37.78.78,0,0,0,0,.4.75.75,0,0,0,.18.34.78.78,0,0,0,.28.26l.24.1a1,1,0,0,0,.53,0l.24-.1a1,1,0,0,0,.36-.36Z"/><path class="cls-1" d="M100.21,194.62c7.66-.38,15.24-.07,22.89.26,7.44.33,15-.95,22.3-2.15,1.27-.21.73-2.14-.53-1.93-7.33,1.2-14.81,2.42-22.26,2.06s-14.91-.61-22.4-.24c-1.28.06-1.29,2.06,0,2Z"/><path class="cls-1" d="M95.41,182.27c4.6,1.07,9.29.85,14,.52a95.07,95.07,0,0,1,14.32,0,128.22,128.22,0,0,0,14.26.83,38.36,38.36,0,0,0,6.84-.81c2.37-.52,4.69-1.29,7.11-1.58,1.26-.16,1.27-2.16,0-2a59.66,59.66,0,0,0-6.73,1.43,35.73,35.73,0,0,1-7.22,1,122.33,122.33,0,0,1-13.79-.79,88.81,88.81,0,0,0-13.84-.05c-4.8.34-9.65.71-14.39-.38-1.26-.29-1.79,1.63-.53,1.92Z"/><path class="cls-1" d="M91.94,290.72a4.48,4.48,0,0,0-3,3.49,4,4,0,0,0,1.81,4.25,4.56,4.56,0,0,0,4.44,0,3.65,3.65,0,0,0,1.68-4.29,4.63,4.63,0,0,0-1.71-2.33,3.69,3.69,0,0,0-2.84-.62,1,1,0,0,0-.7,1.23,1,1,0,0,0,1.23.7c.19,0-.19,0,0,0h.24l.19,0c.14,0-.19-.05-.07,0l.13,0,.19.05.1,0c.18.06-.06,0-.06,0s.37.19.41.22.16.08.17.12l-.07-.06a.81.81,0,0,0,.1.09,3.22,3.22,0,0,1,.32.32s.08.08.08.1l-.05-.07.12.17a4.16,4.16,0,0,1,.23.42c.1.2,0-.13,0,0l.06.19.06.23s0,.06,0,.1,0-.07,0-.07,0,.39,0,.43a.34.34,0,0,0,0,.1c0,.1,0,0,0,0s0-.07,0,0l0,.13-.06.2c-.08.23.07-.11,0,0s-.22.29-.22.36.13-.16.06-.08l-.06.06a1.07,1.07,0,0,1-.14.16l-.13.12c-.16.14.13-.08,0,0a3.62,3.62,0,0,1-.33.2l-.19.1c-.14.07.2-.07,0,0l-.38.11-.21.05c-.22,0,.17,0,0,0l-.4,0h-.18s-.31,0-.14,0,0,0-.08,0l-.21-.05a2.07,2.07,0,0,0-.4-.13s.19.09.1,0l-.08,0-.19-.1-.15-.09c-.18-.12.11.1,0,0l-.29-.27c-.16-.17.08.12,0,0l-.12-.19-.11-.19a.36.36,0,0,0,0-.09c0-.09,0,.09,0,.09s-.11-.35-.13-.42a1.55,1.55,0,0,0,0-.21l0,.11s0-.08,0-.1,0-.29,0-.44a.58.58,0,0,0,0-.22c0,.07,0,.2,0,.07l0-.12a3.59,3.59,0,0,1,.12-.47l.08-.21s-.1.2,0,.06l.06-.12a3.38,3.38,0,0,1,.24-.41l.06-.08c.09-.14,0,.05,0,.05s.15-.18.16-.2l.35-.32-.08.06.11-.07.21-.14a1,1,0,0,0,.23-.11s-.19.06-.09,0l.15-.05a1,1,0,1,0-.53-1.93Z"/><path class="cls-1" d="M107.18,309.79c-1.45-.79-2.93.58-3,2.06s1.45,2.4,2.73,2.73a5.78,5.78,0,0,0,2.26.2,2.47,2.47,0,0,0,1.76-1.16,3,3,0,0,0-.4-3.55,3.85,3.85,0,0,0-4.43-.53,1,1,0,0,0-.36,1.37,1,1,0,0,0,1.37.36c.08,0,.23,0,0,0l.12,0,.31-.09.19,0c.18,0,0,0-.07,0a3.13,3.13,0,0,1,.71,0c-.1,0-.2,0,0,0l.15,0a2.63,2.63,0,0,0,.3.1c-.06,0-.19-.09,0,0l.19.11.1.07-.1-.08.1.09.08.08c.08.09.07.16,0,0,0,.08.1.15.14.23l0,.09c-.06-.16-.07-.19,0-.09l0,.08a2,2,0,0,1,.06.26c0,.12,0-.28,0-.08a.53.53,0,0,1,0,.13,1.93,1.93,0,0,1,0,.24c0,.2.06-.25,0-.06l0,.16a.78.78,0,0,0,0,.14c0,.1-.07.05,0-.09a1.59,1.59,0,0,0-.13.22c-.1.16.17-.18,0-.05l-.07.08c-.1.09-.12,0,0,0l-.14.08c-.14.1.15,0,0,0l-.18.06s-.11,0-.15,0c.26,0,0,0,0,0a2.54,2.54,0,0,1-.39,0c-.19,0,0,0,0,0l-.3-.05c-.22,0-.43-.09-.64-.15l-.28-.08-.15-.05-.12-.05.12.06c0-.05-.23-.11-.28-.14s-.22-.18-.26-.17l.1.09-.09-.08-.09-.09s-.09-.12-.12-.13.11.14.07.08l0-.07c0-.05,0-.1-.08-.14s.1.24,0,0,0,.09,0,.11a.74.74,0,0,0,0-.21s0,.26,0,.11l.05-.18c0-.13.09-.07,0,.06a.61.61,0,0,0,.07-.14c.07-.11.14-.09,0,0,0,0,.07-.08.1-.11s.16-.14,0,0,0,0,.06,0c-.15.13-.2.07-.11.05.25-.06-.21,0,0,0s0,.05-.12,0l.09,0c-.16-.07-.19-.09-.1,0a1,1,0,1,0,1-1.72Z"/><path class="cls-1" d="M96.77,326.09A3.31,3.31,0,0,0,97.3,330a2.9,2.9,0,0,0,3.83.43,3.31,3.31,0,0,0,1.25-3.85,3,3,0,0,0-2.94-1.72,3.14,3.14,0,0,0-3,2.3,1,1,0,0,0,.7,1.23,1,1,0,0,0,1.23-.7,2.5,2.5,0,0,1,.07-.26c.06-.19-.1.19,0,.07s0-.09.08-.14l.06-.1c.07-.11-.17.2,0,.07l.21-.21c.11-.1-.2.13-.08.06l.12-.08.25-.14c.17-.08-.22.08-.07,0l.11,0,.3-.08a.77.77,0,0,0,.15,0s-.26,0-.17,0h.56l-.14,0a1.07,1.07,0,0,0,.27.06l.14,0c.1,0,.17.12-.08,0l.25.13.09.07c-.25-.15-.14-.11-.06-.05l.1.1c.07.08.12.22,0,0,0,.07.1.15.14.23s0-.18,0,0,0,.1,0,.16a.35.35,0,0,1,0,.17s0-.26,0-.15,0,.05,0,.07v.17c0,.06,0,.28,0,.09s0,0,0,.06,0,.09,0,.14l-.06.16c0,.1.06-.13.06-.12l-.06.11a1.56,1.56,0,0,1-.16.28l0,.06c0,.09.09-.11.08-.1a.93.93,0,0,0-.13.15c-.08.08-.18.15-.25.23s.19-.13.1-.08l-.06,0a1,1,0,0,1-.17.1s-.23.11,0,0,0,0,0,0l-.16,0-.07,0c-.1,0,.27,0,.09,0H99.3c-.11,0,.17,0,.15,0l-.1,0-.16,0-.08,0c-.11,0,.15.06.13.06a.44.44,0,0,1-.15-.08l-.12-.07s-.23-.16-.07,0,0,0-.06-.06l-.12-.12-.06-.08c-.09-.09,0,.08.06.09l-.11-.15a1.59,1.59,0,0,1-.18-.34s.09.23.06.12l0-.09c0-.06,0-.12,0-.18s0-.13,0-.19,0,.17,0,.15a.28.28,0,0,1,0-.09,2.41,2.41,0,0,1,0-.38s0-.13,0,0,0,0,0,0a1.21,1.21,0,0,1,0-.18.14.14,0,0,0,0-.07c0-.1-.09.2,0,.11a1.74,1.74,0,0,1,.1-.19,1,1,0,0,0-.36-1.37,1,1,0,0,0-1.37.36Z"/><path class="cls-1" d="M124.17,288.21a2.53,2.53,0,0,0-1.6,1.83,3.51,3.51,0,0,0,.35,2.4c.93,1.69,3.11,2,4.85,1.85a5.28,5.28,0,0,0,3-1,3.15,3.15,0,0,0,1.07-1.94,4.18,4.18,0,0,0-1.89-4.24,5.84,5.84,0,0,0-6.08.52,1,1,0,0,0-.36,1.37,1,1,0,0,0,1.37.35,9.11,9.11,0,0,1,.92-.52c.26-.12-.18.06.09,0l.25-.09a4.44,4.44,0,0,1,.6-.16l.22,0c.16,0-.24,0,0,0s.34,0,.52,0h.26s.32,0,.07,0a3.75,3.75,0,0,1,.58.13l.24.09c-.18-.07,0,0,0,0s.26.15.4.23-.16-.15,0,0l.15.14.14.15.09.1c-.09-.11-.1-.12,0,0a2,2,0,0,1,.21.35.44.44,0,0,1,.09.18s-.08-.23,0-.05.09.26.12.4a1.77,1.77,0,0,0,0,.2c0,.11,0,.08,0-.07a.62.62,0,0,1,0,.13,2.81,2.81,0,0,1,0,.41c0,.22,0,0,0,0s0,.17,0,.2a2.12,2.12,0,0,1-.09.31c-.06.21.11-.2,0,0l-.12.22c-.13.2,0,0,0,0l-.13.14s-.12.13-.15.13l.09-.07a.57.57,0,0,1-.13.08l-.25.14c.15-.08,0,0,0,0-.21.06-.42.12-.64.16,0,0-.33.06-.11,0l-.28,0-.52,0a7.64,7.64,0,0,1-1.07,0l-.26,0h-.08l-.5-.13-.24-.09c.22.09,0,0-.06,0l-.22-.13c-.06,0-.21-.15-.08,0l-.16-.14-.09-.1,0,0a1.9,1.9,0,0,1-.23-.39s.08.22,0,0a2.33,2.33,0,0,1-.07-.25c0-.23,0,0,0,0s0-.16,0-.2v-.19c0-.18,0,.23,0-.05a.84.84,0,0,1,0-.17c.08-.27-.08.1,0,0l.09-.15c.08-.14-.16.16,0,0s0,0,0,0,.38-.19,0,0a1,1,0,0,0,.7-1.23,1,1,0,0,0-1.23-.7Z"/><path class="cls-1" d="M123.53,314.54a1.51,1.51,0,0,0,.35.6,1.59,1.59,0,0,0,1.06.44h.11a1.49,1.49,0,0,0,1.34-1,1,1,0,0,0,0-.56s0,0,0-.07a3,3,0,0,0-.16-.37,2.32,2.32,0,0,0-.31-.44,2.08,2.08,0,0,0-.46-.37,3.92,3.92,0,0,0-.36-.16l-.18-.06a1,1,0,0,0-1,.26,1,1,0,0,0-.26,1,.22.22,0,0,1,0,.08l0-.27v.11l0-.26a.33.33,0,0,1,0,.14l.1-.23a.83.83,0,0,1-.07.13l.15-.21a.49.49,0,0,1-.12.13l.2-.16a.57.57,0,0,1-.13.08l.24-.1-.12,0,.26,0H124l.27,0h0a1,1,0,0,0-.77.1,1,1,0,0,0,.24,1.83,1.81,1.81,0,0,0,.4,0,1.84,1.84,0,0,0,.4-.06,2.37,2.37,0,0,0,.36-.17,1.48,1.48,0,0,0,.31-.25,1.68,1.68,0,0,0,.4-.68.19.19,0,0,0,0-.07,1.87,1.87,0,0,0,0-.32,1.49,1.49,0,0,0,0-.21,1.52,1.52,0,0,0,0-.21l-1.23,1.23a.49.49,0,0,1,.17.06l-.23-.1a1,1,0,0,1,.22.13l-.2-.16a1.14,1.14,0,0,1,.19.19l-.15-.2a1,1,0,0,1,.13.23l-.1-.24.06.18v-.52l.1-.24a.16.16,0,0,1,0,.07l.15-.2a.3.3,0,0,1-.08.08l.21-.15-.1.05.24-.1-.14,0,.26,0h-.18l.27,0-.14,0,.24.1a.24.24,0,0,1-.11-.06l.2.16a.6.6,0,0,1-.08-.08l.15.2,0-.09.11.24,0,0a1,1,0,0,0-.45-.6.85.85,0,0,0-.38-.12.91.91,0,0,0-.4,0,1,1,0,0,0-.59.46,1,1,0,0,0-.1.77Z"/><path class="cls-1" d="M125.55,345.73h0l-.23-.1,0,0-.2-.15,0,0-.16-.2s0,0,0,0l-.1-.24a0,0,0,0,1,0,0l0-.26v0l0-.27s0,0,0,.06l.1-.24a.56.56,0,0,1,0,.08l.16-.2-.09.09.2-.16-.09.05.24-.1-.07,0,.27,0h0l.26,0h0l.24.1h0l.21.16,0,0,.16.21,0,0,.1.24v0a1.15,1.15,0,0,0-.46-.6.85.85,0,0,0-.37-.12.77.77,0,0,0-.4,0l-.24.1a1,1,0,0,0-.36.36l-.1.24a1,1,0,0,0,0,.53v0h0c0,.06.08.18.1.24h0v0l.17.21v0l.1.08.11.08h0l.24.1h0a1.26,1.26,0,0,0,.61,0l0,0,.24-.1h0l0,0,.24-.19,0,0a2.23,2.23,0,0,0,.19-.24l0,0a2.36,2.36,0,0,0,.12-.28s0,0,0,0a2.36,2.36,0,0,0,0-.28v0h0s0-.24,0-.27h0v0a1.09,1.09,0,0,0-.27-.48h0a1.18,1.18,0,0,0-.22-.17l0,0-.26-.11a.78.78,0,0,0-.4,0,.7.7,0,0,0-.37.11.78.78,0,0,0-.28.26.75.75,0,0,0-.18.34l0,.27a1,1,0,0,0,.14.5l.16.2a.94.94,0,0,0,.44.26Z"/><path class="cls-2" d="M152.64,317.7a3.55,3.55,0,0,0,2.33,4.48,2.61,2.61,0,0,0,1.9-.17,2.25,2.25,0,0,0,1-1.19,3.09,3.09,0,0,0-.26-2.6,11.76,11.76,0,0,0-2.33-2.29,1,1,0,1,0-1.41,1.42c.55.54,1.21,1,1.74,1.53,0,0,.17.19.17.19s-.11-.16,0,0l.08.12.11.19s.05.13,0,0,0,0,0,0a1.42,1.42,0,0,1,.07.22s0,.26,0,.09,0,.07,0,.11a2.18,2.18,0,0,0,0,.25s.05-.23,0-.13,0,.07,0,.11a1.09,1.09,0,0,0-.05.17c0,.15,0-.08,0-.09s0,.06-.05.09-.05.06-.05.08.16-.18,0-.06l-.07.07c0,.07.09-.07.1-.08a.67.67,0,0,0-.18.11l.06,0c.08,0,.08,0,0,0h0a3,3,0,0,1-.3,0c.1.06.14,0,0,0l-.13,0-.19-.07c-.13,0,.18.1.07,0l-.1-.06a1.64,1.64,0,0,1-.22-.14c-.14-.09.16.16,0,0l-.15-.14a.84.84,0,0,0-.15-.18l.05.07-.08-.13a1.71,1.71,0,0,1-.13-.23.2.2,0,0,0,0-.08c-.06-.11.08.21,0,0s0-.16-.07-.25l0-.11c0-.17,0,0,0,.06a1.1,1.1,0,0,0,0-.26,1.27,1.27,0,0,0,0-.27s-.05.22,0,.12l0-.14a1.31,1.31,0,0,1,.09-.28,1,1,0,0,0-.7-1.23,1,1,0,0,0-1.23.7Z"/></g></g></svg>