<svg xmlns="http://www.w3.org/2000/svg" viewBox="0 0 492.7 518.93"><defs><style>.cls-1{fill:#fff;}</style></defs><title>water1</title><g id="Layer_2" data-name="Layer 2"><g id="Layer_1-2" data-name="Layer 1"><path class="cls-1" d="M37.12,403.92c7.25,11.25,22.27,11.77,34.24,12.66,6.94.52,14,.67,20.84-1a51.41,51.41,0,0,0,17.2-7.71c4.76-3.36,8.83-8,9.2-14.07.07-1.28-1.93-1.28-2,0-.32,5.16-3.89,9.23-7.91,12.13A49.86,49.86,0,0,1,93,413.33c-6.19,1.72-12.66,1.8-19,1.43s-13.12-.74-19.44-2.17c-6.12-1.39-12.2-4.25-15.7-9.68-.69-1.07-2.42-.07-1.72,1Z"/><path class="cls-1" d="M42.4,392a27.56,27.56,0,0,0,23.9,12.37c5.36-.24,10.73-1.69,15.94-2.94a92.68,92.68,0,0,0,14.47-4.54,44.38,44.38,0,0,0,13.8-8.83l-1,.26a14.47,14.47,0,0,1,6.77,5.26c.73,1,2.47,0,1.72-1a16.88,16.88,0,0,0-8-6.18,1,1,0,0,0-1,.26c-6.81,6.57-15.83,9.89-24.84,12.22A145.89,145.89,0,0,1,69.81,402a26.37,26.37,0,0,1-14.17-1.54A25.44,25.44,0,0,1,44.13,391c-.71-1.08-2.44-.07-1.73,1Z"/><path class="cls-1" d="M38.13,402.55a16.4,16.4,0,0,1,6-11.93,1,1,0,1,0-1.41-1.41,18.28,18.28,0,0,0-6.55,13.34c-.05,1.29,1.95,1.29,2,0Z"/><path class="cls-1" d="M48.56,392.49a33.64,33.64,0,0,0,4.12-18.95c-.28-3.42-1.7-7-1-10.48.47-2.35,3.2-5.17,5.7-3.56,1.08.7,2.09-1,1-1.73-2.32-1.49-5.22-.49-7,1.44-2.43,2.7-2,6.43-1.45,9.75a36,36,0,0,1,.52,11.53,31.71,31.71,0,0,1-3.67,11c-.62,1.13,1.11,2.14,1.73,1Z"/><path class="cls-1" d="M108.54,384.41c-2.87-1.36-6.13-1.91-8.85-3.57-3.22-2-3.93-5.5-4.09-9-.24-5.29-.14-12.77-6.34-14.76-1.22-.4-1.75,1.53-.53,1.93,2.87.92,4,4,4.52,6.74.54,3.12.15,6.33.68,9.46a10.35,10.35,0,0,0,4.75,7.37c2.74,1.67,6,2.21,8.85,3.58,1.16.55,2.17-1.17,1-1.73Z"/><path class="cls-1" d="M57.91,359.84A19.44,19.44,0,0,0,70.79,364c1.28-.07,1.29-2.07,0-2a17.36,17.36,0,0,1-11.47-3.55,1,1,0,0,0-1.41,0,1,1,0,0,0,0,1.42Z"/><path class="cls-1" d="M60.27,356.28q-.71-38.89-1.9-77.77-1.23-40.12-1.89-80.25c-.26-15.08-.57-30.16-1.13-45.23-.48-12.84-.87-25.77-2.29-38.55-1.24-11.22-1.94-22.41-.81-33.67a146.14,146.14,0,0,1,6.86-32.1C63,37.36,69.12,26.8,78.23,18.88A66.78,66.78,0,0,1,105.91,5c17.44-4.39,35.76-3.35,53.4-.82A154.81,154.81,0,0,1,197.1,14.41a141,141,0,0,1,30.25,17.17A117.57,117.57,0,0,1,251.3,55a67.22,67.22,0,0,1,9.86,18c2.54,7.39,4,15.14,5.46,22.81,2.16,11.66,3.89,23.4,5.33,35.17q.63,5.21,1.19,10.43c.18,1.69.28,3.39.51,5.07.17,1.22,1.15,1.86,1.88,2.82a17.51,17.51,0,0,1,3.51,9.37c.16,2.54-.36,5-.25,7.55l.9,21.6c.05,1.28,2.05,1.29,2,0-.32-7.54-.66-15.08-.94-22.63-.1-2.55.49-5,.19-7.6a19.46,19.46,0,0,0-3.08-8.45,27,27,0,0,1-2.21-2.76,7.89,7.89,0,0,1-.23-2.29c-.12-1.11-.23-2.23-.35-3.34q-.54-5-1.16-10.07-1.07-8.72-2.37-17.41c-1.64-10.89-3.41-21.81-6.06-32.51A73.36,73.36,0,0,0,261,67.2,87.52,87.52,0,0,0,242.41,42a139.62,139.62,0,0,0-28.64-21.65,148.58,148.58,0,0,0-47.43-17.1C151.48.68,136.16-.83,121.1.49A87.84,87.84,0,0,0,91.84,7.81a62.18,62.18,0,0,0-25.21,21.1c-6.47,9.36-10.28,20.23-12.8,31.24a147.25,147.25,0,0,0-4.17,35.59c.18,10.15,1.74,20.2,2.37,30.33,1,15.4,1.52,30.82,1.92,46.24.76,30.22.93,60.46,1.93,90.67q1.18,35.77,2,71.56.24,10.88.43,21.74a1,1,0,0,0,2,0Z"/><path class="cls-1" d="M90.55,356.68Q87.28,323,84.47,289.34q-2.79-33.52-5.11-67.1t-4.2-67.48c-.62-11.19-1.22-22.38-1.74-33.57a325,325,0,0,1-.2-33.76c.55-9.58,1.68-19.36,5.28-28.34A40.39,40.39,0,0,1,96.63,38.43c18.4-10.17,40.86-7.28,60.84-5,19.68,2.28,39.82,6.5,56.14,18.36a58.88,58.88,0,0,1,17.76,20.12c4.73,9,6.92,19.08,9.08,29,2.29,10.44,4.6,21.11,3.85,31.86a60.2,60.2,0,0,1-3.64,15.72,58.93,58.93,0,0,0-3.19,15.36c-.54,7.79-1.69,17.93,3.53,24.5,5.73,7.19,16,5.1,23.85,3.68q7.78-1.42,15.46-3.37a1,1,0,0,0-.53-1.93q-8,2-16.07,3.48c-4.58.82-9.48,1.83-14.13.92-9.94-1.94-10.69-12.52-10.41-20.82.18-5.47.39-11,1.83-16.31s3.67-10.19,4.62-15.56c1.82-10.37.31-20.94-1.76-31.15-2-10-4-20.32-7.82-29.87A59.72,59.72,0,0,0,220.9,55.21C206.61,42.08,187.67,36,168.85,33A314.39,314.39,0,0,0,137,29.59c-10.33-.6-20.9-.32-30.87,2.71-8.55,2.59-16.72,7.17-22.5,14.1s-9,15.78-10.6,24.65c-1.91,10.23-2.25,20.77-2.2,31.16.07,11.39.73,22.76,1.31,34.13q1.76,33.93,4,67.83,2.23,34.05,4.94,68.08,2.7,33.86,5.87,67.69.78,8.37,1.6,16.74c.12,1.27,2.13,1.28,2,0Z"/><path class="cls-1" d="M243,157.88l-2.36-1.09-.77,1.83c6.59,2.11,13.21,4,20.2,3.28a35.92,35.92,0,0,0,17.64-6.63c1-.75,0-2.48-1-1.72a34.07,34.07,0,0,1-17,6.39c-6.68.57-13-1.24-19.26-3.25-1.06-.34-1.81,1.35-.77,1.83l2.36,1.09c1.16.54,2.18-1.19,1-1.73Z"/><path class="cls-1" d="M252.34,199.23q3,26.06,6.85,52,1.1,7.38,2.25,14.74c.19,1.26,2.12.73,1.92-.54q-4-25.76-7.27-51.63-.91-7.28-1.75-14.56c-.15-1.26-2.15-1.27-2,0Z"/><path class="cls-1" d="M258.25,200.94c1.26,4,.19,8.13.32,12.21s1.6,7.76,2.4,11.65c.88,4.22.62,8.54.54,12.81s0,8.72.26,13.07c.27,4.85.76,9.68,1.41,14.5.18,1.27,2.1.73,1.93-.53a177.93,177.93,0,0,1-1.61-26.3,77.63,77.63,0,0,0-.31-12.48c-.61-4.06-2.31-7.92-2.58-12-.3-4.49,1-9-.43-13.42-.39-1.22-2.32-.7-1.93.53Z"/><path class="cls-1" d="M263.57,197c3.54,9.09,1.61,18.94,1.2,28.38a47.45,47.45,0,0,0,1.28,14.35,64.24,64.24,0,0,1,1.81,7.36,23.48,23.48,0,0,1-.56,8c-1,4.77-2,10.24,1.11,14.48.77,1,2.5,0,1.73-1-3-4-1.65-9.14-.77-13.63a24.7,24.7,0,0,0,.57-7.17,42.4,42.4,0,0,0-1.6-7.19,46.11,46.11,0,0,1-1.6-14.28c.16-4.81.73-9.6.89-14.41.16-5.21-.22-10.48-2.13-15.37-.46-1.19-2.4-.67-1.93.53Z"/><path class="cls-1" d="M273.51,194.56a572.11,572.11,0,0,0,.2,60.3q.48,8.56,1.22,17.09c.11,1.27,2.11,1.29,2,0a569.19,569.19,0,0,1-2-60.27q.16-8.56.59-17.12c.07-1.29-1.93-1.29-2,0Z"/><path class="cls-1" d="M271.61,195.33c-2,9.44-3.7,18.85-2,28.48a110.76,110.76,0,0,1,2,14.39c.2,4.79,0,9.58-.1,14.37a89.16,89.16,0,0,0,.87,16c.21,1.26,2.14.73,1.93-.54-1.54-9.32-.42-18.78-.65-28.16a80,80,0,0,0-1.58-13.54A54.82,54.82,0,0,1,270.94,212a116,116,0,0,1,2.6-16.13c.26-1.25-1.66-1.79-1.93-.53Z"/><path class="cls-1" d="M249.57,199.21q2.44,30.15,6.5,60.14,1.15,8.56,2.44,17.11c.19,1.27,2.12.73,1.93-.53q-4.49-29.78-7.37-59.76-.81-8.47-1.5-17c-.11-1.28-2.11-1.29-2,0Z"/><path class="cls-1" d="M262.89,198c1.44,10.45,2.87,21,2.83,31.53a90.2,90.2,0,0,1-1.34,15.65c-.88,4.88-2.12,9.73-2.23,14.71-.1,4.76.89,9.68,3.82,13.54.76,1,2.5,0,1.72-1-6-7.94-2.85-18.31-1.3-27.18,1.77-10.09,1.55-20.38.57-30.54-.56-5.76-1.35-11.5-2.14-17.24-.18-1.27-2.1-.72-1.93.54Z"/><path class="cls-1" d="M269.08,201.87c-.8,10,.11,19.94.6,29.9a145.88,145.88,0,0,1,.11,15.08c-.23,4.4-.78,8.78-.81,13.19a28.89,28.89,0,0,0,2.9,13.88c.61,1.13,2.33.12,1.73-1-4.12-7.78-2.36-17-1.86-25.33.59-9.74-.36-19.47-.8-29.19a133.9,133.9,0,0,1,.13-16.52c.11-1.28-1.89-1.28-2,0Z"/><path class="cls-1" d="M256.2,232.7c.77,7.19,1.55,14.42,3.37,21.43a78.62,78.62,0,0,0,3.54,10.11c1.48,3.56,2.22,7.08,1.24,10.88a1,1,0,0,0,1.93.53,17.09,17.09,0,0,0-.58-10.27c-1.28-3.5-2.83-6.85-3.84-10.45-2-7.25-2.86-14.76-3.66-22.23-.14-1.27-2.14-1.28-2,0Z"/><path class="cls-1" d="M255.8,197.67a147.48,147.48,0,0,0,2.07,33.24c.22,1.27,2.15.73,1.93-.53a144.55,144.55,0,0,1-2-32.71c.06-1.29-1.94-1.28-2,0Z"/><path class="cls-1" d="M261,195.07l1.52,34c.06,1.28,2.06,1.29,2,0l-1.52-34c-.05-1.28-2.05-1.29-2,0Z"/><path class="cls-1" d="M267,194c4.77,9.08,2.95,19.86,2,29.61-1.08,10.61-1.87,21.35-.75,32a73.46,73.46,0,0,0,3.9,17.46c.44,1.2,2.37.68,1.93-.53-3.73-10.24-4.62-21.14-4.3-32,.16-5.44.61-10.87,1.15-16.28.51-5.12,1.19-10.23,1.21-15.38,0-5.5-.8-11-3.38-15.92-.6-1.14-2.33-.13-1.73,1Z"/><path class="cls-1" d="M252,241.09q1,9.94,2.45,19.85c.46,3.26,1,6.51,1.48,9.76.21,1.27.75,6.48,3.34,4.68,1.05-.73.05-2.46-1-1.73.39-.27.27.37.18-.22,0-.27-.13-.55-.18-.82-.13-.73-.24-1.47-.36-2.2-.22-1.38-.44-2.76-.65-4.14-.43-2.76-.83-5.53-1.22-8.3q-1.15-8.43-2-16.88c-.13-1.27-2.13-1.28-2,0Z"/><path class="cls-1" d="M356.16,249.5c-8.59-5.18-19-5.25-28.71-5.23q-16.86,0-33.67,1.5t-33.44,4.43c-10,1.76-20.11,3.68-29.41,7.87a55.12,55.12,0,0,0-6.61,3.53c-1.73,1.1-4.06,2.36-4.68,4.47-1.31,4.43,4.73,7,7.87,8.25,9.31,3.69,19.66,3.32,29.48,3.05,22.29-.62,44.61-2.16,66.57-6.15q8.18-1.49,16.24-3.45a66.91,66.91,0,0,0,14.63-5c3.61-1.85,7.86-4.78,8.29-9.2s-3.61-7.47-7.62-8a25,25,0,0,0-7.71.55c-1.27.22-.73,2.15.53,1.93,4-.71,10.68-1.62,12.55,3.31,1.71,4.51-3.75,8-7.05,9.7a63.94,63.94,0,0,1-13.72,4.71q-7.45,1.85-15,3.24c-20.41,3.83-41.17,5.47-61.9,6.21-9.42.33-19.2,1.05-28.48-.93a39.18,39.18,0,0,1-6.47-1.94c-2-.8-4.32-1.76-5.66-3.48-1.85-2.38.78-4,2.61-5.16a50.82,50.82,0,0,1,6-3.34c8.54-4.07,18-6,27.21-7.69q15.6-2.88,31.41-4.47,15.56-1.55,31.21-1.85c4.94-.09,9.91-.15,14.86,0a51.58,51.58,0,0,1,13.47,2.05,28.9,28.9,0,0,1,6.21,2.8,1,1,0,0,0,1-1.73Z"/><path class="cls-1" d="M222.52,270.76c-2.65-1.77-7.83-5.91-5.27-9.58,1.16-1.66,3.36-2.25,5.18-2.81q3.6-1.11,7.21-2.13A302.13,302.13,0,0,1,319,245.05q8.45.21,16.88.9,4.11.33,8.19.77l4.2.49a19.3,19.3,0,0,1,2.14.29c.3.07,1.24.48,1.17.61a1,1,0,0,0,1.73,1c1-1.74-.78-3.17-2.37-3.55a61.75,61.75,0,0,0-7.8-.95q-8.3-.87-16.63-1.29a304.58,304.58,0,0,0-98.33,11.24c-2.82.8-5.71,1.53-8.44,2.58-2.07.8-4,2-4.83,4.19-1.71,4.67,3.16,8.88,6.57,11.15,1.07.72,2.07-1,1-1.73Z"/><path class="cls-1" d="M369.64,257.46a16.39,16.39,0,0,1,3.13-6.39,16.69,16.69,0,0,1,2.45-2.45,7.61,7.61,0,0,0,2.18-2.2c1-1.93-.49-3.5-2.08-4.39a32.64,32.64,0,0,0-7-3c-4.23-1.19-8.94-1.06-12.72,1.39a10.27,10.27,0,0,0-3.93,4.45c-.87,2,.46,3.26,2.17,4.13a35,35,0,0,1,12.43,10.47c.75,1,2.49,0,1.72-1a37.56,37.56,0,0,0-8.21-8.2,38.86,38.86,0,0,0-5.11-3.07,4.64,4.64,0,0,1-1-.59c-.45-.42-.31-.7-.08-1.19a7.8,7.8,0,0,1,1.71-2.25c2.85-2.69,7.05-3.32,10.79-2.6a25.42,25.42,0,0,1,6.31,2.2,20.08,20.08,0,0,1,2.51,1.33c1.21.81.74,1.62-.22,2.43a22.92,22.92,0,0,0-4.39,4.57,18.4,18.4,0,0,0-2.57,5.84,1,1,0,0,0,1.93.53Z"/><path class="cls-1" d="M353.83,246.5l3.73-3.57-1.42-1.42-1.56,1.58a1,1,0,0,0,1,1.67,19.33,19.33,0,0,0,4.5-2c1.09-.67.09-2.4-1-1.72a6.93,6.93,0,0,0-2.62,2.8A1,1,0,0,0,358,245l2.56-2.59-1.67-1L357.54,245a1,1,0,0,0,1.67,1,38.72,38.72,0,0,1,4-4.1l-1.67-1a14.53,14.53,0,0,1-2.71,5l1.68,1a10.36,10.36,0,0,1,1.63-2.9l-1.57-1.21a23.58,23.58,0,0,0-1.78,5.42,1,1,0,0,0,1.67,1,24.28,24.28,0,0,0,4-4.33l-1.73-1L360,249a1,1,0,0,0,1.73,1l4.7-6.25-1.73-1a44.11,44.11,0,0,0-3.94,7.4c-.4.94,1,1.68,1.67,1l4.72-5.22-1.67-1a27.66,27.66,0,0,1-2.1,5.35c-.5,1,.82,2.14,1.57,1.21l3.41-4.24L366.74,246l-2.93,6c-.46.95.82,2.16,1.57,1.21l4.45-5.59-1.58-1.21a21.06,21.06,0,0,0-3.58,8.23l2,.27a8.28,8.28,0,0,1,2.14-5.1l-1.57-1.21a17.55,17.55,0,0,0-2.5,7.12c-.14,1.06,1.38,1.25,1.86.51q3.74-5.77,7.92-11.23a1,1,0,0,0-.86-1.5,13.31,13.31,0,0,1-9.36-2.47l-.77,1.82,6.92,2.26a1,1,0,0,0,1.23-.7,3.18,3.18,0,0,0-2.84-4c-.93-.09-1.23,1.12-.71,1.71l2.83,3.15.77.86.39.43c.16.23.18.19.06-.11-.53.49-1,1-1.55,1.53l-6.34,6.24,1.67.44c-.38-2.34.89-4.66,1.06-7a5.3,5.3,0,0,0-.63-3.05c-.6-1-1.93-1.66-2.38-2.75l-1,1.26,3.7-.08a1,1,0,0,0,0-2l-3.7.08c-.58,0-1.22.64-1,1.27a9.08,9.08,0,0,0,2.14,2.64,3.57,3.57,0,0,1,.73,3.18c-.37,2.36-1.31,4.53-.91,6.95a1,1,0,0,0,1.67.44c2.58-2.54,5.2-5,7.75-7.63,1.2-1.21.7-2.15-.31-3.28l-3.6-4-.71,1.71a1.15,1.15,0,0,1,.91,1.47l1.23-.7L364,241c-1.14-.37-1.63,1.21-.77,1.83a15,15,0,0,0,10.37,2.75l-.87-1.5q-4.18,5.44-7.92,11.22l1.87.5a15.18,15.18,0,0,1,2.23-6.11c.59-.95-.8-2.06-1.57-1.21a10.38,10.38,0,0,0-2.73,6.51,1,1,0,0,0,2,.26,19.58,19.58,0,0,1,3.38-7.75c.66-.91-.86-2.1-1.57-1.21L364,251.83l1.57,1.21,2.92-6c.46-.95-.81-2.16-1.57-1.21l-3.41,4.24,1.57,1.21a29.62,29.62,0,0,0,2.31-5.83,1,1,0,0,0-1.68-1L361,249.69l1.68,1a41.34,41.34,0,0,1,3.74-6.93c.72-1.1-1-2-1.73-1L360,249l1.73,1,2.8-5.15a1,1,0,0,0-1.73-1,21.88,21.88,0,0,1-3.71,3.92l1.67,1a22,22,0,0,1,1.58-4.95c.44-.94-.8-2.17-1.57-1.21a13.72,13.72,0,0,0-2.14,3.78,1,1,0,0,0,1.67,1,17,17,0,0,0,3.22-5.86c.32-1-1-1.6-1.67-1a38.91,38.91,0,0,0-4,4.11l1.67,1,1.36-3.55c.37-1-1-1.64-1.67-1l-2.56,2.58,1.57,1.21a5,5,0,0,1,1.9-2.09l-1-1.72a17,17,0,0,1-4,1.81l1,1.67,1.56-1.57a1,1,0,0,0-1.42-1.42l-3.72,3.58c-.93.89.49,2.31,1.41,1.41Z"/><path class="cls-1" d="M361.65,239.09a54.87,54.87,0,0,1,9.79-17.5A42.13,42.13,0,0,1,384,211.18,39.69,39.69,0,0,1,405,207c14.22.92,26.59,8.93,37.78,17.13,12.78,9.35,25,20,35.27,32.14a50.45,50.45,0,0,1,6.87,9.81,59.62,59.62,0,0,1,5.1,17.65c.31,2,.51,4.06.65,6.1.08,1.28,2.09,1.29,2,0a73.41,73.41,0,0,0-4.88-22.13,38.76,38.76,0,0,0-5.46-9.29A146.33,146.33,0,0,0,467.24,242a233.07,233.07,0,0,0-18.87-16.22c-11.44-8.82-24.23-18.06-38.85-20.32a43.53,43.53,0,0,0-22.25,2,41.26,41.26,0,0,0-14.49,9.6,56.77,56.77,0,0,0-12.73,20.47l-.33.95c-.41,1.22,1.53,1.74,1.93.53Z"/><path class="cls-1" d="M375.81,246.82c1.29,3.16,2.93,6.82,6.24,8.3s7.06-.18,9.32-2.92c2.62-3.16,3.31-7.13,4.74-10.86a12.9,12.9,0,0,1,3.56-5.36,15.07,15.07,0,0,1,5.83-2.86c9.31-2.51,18.88,1.38,26.48,6.64A122.69,122.69,0,0,1,443.33,249q5.67,5.06,11.12,10.35c6.6,6.42,13.39,13.06,17.74,21.28a28.38,28.38,0,0,1,3.57,12.24,26.09,26.09,0,0,1-3,12.23c-1.81,3.76-4,7.34-5.53,11.22-1.36,3.39-2.35,7.2-1.47,10.84.7,2.87,2.91,5.92,6.21,5.66s5.86-3.58,7.72-6c6.8-8.83,10-20.16,11.92-31,.41-2.34.76-4.7,1.06-7.06.16-1.27-1.84-1.26-2,0-1.54,12.09-4.36,24.95-11.36,35.17a26.25,26.25,0,0,1-4.67,5.45c-1.32,1.1-2.9,1.91-4.54,1a5.75,5.75,0,0,1-2.41-3.77c-.89-3.68.49-7.64,2-11,1.66-3.73,3.82-7.23,5.48-11a26.87,26.87,0,0,0,2.6-11.42A28.93,28.93,0,0,0,475,281.85c-3.54-7.83-9.53-14.31-15.53-20.32A274.07,274.07,0,0,0,438,241.82c-6.85-5.54-14.58-10.3-23.51-11.29a24.53,24.53,0,0,0-12.39,1.67,14.28,14.28,0,0,0-7.7,8.06c-1.49,3.69-2,7.9-4.8,11a6.67,6.67,0,0,1-4.9,2.52,6,6,0,0,1-4.5-2.72,21.4,21.4,0,0,1-2.46-4.72c-.48-1.18-2.42-.66-1.93.53Z"/><path class="cls-1" d="M213.82,260.32c-6.21,11.32-11.71,23.62-13.15,36.59-.24,2.21-.31,4.43-.62,6.63a47.38,47.38,0,0,1-3.25,11.87,45.56,45.56,0,0,1-5.25,8.94,41.45,41.45,0,0,0-4.44,7.18,27.11,27.11,0,0,0-2,12.93c.3,5.41.89,10.76.58,16.19A84.57,84.57,0,0,1,181,382.87a78.15,78.15,0,0,0-3.8,18.92c-.63,7.62-.78,15.27-1.43,22.89A61.63,61.63,0,0,1,171,443c-5,12.22-3.4,27.07,1.69,39a52.46,52.46,0,0,0,26.7,27,55.19,55.19,0,0,0,16,4.38c7.85,1,15.76,1.65,23.64,2.51,6.83.75,13.63,1.64,20.44,2.52a87.12,87.12,0,0,0,10.58.57,233.2,233.2,0,0,0,28.33-1.77c16.06-1.86,32-4.81,47.83-8.06,15.17-3.11,30.39-6.78,44.72-12.77,13.3-5.55,25.93-13.29,34.83-24.85,3.9-5.06,7.39-10.94,8.82-17.24a13.45,13.45,0,0,0,.29-5.78,49,49,0,0,0-3.35-9c-1.18-2.67-2.75-5.24-3.44-8.09-.73-3-.47-6.18-1-9.22a22.49,22.49,0,0,0-3.69-9.2c-1.67-2.3-3.5-4.37-4.74-6.95a24.56,24.56,0,0,1-2.45-8.83c-.16-2.37,0-4.75-.19-7.12a60.43,60.43,0,0,0-5.53-20.19A55.92,55.92,0,0,0,404,359.54a29.53,29.53,0,0,1-4.87-8.14,22.44,22.44,0,0,1-1.49-6.7c-.11-3.64.18-7.22-.46-10.83-1.42-8-5.66-15.13-9.15-22.34a64.42,64.42,0,0,1-4.6-12.25c-1.29-5.06-2.47-10.14-3.68-15.22a101.26,101.26,0,0,0-3.13-11.88,48.57,48.57,0,0,0-11.47-17.11,1,1,0,0,0-1.41,1.41c5,5,9.21,10.84,11.42,17.59,1.25,3.79,2,7.77,2.93,11.64,1.17,4.92,2.32,9.85,3.58,14.75a64.94,64.94,0,0,0,4.74,12.28c3.47,7.18,7.71,14.3,8.95,22.3.53,3.46.1,6.92.31,10.4a24.75,24.75,0,0,0,1.67,6.87,29.6,29.6,0,0,0,4.62,7.83,58.67,58.67,0,0,1,6.32,9.87,55.72,55.72,0,0,1,3.83,10.48,53.59,53.59,0,0,1,1.87,9.89c.17,2.3,0,4.62.17,6.92a26.9,26.9,0,0,0,2.2,8.54,31.63,31.63,0,0,0,4.58,7.24,20.69,20.69,0,0,1,3.94,8.48c.7,3.11.52,6.27,1.07,9.39.49,2.77,1.85,5.22,3,7.74a68.73,68.73,0,0,1,3.83,9.77,10.7,10.7,0,0,1-.16,5.24c-1.43,6.32-5,12.23-9,17.25a68.42,68.42,0,0,1-16.25,14.58c-12.32,8-26.45,12.94-40.58,16.72-15.39,4.12-31.14,7.08-46.84,9.77a334.23,334.23,0,0,1-39.64,4.66,158.29,158.29,0,0,1-16.59.05c-3.73-.2-6.85-.75-10.6-1.24-12.38-1.61-24.83-2.54-37.2-4.1a52.08,52.08,0,0,1-29.34-13.16c-11.05-10-16.81-25-16.53-39.83a45,45,0,0,1,1.13-9.47,49.41,49.41,0,0,1,2.51-7.29,60.62,60.62,0,0,0,4.24-18.82c.5-7.52.73-15.06,1.42-22.57a72.14,72.14,0,0,1,1.56-10.12c.69-2.87,1.69-5.65,2.61-8.45a81.27,81.27,0,0,0,4.22-21.93c.23-5.25-.38-10.42-.64-15.65a24.52,24.52,0,0,1,2.37-12.82,61.91,61.91,0,0,1,4.69-7.11,43.68,43.68,0,0,0,5-9.21A48.88,48.88,0,0,0,202,303.6c.29-2.15.38-4.31.61-6.47a70.22,70.22,0,0,1,3.46-14.93,130.06,130.06,0,0,1,9.44-20.87c.62-1.13-1.11-2.14-1.73-1Z"/><path class="cls-1" d="M177.41,485.6a106,106,0,0,0,23.9,12.69,136.48,136.48,0,0,0,28.06,6.81,311.94,311.94,0,0,0,57.46,3.06,361.87,361.87,0,0,0,57.46-6.88q14.2-2.83,28.18-6.7A249.3,249.3,0,0,0,396.26,487c14-5.41,27.7-13,36.74-25.28a52.37,52.37,0,0,0,3.13-4.78,1,1,0,0,0-1.73-1c-7.65,13.18-20.82,21.63-34.55,27.47a196.77,196.77,0,0,1-22.29,7.68q-13.68,4-27.6,7a363.39,363.39,0,0,1-56.58,7.79,316.43,316.43,0,0,1-56.49-1.73,169.6,169.6,0,0,1-28.51-5.55,102.82,102.82,0,0,1-24.46-11.05q-2.8-1.74-5.5-3.65c-1-.75-2,1-1,1.73Z"/><path class="cls-1" d="M200,314.83c1,2.29,3.37,3.66,5.55,4.71a33.81,33.81,0,0,0,7.91,2.54c5.84,1.17,11.86,1.62,17.77,2.23q19.53,2,39.12,3.17c13,.77,26.07,1.3,39.12,1.42a75.62,75.62,0,0,0,18.74-1.84,132,132,0,0,0,17.39-5.95c12.69-5.05,25.48-10.11,37.09-17.4,1.09-.69.08-2.42-1-1.73-10.14,6.37-21.2,11-32.29,15.47-5.53,2.22-11,4.5-16.73,6.29a66.87,66.87,0,0,1-18.13,3.12c-6.28.18-12.59-.07-18.88-.26s-12.57-.44-18.86-.76q-19.1-1-38.14-2.79c-6.86-.66-13.73-1.29-20.56-2.22a46.56,46.56,0,0,1-9-2c-2.64-.92-6.09-2.3-7.33-5-.54-1.17-2.26-.15-1.73,1Z"/><path class="cls-1" d="M186.51,370.29a21.12,21.12,0,0,0,8.47,4.15c3.67,1,7.38,1.95,11.07,2.92,7.6,2,15.18,4.1,22.84,5.83,15.09,3.41,30.6,3.82,46,4.49s30.83.93,46.14-.81c15.06-1.7,29.63-5.68,44-10.51,7.23-2.44,14.61-4.78,21.6-7.86,5.76-2.54,11.42-6.17,14.14-12.09.53-1.16-1.19-2.18-1.73-1-2.43,5.28-7.3,8.54-12.42,10.92-5.95,2.76-12.31,4.74-18.5,6.87-13.86,4.79-28,9-42.5,11.11-15,2.13-30.22,2.13-45.34,1.59-7.47-.27-14.95-.64-22.42-1.05a175.68,175.68,0,0,1-22.66-2.39c-8.35-1.56-16.54-3.87-24.75-6L198,373.18c-3.54-.93-7.25-1.83-10.06-4.3-1-.85-2.38.56-1.41,1.41Z"/><path class="cls-1" d="M175.82,434.26a273.34,273.34,0,0,0,49.92,11.23,455.16,455.16,0,0,0,51.12,3.65c17.26.36,34.53.08,51.79-.25,8.68-.16,17.39-.3,26-1.61A90.42,90.42,0,0,0,378.28,440a182.37,182.37,0,0,0,21.33-11.7c6.25-3.93,12.4-8.36,17-14.22a39.17,39.17,0,0,0,3.08-4.56,1,1,0,0,0-1.72-1c-3.73,6.49-9.45,11.43-15.57,15.59a181.88,181.88,0,0,1-20.47,11.95A95.83,95.83,0,0,1,359,444.45c-8.49,1.82-17.21,2.17-25.86,2.36-17,.36-33.95.65-50.92.42a490.25,490.25,0,0,1-50.38-3,283.51,283.51,0,0,1-49.53-10q-3-.92-6-1.91c-1.23-.4-1.75,1.53-.53,1.93Z"/><path class="cls-1" d="M381.25,238.07l10.48-9.38a46.73,46.73,0,0,0,8.32-9c.7-1.08-1-2.09-1.73-1-2.21,3.4-5.25,6.12-8.25,8.81l-10.23,9.16c-1,.86.46,2.27,1.41,1.42Z"/><path class="cls-1" d="M379.79,238a118.11,118.11,0,0,0,10.58-8.2c1-.85-.45-2.26-1.41-1.42a110.7,110.7,0,0,1-10.18,7.89,1,1,0,0,0-.36,1.37,1,1,0,0,0,1.37.36Z"/><path class="cls-1" d="M204.9,381.9a22.45,22.45,0,0,0,2-13.5,1,1,0,0,0-1.23-.7,1,1,0,0,0-.69,1.23,20.25,20.25,0,0,1-1.78,12c-.56,1.15,1.16,2.16,1.72,1Z"/><path class="cls-1" d="M192.09,450.3c-.39-2.77,1.75-5.15,3.33-7.17,1.7-2.18,3.42-4.47,3.69-7.32.33-3.6-1.56-6.85-2.5-10.21a13.07,13.07,0,0,1,1.57-10.7c.69-1.09-1-2.09-1.73-1a15,15,0,0,0-2.15,10.62c.64,3.66,3.07,7.11,2.84,10.9-.37,6-7.89,9-7,15.42.18,1.27,2.11.73,1.93-.53Z"/><path class="cls-1" d="M221,433.84c-3-8.13,3.55-15.94,6.85-22.87,3.44-7.21,5.73-15.08,4.45-23.11-.2-1.26-2.13-.73-1.93.54,1.33,8.36-1.65,16.66-5.45,24-3.48,6.69-8.79,14.1-5.85,22,.45,1.2,2.38.68,1.93-.53Z"/><path class="cls-1" d="M262,153.11a3.83,3.83,0,0,0,5.18,1.71,3.91,3.91,0,0,0,1.86-2.3,2.82,2.82,0,0,0-.78-3.12,1.72,1.72,0,0,0-2.69.81,1.52,1.52,0,0,0,2.12,1.77c1.86-.84,2.41-3.13,2.46-5a4.25,4.25,0,0,0-.15-1.59,1.87,1.87,0,0,0-1.63-1.24,2.66,2.66,0,0,0-2.61,2.17,1,1,0,0,0,1.23,1.23,3.24,3.24,0,0,0,2.25-2.52,1,1,0,0,0-.69-1.23c-2-.51-3.08,2.23-3.56,3.69-.27.8-.64,1.91,0,2.62a1.42,1.42,0,0,0,2.36-.74c.57-1.76-1.33-3.17-2.88-3.28a2.52,2.52,0,0,0-2.32,1,2.11,2.11,0,0,0-.08,2.31,1,1,0,0,0,1.57.2,3.86,3.86,0,0,0,1-3.05,1.42,1.42,0,0,0-2.46-.79,4.1,4.1,0,0,0-.7,1.51,4.22,4.22,0,0,0-.24,1.65,2.76,2.76,0,0,0,1.77,2.46,1,1,0,1,0,.53-1.93c-.13-.05-.27-.36-.3-.53a2.79,2.79,0,0,1,.25-1.36c.18-.5.38-.46-.3-.54-.28.13-.45.1-.5-.07l0,.07c0-.06,0,0,0,.06a2.53,2.53,0,0,1-.5,1.11l1.57.2c-.07-.1-.08-.06,0-.12s.06-.09.08-.1.48-.14.72-.09a1.23,1.23,0,0,1,.75.42l.12.19c.21.29-.05,0,0,0a.05.05,0,0,1,0,0,.49.49,0,0,1,.38-.2l.5.14c.24.14.33.3.26.48,0-.11,0-.22.07-.32s.08-.32.13-.48a8.18,8.18,0,0,1,.39-1.08,9.87,9.87,0,0,1,.55-1c.08-.13.16-.26.25-.38s.18-.1,0-.14l-.69-1.23a1.29,1.29,0,0,1-.86,1.12l1.23,1.23a1.46,1.46,0,0,1,.34-.65s.18-.1.15-.06h0a.15.15,0,0,1-.11-.1c0-.11.05.37,0,.27a4.73,4.73,0,0,1,0,.53c0,.31,0,.63-.06.94a4.45,4.45,0,0,1-.5,1.61,2.22,2.22,0,0,1-.47.58,2.66,2.66,0,0,0-.33.21c.38,0,.62.05.71.31a.31.31,0,0,1-.07.33c-.06.1-.27.16-.3.24a1.45,1.45,0,0,0,.06.33,1.67,1.67,0,0,1,0,.32,1.91,1.91,0,0,1-.89,1.3,1.83,1.83,0,0,1-2.56-.93,1,1,0,0,0-1.37-.36,1,1,0,0,0-.36,1.37Z"/><path class="cls-1" d="M246,85a18.07,18.07,0,0,1,3.12,8.18c.55,3.23.85,6.51,1.24,9.76l2.48,20.5c.16,1.26,2.16,1.28,2,0l-2.66-22c-.73-6.06-.86-12.86-4.76-17.88-.79-1-2.2.41-1.42,1.41Z"/><path class="cls-1" d="M254.62,78.26c3.7,9,3.74,18.86,3.73,28.45a1,1,0,0,0,2,0c0-9.75,0-19.81-3.8-29-.48-1.17-2.41-.66-1.93.53Z"/><path class="cls-1" d="M252.15,82.22a19.36,19.36,0,0,0,1.16,3.89,1,1,0,0,0,1.23.7,1,1,0,0,0,.7-1.23,21,21,0,0,1-1-3.83l-1.83.78a3.15,3.15,0,0,0,1.47,1.37c.8.22,1.48-.53,1.61-1.24a5.59,5.59,0,0,0-.19-2l-.4-2-1.82.77c.13.18.26.37.37.56a4.48,4.48,0,0,1,.22.43,5.84,5.84,0,0,1,.2.59,3.4,3.4,0,0,1,.07.34,1.36,1.36,0,0,1,0,.18,1,1,0,0,0,1,1,1,1,0,0,0,1-1,6.14,6.14,0,0,0-1.17-3.11,1,1,0,0,0-1.82.77l.4,2.1.09.47c0,.06.07.5.06.26v.18c0,.12,0,.12,0,0,0,.11,0,.11,0,0a.56.56,0,0,1,.31-.23l.77.1a2.25,2.25,0,0,1-.51-.55,1,1,0,0,0-1.83.77,21.14,21.14,0,0,0,1,3.82l1.93-.53a19.36,19.36,0,0,1-1.16-3.89,1,1,0,0,0-1.93.53Z"/><path class="cls-1" d="M234.64,44a62.64,62.64,0,0,1,15.7,19.55c.59,1.15,2.32.14,1.73-1a64.12,64.12,0,0,0-16-19.95c-1-.82-2.41.59-1.42,1.41Z"/><path class="cls-1" d="M217.69,264.25c-.33,1.55-.51,3.28.66,4.53a1,1,0,0,0,1.71-.71,28.81,28.81,0,0,0-1.11-6.51,1,1,0,0,0-1.1-.71,1,1,0,0,0-.87,1l.37,3.76a1,1,0,0,0,2,0,5.32,5.32,0,0,0-.26-2.06,1,1,0,1,0-1.93.53,3.46,3.46,0,0,1,.19,1.53h2l-.37-3.76-2,.26a25.78,25.78,0,0,1,1,6l1.71-.7s-.16-.21-.1-.11,0-.06,0-.08a1.74,1.74,0,0,1-.1-.19c0,.09,0,.09,0,0a3.77,3.77,0,0,1-.1-.43c0,.1,0,.09,0,0s0-.16,0-.23,0-.28,0-.42,0-.13,0-.19,0-.27,0-.15,0-.08,0-.1a1.85,1.85,0,0,0,0-.23c0-.15.06-.3.1-.45a1,1,0,0,0-.7-1.23,1,1,0,0,0-1.23.69Z"/><path class="cls-1" d="M216.89,262a4,4,0,0,0,1,4.39,1,1,0,0,0,1.68-.44,16.55,16.55,0,0,0,.68-5.46,1,1,0,0,0-2,0,9.91,9.91,0,0,0,.63,4,1,1,0,0,0,1.93,0,6,6,0,0,0,.09-4.21,1,1,0,0,0-2,.26,3.91,3.91,0,0,0,1,3.07,1,1,0,0,0,1.57-.2,15.88,15.88,0,0,0,1.16-3.51,1,1,0,0,0-1.93-.53,4.16,4.16,0,0,0,.27,3.15,1,1,0,0,0,1.72,0,5.68,5.68,0,0,0,.63-3.66,1,1,0,0,0-1.83-.24c-.48,1.13-.61,2.95,1.07,3.14,1.53.17,2-1.7,1.93-2.86a1,1,0,0,0-2-.27,3.17,3.17,0,0,0,.28,2.65,1,1,0,0,0,1.57.2,4.17,4.17,0,0,0,1.11-3.13,1,1,0,0,0-2,0,4.25,4.25,0,0,0,.4,2.3c.29.66,1.13.55,1.57.2a3.67,3.67,0,0,0,1.41-2.38l-2-.27a2.84,2.84,0,0,0,.33,1.62c.35.75,1.32.54,1.72,0a9.17,9.17,0,0,0,1.16-2.13l-1.93-.54a3.58,3.58,0,0,0,0,2.17,1,1,0,0,0,1.67.44,4.64,4.64,0,0,0,1.08-2.21l-1.82.24.53.91a1,1,0,0,0,1.73,0,5.83,5.83,0,0,0,.83-1.79l-2-.27a3.1,3.1,0,0,0,.87,1.94,1,1,0,0,0,1.67-.44l.68-1.64h-1.93a3,3,0,0,0,.71,1.29,1,1,0,0,0,1.41,0,3.43,3.43,0,0,0,.86-1.44h-1.93c.35,1.79,2.55,1.06,2.75-.43l-1.83.23c.8,1.64,2.19.29,3.29.06,2.31-.47,4.59-1,6.88-1.56L248.3,253l3.3-.84a2.25,2.25,0,0,0,1.64-1.1c.55-1.16-1.17-2.17-1.73-1-.17.37-1.94.56-2.33.66l-2.58.66-5.18,1.31c-1.73.44-3.45.91-5.2,1.27-.72.15-1.49.22-2.2.4-.22.05-1.18.6-1.23.58l.6.46-.11-.22a1,1,0,0,0-1.83.23q-.15.51.15.09l.77.1-.23-.12.46.59,0-.22c-.2-1-1.64-.87-1.93,0l-.34.56h1.41l-.19-.42a1,1,0,0,0-1.93,0l-.68,1.65,1.67-.44-.28-.53a1,1,0,0,0-2-.27,4.12,4.12,0,0,1-.63,1.32h1.73l-.54-.91a1,1,0,0,0-1.82.24,2.71,2.71,0,0,1-.58,1.32l1.67.44a1.26,1.26,0,0,1,0-1.09c.36-1.28-1.46-1.7-1.93-.54a7.37,7.37,0,0,1-1,1.66H227l0-.61c.11-1.11-1.78-1.38-2-.26a2.17,2.17,0,0,1-.9,1.5l1.57.2a2.28,2.28,0,0,1-.13-1.29h-2A2.17,2.17,0,0,1,223,260l1.57.21a1,1,0,0,1-.08-1.11l-2-.26a1.4,1.4,0,0,1,0,.61c-.16.44.1.48.76.12l-1.83-.24a3.46,3.46,0,0,1-.42,2.12h1.72a2,2,0,0,1-.06-1.61l-1.93-.53a13.52,13.52,0,0,1-1,3l1.57-.2a2,2,0,0,1-.38-1.66l-2,.27a4.29,4.29,0,0,1-.09,3.15h1.93a8.39,8.39,0,0,1-.56-3.47h-2a15,15,0,0,1-.61,4.93l1.67-.45a2.08,2.08,0,0,1-.49-2.43c.45-1.21-1.48-1.73-1.93-.54Z"/><path class="cls-1" d="M311.45,280.37c4.66,3.48,6.45,9.4,7.13,14.94.78,6.41,1,12.94,1.4,19.39a1,1,0,0,0,2,0c-.13-10.66-.39-21.66-5.1-31.46l-1.57,1.22c1.56,1.39,1.94,3.78,2.44,5.72.55,2.16,1,4.35,1.35,6.55a74.11,74.11,0,0,1,.87,14,1,1,0,0,0,2,.26,34.66,34.66,0,0,0-6.89-30.39l-1,1.67c2.28.54,3,3.84,3.66,5.74a61.62,61.62,0,0,1,3.09,25h2c.47-10,.2-21-6.06-29.44l-.15,1.21c.09-.1,3,4.91,3.26,5.49a45.51,45.51,0,0,1,2.6,6.68,46.86,46.86,0,0,1,2,14h2c-.36-10.27-.93-21.46-7.43-29.95l-1.58,1.21c3.66,3.44,5.94,8.14,7.6,12.81A50.42,50.42,0,0,1,328,310.5a1,1,0,0,0,2,0c.25-9.8.14-21.23-8-28.1-1-.81-2.33.48-1.42,1.42,7.52,7.69,8.64,18.87,9.36,29.06a1,1,0,0,0,2,0A38,38,0,0,0,320,285.2c-.78-.74-2.28.26-1.57,1.21,5.87,7.82,5.88,18.06,5.76,27.41h2c-.19-9.19-.74-18.91-5.87-26.86a1,1,0,0,0-1.72,1,55.55,55.55,0,0,1,4.54,22.63,1,1,0,0,0,2,0A57.92,57.92,0,0,0,320.29,287l-1.72,1c4.94,7.66,5.41,17,5.59,25.85a1,1,0,0,0,2,0c.12-9.68,0-20.33-6-28.42l-1.57,1.21a36,36,0,0,1,11.32,26.27h2c-.76-10.75-2-22.38-9.94-30.48l-1.42,1.42c7.78,6.52,7.7,17.4,7.46,26.68h2a52.38,52.38,0,0,0-3.12-16.39c-1.78-4.85-4.16-9.68-8-13.26-.79-.74-2.29.27-1.57,1.21,6.3,8.22,6.81,19,7.16,28.94a1,1,0,0,0,2,0,48.93,48.93,0,0,0-3-17.2c-.69-1.85-5.16-13.84-8.31-10.35a1,1,0,0,0-.15,1.21c6,8.13,6.23,18.72,5.78,28.43-.06,1.3,1.9,1.27,2,0a64.74,64.74,0,0,0-1.26-18.73,62.84,62.84,0,0,0-2.68-9c-.8-2.1-1.88-4.41-4.28-5a1,1,0,0,0-1,1.67A32.55,32.55,0,0,1,320,310.5l2,.27a77.28,77.28,0,0,0-1-15,75.9,75.9,0,0,0-1.64-7.47c-.52-1.9-1.07-3.86-2.59-5.22a1,1,0,0,0-1.57,1.21c4.55,9.45,4.71,20.17,4.83,30.45h2c-.47-7-.58-14.11-1.63-21-.86-5.76-3.09-11.44-7.89-15-1-.77-2,1-1,1.73Z"/><path class="cls-1" d="M321.11,342.54c8.29,8.26,7,20.91,5.8,31.52-.15,1.27,1.85,1.26,2,0,1.31-10.95,1.23-23-5.2-32.42l-1.57,1.21c7.44,7.7,7.07,19.27,8.5,29.17.17,1.17,1.9.79,2-.27.72-11.54-4.35-22.28-9.26-32.4L322,340.72c4.66,3.22,7,8.69,8.36,14,1.61,6.22,2.22,12.64,4.77,18.59.48,1.1,2,.26,1.83-.78a219.53,219.53,0,0,0-10.51-37l-1.83.77c7.34,11.11,9.39,24.54,11.06,37.48a1,1,0,0,0,1.5.86,2.08,2.08,0,0,0,1.26-2.09c-.07-1.28-2.07-1.29-2,0l-.27.36,1.51.87c-1.72-13.29-3.8-27.08-11.33-38.49-.59-.89-2.25-.35-1.83.77a219.38,219.38,0,0,1,10.51,37l1.83-.77c-4.71-11-2.91-25.73-13.85-33.3-.89-.62-1.76.55-1.37,1.37,4.76,9.81,9.69,20.2,9,31.39l2-.26c-1.49-10.35-1.25-22-9-30.05-.77-.8-2.22.25-1.57,1.21,6.24,9.18,6.2,20.8,4.93,31.41h2c1.3-11.2,2.33-24.25-6.38-32.94a1,1,0,0,0-1.42,1.42Z"/><path class="cls-1" d="M183.65,458.75c2.42,3.66,4.77,7.62,5.45,12a13.77,13.77,0,0,1-3.68,11.68,1,1,0,0,0,1.21,1.57c3.08-1.51,4.69-4.71,5.14-8a25.66,25.66,0,0,0-1.21-12.17c-1.13-2.89-3.38-5.6-6.5-6.37a6.73,6.73,0,0,0-7.5,3c-.62,1.13,1.1,2.14,1.73,1a4.82,4.82,0,0,1,6.17-1.81c2.56,1.13,4,3.76,4.72,6.35a26.48,26.48,0,0,1,.67,9.26c-.31,2.85-1.54,5.64-4.23,7l1.22,1.57a15.72,15.72,0,0,0,4.33-12.52c-.52-5-3.06-9.5-5.79-13.63-.71-1.07-2.44-.07-1.73,1Z"/><path class="cls-1" d="M187.27,481.14c-.13.09-.26.18-.4.26s-.14.09-.19.08l0,0-.12,0a3.39,3.39,0,0,1-.43.11c-.25.05.17,0,0,0h-.21a3.73,3.73,0,0,1-.47,0c-.24,0,.23,0,0,0l-.23-.05a3,3,0,0,1-.43-.12l-.23-.08.08,0-.13-.05a3.5,3.5,0,0,1-.42-.24l-.18-.11c-.1-.07-.14-.11,0,0-.12-.1-.24-.2-.36-.32l-.14-.15-.09-.1,0,0c-.09-.06-.16-.24-.22-.33s-.08-.16-.13-.24.07.21,0,0a3.88,3.88,0,0,1-.14-.45.36.36,0,0,0,0-.1c0-.08,0-.05,0,.09,0,0,0-.22,0-.27a1,1,0,0,0-1-1,1,1,0,0,0-1,1,4.92,4.92,0,0,0,7.46,3.72,1,1,0,0,0,.36-1.37,1,1,0,0,0-1.37-.35Z"/><path class="cls-1" d="M2.46,309.67a2.89,2.89,0,0,1,0-3.12A7.41,7.41,0,0,1,5.29,304a34.17,34.17,0,0,1,8.17-3.64c.57-.15,1.28-.31,1.72.2a2.31,2.31,0,0,1,.44,1.37,8,8,0,0,1-.66,3.37,9.58,9.58,0,0,1-4.89,5.11,9.66,9.66,0,0,1-8.53-.4c-1.13-.63-2.14,1.1-1,1.72a11.71,11.71,0,0,0,9.86.71,11.61,11.61,0,0,0,6.45-6.5c1-2.41,1.59-7.26-2.08-7.7-1.76-.21-3.71.8-5.3,1.46a41.9,41.9,0,0,0-5.07,2.51,8.83,8.83,0,0,0-4,4A4.77,4.77,0,0,0,1,311.09c.82,1,2.22-.43,1.42-1.42Z"/><path class="cls-1" d="M.35,310.7C.6,315.08,5.29,316.44,9,316c2.35-.29,4.63-.89,7-1a34.21,34.21,0,0,1,7,.28c9.49,1.39,18,6.37,24.92,12.84a86.8,86.8,0,0,1,17.3,22.52c4.54,8.6,6.36,18.25,7.62,27.8s2,19,4.41,28.21c2.51,9.7,6.55,18.93,10.49,28.11,6.8,15.9,14.94,32.21,30.89,40.64,8.34,4.4,17.77,6.66,27.11,7.61a60.08,60.08,0,0,0,14.92-.21c5-.75,9.68-2.74,14.65-3.61a15.68,15.68,0,0,1,7.24.29,1,1,0,0,0,.54-1.93c-4.54-1.35-9.15-.27-13.57,1a60,60,0,0,1-15,2.79A75.74,75.74,0,0,1,126,476.48,50.15,50.15,0,0,1,104.43,461c-5.39-6.65-9.28-14.4-12.76-22.17A266.34,266.34,0,0,1,80.87,412c-3-9.23-4.25-18.74-5.41-28.33-1.12-9.25-2.29-18.62-5.57-27.39S61.1,339.66,55,332.64c-5.91-6.84-13-12.86-21.34-16.42a41.32,41.32,0,0,0-13-3.25,34.2,34.2,0,0,0-6.86.18c-2.34.3-4.7,1.09-7.08,1-1.92-.11-4.26-1.22-4.38-3.4-.07-1.28-2.07-1.28-2,0Z"/><path class="cls-1" d="M18.27,300.3A88.31,88.31,0,0,1,61,320.49c12.9,11.17,21.64,25.88,27.4,41.82a205.2,205.2,0,0,1,7.07,25.05c2,8.85,3.46,17.8,5.39,26.66,3.54,16.21,9.25,32.91,22.11,44.17a40.77,40.77,0,0,0,21.5,10,39.23,39.23,0,0,0,13-.45c4.55-.92,8.81-2.77,13.16-4.31a49.91,49.91,0,0,1,6.54-1.91c1.26-.26.73-2.19-.53-1.93-4.47.95-8.67,2.75-13,4.27a42,42,0,0,1-13.3,2.67,38,38,0,0,1-23.67-7.85c-13.6-10.32-19.77-27.06-23.44-43.13-2-8.82-3.46-17.75-5.38-26.59A218.94,218.94,0,0,0,91.06,364c-5.41-15.74-13.49-30.59-25.64-42.15a90.21,90.21,0,0,0-40.85-22.29q-2.87-.69-5.77-1.18c-1.26-.22-1.8,1.71-.53,1.92Z"/><path class="cls-1" d="M25.61,312.53a105.67,105.67,0,0,1,32.32,18.28c.83.68,2.2-.18,1.57-1.22A27,27,0,0,0,42,317.28c-1-.21-1.84,1.29-.77,1.83A42.74,42.74,0,0,1,59.5,336.7c.62,1.13,2.3.13,1.72-1a44.75,44.75,0,0,0-18.49-19l-.51,1.86c8.59,1.12,14.11,9.24,18.46,15.92l1.58-1.22a122.9,122.9,0,0,0-17-17.49l-1,1.68c10.22,1.67,16.35,11.3,21.27,19.48l1.57-1.21A109.81,109.81,0,0,0,48.45,317l-1.21,1.57a63.14,63.14,0,0,1,19.32,20.67l1.73-1a124.71,124.71,0,0,0-17.46-21.42l-1,1.67c8.61,2.86,13.53,11.36,17.72,18.81l1.57-1.21q-7.34-8.1-14.68-16.21l-1.21,1.57c7.46,3.81,11.62,11.47,15.39,18.58l1.73-1c-8.13-14.24-23.2-23.95-39.38-26.14a51.39,51.39,0,0,0-13.74,0l.77,1.83a21.24,21.24,0,0,1,16.68-.08l.78-1.83a34.43,34.43,0,0,0-14.89-1.16l.53,1.93a20.72,20.72,0,0,1,10.39-1.28v-1.93a15.86,15.86,0,0,1-8.94-1.13l-1,1.73a105.89,105.89,0,0,1,17.52,9.72c.94.64,2-.8,1.21-1.57a54.48,54.48,0,0,0-14.4-9.83l-.77,1.83a44.39,44.39,0,0,1,15.06,5.8l.78-1.83a85.27,85.27,0,0,1-17.71-10l-.77,1.83A49.61,49.61,0,0,1,38,312.21l1-1.73-16-8.49-1,1.73,6.74,3.54,1-1.73a51,51,0,0,0-11.5-3.64A1,1,0,0,0,17,303.36a5.77,5.77,0,0,1-2.07,7,1,1,0,0,0,.77,1.83,5.73,5.73,0,0,0,4.53-7l-1.93.53c.3.85.59,1.7.88,2.55l.46-1.13a3.66,3.66,0,0,0-1.86,4.1,1,1,0,0,0,1.67.44,8.16,8.16,0,0,0,1.93-7c-.22-1.27-2.13-.73-1.93.53l.42,2.56c.18,1.08,1.62.81,1.93,0A2.73,2.73,0,0,0,21,304.7a1,1,0,0,0-1.57,1.21q1,2.07,2.08,4.16c.5,1,2.28.28,1.83-.77q-1.81-4.33-3.65-8.68l-1.46,1.13q8.9,4.94,17.73,10L37,310a28.72,28.72,0,0,0-13.29-2.67,1,1,0,0,0-.51,1.87,187.28,187.28,0,0,1,19.41,11.47c1,.67,1.92-.76,1.21-1.57a65.76,65.76,0,0,0-13.84-11.94L29.17,309a45.45,45.45,0,0,1,16.64,7.48c.91.65,2.09-.86,1.21-1.58a117.27,117.27,0,0,0-16.13-11,1,1,0,0,0-1,1.72l12.36,7.47c1.11.67,2.07-1,1-1.72a87.18,87.18,0,0,0-18-9.15l-.26,2c13,1.59,23,11.42,31.78,20.25L58.13,323a91.68,91.68,0,0,0-18.49-13.41c-1-.52-2.13.83-1.21,1.58l11.21,9.12,1.21-1.57-12.56-8.17-1,1.72a100.13,100.13,0,0,1,16,11.17A1,1,0,0,0,54.69,322L47,312.5l-1.42,1.41a101.27,101.27,0,0,1,24.16,28.22l1.73-1-8.12-11.49-1.73,1A126.39,126.39,0,0,1,80,367.74l1.93-.54q-3.75-8.93-7.49-17.85c-.49-1.16-2.41-.67-1.93.53a157.61,157.61,0,0,1,10.76,44.8l2-.27q-1.2-5-2.41-10.07c-.26-1.07-2.11-.87-2,.27q1.71,13,3.44,26l2-.26q-4.94-24.94-9.86-49.87c-.22-1.09-2.1-.86-2,.26A218.84,218.84,0,0,0,79,386.17a1,1,0,0,0,2-.26,79.16,79.16,0,0,0-15.5-44.2,78.55,78.55,0,0,0-8.84-10l-1.42,1.42A103.46,103.46,0,0,1,77,360.07c.54,1,2.26.3,1.83-.77a80.16,80.16,0,0,0-17.44-26.61L60,334.1a91.82,91.82,0,0,1,15.58,19.17c.57.93,2.23.33,1.83-.77A79.29,79.29,0,0,0,65,330.37l-1.42,1.41a80.05,80.05,0,0,1,13.94,18.28c.63,1.12,2.34.12,1.73-1a123.75,123.75,0,0,0-20.93-28.39l-1.21,1.57a88.63,88.63,0,0,1,29,38.65A89.12,89.12,0,0,1,90,374.1l1.93-.54c-4.53-19.49-17.53-35.39-31.36-49.24-4-4-8.18-7.95-12.34-11.84L47,314.05C61.38,325,74.36,338.32,82.64,354.53a96.62,96.62,0,0,1,6.43,16.55c2.91,9.86,5.47,19.85,8,29.83q3.63,14.52,6.7,29.18l1.83-.77Q92.67,404,81.94,377.71a1,1,0,0,0-1.93.53,158.21,158.21,0,0,0,14.9,40.5c.53,1,2.21.31,1.83-.78a446.88,446.88,0,0,1-13.19-45.53c-.3-1.27-2.17-.72-1.93.53a247.31,247.31,0,0,0,13.46,46.26,1,1,0,0,0,1.92-.53l-9.69-45.52-1.93.53,12.3,45.52a1,1,0,0,0,1.92-.53Q95,399.94,90.32,381.2c-.31-1.26-2.17-.72-1.92.53q3.61,18.84,8.69,37.34a1,1,0,0,0,1.93-.53q-2.89-14.75-5.8-29.49l-1.93.54q4.42,14.73,8.83,29.46a1,1,0,0,0,1.93-.53,221.51,221.51,0,0,0-11.11-36.68,1,1,0,0,0-2,.27A51.19,51.19,0,0,0,90,396l1.92-.53L79.19,357.81c-.41-1.21-2.29-.71-1.93.53a161.05,161.05,0,0,0,10.48,26.82c.54,1.09,2,.27,1.83-.77a91.53,91.53,0,0,0-11.11-30.92c-.65-1.13-2.26-.14-1.73,1l9.62,20.63c.47,1,2.24.29,1.82-.77A240.68,240.68,0,0,0,76,347.79l-1.72,1a135.4,135.4,0,0,1,16,35.72l1.93-.53a183.09,183.09,0,0,0-13.9-33.7l-1.73,1c6,9.32,9.44,19.9,12.2,30.56,2.85,11,5.16,22.13,8.79,32.92A191.66,191.66,0,0,0,105.22,434l1.73-1-14.29-27.2c-.52-1-2.24-.31-1.83.77a193.18,193.18,0,0,0,14.82,30.86l1.72-1A156.23,156.23,0,0,1,90,402.29a1,1,0,0,0-1.93.54A95.4,95.4,0,0,0,98.45,432l1.73-1a143.2,143.2,0,0,1-14.94-33.8,1,1,0,0,0-2,.27c-.84,10.2,3.89,19.66,8.45,28.46l1.72-1A98.51,98.51,0,0,1,79.9,391.59c-.25-1.27-2.16-.73-1.92.53,2,10.66,5.79,20.85,9.56,31l1.82-.77a215.12,215.12,0,0,1-15.29-49.24l-1.93.53c3.32,11.49,6.47,23,10.12,34.43,3.32,10.4,7.2,20.71,12.6,30.23a90.23,90.23,0,0,0,10.62,15.05c.75.86,2.16-.25,1.57-1.21A191,191,0,0,1,89.74,415.8c-.42-1.2-2.33-.7-1.93.53a100.92,100.92,0,0,0,17.4,31.91c.76.93,2-.26,1.57-1.21q-7.07-14.49-14.14-29c-.49-1-2.22-.3-1.83.77A154.11,154.11,0,0,0,110,455.46c.73,1,2.41.11,1.73-1a195.07,195.07,0,0,1-16-32.37c-.46-1.19-2.39-.67-1.93.53A133.13,133.13,0,0,0,115,459.33l1.41-1.41a173.42,173.42,0,0,1-16.59-24.18,1,1,0,0,0-1.83.77,71.45,71.45,0,0,0,16.19,28l1.21-1.57C105.37,453.23,100,441.24,95,430l-1.57,1.21,41.36,44.67c.87.95,2.29-.47,1.41-1.41L94.86,429.78c-.83-.9-2,.24-1.58,1.21,5.18,11.64,10.75,23.71,21.12,31.67.92.71,1.95-.78,1.21-1.57A69.36,69.36,0,0,1,99.93,434l-1.83.77A176.55,176.55,0,0,0,115,459.33c.81,1,2.21-.42,1.41-1.41a130.14,130.14,0,0,1-20.63-35.84l-1.93.53A197.56,197.56,0,0,0,110,455.46l1.73-1a152.3,152.3,0,0,1-19-36.14l-1.83.77q7.08,14.48,14.15,29l1.57-1.22a97.9,97.9,0,0,1-16.89-31l-1.93.53a193.79,193.79,0,0,0,17.51,36.82l1.57-1.22c-14.42-16.44-21-37.84-26.94-58.45q-3-10.19-5.88-20.37a1,1,0,0,0-1.93.53,216.68,216.68,0,0,0,15.5,49.72c.46,1,2.22.29,1.83-.77-3.77-10.15-7.53-20.35-9.57-31l-1.92.53a100,100,0,0,0,13.74,33.8,1,1,0,0,0,1.72-1c-4.4-8.5-9-17.6-8.17-27.45l-2,.26A145.63,145.63,0,0,0,98.45,432a1,1,0,0,0,1.73-1A93.33,93.33,0,0,1,90,402.29l-1.93.54a158.65,158.65,0,0,0,17.62,34.54c.71,1.05,2.39.11,1.72-1A191.12,191.12,0,0,1,92.76,406l-1.83.77L105.22,434c.61,1.16,2.26.14,1.73-1a196.49,196.49,0,0,1-11.89-34c-2.71-10.7-4.91-21.58-8.67-32a82.25,82.25,0,0,0-8.06-16.68,1,1,0,0,0-1.73,1,180.25,180.25,0,0,1,13.7,33.22,1,1,0,0,0,1.93-.53A137.1,137.1,0,0,0,76,347.79a1,1,0,0,0-1.72,1,240.43,240.43,0,0,1,12,26.07l1.82-.77q-4.8-10.31-9.61-20.63l-1.73,1a89.88,89.88,0,0,1,10.91,30.44l1.83-.77a157.66,157.66,0,0,1-10.28-26.34l-1.93.53L90,396a1,1,0,0,0,1.92-.53,49.7,49.7,0,0,1-1-13.38l-2,.26a222.44,222.44,0,0,1,11.1,36.68l1.93-.53q-4.41-14.73-8.83-29.47a1,1,0,0,0-1.93.54q2.91,14.73,5.8,29.48l1.93-.53Q94,400,90.32,381.2l-1.92.53q4.63,18.75,9.28,37.49l1.92-.53q-6.13-22.76-12.29-45.52a1,1,0,0,0-1.93.53q4.84,22.77,9.7,45.52l1.92-.53a248.26,248.26,0,0,1-13.45-46.26l-1.93.53A447.81,447.81,0,0,0,94.81,418.5l1.83-.77a156.19,156.19,0,0,1-14.7-40l-1.93.53q10.81,26.53,23.81,52.09c.54,1.05,2.06.29,1.83-.77-4-19.16-8.69-38.22-14.08-57.05a107.94,107.94,0,0,0-6.35-17.27,100.41,100.41,0,0,0-11.91-18.7A140.88,140.88,0,0,0,48,312.32c-.91-.69-2,.81-1.22,1.57C61,327.17,75.65,341,84.41,358.66A70.69,70.69,0,0,1,90,374.1c.29,1.25,2.2.72,1.93-.54a90.89,90.89,0,0,0-23.27-43.75,90.26,90.26,0,0,0-10.51-9.31c-.92-.7-2,.79-1.21,1.57a121.71,121.71,0,0,1,20.61,28l1.73-1A82.34,82.34,0,0,0,65,330.37c-1-.93-2.2.43-1.42,1.41A76.07,76.07,0,0,1,75.43,353l1.83-.77a93.89,93.89,0,0,0-15.89-19.57A1,1,0,0,0,60,334.1a77.6,77.6,0,0,1,16.93,25.73l1.83-.77A105.57,105.57,0,0,0,56.57,331.7c-1-.84-2.36.52-1.42,1.42A77.29,77.29,0,0,1,77.3,372.77a74.55,74.55,0,0,1,1.61,13.14l2-.27a214.4,214.4,0,0,1-4.45-24.91l-2,.27q4.94,24.93,9.86,49.87c.22,1.09,2.12.86,2-.27q-1.72-13-3.44-26l-2,.26q1.2,5,2.41,10.07c.26,1.08,2.07.88,2-.26a159.81,159.81,0,0,0-10.83-45.33l-1.93.53q3.75,8.92,7.49,17.86c.48,1.14,2.31.73,1.93-.54a128.38,128.38,0,0,0-18.59-37.57c-.75-1-2.48,0-1.73,1l8.12,11.49c.73,1,2.38.12,1.73-1A102.77,102.77,0,0,0,47,312.5a1,1,0,0,0-1.42,1.41l7.72,9.53L54.69,322a102.42,102.42,0,0,0-16.4-11.47,1,1,0,0,0-1,1.72l12.56,8.18c.94.61,2.1-.85,1.21-1.57l-11.21-9.13-1.21,1.57a90.26,90.26,0,0,1,18.09,13.09c.93.88,2.32-.5,1.41-1.41-9.26-9.28-19.58-19.18-33.19-20.84-1.19-.14-1.25,1.6-.27,2a85.23,85.23,0,0,1,17.57,8.94l1-1.72-12.35-7.47-1,1.72A114.46,114.46,0,0,1,45.6,316.33l1.22-1.57a46.8,46.8,0,0,0-17.12-7.68,1,1,0,0,0-.77,1.83,63.7,63.7,0,0,1,13.43,11.62L43.57,319a186.09,186.09,0,0,0-19.4-11.47l-.5,1.86A26.64,26.64,0,0,1,36,311.75c1.15.53,2.15-1.08,1-1.73Q28.13,305,19.22,300c-.68-.37-1.82.28-1.46,1.13q1.81,4.35,3.64,8.68l1.83-.77c-.69-1.39-1.39-2.77-2.08-4.16l-1.57,1.21a.91.91,0,0,1,.33,1.22h1.93l-.42-2.56-1.93.53a6,6,0,0,1-1.42,5l1.68.44a1.63,1.63,0,0,1,.94-1.84,1,1,0,0,0,.46-1.13l-.88-2.55a1,1,0,0,0-1.93.53,3.73,3.73,0,0,1-3.13,4.53l.77,1.83a7.83,7.83,0,0,0,2.79-9.77l-1.13,1.47a48.94,48.94,0,0,1,11,3.44c1.15.52,2.17-1.12,1-1.73L22.93,302c-1.14-.59-2.15,1.13-1,1.73l16,8.49c1.14.6,2.15-1.12,1-1.73A51.63,51.63,0,0,0,23,305a1,1,0,0,0-.77,1.83A87.44,87.44,0,0,0,40.43,317c1.08.44,1.71-1.26.77-1.83a46.16,46.16,0,0,0-15.54-6c-1-.19-1.87,1.32-.77,1.83a52.76,52.76,0,0,1,14,9.51L40.09,319a106.12,106.12,0,0,0-17.51-9.72c-1.16-.51-2.18,1.21-1,1.73a18.31,18.31,0,0,0,10.48,1.33,1,1,0,0,0,0-1.93,22.69,22.69,0,0,0-11.45,1.28,1,1,0,0,0,.53,1.93A32,32,0,0,1,35,314.74c1.06.32,1.83-1.38.77-1.83A23.43,23.43,0,0,0,17,313c-1.14.49-.24,2,.77,1.82,15.53-2.11,31.73,3.75,42.81,14.72A48.49,48.49,0,0,1,68.65,340a1,1,0,0,0,1.73-1c-3.93-7.41-8.34-15.33-16.11-19.29a1,1,0,0,0-1.22,1.57L67.74,337.5c.77.85,2.12-.24,1.57-1.22-4.48-8-9.75-16.68-18.92-19.73a1,1,0,0,0-1,1.67,123.06,123.06,0,0,1,17.14,21,1,1,0,0,0,1.73-1,65.22,65.22,0,0,0-20-21.4c-.93-.63-2.11.86-1.21,1.57a109.51,109.51,0,0,1,18.65,18.74c.71.9,2.14-.26,1.57-1.22-5.18-8.6-11.74-18.65-22.46-20.4-.88-.15-1.83,1-1,1.67a121.84,121.84,0,0,1,17,17.49c.71.89,2.19-.27,1.57-1.21-4.82-7.41-10.75-15.68-20.19-16.91-1-.13-1.32,1.42-.5,1.86A43,43,0,0,1,59.5,336.7l1.72-1a44.59,44.59,0,0,0-19-18.3l-.77,1.82A25,25,0,0,1,57.77,330.6l1.57-1.21a108.5,108.5,0,0,0-33.2-18.78c-1.22-.43-1.74,1.5-.53,1.92Z"/><path class="cls-1" d="M177.52,463.9a1.71,1.71,0,0,0,.24-.88.41.41,0,0,0,0-.11,2.23,2.23,0,0,0-.05-.36,2.14,2.14,0,0,0-.16-.42,1.62,1.62,0,0,0-.1-.18,2.45,2.45,0,0,0-.29-.35,1.74,1.74,0,0,0-.8-.43.77.77,0,0,0-.4,0,.85.85,0,0,0-.37.12.77.77,0,0,0-.28.26.7.7,0,0,0-.18.34,1.09,1.09,0,0,0,.1.77,1,1,0,0,0,.6.46l.15,0-.24-.1a1,1,0,0,1,.17.1l-.2-.15a1.06,1.06,0,0,1,.15.15l-.16-.2a.71.71,0,0,1,.13.22l-.1-.24a1.09,1.09,0,0,1,.07.24l0-.27a.88.88,0,0,1,0,.23l0-.26a1.33,1.33,0,0,1,0,.19l.1-.24-.05.08a1,1,0,0,0-.1.77.7.7,0,0,0,.18.34.77.77,0,0,0,.28.26,1,1,0,0,0,.77.1,1,1,0,0,0,.6-.46Z"/><path class="cls-1" d="M77.35,400.58c.64,8.65,5.25,16.53,9.1,24.1q6.21,12.19,12.92,24.13c2.27,4.08,4.63,8.15,7.91,11.52.91.93,2.25-.46,1.42-1.42a122.8,122.8,0,0,1-17.36-26,154.72,154.72,0,0,1-6.53-15.49c-1.9-5.15-4.08-10.38-5.2-15.76-1.24-5.92,0-12.15-2-17.94-.34-1-2.06-.92-2,.27A40.08,40.08,0,0,0,79.49,397c2,4.49,4.16,8.93,6.16,13.44Q91.77,424.34,97,438.59q3,8.09,5.6,16.27l1.83-.77L93.55,436.35c-.48-.78-2-.54-1.86.51a25.67,25.67,0,0,0,4.5,11c2.07,3.15,4.32,6.2,6.67,9.15,4.61,5.79,9.87,11.24,16.23,15.13a36.42,36.42,0,0,0,11.5,4.65,1,1,0,0,0,.77-1.83l-17.55-12.22c-.92-.65-2,.82-1.21,1.57a69.65,69.65,0,0,0,11.91,8.53,1,1,0,0,0,1-1.73,70.61,70.61,0,0,1-24.12-26.43l-1.73,1A177.08,177.08,0,0,0,118.73,467c.79.75,2.23-.24,1.57-1.21a331.87,331.87,0,0,1-19.84-33.05c-.6-1.16-2.27-.14-1.72,1a121,121,0,0,0,15.73,24.68c.73.89,2.11-.25,1.57-1.22a388.32,388.32,0,0,1-20.11-41.34c-.48-1.15-2.27-.75-1.93.54A110.82,110.82,0,0,0,113,455a1,1,0,0,0,1.72-1q-5.9-13.72-12.68-27.05c-.51-1-2.22-.3-1.83.77a114.24,114.24,0,0,0,27.51,42.62,1,1,0,0,0,1.41-1.42l-17.92-19.7c-.75-.82-2.26.29-1.57,1.21a81.54,81.54,0,0,0,24.77,22c1.13.65,2-1,1-1.73a204.83,204.83,0,0,1-18.83-14.76l-1.42,1.41c9.26,7.56,20.15,12.54,31,17.4l.77-1.82-12.68-3.27-.53,1.93,21,3.23c1.26.19,1.8-1.73.53-1.93l-10-1.56-.26,2q8.52,1,17.1,1.07v-2a14.83,14.83,0,0,1-6.8-.8l-.54,1.93a92.89,92.89,0,0,0,15.17,1.26c1.32,0,1.23-1.84,0-2a134.41,134.41,0,0,0-27-.78,1,1,0,0,0-.27,2,44.44,44.44,0,0,0,15.62,2.55,1,1,0,0,0,0-2l-24.1-2.11c-1-.09-1.33,1.4-.51,1.87a22.24,22.24,0,0,0,11.68,2.93,1,1,0,0,0,0-2A59.76,59.76,0,0,1,129,471.21c-1.15-.45-1.57,1.21-.77,1.83a23.86,23.86,0,0,0,12.06,4.79c1.11.13,1.37-1.76.27-2a66,66,0,0,1-11.31-3.11c-1.13-.43-1.63,1.21-.77,1.83a30.86,30.86,0,0,0,12.16,5.18c1.25.23,1.8-1.62.54-1.93a67.56,67.56,0,0,1-38.66-26.18,1,1,0,0,0-1.72,1,59.39,59.39,0,0,0,13,16.58l1.41-1.41a92.18,92.18,0,0,1-17-19.82l-1.57,1.22a312.47,312.47,0,0,0,26.56,23c.8.61,1.9-.58,1.37-1.37q-6.37-9.4-13.63-18.15c-.82-1-2.2.42-1.41,1.41a88.28,88.28,0,0,0,20.05,18.43c.81.54,2-.56,1.37-1.37l-21.61-29.52a1,1,0,0,0-1.73,1,99.15,99.15,0,0,0,15.39,21c.9.95,2.23-.44,1.41-1.41-8.25-9.82-16.85-20.21-19.51-33.1l-1.93.54c3.52,15.52,14.53,28.11,27.66,36.59a82.65,82.65,0,0,0,11.88,6.36c1.15.5,2.17-1.09,1-1.73a90.68,90.68,0,0,0-9-4.25l-.54,1.93,20.32,4.62.26-2L140,470c-1.05-.1-1.27,1.37-.5,1.86a27.51,27.51,0,0,0,13.57,4.33c1.11.06,1.38-1.76.26-2l-8.6-1.61c-1.26-.23-1.8,1.7-.53,1.93l8.6,1.6.27-2a25.59,25.59,0,0,1-12.57-4.06L140,472l14.5,1.33c1.13.1,1.36-1.72.27-2l-20.31-4.62a1,1,0,0,0-.54,1.93,85.87,85.87,0,0,1,8.5,4.05l1-1.73c-13.94-6.1-26.85-16-34.11-29.64a48.62,48.62,0,0,1-4.51-12.12c-.29-1.25-2.19-.72-1.93.54,2.73,13.21,11.56,23.9,20,34l1.41-1.41a97.16,97.16,0,0,1-15.07-20.61l-1.73,1,21.61,29.52,1.37-1.37a86.76,86.76,0,0,1-19.65-18.11l-1.41,1.41q7.08,8.55,13.31,17.75l1.37-1.37A306.69,306.69,0,0,1,98,447.82c-.8-.77-2.2.23-1.58,1.21a93.94,93.94,0,0,0,17.35,20.22c1,.84,2.38-.55,1.41-1.41a58.09,58.09,0,0,1-12.67-16.18l-1.72,1a69.63,69.63,0,0,0,39.84,27.1l.54-1.93a29.44,29.44,0,0,1-11.69-5l-.77,1.83A65.74,65.74,0,0,0,140,477.8l.26-2a22,22,0,0,1-11.05-4.52l-.77,1.83a61.62,61.62,0,0,0,16.82,3.95v-2a20.14,20.14,0,0,1-10.67-2.66l-.5,1.86,24.1,2.11v-2a42.81,42.81,0,0,1-15.08-2.48l-.27,2a134.41,134.41,0,0,1,27,.78v-2a89.58,89.58,0,0,1-14.63-1.19,1,1,0,0,0-.54,1.93,16.21,16.21,0,0,0,7.34.87,1,1,0,0,0,0-2q-8.58-.11-17.1-1.07c-1.11-.13-1.38,1.79-.27,2l10,1.56.53-1.93-21-3.23c-1.24-.19-1.81,1.6-.53,1.93l12.68,3.26c1,.28,1.84-1.34.77-1.82-10.65-4.79-21.46-9.66-30.56-17.09-1-.8-2.39.55-1.42,1.41a210.28,210.28,0,0,0,19.24,15.08l1-1.73a79.09,79.09,0,0,1-24.05-21.24l-1.57,1.21,17.92,19.71,1.41-1.42a111.94,111.94,0,0,1-27-41.73l-1.83.77Q107,441.23,113,455l1.72-1a109.15,109.15,0,0,1-18.74-38.12l-1.93.54a395,395,0,0,0,20.31,41.81l1.57-1.21a119.2,119.2,0,0,1-15.42-24.26l-1.72,1a328.91,328.91,0,0,0,19.83,33.06l1.57-1.21a174,174,0,0,1-18.74-20.85,1,1,0,0,0-1.73,1,72.75,72.75,0,0,0,24.84,27.15l1-1.73a66.12,66.12,0,0,1-11.5-8.22l-1.22,1.57,17.55,12.23.77-1.83c-14.09-3-24-14.79-31.87-26.05-2.53-3.61-5-7.51-5.56-12l-1.87.5,10.85,17.74c.57.93,2.19.34,1.83-.77a470.12,470.12,0,0,0-21.77-55c-2.3-4.88-4.64-9.88-5.09-15.33l-2,.27c1.81,5.18.88,10.74,1.68,16.08.82,5.59,3.11,11,5,16.26A145,145,0,0,0,96.49,446a127.54,127.54,0,0,0,10.79,14.33l1.42-1.42a46.5,46.5,0,0,1-7-9.94c-2.12-3.77-4.19-7.55-6.25-11.36-4.14-7.68-8.24-15.41-12-23.3-2-4.35-3.82-8.9-4.18-13.73-.09-1.28-2.09-1.29-2,0Z"/><path class="cls-1" d="M144.28,475.71a15.24,15.24,0,0,0,9.62,2c1.23-.15,1.32-2.05,0-2a78.29,78.29,0,0,1-10.5-.32c-1.16-.12-1.3,1.64-.27,2a33,33,0,0,0,17.3.68c1.19-.27.78-1.85-.26-2l-19-2.15c-1.1-.12-1.2,1.35-.51,1.86a16.84,16.84,0,0,0,13.78,2.84c.92-.2,1-1.77,0-1.92a108.8,108.8,0,0,0-14.07-1.26,1,1,0,0,0-.87,1.51,6.63,6.63,0,0,0,5.2,2.88,47.9,47.9,0,0,0,8.38-.14c6.4-.36,12.78-1,19.12-2,1.12-.17.85-2-.26-2a92.77,92.77,0,0,1-16.74-.8v1.93q7.35-1.51,14.79-2.57c1.12-.16.86-2-.26-2a53.77,53.77,0,0,1-16.38-1.53v1.92a99.21,99.21,0,0,0,14.13-3.4,1,1,0,0,0-.53-1.93,80,80,0,0,1-13.48,2.24c-1.27.1-1.3,2.05,0,2a61.84,61.84,0,0,0,16.84-3,1,1,0,0,0-.53-1.93l-9.58,1.48.54,1.93a80,80,0,0,0,12.21-5.29l-1-1.72L165.54,467l1,1.73a21.49,21.49,0,0,1,5.93-3.27l-.77-1.82-12.21,6.27c-1.06.55-.29,2.05.77,1.83l12.21-2.48c1.28-.26.71-2.12-.53-1.93l-10.2,1.6c-1.07.16-.83,1.63,0,1.92a21.61,21.61,0,0,0,13.26.38,1,1,0,0,0-.27-2,50.85,50.85,0,0,0-13,1.3,1,1,0,0,0-.24,1.83,19.49,19.49,0,0,0,14.2,2.06,1,1,0,0,0,0-1.93,15.33,15.33,0,0,0-11.37,1.1,1,1,0,0,0,0,1.73,13.5,13.5,0,0,0,12.1-.34,1,1,0,0,0-.5-1.87,46.08,46.08,0,0,0-11.31.52c-1.05.17-.85,1.64,0,1.93a16.39,16.39,0,0,0,9.41.31c.89-.23,1-1.77,0-1.93l-19.58-3a1,1,0,0,0-.53,1.93,27,27,0,0,0,8.68,1.06c.9,0,1.47-1.43.5-1.86-10.64-4.73-22.9-5.66-32.66-12.35a1,1,0,0,0-1.47,1.13c2.61,8,12.28,7.44,18.89,9.12l.53-1.93a93.54,93.54,0,0,1-21.19-6.54,1,1,0,0,0-1.37,1.37c1.69,3.34,5,5.27,8.18,6.91,4.25,2.18,8.56,4.26,12.88,6.28l.77-1.82a76.09,76.09,0,0,1-16.93-4.74c-1.07-.44-1.73,1.28-.77,1.83,7.2,4.15,14.83,8.31,23.33,8.64a23,23,0,0,0,11.28-2.28c2.53-1.28,6.14-4.37,4.22-7.55-2.49-4.13-7.59.08-10.9-1.08l-.26,2a15.13,15.13,0,0,0,6.46-1.84,1,1,0,0,0-.24-1.82,19.06,19.06,0,0,0-9.4.11c-1.26.33-.72,2.17.53,1.93a61.26,61.26,0,0,0,12.55-3.9c1-.45,2.06-.93,3.07-1.44.41-.21.8-.43,1.21-.63.85-.41.81.25,1,.94.58,2.4,1.14,4.8,1.71,7.21.26,1.07,2,.87,2-.27a8.49,8.49,0,0,0-3.26-6.21,1,1,0,0,0-1.57.2c-2.61,3.64,1.08,7.17,3.87,9.13l1-1.73a2.06,2.06,0,0,0-2.62.26,1,1,0,0,0-.16,1.21,2.5,2.5,0,0,0,2.55,1.44c.48-.05,1.07-.42,1-1a12.44,12.44,0,0,0-3.48-7.26,1,1,0,0,0-1.67,1,10.19,10.19,0,0,0,4.31,6.15c.7.48,1.41-.18,1.5-.86a6.19,6.19,0,0,0-1.88-5.27,1,1,0,0,0-1.67,1,11.24,11.24,0,0,0,2.12,4.94c.61.81,2.29.38,1.83-.77l-3.65-9.2-1.47,1.13a3.9,3.9,0,0,1,1.87,3.34h2a40.54,40.54,0,0,0-1.31-6.74,1,1,0,0,0-2,.26,19.65,19.65,0,0,0,.6,6.7,1,1,0,0,0,2-.27,14.6,14.6,0,0,1,1.66-7.5l-1.86-.51a97.46,97.46,0,0,0,.89,17.07l1.83-.77-3.15-5.58a1,1,0,0,0-1.82.23,7.5,7.5,0,0,0,.28,5.75l1.36-1.37a11,11,0,0,1-2.83-3.07c-.69-1.09-2.42-.09-1.73,1a13.79,13.79,0,0,0,3.55,3.79c.91.67,1.72-.57,1.37-1.37a5.51,5.51,0,0,1-.08-4.2l-1.82.24,3.14,5.58c.6,1.06,2,.27,1.83-.77a93.34,93.34,0,0,1-.82-16.54,1,1,0,0,0-1.87-.5,16.79,16.79,0,0,0-1.93,8.51l2-.26a18.07,18.07,0,0,1-.53-6.17l-2,.27a37.72,37.72,0,0,1,1.24,6.21c.14,1.25,2,1.32,2,0a6,6,0,0,0-2.86-5.07c-.69-.44-1.79.31-1.47,1.13l3.65,9.2,1.83-.77a9.94,9.94,0,0,1-1.92-4.47l-1.67,1a4.34,4.34,0,0,1,1.29,3.85l1.5-.86a8.16,8.16,0,0,1-3.38-5l-1.68,1a10.11,10.11,0,0,1,2.9,5.84l1-1a.67.67,0,0,1-.82-.45l-.16,1.22.2.05c1.1.7,2-1,1-1.73-1.92-1.35-5-3.78-3.15-6.39l-1.57.2a6.65,6.65,0,0,1,2.67,4.8l2-.27a83.73,83.73,0,0,0-2-8.17c-.9-2.57-3.12-1.43-4.88-.54a58.72,58.72,0,0,1-15.14,5.14l.53,1.93a16.71,16.71,0,0,1,8.34-.11l-.24-1.83a12.88,12.88,0,0,1-5.45,1.56,1,1,0,0,0-.27,2c2.13.75,4.09-.11,6.18-.55,1.53-.32,4.36-.13,3.64,2.18-.6,1.93-2.84,3.06-4.54,3.79a20.07,20.07,0,0,1-6.24,1.51c-9.27.76-17.67-3.84-25.43-8.31l-.77,1.83a75.94,75.94,0,0,0,16.93,4.74c1,.16,1.89-1.31.77-1.83q-6.1-2.86-12.12-5.9c-3.16-1.59-6.56-3.28-8.22-6.58l-1.37,1.37A96.07,96.07,0,0,0,147.85,470c1.24.23,1.79-1.61.53-1.93-5.67-1.44-15.22-.79-17.49-7.73l-1.47,1.13c9.79,6.72,22,7.61,32.66,12.35l.51-1.86a24.92,24.92,0,0,1-8.15-1l-.53,1.93,19.58,3v-1.93a14.41,14.41,0,0,1-8.35-.31v1.93a44.22,44.22,0,0,1,10.78-.45l-.51-1.86a11.35,11.35,0,0,1-10.08.34v1.73a13.21,13.21,0,0,1,9.83-.9v-1.93a17.33,17.33,0,0,1-12.66-1.86l-.24,1.83a48.06,48.06,0,0,1,12.48-1.23l-.27-2a19.76,19.76,0,0,1-12.19-.37v1.92l10.2-1.59-.53-1.93-12.21,2.48.77,1.83,12.21-6.28c1-.51.3-2.21-.77-1.82a23,23,0,0,0-6.41,3.46c-1,.76-.12,2.42,1,1.73l6.37-3.92a1,1,0,0,0-1-1.72,77.77,77.77,0,0,1-11.74,5.08,1,1,0,0,0,.54,1.93l9.57-1.48-.53-1.93a59.59,59.59,0,0,1-16.31,2.94v2a83.07,83.07,0,0,0,14-2.31l-.53-1.93a100.61,100.61,0,0,1-14.13,3.41c-1,.16-.91,1.69,0,1.92a55.37,55.37,0,0,0,16.91,1.61l-.27-2q-7.44,1.05-14.8,2.57c-.92.2-1,1.79,0,1.93a95.12,95.12,0,0,0,17.28.87l-.27-2c-5.67.86-11.39,1.48-17.12,1.84-2.65.17-5.32.36-8,.34-1.91,0-4.25-.21-5.35-2l-.86,1.5a107.88,107.88,0,0,1,13.54,1.18v-1.92A15,15,0,0,1,141.64,474l-.5,1.86,19,2.15-.27-2a30.85,30.85,0,0,1-16.23-.68l-.27,2a78.29,78.29,0,0,0,10.5.32v-2a13.52,13.52,0,0,1-8.61-1.68,1,1,0,0,0-1,1.72Z"/><path class="cls-1" d="M182.48,476.42h-.54l1,.74a34,34,0,0,1-2.43-12.44,1,1,0,0,0-1-1,1.64,1.64,0,0,0-1.6,1.56,18,18,0,0,0-.14,3.67,27.8,27.8,0,0,0,1.21,7.12l1.82-.77a27.31,27.31,0,0,1-2-8.7,1,1,0,0,0-2,0,20.79,20.79,0,0,0,1.27,9,1,1,0,0,0,2-.26c0-4.67-1.92-9.18-1.36-13.87h-2a20.24,20.24,0,0,0,.69,5.37,1,1,0,0,0,1.93-.53,18,18,0,0,1-.62-4.84c0-1.31-1.85-1.24-2,0-.56,4.7,1.36,9.2,1.36,13.87l2-.27a19.44,19.44,0,0,1-1.2-8.44h-2a30,30,0,0,0,2.24,9.71c.48,1,2.15.3,1.83-.77a25.43,25.43,0,0,1-1.06-5.26c-.07-.83-.1-1.68-.09-2.52,0-.44,0-.89,0-1.33a4.12,4.12,0,0,0,0-.7c0-.5.36,0-.34,0l-1-1a35.78,35.78,0,0,0,2.5,13,1,1,0,0,0,1,.73h.54a1,1,0,0,0,0-2Z"/><path class="cls-1" d="M179,461.85a36.06,36.06,0,0,0,1.16,6.85l1.83-.77a14.58,14.58,0,0,1-.9-3.85,5.22,5.22,0,0,0-1.23-3c-.72-.79-1.85.06-1.67,1a62.93,62.93,0,0,0,2.15,8c.41,1.21,1,2.41,1.25,3.65s.45,2.65.65,4l1.83-.77a18.48,18.48,0,0,1-.81-3.77,37.57,37.57,0,0,0-1-3.78,27.28,27.28,0,0,1-.78-3.65,11.35,11.35,0,0,0-.55-1.89,7.31,7.31,0,0,0-.63-1.6c-.37.11-.44.2-.21.29a.56.56,0,0,1,.28.27,4.58,4.58,0,0,1,.37.69l.84,1.77A15.5,15.5,0,0,1,183,469a14.18,14.18,0,0,1,0,3.85,17.75,17.75,0,0,1-.68,4.09,1,1,0,0,0,1.67,1,3,3,0,0,0,.53-2.77c-.17-1.3-.39-2.59-.65-3.88a13.43,13.43,0,0,0-2.63-6.22l.16,1.21-.13.09a1,1,0,0,0,.46-1.13c-.31-.75-.46-1.61-.8-2.32-.06-.13,0-.51-.16-.05s-.08.24.2.42a7.28,7.28,0,0,1,.8.67,7.83,7.83,0,0,1,2.24,4.12c.75,3.34.45,6.88-1.74,9.63l1.57,1.21a14.29,14.29,0,0,0,1.73-4,1,1,0,0,0-1.93-.53,12.45,12.45,0,0,1-1.52,3.51c-.59.94.85,2.11,1.57,1.21a12,12,0,0,0,2.62-6.18,14.83,14.83,0,0,0-1.09-7.56,9.54,9.54,0,0,0-1.75-2.56A6.16,6.16,0,0,0,181,461a1.61,1.61,0,0,0-2,1.43,7.42,7.42,0,0,0,.88,3.3l.46-1.13a1.62,1.62,0,0,0-.59.63,1,1,0,0,0,.16,1.21,10.72,10.72,0,0,1,2,4.74c.2.93.38,1.86.53,2.8.08.49.16,1,.22,1.47,0,.24.21.84,0,1l1.67,1a17.68,17.68,0,0,0,.68-3.83,22.78,22.78,0,0,0,.14-4c-.23-2.6-1.57-4.93-2.7-7.24a3,3,0,0,0-2.36-2,1.65,1.65,0,0,0-1.81,1.94c.2,1.16.89,2.24,1.16,3.4s.34,2.44.73,3.65a41.07,41.07,0,0,1,1.2,4.38,19,19,0,0,0,1,4.08c.51,1.12,2,.25,1.83-.77-.2-1.31-.33-2.67-.65-4s-.84-2.44-1.25-3.65a59.47,59.47,0,0,1-2.15-8l-1.67,1a5,5,0,0,1,.8,2.77,13.52,13.52,0,0,0,1,3.63c.46,1.05,2.12.29,1.83-.78a33.73,33.73,0,0,1-1.09-6.31c-.09-1.27-2.09-1.28-2,0Z"/><path class="cls-1" d="M330.39,396.92a68.8,68.8,0,0,1,12.08,41.3,1,1,0,0,0,2,.26c1.52-7-1-13.87-3.34-20.4s-4.8-13-8.55-18.89l-1.73,1c8,10.78,11.46,23.92,14.13,36.85.22,1.09,2.06.87,2-.26a73.67,73.67,0,0,0-15.28-38.9l-1.42,1.41c10.07,10.29,14.48,24.62,16.2,38.6.15,1.24,2.07,1.32,2,0a81.56,81.56,0,0,0-14.51-42.37l-1.57,1.22c8.66,10.9,12.65,24.63,14.75,38.19.17,1.1,2.06.85,2-.27a87.68,87.68,0,0,0-11.66-37l-1.73,1c4,5.33,6.46,11.57,8.55,17.83,2.19,6.52,3.87,13.2,5.54,19.87a1,1,0,0,0,2-.27A72.63,72.63,0,0,0,340,396.6l-1.57,1.21c4,4.94,6,11.44,7.83,17.44,1.91,6.31,3.33,12.75,4.76,19.19.28,1.27,2.14.72,1.92-.53a91.91,91.91,0,0,0-6.15-19.9c-1.26-3-2.59-6-4-8.91a14.88,14.88,0,0,0-5.23-6.47c-1.1-.67-2.1,1-1,1.73,2.56,1.63,4,4.39,5.2,7.08,1.51,3.31,2.89,6.69,4.15,10.1,2.45,6.65,5.18,13.84,4.25,21h2a62.71,62.71,0,0,0-13.15-40.64l-1.22,1.58c2.93,2,5.08,5.12,7,8.08a49.95,49.95,0,0,1,7.6,29.56c-.07,1.29,1.93,1.28,2,0a52,52,0,0,0-8.21-31.09c-2-3.09-4.28-6.18-7.34-8.28-1-.7-1.84.75-1.21,1.57a60.5,60.5,0,0,1,12.57,39.22c0,1.32,1.84,1.23,2,0,1-7.66-2-15.41-4.65-22.45-1.32-3.51-2.74-7-4.34-10.39-1.32-2.79-3-5.42-5.6-7.11l-1,1.73c2.38,1.46,3.68,4,4.84,6.44,1.42,3,2.78,6,4,9A89.73,89.73,0,0,1,351,434.44l1.92-.53c-1.49-6.74-3-13.49-5-20.09-1.88-6.07-4-12.43-8.07-17.43-.71-.88-2.19.27-1.57,1.22a70.68,70.68,0,0,1,11.48,38.53l2-.27c-1.71-6.82-3.43-13.65-5.69-20.32-2.12-6.25-4.63-12.52-8.6-17.85-.75-1-2.39-.13-1.73,1a85.26,85.26,0,0,1,11.39,36l2-.26c-2.16-14-6.37-27.88-15.27-39.08-.7-.88-2.22.28-1.57,1.21A79.5,79.5,0,0,1,346.4,437.9h2c-1.78-14.52-6.32-29.32-16.78-40-.93-.95-2.19.43-1.42,1.41a71.27,71.27,0,0,1,14.7,37.49l2-.27c-2.69-13.09-6.26-26.43-14.32-37.33-.75-1-2.44-.1-1.73,1,3.58,5.58,6,11.77,8.2,18s5,13,3.49,19.77l2,.27a70.66,70.66,0,0,0-12.35-42.31c-.73-1.05-2.46-.05-1.73,1Z"/><path class="cls-1" d="M353.78,455.16c-1.41,6.71.32,13.46,3.33,19.48a82.57,82.57,0,0,0,5.26,8.76c1.83,2.75,3.76,5.67,3.69,9.1a1,1,0,0,0,2,0c.22-6.5-2.81-12.4-6.37-17.63-1.81-2.66-3.8-5.21-5.54-7.91s-3.25-6.08-1.37-9.07l-1.83-.77c-1.06,5.85,1.51,11.35,4.62,16.15s7.13,9.67,7.93,15.6c.14,1,1.74,1.49,2,.27a19.64,19.64,0,0,0-4.17-16c-1.89-2.46-3.8-4.82-4.86-7.77a19.63,19.63,0,0,1-1-9c.13-1.17-1.63-1.28-2-.27-2,6.1,2.68,11.21,6.05,15.7a19.9,19.9,0,0,1,3.84,8.74c.63,3.5,1.12,7,1.68,10.54.19,1.19,1.87.77,2-.27.55-5.82-2.59-11-5.73-15.65-3.29-4.84-7.33-10.43-6.22-16.64h-1.93a44.49,44.49,0,0,0,2.83,6.76c1.22,2.34,2.74,4.47,4.17,6.68,2.92,4.5,4.2,9.47,5.33,14.65.28,1.25,2.21.72,1.93-.53-1.1-5-2.31-10-5-14.36-1.36-2.18-2.89-4.24-4.14-6.47a41,41,0,0,1-3.15-7.26c-.29-.86-1.75-1-1.93,0-1.08,6,1.94,11.56,5.21,16.41s7.26,10.16,6.67,16.41l2-.27c-.53-3.35-1-6.72-1.61-10.07a20.47,20.47,0,0,0-3.16-8.34c-3-4.5-8.8-9.44-6.8-15.5l-2-.26a21.61,21.61,0,0,0,4.61,15.83c1.8,2.35,3.73,4.61,4.75,7.44a17.1,17.1,0,0,1,.71,8.91l2,.26c-.75-5.61-3.92-10.23-7-14.82-3.22-4.77-6.69-10.38-5.6-16.4a1,1,0,0,0-1.83-.77c-3.66,5.84,2.1,12.19,5.32,16.71,4,5.6,7.93,11.77,7.69,18.91h2c.06-3-1.22-5.79-2.8-8.32-1.78-2.85-3.73-5.59-5.36-8.54-3.35-6-5.65-13-4.19-19.94.26-1.26-1.67-1.8-1.93-.54Z"/><path class="cls-1" d="M192,450.14c-.69-.64.11-2.36.34-3.09.37-1.14.79-2.26,1.23-3.38a66.62,66.62,0,0,0,2.42-6.54,18.31,18.31,0,0,0,.76-6.7c-.23-2.36-1.79-4.81-1.42-7.18l-2-.27a60,60,0,0,0,.51,7.7c.17,1.22.36,2.44.6,3.65a16.84,16.84,0,0,1,.58,3.86c-.08,2.35-2.25,4.12-3.27,6.12a33.12,33.12,0,0,0-2.36,6.86h1.93a15.34,15.34,0,0,1,1.38-8.56c1.14-2.56,2.95-4.71,4.15-7.22a9.33,9.33,0,0,0,.21-7.33c-.82-2.46-2.28-5.4-.66-7.85l-1.83-.77a17,17,0,0,0-.62,7.67c.4,2.67,1.63,5.17,1.72,7.88a1,1,0,0,0,2,0c.15-2.81-1.81-4.92-2.5-7.52-.79-3,0-6.1.66-9a1,1,0,0,0-1.93-.54c-1.78,5.26,1,10.45.6,15.75a24.49,24.49,0,0,1-2.8,8.37c-1.21,2.54-2.23,5.05-1.83,7.91.18,1.26,2.1.72,1.93-.54-.41-2.93,1.36-5.66,2.51-8.23a22.94,22.94,0,0,0,2.19-7.51c.41-5.09-2.37-10.21-.67-15.21l-1.93-.54c-.68,2.87-1.34,5.85-.91,8.81a12.72,12.72,0,0,0,1.28,3.83c.7,1.43,1.49,2.78,1.4,4.42h2c-.08-2.46-1-4.71-1.55-7.09a15.15,15.15,0,0,1,.38-7.93c.35-1.12-1.22-1.68-1.83-.77-1.51,2.28-1,5.07-.2,7.51a19.63,19.63,0,0,1,1.27,4.38,7.13,7.13,0,0,1-1.2,4.38,50.07,50.07,0,0,0-4.17,7.6,16.77,16.77,0,0,0-1,8.64c.16,1,1.7.89,1.93,0a27.84,27.84,0,0,1,2.57-7.16c1.16-2,2.89-3.54,3.1-5.93s-.67-4.83-1-7.16a57.32,57.32,0,0,1-.63-8.48c0-1.09-1.78-1.41-2-.27-.42,2.65,1,4.86,1.3,7.42a17.94,17.94,0,0,1-1.19,8.19c-.86,2.48-2,4.86-2.82,7.34-.6,1.74-1.74,4.39-.11,5.89.94.88,2.36-.53,1.41-1.41Z"/><path class="cls-1" d="M190,450.34a14.5,14.5,0,0,1,.25-7.51c.63-2.37,1.74-4.57,2.4-6.92a26.75,26.75,0,0,0,.69-7,17.58,17.58,0,0,0-1-7l-1.83.77a21.57,21.57,0,0,1,1.1,13.34c-1,4-3.9,7.89-2.73,12.2a1,1,0,0,0,2-.26,28.08,28.08,0,0,1,1-9c.76-2.65,2-5.25,1.83-8.08s-1.42-5.5-.87-8.38,2.12-5.23,3.63-7.58l-1.73-1c-2.87,6.31-1.12,13.13-1.46,19.77a19.08,19.08,0,0,1-.92,5.14c-.59,1.75-1.51,3.36-2.25,5-1.27,2.92-2,6.18-.4,9.13l1.58-1.21c-2.43-2.48-2.79-6.9-2-10.15.3-1.25-1.63-1.79-1.93-.53-.94,4-.43,9.09,2.52,12.09a1,1,0,0,0,1.57-1.21c-1.68-3.15.16-6.64,1.53-9.52a22.57,22.57,0,0,0,2.31-8.78c.32-6.18-1.49-12.89,1.19-18.76a1,1,0,0,0-1.73-1,25.92,25.92,0,0,0-3.69,7.45c-.74,2.94.07,5.53.54,8.42.51,3.14-.88,5.93-1.7,8.88a29.92,29.92,0,0,0-1,9.28l2-.27c-.65-2.43.4-4.77,1.31-7a26.07,26.07,0,0,0,1.83-6.29,23.87,23.87,0,0,0-1.7-12.74c-.44-1-2.27-.28-1.83.77a17.24,17.24,0,0,1,.9,7.1,22.24,22.24,0,0,1-1.16,7.47c-1.64,4.52-3.36,8.95-2.09,13.81a1,1,0,0,0,1.92-.53Z"/></g></g></svg>