<svg xmlns="http://www.w3.org/2000/svg" viewBox="0 0 242.95 441.88"><defs><style>.cls-1{fill:#fff;}</style></defs><title>water3</title><g id="Layer_2" data-name="Layer 2"><g id="Layer_1-2" data-name="Layer 1"><path class="cls-1" d="M97.53,7.82c3.69-6.08,11.67-5.23,17.82-5.33,6.69-.12,13.38-.35,20.06-.33,5.14,0,12,.7,13.54,6.64.74,2.85.17,6-.07,8.91L148,29l-1.71,20.75c-.5,6.12-1.79,13,.76,18.82,3.85,8.81,14.44,11.35,22.76,13.91a91.13,91.13,0,0,1,42.44,27.73c3.57,4.14,6.36,8.94,10.43,12.64a21.13,21.13,0,0,1,3.74,3.76,21.81,21.81,0,0,1,2.79,6,31.45,31.45,0,0,1,.6,12.78c-1.2,9.66-4,19-3.92,28.82a52.19,52.19,0,0,0,2.6,16.5c1.12,3.28,3,5.73,4.88,8.56,2.71,4.06,3.56,9.18,4.11,13.94a99.68,99.68,0,0,1,.49,15.45,211.3,211.3,0,0,1-3.36,28.82c-1,5.5-2.35,11.17-2.23,16.78.27,13.83,1.07,27.66,1.61,41.48l.84,21.65a74.29,74.29,0,0,0,2.59,18.41c.67,2.25,1.42,4.49,2.28,6.67a20.9,20.9,0,0,1,1.12,2.9c.54,2.4,0,5.21-.37,7.58a80.85,80.85,0,0,1-9.08,25.1,71.17,71.17,0,0,1-20,23.42,72.4,72.4,0,0,1-24.83,11.35c-19.92,5.21-41.1,5.4-61.56,6.36-17.89.85-35.89,1.29-53.75-.32-16.63-1.5-34.68-4.52-48.7-14.19A41,41,0,0,1,8.89,408.68c-4.87-9.85-8-21.06-5-32,1.1-4,2.81-7.88,4.29-11.79a68.07,68.07,0,0,0,3.9-14.49c.7-5,1-10.19-.08-15.09Q9.65,324.76,8.26,314a264.3,264.3,0,0,1-1.77-40.17,165.89,165.89,0,0,0-1.18-22.5C4.4,243.08,2.15,234.8,2,226.5a26.73,26.73,0,0,1,1.5-9.38,19,19,0,0,1,3.8-6.7,35.55,35.55,0,0,0,3.63-4.12c4.13-6.22,4-14.25,2.06-21.16-2.84-10-6.68-19.74-7.79-30.19-1.15-10.92.51-22.5,9.19-30.06a43,43,0,0,0,5.9-5.54,45.07,45.07,0,0,0,4.23-7.52A31.77,31.77,0,0,1,36.37,99.41a92.85,92.85,0,0,1,15-7.14q9.53-3.81,19.07-7.59l20-8,4.81-1.91c.77-.31,1.81-.47,2.26-1.22.6-1,.54-3.09.71-4.27.26-1.76.48-3.51.67-5.27a132.85,132.85,0,0,0-1.78-40.09c-.64-3.17-3.85-13.21.95-14.66,2.17-.66,5.06,1.05,7.05,1.75a44,44,0,0,0,9.17,1.87,73.34,73.34,0,0,0,18.49-.06c5.6-.74,12-1.67,16.5-5.38,1-.82-.43-2.23-1.41-1.42-3.38,2.8-8.13,3.63-12.33,4.37a70.62,70.62,0,0,1-13.38,1A69.51,69.51,0,0,1,108.82,10c-3.09-.65-5.95-2.37-9.08-2.74-6.41-.74-6.37,7.06-5.7,11.41.53,3.5,1.41,6.94,2,10.44A130.15,130.15,0,0,1,97.44,42.6a134.38,134.38,0,0,1-1.8,30.31l.7-.7-37.71,15C49,91.07,38.44,94.48,30.36,101.31c-4,3.39-6.53,7.46-8.84,12.11a23.08,23.08,0,0,1-4.74,6.79c-2,1.93-4.36,3.55-6.26,5.63C4,133,2.4,143,3,152.31c.63,10,3.72,19.71,6.8,29.22,2.28,7.05,3.67,13.74.88,20.91-1.46,3.74-4.65,5.83-6.75,9.11A26.5,26.5,0,0,0,.26,222.06c-.91,6.68.76,13.48,1.8,20.05a210.81,210.81,0,0,1,2.49,24.57c.15,4-.1,8-.18,11.93q-.21,9.72.39,19.42a241.68,241.68,0,0,0,5.32,37.85c2.16,9.65-.65,20.26-4.11,29.29a116.9,116.9,0,0,0-4,11A38.19,38.19,0,0,0,1.2,391.9a58.93,58.93,0,0,0,8.83,23c8,12.2,22.28,18.4,35.94,21.87,16.57,4.21,33.92,5.13,51,5.16,17.48,0,35-.94,52.45-2.07,18.45-1.19,37.93-2.82,54.63-11.47,16.46-8.54,28-24,34.46-41.11,2.33-6.16,4.42-13,4.47-19.59a13.07,13.07,0,0,0-1.2-5.37,64.7,64.7,0,0,1-4.21-14.79c-.93-6.48-.85-13.14-1.11-19.66l-.78-19.93q-.37-10-.77-19.92c-.22-5.66-1.08-11.72-.33-17.35,1.91-14.44,5-28.68,5.43-43.31a97,97,0,0,0-.6-14.76c-.54-4.3-1.29-8.78-3.3-12.65-1.37-2.63-3.5-4.75-4.77-7.45-2.34-5-3.17-10.83-3.4-16.26-.4-9.52,2-18.63,3.46-27.95,1.22-7.64,1.26-15.41-3-22.21-2-3.25-5.44-5.32-7.84-8.28-3.49-4.31-6.56-8.8-10.43-12.82A93,93,0,0,0,170.58,80.6c-4.53-1.41-9.19-2.63-13.43-4.82-4.53-2.34-8.16-5.83-9.22-11a32.77,32.77,0,0,1-.17-9.12c.27-3.43.56-6.86.85-10.29q.81-9.95,1.63-19.89L151,16c.23-2.78.55-5.71-.34-8.42C147.51-2,133.28.19,125.66.31c-6,.1-12,0-18,.37C102.84,1,98.43,2.49,95.8,6.81c-.67,1.1,1.06,2.11,1.73,1Z"/><path class="cls-1" d="M18.81,121.45c7.89,9.33,20.61,12.38,32.07,14.65a217.68,217.68,0,0,0,41.85,4c28.56.07,56.93-4.6,84.73-10.81,13.08-2.93,27.32-5.93,37.14-15.77a1,1,0,0,0-1.41-1.41c-8.49,8.49-20.52,11.64-31.87,14.25-13.63,3.14-27.36,5.91-41.2,8-27.44,4.12-55.61,5.48-83.09.87a126,126,0,0,1-20.73-4.9C30.21,128.17,24.44,125,20.23,120c-.84-1-2.25.43-1.42,1.41Z"/><path class="cls-1" d="M95.9,73.14c4.81,6,12.26,8.74,19.6,10.07s15.44,2.17,22.84.72a19.83,19.83,0,0,0,10.89-5.68c.88-.94-.53-2.36-1.41-1.42-5,5.4-12.87,6-19.82,5.72s-14.47-1.09-21-3.81a23.84,23.84,0,0,1-9.64-7c-.81-1-2.21.42-1.41,1.41Z"/><path class="cls-1" d="M13.3,206.43q18.75,3.23,37.7,5,22.1,2.09,44.33,2.17,24.47.09,48.85-2.24,22-2.12,43.75-6.17,18.73-3.51,37.16-8.45c1.36-.36,2.71-.73,4.06-1.11a1,1,0,0,0-.53-1.92q-17.79,4.92-35.9,8.52-21.25,4.22-42.82,6.55-24,2.58-48.21,2.8-22.6.21-45.17-1.66-19.31-1.6-38.44-4.73c-1.42-.23-2.83-.46-4.24-.71-1.26-.21-1.8,1.71-.54,1.93Z"/><path class="cls-1" d="M12.83,339.31A328.67,328.67,0,0,0,44.77,348a322.89,322.89,0,0,0,41.39,6.21,312.08,312.08,0,0,0,49.77.18,310.56,310.56,0,0,0,51.69-8.43,311.7,311.7,0,0,0,41.82-13.73l4.3-1.79c1.18-.5.16-2.22-1-1.73a313.28,313.28,0,0,1-40,13.86,306.62,306.62,0,0,1-50.82,9.3,309.89,309.89,0,0,1-50.15.75,316.44,316.44,0,0,1-42.25-5.67,326,326,0,0,1-32.73-8.45c-1.13-.36-2.25-.71-3.37-1.08s-1.75,1.53-.53,1.93Z"/></g></g></svg>